<?xml version="1.0" encoding="utf-8"?>
<!-- Generator: Adobe Illustrator 21.0.1, SVG Export Plug-In . SVG Version: 6.00 Build 0)  -->
<svg version="1.1" xmlns="http://www.w3.org/2000/svg" xmlns:xlink="http://www.w3.org/1999/xlink" x="0px" y="0px"
	 viewBox="0 0 283.2 290.2" style="enable-background:new 0 0 283.2 290.2;" xml:space="preserve">
<style type="text/css">
	.st0{display:none;}
	.st1{display:inline;}
	.st2{fill:#F3CB8C;}
	.st3{fill:#958935;}
	.st4{fill:#7F6A2A;}
	.st5{fill:#EDBA66;}
	.st6{fill:#EAAC47;}
	.st7{fill:#605221;}
	.st8{fill:#3F3415;}
	.st9{fill:#403719;}
	.st10{fill:#231F10;}
	.st11{fill:#7D6B2B;}
	.st12{fill:#9B8632;}
	.st13{fill:#816528;}
	.st14{fill:#A87029;}
	.st15{fill:#998635;}
	.st16{fill:#CF8529;}
	.st17{fill:#DD9C3D;}
	.st18{fill:#F9D19B;}
	.st19{fill:#ECAA52;}
	.st20{fill:#F9C67D;}
	.st21{fill:none;stroke:#000000;stroke-width:2;stroke-miterlimit:10;}
	.st22{fill:#FEE8D9;}
	.st23{fill:#A93D30;}
	.st24{fill:#C2473E;}
	.st25{display:inline;fill:#603913;stroke:#603913;stroke-width:3;stroke-miterlimit:10;}
	.st26{display:inline;fill:none;stroke:#58595B;stroke-width:5;stroke-miterlimit:10;}
	.st27{fill:#878D8E;}
	.st28{clip-path:url(#SVGID_2_);fill:#878D8E;}
	.st29{clip-path:url(#SVGID_4_);fill:#878D8E;}
	.st30{clip-path:url(#SVGID_6_);fill:#878D8E;}
	.st31{clip-path:url(#SVGID_8_);fill:#878D8E;}
	.st32{fill:#010101;}
	.st33{display:inline;fill:#010101;stroke:#000000;stroke-miterlimit:10;}
	.st34{display:inline;fill:none;}
	.st35{font-family:'WorkSans-Regular';}
	.st36{font-size:13px;}
	.st37{fill:#A23635;}
</style>
<g id="fishie" class="st0">
	<g class="st1">
		<polygon class="st2" points="256.6,123.5 167.6,61.8 188.1,122.4 		"/>
		<polygon class="st3" points="109.6,63.9 167.6,61.8 141.8,74.1 		"/>
		<polygon class="st4" points="128.2,80.6 141.8,74.1 109.6,63.9 		"/>
		<polygon class="st5" points="99.1,121.3 188.1,122.4 167.6,61.8 		"/>
		<polygon class="st6" points="73.5,106.9 99.1,121.3 167.6,61.8 		"/>
		<polygon class="st7" points="0,68.5 63.6,115.1 73.5,106.9 		"/>
		<polygon class="st8" points="49.8,126.5 63.6,115.1 0,68.5 		"/>
		<polygon class="st9" points="66.1,134.9 49.8,126.5 16.5,185 		"/>
		<polygon class="st10" points="83.5,142.3 66.1,134.9 16.5,185 		"/>
		<polygon class="st11" points="99.1,121.3 63.6,115.1 73.5,106.9 		"/>
		<polygon class="st12" points="49.8,126.5 99.1,121.3 63.6,115.1 		"/>
		<polygon class="st7" points="66.1,134.9 99.1,121.3 49.8,126.5 		"/>
		<polygon class="st13" points="83.5,142.3 99.1,121.3 66.1,134.9 		"/>
		<polygon class="st14" points="155.6,172.8 99.1,121.3 83.5,142.3 		"/>
		<polygon class="st4" points="102.1,208.3 120.1,157.8 136.2,164.6 		"/>
		<polygon class="st15" points="155.6,172.8 136.2,164.6 102.1,208.3 		"/>
		<polygon class="st16" points="188.1,122.4 155.6,172.8 99.1,121.3 		"/>
		<polygon class="st17" points="256.6,123.5 155.6,172.8 188.1,122.4 		"/>
		<polygon class="st18" points="256.6,123.5 167.6,61.8 188.1,122.4 		"/>
		<polygon class="st19" points="256.6,123.5 155.6,172.8 188.1,122.4 		"/>
		<polygon class="st20" points="167.6,62 227.3,123.3 188.1,122.6 		"/>
		<polygon class="st17" points="188.1,122.4 227.3,123 155.6,172.8 		"/>
		<g>
			<line class="st21" x1="187.4" y1="104.1" x2="202.3" y2="117.3"/>
			<line class="st21" x1="200.7" y1="104.4" x2="190.6" y2="118.6"/>
		</g>
		<polygon class="st22" points="175.5,85.4 141.8,84.2 99.1,121.3 139.7,158.3 165,158.3 181.3,132.9 188.1,122.4 		"/>
		<polygon class="st22" points="99.1,121.3 133.9,105 141.8,84.2 		"/>
		<polygon class="st23" points="145,157.6 99.1,121.3 139.7,158.3 		"/>
		<polygon class="st24" points="99.1,121.3 102.2,123.7 141.8,84.2 		"/>
		<polygon class="st24" points="139.7,158.3 167.2,154.9 165,158.3 		"/>
		<polyline class="st23" points="164.1,155.2 188.1,122.4 167.2,154.9 		"/>
		<polyline class="st24" points="175.5,85.4 186.2,125 188.1,122.4 		"/>
		<line class="st24" x1="137.8" y1="88.2" x2="141.8" y2="84.2"/>
		<path class="st24" d="M139.4,86.6"/>
		<polygon class="st23" points="141.8,84.2 175.5,85.4 140.5,85.6 		"/>
		<path class="st24" d="M139.4,86.6"/>
	</g>
</g>
<g id="Layer_3" class="st0">
	<g class="st1">
		<path class="st5" d="M191.6,55.5l7.3,21.4l-10-29.6c-10.2-4.5-21.4-7.1-33.3-7.1c-3.6,0-7.2,0.3-10.7,0.7l-68.2,59.2l0,0
			l53.8-46.8L191.6,55.5z"/>
		<path class="st6" d="M76.8,100.1l68.2-59.2C112.1,45.2,85.4,68.9,76.8,100.1z"/>
		<path class="st14" d="M126.8,187.8l-50.7-46.2c7.8,31.9,34.4,56.5,67.3,61.4L126.8,187.8L126.8,187.8z"/>
		<polygon class="st16" points="172.6,187.8 214.5,122.8 176.6,181.6 		"/>
		<path class="st16" d="M126.8,187.8l16.7,15.2c4,0.6,8,0.9,12.2,0.9c2.3,0,4.5-0.1,6.8-0.3l10.2-15.8H126.8z"/>
		<path class="st19" d="M224.4,166.3L173,202C194.5,197.4,212.9,184.2,224.4,166.3z"/>
		<path class="st20" d="M214.6,122.7l22.9,0.4c0-0.3,0-0.7,0-1c0-33.3-19.9-62-48.6-74.8l10,29.6L214.6,122.7z"/>
		<path class="st17" d="M224.4,166.3c8.1-12.5,12.8-27.3,13-43.3l-22.9-0.4l-0.1,0.2l-41.9,64.9l0,0l-10.2,15.8
			c3.6-0.3,7.1-0.8,10.6-1.6L224.4,166.3z"/>
		<path class="st22" d="M126.8,187.8l44.2-5.5l43.6-59.6l-3.5,4.8l-19.4-72l-62,0.3l-13.4,35.2l-41.7,19.5
			c-0.5,3.7-0.8,7.6-0.8,11.4c0,5.6,0.6,11,1.6,16.2l61,48.3L126.8,187.8z"/>
		<path class="st22" d="M129.7,55.9l-1.5,0l2.5-2.5l-55.8,55.6c-0.1,0.5-0.2,1.1-0.2,1.7l41.7-19.5L129.7,55.9z"/>
		<path class="st23" d="M136.4,186.6l-61-48.3c0.2,1.1,0.5,2.2,0.8,3.3l50.7,46.2L136.4,186.6z"/>
		<path class="st24" d="M76.8,100.1c-0.8,2.9-1.5,5.8-1.9,8.8l55.8-55.6L76.8,100.1z"/>
		<polygon class="st24" points="171,182.3 126.8,187.8 126.8,187.8 172.6,187.8 172.6,187.8 176.6,181.6 		"/>
		<polygon class="st23" points="176.6,181.6 214.5,122.8 214.6,122.7 171,182.3 		"/>
		<polygon class="st24" points="191.6,55.5 211.1,127.5 214.6,122.7 198.9,76.9 		"/>
		<polygon class="st23" points="128.1,55.9 129.7,55.9 191.6,55.5 130.6,53.4 		"/>
	</g>
	
		<rect x="208.9" y="187.7" transform="matrix(0.8449 -0.5349 0.5349 0.8449 -92.9612 155.8653)" class="st25" width="26.9" height="101"/>
	<circle class="st26" cx="155.6" cy="122" r="81.8"/>
</g>
<g id="waste" class="st0">
	<g class="st1">
		<g>
			
				<rect x="191.9" y="120.8" transform="matrix(0.5141 -0.8578 0.8578 0.5141 -12.1394 226.2628)" class="st27" width="3.4" height="6"/>
			<path class="st27" d="M197,134.9l-0.2-3.3c-0.1-1.6-1.2-3.5-2.6-4.3l-4-2.4c-1.3-0.8-3.1-0.4-3.9,1l-11.5,19.1
				c-0.8,1.3-0.4,3,1,3.8l8.4,4.8c1.4,0.8,3.1,0.3,3.9-1l7.5-12.5C196.5,138.8,197.1,136.5,197,134.9z M194,137.3
				c-0.8,0-1.6-0.6-1.6-1.4l-0.3-4.6c0-0.8,0.6-1.6,1.4-1.6c0.8,0,1.6,0.6,1.6,1.4l0.3,4.6C195.5,136.6,194.9,137.3,194,137.3z"/>
		</g>
	</g>
	<g class="st1">
		<g>
			<defs>
				<rect id="SVGID_1_" x="151.6" y="159.3" width="23" height="23"/>
			</defs>
			<clipPath id="SVGID_2_">
				<use xlink:href="#SVGID_1_"  style="overflow:visible;"/>
			</clipPath>
			<path class="st28" d="M170.8,167.2c-2.2-0.1-2.4-1.6-2.4-2.7c0-1.1-0.8-2-1.8-2c-0.5,0-0.9,0.2-1.2,0.5c-1.7,1.4-2.8,0.1-3.1-0.4
				c0,0,0-0.1-0.1-0.1c0,0,0,0,0,0l0,0c-0.4-0.6-1.2-1-2-1c-1.2,0-2.2,1.1-2.2,2.4c0,0.3,0,0.5,0.2,1.2c0.3,0.7-0.3,1.2-1,0.7
				c-0.6-0.4-1.2-0.7-2-0.7c-1.5,0-2.8,1.4-2.8,3c0,0.9,0.4,1.6,0.9,2.2c0.4,0.3,0.4,0.9,0.2,1.4c-0.2,0.4-0.3,0.9-0.3,1.3
				c0,1.4,1,2.5,2.3,2.5c1.7,0,2.9,0.3,3,2.9c0,1,0.7,1.8,1.6,1.8c0.7,0,1.4-0.5,1.5-1.3l0,0c0.3-1,1.5-2,4-0.3c0,0,0,0,0.1,0
				c0,0,0,0,0,0c0.3,0.2,0.5,0.3,0.9,0.3c0.9,0,1.6-0.7,1.7-1.7c0-0.1,0-0.3,0-0.4c-0.1-2.1,2.5-1.3,2.6-1.2l0,0
				c0.1,0,0.2,0.1,0.4,0.1c0.4,0,0.8-0.4,0.8-0.9c0-0.4-0.2-0.8-0.5-0.9l0,0c-1.9-0.9,0.5-3.5,0.5-3.5l0,0c0.3-0.3,0.5-0.8,0.5-1.3
				C172.5,168,171.7,167.2,170.8,167.2 M153.9,173.4c-0.1,0-0.1-0.1-0.1-0.1v0c0-0.1,0.1-0.1,0.1-0.1s0.1,0.1,0.1,0.1v0
				C154.1,173.3,154,173.4,153.9,173.4L153.9,173.4z M155.2,174.7C155.2,174.7,155.2,174.7,155.2,174.7
				C155.2,174.7,155.2,174.7,155.2,174.7c-0.1,0.1-0.1,0.1-0.1,0.1c0,0,0,0,0,0c0,0,0,0,0,0c0,0-0.1,0-0.1,0c0,0,0,0-0.1,0
				c0,0,0,0-0.1,0c0,0-0.1,0-0.1,0c0,0,0,0-0.1,0c0,0,0,0,0,0c0,0,0,0,0,0c0,0,0,0-0.1,0c0,0,0,0-0.1,0c0,0,0,0-0.1-0.1
				c0,0,0,0-0.1-0.1c0,0-0.1-0.1-0.1-0.1c0,0,0,0,0-0.1c0,0,0,0,0-0.1c0,0,0-0.1-0.1-0.1c0,0,0,0,0-0.1c0,0,0,0,0-0.1c0,0,0,0,0,0
				c0,0,0,0,0,0c0,0,0-0.1,0-0.1c0-0.1,0-0.1,0.1-0.1c0,0,0.1,0,0.1,0c0,0,0,0,0,0.1c0,0,0,0,0,0c0,0,0,0,0,0c0,0,0,0,0,0
				c0,0,0,0,0,0c0,0,0,0.1,0.1,0.1c0,0,0,0,0,0c0,0,0,0,0,0c0,0,0,0,0,0c0,0,0,0,0,0c0,0,0,0,0,0c0,0,0,0,0.1,0c0,0,0.1,0,0.1,0.1
				l0,0l0,0c0,0,0,0,0.1,0c0,0,0.1,0,0.1,0c0,0,0.1,0,0.1,0c0,0,0.1,0,0.1,0c0,0,0,0,0,0c0,0,0,0,0,0c0,0,0,0,0,0c0,0,0,0,0,0l0,0
				C155.3,174.5,155.3,174.6,155.2,174.7 M160.2,162.1c0-0.1,0.1-0.1,0.1-0.1l0,0c0.1,0,0.1,0.1,0.1,0.1c0,0,0,0.1-0.1,0.1
				c0,0,0,0,0,0l0,0C160.2,162.2,160.2,162.2,160.2,162.1 M159.7,179.4C159.7,179.4,159.7,179.4,159.7,179.4
				C159.7,179.4,159.7,179.4,159.7,179.4C159.7,179.4,159.6,179.4,159.7,179.4C159.6,179.4,159.6,179.4,159.7,179.4
				c-0.1,0-0.1,0-0.1,0c0,0,0-0.1,0-0.1c0,0,0,0,0,0c0,0,0,0,0,0c0,0,0,0,0,0c0,0,0,0,0,0c0,0,0,0,0,0
				C159.8,179.4,159.7,179.4,159.7,179.4 M159.9,162.2C159.9,162.2,159.9,162.2,159.9,162.2C159.9,162.2,159.8,162.2,159.9,162.2
				c-0.1,0-0.1,0-0.1,0c0,0,0,0,0,0c0,0,0,0,0,0c0,0,0,0-0.1,0c0,0,0,0-0.1,0c0,0,0,0-0.1,0c0,0-0.1,0-0.1,0.1c0,0-0.1,0.1-0.1,0.1
				c0,0-0.1,0.1-0.1,0.1l0,0c0,0,0,0,0,0c0,0,0,0,0,0.1c0,0,0,0.1-0.1,0.1c0,0,0,0,0,0c0,0,0,0,0,0c0,0,0,0.1-0.1,0.1c0,0,0,0,0,0
				c0,0,0,0,0,0c0,0,0,0,0,0c0,0,0,0,0,0l0,0c0,0-0.1,0-0.1,0c0,0,0,0,0-0.1c0,0,0,0,0,0c0,0,0,0,0-0.1c0,0,0,0,0,0c0,0,0,0,0-0.1
				c0,0,0-0.1,0-0.1c0,0,0,0,0-0.1c0,0,0,0,0-0.1c0,0,0.1-0.1,0.1-0.1c0,0,0,0,0.1-0.1c0,0,0,0,0,0l0,0c0,0,0,0,0.1-0.1
				c0,0,0,0,0.1-0.1c0,0,0,0,0.1-0.1c0,0,0,0,0.1,0c0,0,0.1-0.1,0.1-0.1c0,0,0,0,0.1,0c0,0,0,0,0.1,0c0,0,0,0,0.1,0c0,0,0,0,0.1,0
				c0,0,0,0,0.1,0c0,0,0,0,0.1,0c0,0,0,0,0,0c0,0,0,0,0,0c0,0,0.1,0,0.1,0c0,0,0.1,0.1,0.1,0.1C160,162.2,160,162.2,159.9,162.2
				C160,162.2,159.9,162.2,159.9,162.2 M160.8,179.3c0,0,0,0.1-0.1,0.1c0,0,0,0-0.1,0c0,0,0,0-0.1,0c0,0,0,0-0.1,0c0,0,0,0-0.1,0
				c-0.1,0-0.1,0-0.1,0c0,0-0.1,0-0.1,0c0,0,0,0-0.1,0c0,0,0,0,0,0c0,0,0,0,0,0c0,0-0.1-0.1,0-0.1c0,0,0,0,0,0c0,0,0,0,0,0
				c0,0,0,0,0,0c0,0,0,0,0,0c0,0,0,0,0.1,0c0,0,0,0,0.1,0c0,0,0,0,0.1,0c0,0,0,0,0.1,0c0,0,0.1,0,0.1,0c0,0,0.1,0,0.1,0c0,0,0,0,0,0
				c0,0,0,0,0,0c0,0,0,0,0,0l0,0C160.8,179.2,160.8,179.3,160.8,179.3C160.8,179.3,160.8,179.3,160.8,179.3 M167.4,178
				C167.4,178,167.3,178,167.4,178c0,0.1-0.1,0.1-0.1,0.1c0,0,0,0-0.1,0.1c0,0,0,0,0,0c0,0,0,0,0,0c0,0,0,0,0,0c0,0,0,0-0.1,0
				c0,0-0.1,0-0.1,0c0,0-0.1,0-0.1,0c0,0-0.1,0-0.1,0c0,0-0.1,0-0.1,0c0,0-0.1,0-0.1,0c0,0-0.1,0-0.1,0c0,0-0.1,0-0.1,0c0,0,0,0,0,0
				c0,0,0,0,0,0c0,0,0,0,0,0c0,0,0-0.1,0-0.1c0,0,0,0,0.1,0c0,0,0,0,0.1,0c0,0,0,0,0,0c0,0,0,0,0,0c0,0,0,0,0,0c0,0,0,0,0,0
				c0,0,0.1,0,0.1,0c0,0,0.1,0,0.1,0c0,0,0.1,0,0.1,0c0,0,0.1,0,0.1,0c0,0,0.1,0,0.1,0c0,0,0.1,0,0.1,0c0,0,0.1,0,0.1,0
				c0,0,0.1,0,0.1,0c0,0,0,0,0.1,0c0,0,0,0,0.1,0c0,0,0.1,0,0.1,0l0,0C167.3,177.9,167.4,177.9,167.4,178
				C167.4,177.9,167.4,178,167.4,178 M171.7,168.5C171.7,168.5,171.7,168.5,171.7,168.5C171.7,168.4,171.7,168.4,171.7,168.5
				C171.7,168.4,171.7,168.4,171.7,168.5C171.6,168.4,171.6,168.4,171.7,168.5c-0.1-0.1-0.1-0.1-0.1-0.1c0,0,0,0,0,0c0,0,0,0,0,0
				c0,0,0,0,0,0c0,0,0,0,0,0c0,0,0,0,0,0c0,0,0,0,0,0c0,0,0,0,0,0c0,0,0,0,0,0c0,0,0,0,0,0c0,0,0,0,0,0l0,0c0-0.1,0-0.1,0.1-0.1
				c0,0,0,0,0,0c0,0,0,0,0,0c0,0,0.1,0,0.1,0c0,0,0,0,0.1,0c0,0,0,0,0.1,0c0,0,0,0,0.1,0.1c0,0,0,0,0,0.1c0,0,0.1,0.1,0.1,0.1
				c0,0,0,0,0,0.1c0,0,0,0,0,0.1c0,0,0,0,0,0.1c0,0,0,0,0,0c0,0,0,0,0,0C171.8,168.5,171.8,168.5,171.7,168.5
				C171.7,168.5,171.7,168.5,171.7,168.5C171.7,168.5,171.7,168.5,171.7,168.5 M172,168.8C171.9,168.8,171.9,168.9,172,168.8
				c-0.1,0.1-0.1,0.1-0.1,0.1c-0.1,0-0.1-0.1-0.1-0.1L172,168.8l-0.2,0c0,0,0,0,0,0c0-0.1,0.1-0.1,0.1-0.1
				C171.9,168.7,172,168.7,172,168.8L172,168.8L172,168.8z"/>
		</g>
		<g>
			<defs>
				<rect id="SVGID_3_" x="151.6" y="159.3" width="23" height="23"/>
			</defs>
			<clipPath id="SVGID_4_">
				<use xlink:href="#SVGID_3_"  style="overflow:visible;"/>
			</clipPath>
			<path class="st29" d="M156.2,164c0.3,0,0.5-0.2,0.5-0.5c0-0.3-0.2-0.5-0.5-0.5s-0.5,0.2-0.5,0.5C155.7,163.7,155.9,164,156.2,164
				 M155.9,163.2C155.9,163.2,156,163.2,155.9,163.2c0.1-0.1,0.1-0.1,0.1-0.1c0,0,0,0,0,0c0,0,0,0,0.1,0c0,0,0,0,0,0c0,0,0,0,0,0
				c0,0,0,0,0,0c0,0,0,0,0,0c0,0,0,0,0,0c0,0,0,0,0,0c0,0,0,0,0,0c0,0,0,0,0,0c0,0-0.1,0-0.1,0C156,163.2,156,163.3,155.9,163.2
				C156,163.3,156,163.3,155.9,163.2C155.9,163.3,155.9,163.3,155.9,163.2L155.9,163.2C155.9,163.3,155.9,163.3,155.9,163.2
				C155.9,163.3,155.9,163.3,155.9,163.2C155.9,163.3,155.9,163.2,155.9,163.2"/>
		</g>
		<g>
			<defs>
				<rect id="SVGID_5_" x="151.6" y="159.3" width="23" height="23"/>
			</defs>
			<clipPath id="SVGID_6_">
				<use xlink:href="#SVGID_5_"  style="overflow:visible;"/>
			</clipPath>
			<path class="st30" d="M170.1,176.6c-0.6,0-1.1,0.5-1.1,1c0,0.6,0.5,1,1.1,1c0.6,0,1.1-0.5,1.1-1
				C171.2,177.1,170.7,176.6,170.1,176.6 M169.9,177.1C169.9,177.1,169.9,177.1,169.9,177.1C169.9,177.1,169.9,177.1,169.9,177.1
				C169.9,177.1,169.9,177.1,169.9,177.1c-0.1,0-0.1,0-0.1,0c0,0,0,0,0,0c0,0,0,0,0,0c0,0,0,0,0,0c0,0,0,0,0,0c0,0,0,0-0.1,0
				c0,0,0,0-0.1,0.1c0,0,0,0,0,0.1c0,0,0,0,0,0.1c0,0,0,0,0,0.1c0,0,0,0,0,0c0,0,0,0,0,0c0,0,0,0,0,0.1c0,0,0,0,0,0c0,0,0,0,0,0
				c0,0,0,0,0,0l0,0c0,0-0.1,0.1-0.1,0c0,0,0,0,0,0c0,0,0,0,0-0.1c0,0,0,0,0-0.1c0,0,0,0,0-0.1c0,0,0,0,0,0c0,0,0,0,0,0
				c0,0,0-0.1,0-0.1c0,0,0-0.1,0.1-0.1c0,0,0-0.1,0.1-0.1c0,0,0.1-0.1,0.1-0.1c0,0,0.1,0,0.1-0.1c0,0,0.1,0,0.1,0c0,0,0,0,0,0
				c0,0,0,0,0,0c0,0,0.1,0,0.1,0c0,0,0,0,0,0c0,0,0,0,0,0c0,0,0,0,0,0C170,176.9,170,177,169.9,177.1C170,177,170,177.1,169.9,177.1
				 M170.2,177.1C170.2,177.1,170.2,177.1,170.2,177.1L170.2,177.1C170.1,177.1,170.1,177,170.2,177.1c-0.1-0.1,0-0.1,0-0.1l0,0
				C170.2,177,170.3,177,170.2,177.1C170.2,177.1,170.2,177.1,170.2,177.1"/>
		</g>
		<g>
			<defs>
				<rect id="SVGID_7_" x="151.6" y="159.3" width="23" height="23"/>
			</defs>
			<clipPath id="SVGID_8_">
				<use xlink:href="#SVGID_7_"  style="overflow:visible;"/>
			</clipPath>
			<path class="st31" d="M173.2,175.1c-0.3,0-0.5,0.3-0.5,0.6c0,0.3,0.2,0.6,0.5,0.6c0.3,0,0.5-0.3,0.5-0.6
				C173.8,175.3,173.5,175.1,173.2,175.1 M173.2,175.3C173.2,175.3,173.2,175.3,173.2,175.3C173.2,175.3,173.2,175.3,173.2,175.3
				C173.2,175.3,173.2,175.3,173.2,175.3c-0.1,0-0.1,0-0.1,0c0,0,0,0,0,0c0,0,0,0,0,0c0,0,0,0,0,0c0,0,0,0,0,0s0,0,0,0l0,0
				c0,0-0.1,0-0.1,0c0,0,0,0,0,0c0,0,0,0,0-0.1c0,0,0,0,0,0c0,0,0,0,0.1,0c0,0,0,0,0,0c0,0,0,0,0,0c0,0,0,0,0.1,0c0,0,0,0,0,0
				C173.2,175.2,173.2,175.2,173.2,175.3C173.2,175.2,173.2,175.2,173.2,175.3C173.3,175.2,173.3,175.3,173.2,175.3
				C173.3,175.3,173.3,175.3,173.2,175.3"/>
		</g>
	</g>
	<g class="st1">
		<path class="st32" d="M191.8,107.7c0,0,14.1-24.1-8.3-36.5c0,0-0.1,0-0.1,0c0,0.1,0,0.1,0,0.1s-0.1,0-0.4,0l0,0
			c1.4,3.4,2.6,5.3,5,9.7c0.2,0.5-1.8,0.3-2-0.1c-0.8-1.9-2.6-6.1-3.5-8.4c0.9,2.5,2.6,7.5,3.5,10.2c0.1,0.1-0.3,0.2-0.6,0.2
			c-0.3,0-0.6,0-0.8-0.1c-0.1-0.1-0.2-0.1-0.2-0.1c-0.1-0.2-0.2-0.4-0.2-0.6c-0.2-0.5-0.4-1.1-0.6-1.8c-1.1-3.3-2.3-8.2-2.5-9.2
			c-1.9-0.2-4.8-0.4-7.7-0.5c-0.1,0-0.1-0.1-0.1-0.1c-0.3,0-0.6,0-0.7,0.1C148.3,81.6,157,105,157,105s-2.4,0.6-2.8,3.6
			c-0.1,0.7,3.7,0.2,5.5,0.3l0,0c0,0,2.7-0.5,3.8-0.8c1.5-0.4-2.3,1.1-2.3,1.1c5.9,1.4,18,2.1,26.7,1.6c0,0-3.8-2.1-2.2-1.5
			c1.1,0.4,3.9,1.4,3.9,1.4l-0.1,0c1.1,0.1,3.9,1.6,3.9,1.6C195.1,110.8,191.8,107.7,191.8,107.7z"/>
		<path class="st32" d="M173.4,69c2.7-0.5,4.7-0.3,9.7,0.6c2.2-0.7,4.1-3.8,4.9-5.2c0.4-0.8-1.2-1.4-3.2-1.6c-0.8,1-3.1,5.1-2.6,4.1
			c0.9-2,2.1-4.1,2.1-4.1l0,0c-0.1-0.1,0.1-0.9-0.1-0.9c-4.9-0.1-9.9-1.6-14.9,1C168.6,63.1,171.3,67.9,173.4,69z"/>
		<path class="st32" d="M188.1,110.8L188.1,110.8L188.1,110.8L188.1,110.8z"/>
	</g>
	<g class="st1">
		<path class="st32" d="M88.8,108.2c-0.1,0-0.2,0-0.4,0c-0.5,0.1-0.9,0.5-1.2,1.1c-0.5,1-0.6,2-0.2,2.8c0.4,0.8,1.1,1.4,1.9,1.8
			c1,0.6,2.2,1,3.2,1.4c-2.4,0.4-4.3,0.2-5.7-0.2c-1.7-0.5-2.3-1-2.5-1.2c-0.2-0.2-0.6-0.2-0.8,0c-0.2,0.2-0.1,0.7,0.1,0.8
			c0.2,0.1,1.1,0.9,2.9,1.4c0.7,0.2,1.6,0.4,2.5,0.4c-2.9,1.7-5.8,4.4-7.9,7.4c-2.1,3.2-3.2,6.8-2.2,10.2c0.8,2.5,3,4.1,5.6,5
			c2.6,1,5.5,1.3,8,1.5c2.4,0.1,5.3,0,7.9-0.7c2.6-0.7,4.9-2,6-4.4c1.5-3.1,1.1-6.9-0.4-10.4c-1.4-3.5-3.8-6.6-6.6-8.6
			c-0.3-0.2-0.5-0.4-0.8-0.5c2-0.2,4.3-0.8,5.8-2.7c0.2-0.2,0.1-0.6-0.1-0.8c-0.2-0.2-0.6-0.1-0.8,0.1c-1.3,1.6-3.6,2.2-5.6,2.3
			c-0.9,0.1-1.6,0-2.2-0.1c0.5-0.3,0.8-0.4,1.5-1c0.7-0.5,1.3-1.2,1.7-1.9c0.4-0.7,0.5-1.6,0.1-2.4c-0.3-0.5-0.9-0.8-1.4-0.8
			c-0.6,0-1.1,0.3-1.6,0.8c-0.8,0.8-1.5,2.2-1.9,4.1c-0.6-1.1-1.2-2.2-1.8-3.1c-0.7-1-1.4-2-2.2-2.5c-0.2-0.1-0.4-0.2-0.7-0.3
			C89.1,108.2,88.9,108.2,88.8,108.2z M88.8,109.3c0.1,0,0.3,0,0.4,0.2c0.5,0.3,1.2,1.2,1.9,2.1c0.6,0.9,1.2,2,1.6,2.8
			c-1.1-0.4-2.2-0.8-3.2-1.4c-0.7-0.4-1.2-0.9-1.5-1.4c-0.2-0.5-0.3-1,0.2-1.8C88.4,109.4,88.6,109.3,88.8,109.3
			C88.8,109.3,88.8,109.3,88.8,109.3z M97.4,110.2c0.2,0,0.3,0.1,0.4,0.2c0.2,0.4,0.2,0.7-0.1,1.2c-0.3,0.5-0.8,1.1-1.4,1.6
			c-0.6,0.5-0.9,0.6-1.4,1c0.4-1.7,1-3,1.5-3.5C96.8,110.4,97.2,110.3,97.4,110.2z M94.1,116.4c1.7,0,3.3,0.4,4.5,1.3
			c2.5,1.8,4.9,4.9,6.2,8.1c1.3,3.3,1.7,6.8,0.4,9.5c-0.9,1.9-2.9,3.1-5.3,3.8c-2.4,0.7-5.2,0.8-7.6,0.7c-2.4-0.1-5.2-0.5-7.6-1.4
			c-2.4-0.9-4.3-2.3-4.9-4.3c-0.9-2.9,0.1-6.3,2-9.3c2-3,4.9-5.7,7.7-7.3C90.8,116.7,92.5,116.3,94.1,116.4z"/>
		<path class="st32" d="M85.6,130c0,0.5-0.4,0.9-0.9,0.9c-0.5,0-0.9-0.4-0.9-0.9s0.4-0.9,0.9-0.9C85.2,129.1,85.6,129.5,85.6,130z"
			/>
		<path class="st32" d="M91.1,133.7c0,0.5-0.4,0.9-0.9,0.9s-0.9-0.4-0.9-0.9c0-0.5,0.4-0.9,0.9-0.9S91.1,133.3,91.1,133.7z"/>
		<path class="st32" d="M93.3,132c0,0.5-0.4,0.9-0.9,0.9c-0.5,0-0.9-0.4-0.9-0.9c0-0.5,0.4-0.9,0.9-0.9
			C92.9,131.1,93.3,131.5,93.3,132z"/>
		<path class="st32" d="M87.6,127.8c0,0.5-0.4,0.9-0.9,0.9c-0.5,0-0.9-0.4-0.9-0.9s0.4-0.9,0.9-0.9
			C87.2,126.9,87.6,127.3,87.6,127.8z"/>
		<path class="st32" d="M91.4,130.5c0,0.5-0.4,0.9-0.9,0.9c-0.5,0-0.9-0.4-0.9-0.9c0-0.5,0.4-0.9,0.9-0.9
			C91,129.6,91.4,130,91.4,130.5z"/>
		<path class="st32" d="M95.7,130.7c0,0.5-0.4,0.9-0.9,0.9s-0.9-0.4-0.9-0.9c0-0.5,0.4-0.9,0.9-0.9S95.7,130.2,95.7,130.7z"/>
		<path class="st32" d="M86.6,136.1c0,0.5-0.4,0.9-0.9,0.9s-0.9-0.4-0.9-0.9c0-0.5,0.4-0.9,0.9-0.9S86.6,135.6,86.6,136.1z"/>
		<path class="st32" d="M92,136.3c0,0.5-0.4,0.9-0.9,0.9s-0.9-0.4-0.9-0.9c0-0.5,0.4-0.9,0.9-0.9S92,135.8,92,136.3z"/>
		<path class="st32" d="M95,136.3c0,0.5-0.4,0.9-0.9,0.9c-0.5,0-0.9-0.4-0.9-0.9c0-0.5,0.4-0.9,0.9-0.9
			C94.6,135.5,95,135.8,95,136.3z"/>
		<path class="st32" d="M95.6,133.4c0,0.5-0.4,0.9-0.9,0.9s-0.9-0.4-0.9-0.9c0-0.5,0.4-0.9,0.9-0.9S95.6,132.9,95.6,133.4z"/>
		<path class="st32" d="M101.8,135.4c0,0.5-0.4,0.9-0.9,0.9s-0.9-0.4-0.9-0.9c0-0.5,0.4-0.9,0.9-0.9S101.8,134.9,101.8,135.4z"/>
		<path class="st32" d="M103,128.6c0,0.5-0.4,0.9-0.9,0.9c-0.5,0-0.9-0.4-0.9-0.9c0-0.5,0.4-0.9,0.9-0.9
			C102.6,127.7,103,128.1,103,128.6z"/>
		<path class="st32" d="M100.3,131.4c0,0.5-0.4,0.9-0.9,0.9c-0.5,0-0.9-0.4-0.9-0.9c0-0.5,0.4-0.9,0.9-0.9
			C99.9,130.6,100.3,130.9,100.3,131.4z"/>
		<path class="st32" d="M83.3,129.1c0,0.5-0.4,0.9-0.9,0.9s-0.9-0.4-0.9-0.9s0.4-0.9,0.9-0.9S83.3,128.6,83.3,129.1z"/>
		<path class="st32" d="M104,132.3c0,0.5-0.4,0.9-0.9,0.9c-0.5,0-0.9-0.4-0.9-0.9c0-0.5,0.4-0.9,0.9-0.9
			C103.6,131.4,104,131.8,104,132.3z"/>
		<path class="st32" d="M98.8,127.6c0,0.5-0.4,0.9-0.9,0.9S97,128,97,127.6s0.4-0.9,0.9-0.9S98.8,127.1,98.8,127.6z"/>
		<path class="st32" d="M98.5,137.2c0,0.5-0.4,0.9-0.9,0.9c-0.5,0-0.9-0.4-0.9-0.9c0-0.5,0.4-0.9,0.9-0.9
			C98.1,136.4,98.5,136.8,98.5,137.2z"/>
		<path class="st32" d="M83,134.1c0,0.5-0.4,0.9-0.9,0.9s-0.9-0.4-0.9-0.9c0-0.5,0.4-0.9,0.9-0.9S83,133.6,83,134.1z"/>
		<path class="st32" d="M101.2,124.6c0,0.5-0.4,0.9-0.9,0.9c-0.5,0-0.9-0.4-0.9-0.9c0-0.5,0.4-0.9,0.9-0.9
			C100.8,123.8,101.2,124.2,101.2,124.6z"/>
		<path class="st32" d="M94.5,126.9c0,0.5-0.4,0.9-0.9,0.9s-0.9-0.4-0.9-0.9s0.4-0.9,0.9-0.9S94.5,126.4,94.5,126.9z"/>
		<path class="st32" d="M85.2,125.6c0,0.5-0.4,0.9-0.9,0.9c-0.5,0-0.9-0.4-0.9-0.9s0.4-0.9,0.9-0.9
			C84.8,124.7,85.2,125.1,85.2,125.6z"/>
		<path class="st32" d="M90.5,125.5c0,0.5-0.4,0.9-0.9,0.9s-0.9-0.4-0.9-0.9c0-0.5,0.4-0.9,0.9-0.9S90.5,125,90.5,125.5z"/>
		<path class="st32" d="M97.1,123.7c0,0.5-0.4,0.9-0.9,0.9s-0.9-0.4-0.9-0.9c0-0.5,0.4-0.9,0.9-0.9S97.1,123.2,97.1,123.7z"/>
		<path class="st32" d="M87.8,122.7c0,0.5-0.4,0.9-0.9,0.9c-0.5,0-0.9-0.4-0.9-0.9c0-0.5,0.4-0.9,0.9-0.9
			C87.4,121.8,87.8,122.2,87.8,122.7z"/>
		<path class="st32" d="M92.9,123.4c0,0.5-0.4,0.9-0.9,0.9c-0.5,0-0.9-0.4-0.9-0.9c0-0.5,0.4-0.9,0.9-0.9
			C92.5,122.5,92.9,122.9,92.9,123.4z"/>
		<path class="st32" d="M100.9,127c0,0.5-0.4,0.9-0.9,0.9s-0.9-0.4-0.9-0.9c0-0.5,0.4-0.9,0.9-0.9S100.9,126.5,100.9,127z"/>
		<path class="st32" d="M103,126.2c0,0.5-0.4,0.9-0.9,0.9s-0.9-0.4-0.9-0.9s0.4-0.9,0.9-0.9S103,125.7,103,126.2z"/>
		<path class="st32" d="M102.3,130.8c0,0.5-0.4,0.9-0.9,0.9c-0.5,0-0.9-0.4-0.9-0.9c0-0.5,0.4-0.9,0.9-0.9
			C102,129.9,102.3,130.3,102.3,130.8z"/>
		<path class="st32" d="M88.8,120.6c0,0.5-0.4,0.9-0.9,0.9c-0.5,0-0.9-0.4-0.9-0.9c0-0.5,0.4-0.9,0.9-0.9
			C88.4,119.7,88.8,120.1,88.8,120.6z"/>
		<path class="st32" d="M91.5,121.5c0,0.5-0.4,0.9-0.9,0.9c-0.5,0-0.9-0.4-0.9-0.9s0.4-0.9,0.9-0.9C91.2,120.6,91.5,121,91.5,121.5z
			"/>
		<path class="st32" d="M96.4,128.4c0,0.5-0.4,0.9-0.9,0.9c-0.5,0-0.9-0.4-0.9-0.9c0-0.5,0.4-0.9,0.9-0.9
			C96,127.6,96.4,128,96.4,128.4z"/>
		<path class="st32" d="M99,125.3c0,0.5-0.4,0.9-0.9,0.9c-0.5,0-0.9-0.4-0.9-0.9c0-0.5,0.4-0.9,0.9-0.9
			C98.6,124.4,99,124.8,99,125.3z"/>
		<path class="st32" d="M100.2,129.3c0,0.5-0.4,0.9-0.9,0.9c-0.5,0-0.9-0.4-0.9-0.9c0-0.5,0.4-0.9,0.9-0.9
			C99.8,128.4,100.2,128.8,100.2,129.3z"/>
		<path class="st32" d="M104.5,130.1c0,0.5-0.4,0.9-0.9,0.9c-0.5,0-0.9-0.4-0.9-0.9s0.4-0.9,0.9-0.9
			C104.1,129.2,104.5,129.6,104.5,130.1z"/>
		<path class="st32" d="M96.5,126.1c0,0.5-0.4,0.9-0.9,0.9s-0.9-0.4-0.9-0.9c0-0.5,0.4-0.9,0.9-0.9S96.5,125.6,96.5,126.1z"/>
		<path class="st32" d="M104.1,134.7c0,0.5-0.4,0.9-0.9,0.9c-0.5,0-0.9-0.4-0.9-0.9c0-0.5,0.4-0.9,0.9-0.9
			C103.7,133.8,104.1,134.2,104.1,134.7z"/>
		<path class="st32" d="M97.9,132.6c0,0.5-0.4,0.9-0.9,0.9c-0.5,0-0.9-0.4-0.9-0.9c0-0.5,0.4-0.9,0.9-0.9
			C97.5,131.7,97.9,132.1,97.9,132.6z"/>
		<path class="st32" d="M98,130.4c0,0.5-0.4,0.9-0.9,0.9s-0.9-0.4-0.9-0.9c0-0.5,0.4-0.9,0.9-0.9S98,129.9,98,130.4z"/>
		<path class="st32" d="M94.8,124.6c0,0.5-0.4,0.9-0.9,0.9c-0.5,0-0.9-0.4-0.9-0.9s0.4-0.9,0.9-0.9
			C94.4,123.7,94.8,124.1,94.8,124.6z"/>
		<path class="st32" d="M99.5,134.3c0,0.5-0.4,0.9-0.9,0.9c-0.5,0-0.9-0.4-0.9-0.9c0-0.5,0.4-0.9,0.9-0.9
			C99.1,133.4,99.5,133.8,99.5,134.3z"/>
		<path class="st32" d="M100.7,137.5c0,0.5-0.4,0.9-0.9,0.9c-0.5,0-0.9-0.4-0.9-0.9c0-0.5,0.4-0.9,0.9-0.9
			C100.3,136.6,100.7,137,100.7,137.5z"/>
		<path class="st32" d="M101.7,133.1c0,0.5-0.4,0.9-0.9,0.9c-0.5,0-0.9-0.4-0.9-0.9c0-0.5,0.4-0.9,0.9-0.9
			C101.3,132.2,101.7,132.6,101.7,133.1z"/>
		<path class="st32" d="M99.6,122.6c0,0.5-0.4,0.9-0.9,0.9s-0.9-0.4-0.9-0.9c0-0.5,0.4-0.9,0.9-0.9S99.6,122.1,99.6,122.6z"/>
		<path class="st32" d="M92.2,128c0,0.5-0.4,0.9-0.9,0.9c-0.5,0-0.9-0.4-0.9-0.9s0.4-0.9,0.9-0.9C91.8,127.1,92.2,127.5,92.2,128z"
			/>
		<path class="st32" d="M90.1,127.9c0,0.5-0.4,0.9-0.9,0.9s-0.9-0.4-0.9-0.9s0.4-0.9,0.9-0.9S90.1,127.4,90.1,127.9z"/>
		<path class="st32" d="M94.8,121.8c0,0.5-0.4,0.9-0.9,0.9s-0.9-0.4-0.9-0.9c0-0.5,0.4-0.9,0.9-0.9S94.8,121.3,94.8,121.8z"/>
		<path class="st32" d="M92.4,125.6c0,0.5-0.4,0.9-0.9,0.9s-0.9-0.4-0.9-0.9c0-0.5,0.4-0.9,0.9-0.9S92.4,125.2,92.4,125.6z"/>
		<path class="st32" d="M85.5,123.3c0,0.5-0.4,0.9-0.9,0.9c-0.5,0-0.9-0.4-0.9-0.9s0.4-0.9,0.9-0.9
			C85.1,122.4,85.5,122.8,85.5,123.3z"/>
		<path class="st32" d="M90.5,122.9c0,0.5-0.4,0.9-0.9,0.9c-0.5,0-0.9-0.4-0.9-0.9s0.4-0.9,0.9-0.9C90.1,122,90.5,122.4,90.5,122.9z
			"/>
		<path class="st32" d="M88,125.3c0,0.5-0.4,0.9-0.9,0.9c-0.5,0-0.9-0.4-0.9-0.9c0-0.5,0.4-0.9,0.9-0.9
			C87.6,124.4,88,124.8,88,125.3z"/>
		<path class="st32" d="M84.1,136.2c0,0.5-0.4,0.9-0.9,0.9s-0.9-0.4-0.9-0.9c0-0.5,0.4-0.9,0.9-0.9S84.1,135.7,84.1,136.2z"/>
		<path class="st32" d="M93.4,138.3c0,0.5-0.4,0.9-0.9,0.9s-0.9-0.4-0.9-0.9c0-0.5,0.4-0.9,0.9-0.9C93,137.4,93.4,137.8,93.4,138.3z
			"/>
		<path class="st32" d="M82.9,126.7c0,0.5-0.4,0.9-0.9,0.9c-0.5,0-0.9-0.4-0.9-0.9c0-0.5,0.4-0.9,0.9-0.9
			C82.5,125.8,82.9,126.2,82.9,126.7z"/>
		<path class="st32" d="M86.9,132.1c0,0.5-0.4,0.9-0.9,0.9s-0.9-0.4-0.9-0.9c0-0.5,0.4-0.9,0.9-0.9
			C86.5,131.3,86.9,131.7,86.9,132.1z"/>
		<path class="st32" d="M89.8,135.6c0,0.5-0.4,0.9-0.9,0.9s-0.9-0.4-0.9-0.9c0-0.5,0.4-0.9,0.9-0.9S89.8,135.1,89.8,135.6z"/>
		<path class="st32" d="M90.5,138.2c0,0.5-0.4,0.9-0.9,0.9c-0.5,0-0.9-0.4-0.9-0.9s0.4-0.9,0.9-0.9
			C90.1,137.3,90.5,137.7,90.5,138.2z"/>
		<path class="st32" d="M88.3,137.7c0,0.5-0.4,0.9-0.9,0.9s-0.9-0.4-0.9-0.9c0-0.5,0.4-0.9,0.9-0.9
			C87.9,136.8,88.3,137.2,88.3,137.7z"/>
		<path class="st32" d="M96.2,138.4c0,0.5-0.4,0.9-0.9,0.9c-0.5,0-0.9-0.4-0.9-0.9c0-0.5,0.4-0.9,0.9-0.9
			C95.8,137.5,96.2,137.9,96.2,138.4z"/>
		<path class="st32" d="M88.6,129.9c0,0.5-0.4,0.9-0.9,0.9c-0.5,0-0.9-0.4-0.9-0.9s0.4-0.9,0.9-0.9C88.2,129,88.6,129.4,88.6,129.9z
			"/>
		<path class="st32" d="M81.6,131.2c0,0.5-0.4,0.9-0.9,0.9c-0.5,0-0.9-0.4-0.9-0.9c0-0.5,0.4-0.9,0.9-0.9
			C81.2,130.3,81.6,130.7,81.6,131.2z"/>
		<path class="st32" d="M97,135.1c0,0.5-0.4,0.9-0.9,0.9c-0.5,0-0.9-0.4-0.9-0.9c0-0.5,0.4-0.9,0.9-0.9
			C96.6,134.2,97,134.6,97,135.1z"/>
		<path class="st32" d="M83.7,131.9c0,0.5-0.4,0.9-0.9,0.9s-0.9-0.4-0.9-0.9s0.4-0.9,0.9-0.9S83.7,131.4,83.7,131.9z"/>
		<path class="st32" d="M93.3,134.5c0,0.5-0.4,0.9-0.9,0.9c-0.5,0-0.9-0.4-0.9-0.9c0-0.5,0.4-0.9,0.9-0.9
			C92.9,133.6,93.3,134,93.3,134.5z"/>
		<path class="st32" d="M85.4,127.7c0,0.5-0.4,0.9-0.9,0.9c-0.5,0-0.9-0.4-0.9-0.9c0-0.5,0.4-0.9,0.9-0.9
			C85,126.8,85.4,127.2,85.4,127.7z"/>
		<path class="st32" d="M85.2,133.7c0,0.5-0.4,0.9-0.9,0.9s-0.9-0.4-0.9-0.9s0.4-0.9,0.9-0.9S85.2,133.2,85.2,133.7z"/>
		<path class="st32" d="M88,134.2c0,0.5-0.4,0.9-0.9,0.9s-0.9-0.4-0.9-0.9c0-0.5,0.4-0.9,0.9-0.9S88,133.7,88,134.2z"/>
		<path class="st32" d="M89.7,132c0,0.5-0.4,0.9-0.9,0.9c-0.5,0-0.9-0.4-0.9-0.9s0.4-0.9,0.9-0.9C89.3,131.2,89.7,131.5,89.7,132z"
			/>
		<path class="st32" d="M93.8,129.4c0,0.5-0.4,0.9-0.9,0.9c-0.5,0-0.9-0.4-0.9-0.9s0.4-0.9,0.9-0.9C93.4,128.6,93.8,129,93.8,129.4z
			"/>
		<path class="st32" d="M90.7,119c0,0.5-0.4,0.9-0.9,0.9c-0.5,0-0.9-0.4-0.9-0.9c0-0.5,0.4-0.9,0.9-0.9
			C90.2,118.1,90.7,118.5,90.7,119z"/>
		<path class="st32" d="M97.1,121.2c0,0.5-0.4,0.9-0.9,0.9s-0.9-0.4-0.9-0.9s0.4-0.9,0.9-0.9S97.1,120.8,97.1,121.2z"/>
		<path class="st32" d="M99.2,120.3c0,0.5-0.4,0.9-0.9,0.9c-0.5,0-0.9-0.4-0.9-0.9c0-0.5,0.4-0.9,0.9-0.9
			C98.8,119.4,99.2,119.8,99.2,120.3z"/>
		<path class="st32" d="M93.2,119.5c0,0.5-0.4,0.9-0.9,0.9s-0.9-0.4-0.9-0.9c0-0.5,0.4-0.9,0.9-0.9S93.2,119,93.2,119.5z"/>
		<path class="st32" d="M95.7,118.8c0,0.5-0.4,0.9-0.9,0.9s-0.9-0.4-0.9-0.9s0.4-0.9,0.9-0.9S95.7,118.3,95.7,118.8z"/>
	</g>
	<g class="st1">
		<g transform="translate(-540.000000, -189.000000)">
			<path class="st32" d="M672.7,260l0.4,17.2l18.4-0.4l-0.4-17.2l3.1,3l6-6.3l-9.4-9l-4,0.1c-0.7,2.2-2.7,3.7-5.1,3.8
				c-2.4,0-4.5-1.4-5.3-3.6l-4,0.1l-9,9.4l6.3,6L672.7,260L672.7,260z"/>
		</g>
	</g>
	<g class="st1">
		<path class="st27" d="M117.1,90.8c0.2-0.1,0.4-0.3,0.5-0.4l0.1-0.2l1-2.1c0,0,0,0,0,0c0,0,0,0,0,0l0.5-1.1
			c0.1-0.2,0.3-0.3,0.5-0.2c0.2,0.1,0.3,0.3,0.2,0.5l-0.4,0.8l4.3,2.5l-1.5-6.3c0,0-0.7-2.3-2.7-1.9c-0.9,0.2-1.6,0.8-2.1,1.7
			l-1.8,5l-4.1,1.5c-0.4,0.1-0.7,0.7-0.7,1.1c0,0.7,0.8,1.2,1.6,1L117.1,90.8z"/>
		
			<rect x="123.8" y="79.3" transform="matrix(0.9721 -0.2346 0.2346 0.9721 -15.2968 31.6165)" class="st27" width="3" height="1.6"/>
		<path class="st27" d="M104.6,101.3c-0.1,0-0.2,0-0.3-0.1c-0.2-0.2-0.3-0.5-0.1-0.7l5.6-8c0.2-0.2,0.5-0.3,0.7-0.1s0.3,0.5,0.1,0.7
			l-5.6,8C104.9,101.2,104.8,101.3,104.6,101.3L104.6,101.3z"/>
		<path class="st27" d="M104.1,107c-0.2,0-0.4-0.2-0.5-0.4c0-0.1,0-0.2,0.1-0.3c0.1-0.1,0.2-0.1,0.3-0.2l0,0c0.3,0,0.5,0.2,0.5,0.4
			C104.6,106.8,104.4,107,104.1,107C104.1,107,104.1,107,104.1,107L104.1,107z M104,105.5c-0.2,0-0.4-0.2-0.5-0.4
			c0-0.1,0-0.2,0.1-0.3c0.1-0.1,0.2-0.1,0.3-0.2l0,0c0.3,0,0.5,0.2,0.5,0.4C104.5,105.3,104.3,105.5,104,105.5
			C104.1,105.5,104,105.5,104,105.5L104,105.5z M104,104L104,104c-0.3,0-0.5-0.2-0.5-0.4c0-0.3,0.2-0.5,0.4-0.5c0,0,0,0,0,0
			c0.3,0,0.5,0.2,0.5,0.4c0,0.1,0,0.2-0.1,0.3C104.2,103.9,104.1,104,104,104C104,104,104,104,104,104L104,104z M103.9,102.4
			c-0.2,0-0.4-0.2-0.5-0.4c0-0.1,0-0.2,0.1-0.3c0.1-0.1,0.2-0.1,0.3-0.2l0,0c0.3,0,0.5,0.2,0.5,0.4
			C104.3,102.2,104.2,102.4,103.9,102.4C103.9,102.4,103.9,102.4,103.9,102.4L103.9,102.4z"/>
		<path class="st27" d="M130.1,93.8c-0.2-1.4-1.2-2.8-1.7-3.5l0.9-0.2c0.8-0.2,1.3-1,1.1-1.8l-1.4-6c-0.2-0.8-1-1.3-1.8-1.1
			l-2.8,0.7c-0.8,0.2-1.3,1-1.1,1.8l1.4,6c0.2,0.8,1,1.3,1.8,1.1l1-0.2c0.4,0.5,1.6,2,1.8,3.4c0.2,1.3,0,2.3-0.7,3
			c-0.8,0.8-2,1.1-2.9,1.2l-1.6-6.5l-4.8-2.8l-0.8,1.7l0.7,3.1l-4.7,4.4c-0.3,0.3-0.5,0.9-0.5,1.4l0,6.9c0,0.2,0,0.3,0,0.4
			c0,0.5,0.2,0.9,0.6,1.2c0.4,0.3,0.8,0.5,1.3,0.4c0.9-0.1,1.4-0.6,1.6-1.4l0.1-7.2l3.9-3.2l0.8,3.5c0.1,0.4,0.4,0.7,0.4,0.7
			l4.2,6.6c0.4,0.6,0.9,0.9,1.7,0.9c0.5-0.1,0.9-0.3,1.2-0.6c0.3-0.4,0.5-0.8,0.4-1.3c0-0.3-0.1-0.5-0.2-0.7l-4-6.2l-0.1-0.4
			c1-0.1,2.4-0.4,3.4-1.5C130,96.6,130.3,95.4,130.1,93.8z"/>
		<path class="st27" d="M119.1,79.6L119.1,79.6L119.1,79.6l0-0.8c-0.1-1.4-1.2-2.5-2.6-2.5c-1.4,0-2.6,1.1-2.6,2.5h-2.8v0.8
			L119.1,79.6z"/>
		<path class="st27" d="M101,106.5c-0.1,0-0.2,0-0.3-0.1c-0.2-0.1-0.3-0.4-0.1-0.6c0.1-0.2,0.4-0.3,0.6-0.1c0.2,0.1,0.3,0.4,0.1,0.6
			C101.3,106.4,101.1,106.5,101,106.5L101,106.5z M101.8,105.3c-0.1,0-0.2,0-0.3-0.1c-0.1-0.1-0.2-0.2-0.2-0.3c0-0.1,0-0.2,0.1-0.4
			c0.1-0.2,0.4-0.3,0.6-0.1c0.1,0.1,0.2,0.2,0.2,0.3c0,0.1,0,0.2-0.1,0.3C102.1,105.2,102,105.3,101.8,105.3L101.8,105.3z
			 M102.7,104c-0.1,0-0.2,0-0.3-0.1c-0.2-0.1-0.3-0.4-0.1-0.6c0.1-0.2,0.4-0.3,0.6-0.1c0.1,0.1,0.2,0.2,0.2,0.3c0,0.1,0,0.2-0.1,0.3
			C103,103.9,102.8,104,102.7,104L102.7,104z"/>
		<path class="st27" d="M99.5,103.6c-0.2,0-0.4-0.1-0.4-0.3c-0.1-0.3,0.1-0.5,0.3-0.6c0.2-0.1,0.5,0.1,0.6,0.3
			c0.1,0.2-0.1,0.5-0.3,0.6C99.6,103.6,99.5,103.6,99.5,103.6L99.5,103.6z M101,103.2c-0.2,0-0.4-0.1-0.4-0.3
			c-0.1-0.2,0.1-0.5,0.3-0.6c0.3-0.1,0.5,0.1,0.6,0.3c0.1,0.2-0.1,0.5-0.3,0.6C101,103.2,101,103.2,101,103.2L101,103.2z
			 M102.4,102.8c-0.2,0-0.4-0.1-0.4-0.3c-0.1-0.2,0.1-0.5,0.3-0.6c0.2-0.1,0.5,0.1,0.6,0.3c0.1,0.2-0.1,0.5-0.3,0.6
			C102.5,102.8,102.5,102.8,102.4,102.8L102.4,102.8z"/>
		<path class="st27" d="M116.9,80.2L116.9,80.2l-4.9,0l0.1,0.4c0.3,2.4,2.2,4.2,4.5,4.2h0.4v-2.1c1.2-0.2,2.1-1.2,2.1-2.4h0v0
			c0,0,0,0,0,0H116.9z M116.1,84c-1.6-0.2-2.8-1.4-3.2-3h3.2V84z"/>
	</g>
	<g class="st1">
		<path class="st32" d="M155.8,125.5c-4.6,1.6-10.7,2.5-17.2,2.5c-6.5,0-12.6-0.9-17.2-2.5c-4.7-1.7-7.3-4-7.3-6.5
			c0-0.2,0-0.4,0.1-0.6c-0.5,0.9-0.9,1.8-1,2.9c0,0.4-0.1,0.9-0.1,1.4c-0.1,0.6-0.1,1.2-0.2,1.9c0.7,2,3.3,3.8,7.3,5.2
			c4.9,1.8,11.5,2.7,18.4,2.7c7,0,13.5-1,18.4-2.7c4.1-1.4,6.6-3.3,7.3-5.2c-0.1-0.7-0.1-1.3-0.2-1.9c-0.1-0.5-0.1-1-0.1-1.4
			c-0.1-1.1-0.4-2-1-2.9c0,0.2,0.1,0.4,0.1,0.6C163.1,121.5,160.5,123.8,155.8,125.5z"/>
		<path class="st32" d="M122.4,138.6c-3.3-1.1-5.9-2.5-7.7-4.1c0.8,1.2,1.8,2.4,3.2,3.5c6.6,4.8,14.2,5.5,21.4,5.5l1.4,0
			c10.4-0.3,15.6-3.2,18.6-5.4c1.4-1,2.5-2.2,3.3-3.5c-4.1,3.5-12.9,6.6-24,6.6C132.8,141.2,127.2,140.3,122.4,138.6z"/>
		<path class="st32" d="M157.2,130.1c-5,1.8-11.5,2.7-18.5,2.7c-7,0-13.6-1-18.5-2.7c-3.7-1.3-6.2-3-7.2-4.8c-0.1,0.8-0.1,1.7,0,2.5
			c0.9,1.8,3.4,3.5,7.2,4.9c5,1.8,11.6,2.7,18.6,2.7c7,0,13.7-1,18.6-2.7c3.8-1.4,6.3-3,7.2-4.9c0-0.9,0-1.7,0-2.5
			C163.4,127.1,160.9,128.8,157.2,130.1z"/>
		<path class="st32" d="M157.4,135.1c-5.1,2-11.8,3.2-18.8,3.2s-13.6-1.1-18.8-3.2c-3.1-1.2-5.4-2.7-6.7-4.3
			c0.2,0.9,0.5,1.8,0.9,2.7c3.6,3.7,12.9,7.3,24.5,7.3c5.8,0,11.5-0.9,16.3-2.6c3.6-1.3,6.5-2.9,8.2-4.7c0.4-0.9,0.7-1.8,0.9-2.7
			C162.8,132.4,160.5,133.9,157.4,135.1z"/>
		<path class="st32" d="M157.4,133c-5,1.8-11.7,2.8-18.8,2.8c-7.1,0-13.7-1-18.8-2.8c-3.5-1.2-5.9-2.8-7-4.4c0,0.4,0.1,0.8,0.2,1.3
			c1.1,1.8,3.5,3.5,7,4.9c5.1,2,11.7,3.1,18.6,3.1c6.9,0,13.5-1.1,18.6-3.1c3.5-1.4,5.9-3.1,7-4.9c0.1-0.4,0.1-0.8,0.2-1.3
			C163.2,130.3,160.8,131.8,157.4,133z"/>
		<path class="st32" d="M121.8,113.4c-4.3,1.5-6.8,3.6-6.8,5.6c0,2.1,2.5,4.1,6.8,5.6c4.5,1.6,10.5,2.5,16.9,2.5
			c6.4,0,12.4-0.9,16.9-2.5c4.3-1.5,6.8-3.6,6.8-5.6s-2.5-4.1-6.8-5.6c-4.5-1.6-10.5-2.5-16.9-2.5
			C132.2,110.9,126.3,111.8,121.8,113.4z M150.2,124c-3.1,1-7.2,1.6-11.6,1.6c-4.4,0-8.5-0.6-11.6-1.6c-3.2-1.1-4.9-2.5-4.9-4.1
			c0-1.6,1.7-3,4.9-4.1c3.1-1,7.2-1.6,11.6-1.6c4.4,0,8.5,0.6,11.6,1.6c3.2,1.1,4.9,2.5,4.9,4.1S153.4,122.9,150.2,124z"/>
	</g>
	<g class="st1">
		<path class="st27" d="M116.4,164.7c-0.1-0.2-0.7-0.1-1.4,0.3c-0.6,0.4-1,0.9-0.9,1.1c0.1,0.2,0.7,0.1,1.4-0.3
			C116.2,165.4,116.6,164.9,116.4,164.7z"/>
		<path class="st27" d="M115.5,163.1c0.9-0.8,1.4-1.6,1.2-2c-0.3-0.5-1.9-0.2-3.4,0.8c-1.6,1-2.6,2.2-2.3,2.7
			c0.2,0.4,1.2,0.3,2.3-0.2l0.7,1.1c0.1-0.3,0.4-0.6,0.9-0.9c0.5-0.3,1-0.5,1.3-0.4L115.5,163.1z"/>
		<path class="st27" d="M107.6,143.5l-4.2,2.6l0,0l-4.2,2.6l1.9,2.6c1.2-0.8,2.5-1.7,3.9-2.6c1.4-0.9,2.8-1.7,4.1-2.3L107.6,143.5z"
			/>
		<path class="st27" d="M113,161.6C113,161.6,113,161.6,113,161.6C113,161.6,113,161.6,113,161.6C113,161.6,113,161.6,113,161.6
			C113,161.6,113,161.6,113,161.6c1.8-1.1,3.4-1.5,3.7-1l0,0l-1.3-2.4c-1,0.2-2.3,0.7-3.5,1.5c-1.3,0.8-2.3,1.7-2.9,2.5l1.6,2.2l0,0
			C110.2,163.9,111.3,162.6,113,161.6z"/>
		<polygon class="st27" points="102.3,144.3 97.6,147.1 98.8,148.7 103.3,145.9 107.8,143.2 106.9,141.4 		"/>
		<path class="st27" d="M115.2,157.8l-5.9-11.1c-1.3,0.6-2.7,1.4-4.1,2.3c-1.4,0.9-2.7,1.8-3.8,2.7l7.3,10.2
			c0.7-0.9,1.7-1.8,2.9-2.6C112.8,158.5,114.1,158,115.2,157.8z"/>
	</g>
	<g class="st1">
		<polygon class="st32" points="164.9,139.6 169.2,147.6 154.6,155.4 153.6,149.9 147.2,149.1 		"/>
		<polygon class="st32" points="134.2,156.1 139.2,158.7 132.7,162.3 139.1,163.7 125.8,170.8 121.6,162.9 		"/>
		<polygon class="st32" points="144.4,151.4 146,146.1 142.3,146.4 		"/>
		<polygon class="st32" points="150.7,158.7 154.7,162.2 156.1,159.9 		"/>
		<polygon class="st32" points="146,162.1 145.7,166.1 143.7,163.9 145,160.9 		"/>
		<polygon class="st32" points="141.1,149.5 138,151.2 143,153.4 		"/>
		<polygon class="st32" points="138.3,168.5 140,169.7 140.9,164.3 		"/>
		<polygon class="st32" points="143.6,156.6 140.6,155.7 140,158 		"/>
		<polygon class="st32" points="148.9,151.1 152.3,150.9 150.7,152 		"/>
		<polygon class="st32" points="151.1,154.2 153.5,156 153,152.8 		"/>
		<polygon class="st32" points="137.1,161.7 141.6,162.7 141.5,160 		"/>
		<polygon class="st32" points="138.6,155 137.2,152.4 135.1,152.9 		"/>
		<polygon class="st32" points="150.2,164.1 147.7,160.8 148.7,164.9 		"/>
		<polygon class="st32" points="146,156.3 144.1,158.5 149.5,156.5 149.2,153 146.7,154.4 146.9,151.6 144.4,153.2 143.6,154.9 		
			"/>
	</g>
</g>
<g id="Beschriftung" class="st0">
	<line class="st33" x1="266.1" y1="110.6" x2="166.4" y2="120.8"/>
	<line class="st33" x1="266.1" y1="110.6" x2="166.4" y2="120.8"/>
	<line class="st33" x1="115.2" y1="74.2" x2="105.8" y2="17.1"/>
	<line class="st33" x1="157.1" y1="59" x2="174.5" y2="30.4"/>
	<rect x="175.3" y="18.1" class="st34" width="9.7" height="13.2"/>
	<text transform="matrix(1 0 0 1 175.3231 27.5757)" class="st1 st35 st36">6</text>
	<line class="st33" x1="193.8" y1="75.8" x2="231" y2="47.3"/>
	<line class="st33" x1="248.5" y1="164.3" x2="194.2" y2="144.4"/>
	<line class="st33" x1="167" y1="232.9" x2="164.8" y2="179.6"/>
	<line class="st33" x1="109.8" y1="232.9" x2="128.1" y2="173.5"/>
	<line class="st33" x1="55.8" y1="195.8" x2="98.2" y2="152.9"/>
	<line class="st33" x1="47.5" y1="52.2" x2="84.7" y2="106.5"/>
	<rect x="237.4" y="37" class="st34" width="7.2" height="15.5"/>
	<text transform="matrix(1 0 0 1 237.4469 46.448)" class="st1 st35 st36">1</text>
	<rect x="272.5" y="103.1" class="st34" width="10.6" height="13.6"/>
	<text transform="matrix(1 0 0 1 272.5361 112.6294)" class="st1 st35 st36">4</text>
	<rect x="253" y="161.6" class="st34" width="9.2" height="12.5"/>
	<text transform="matrix(1 0 0 1 253.0097 171.0395)" class="st1 st35 st36">9</text>
	<rect x="165.5" y="241.3" class="st34" width="9" height="12.7"/>
	<text transform="matrix(1 0 0 1 165.4561 250.7878)" class="st1 st35 st36">3</text>
	<rect x="102.3" y="240.7" class="st34" width="10.2" height="12.7"/>
	<text transform="matrix(1 0 0 1 102.2595 250.2184)" class="st1 st35 st36">2</text>
	<rect x="46.1" y="198.5" class="st34" width="7.2" height="15.5"/>
	<rect x="39.3" y="38" class="st34" width="11.2" height="12.1"/>
	<text transform="matrix(1 0 0 1 39.3123 47.448)" class="st1 st35 st36">5</text>
	<rect x="101" y="1.3" class="st34" width="8.5" height="12.2"/>
	<text transform="matrix(1 0 0 1 100.9609 10.79)" class="st1 st35 st36">8</text>
</g>
<g id="Layer_5">
	<polygon class="st2" points="256.8,123.4 167.8,61.6 188.3,122.2 	"/>
	<polygon class="st3" points="109.8,63.7 167.8,61.6 142,74 	"/>
	<polygon class="st4" points="128.4,80.5 142,74 109.8,63.7 	"/>
	<polygon class="st5" points="99.3,121.1 188.3,122.2 167.8,61.6 	"/>
	<polygon class="st6" points="73.7,106.7 99.3,121.1 167.8,61.6 	"/>
	<polygon class="st7" points="0.2,68.4 63.8,115 73.7,106.7 	"/>
	<polygon class="st8" points="49.9,126.4 63.8,115 0.2,68.4 	"/>
	<polygon class="st9" points="66.3,134.7 49.9,126.4 16.7,184.9 	"/>
	<polygon class="st10" points="83.7,142.1 66.3,134.7 16.7,184.9 	"/>
	<polygon class="st11" points="99.3,121.1 63.8,115 73.7,106.7 	"/>
	<polygon class="st12" points="49.9,126.4 99.3,121.1 63.8,115 	"/>
	<polygon class="st7" points="66.3,134.7 99.3,121.1 49.9,126.4 	"/>
	<polygon class="st13" points="83.7,142.1 99.3,121.1 66.3,134.7 	"/>
	<polygon class="st14" points="155.8,172.6 99.3,121.1 83.7,142.1 	"/>
	<polygon class="st4" points="102.3,208.1 120.3,157.6 136.4,164.4 	"/>
	<polygon class="st15" points="155.8,172.6 136.4,164.4 102.3,208.1 	"/>
	<polygon class="st16" points="188.3,122.2 155.8,172.6 99.3,121.1 	"/>
	<polygon class="st17" points="256.8,123.4 155.8,172.6 188.3,122.2 	"/>
	<polygon class="st18" points="256.8,123.4 167.8,61.6 188.3,122.2 	"/>
	<polygon class="st19" points="256.8,123.4 155.8,172.6 188.3,122.2 	"/>
	<polygon class="st20" points="167.8,61.9 227.5,123.1 188.3,122.5 	"/>
	<polygon class="st17" points="188.3,122.2 227.5,122.9 155.8,172.6 	"/>
	<g>
		<line class="st21" x1="187.5" y1="104" x2="202.4" y2="117.2"/>
		<line class="st21" x1="200.9" y1="104.2" x2="190.7" y2="118.5"/>
	</g>
	<polygon class="st22" points="175.6,85.2 142,84 99.3,121.1 139.9,158.1 165.1,158.1 181.4,132.8 188.3,122.2 	"/>
	<polygon class="st22" points="99.3,121.1 134.1,104.8 142,84 	"/>
	<polygon class="st23" points="145.2,157.5 99.3,121.1 139.9,158.1 	"/>
	<polygon class="st24" points="99.3,121.1 102.4,123.5 142,84 	"/>
	<polygon class="st24" points="139.9,158.1 167.3,154.7 165.1,158.1 	"/>
	<polyline class="st23" points="164.2,155.1 188.3,122.2 167.3,154.7 	"/>
	<polyline class="st24" points="175.6,85.2 186.3,124.9 188.3,122.2 	"/>
	<line class="st24" x1="138" y1="88" x2="142" y2="84"/>
	<path class="st24" d="M139.5,86.5"/>
	<polygon class="st23" points="142,84 175.6,85.2 140.6,85.4 	"/>
	<path class="st24" d="M139.5,86.5"/>
</g>
<g id="Layer_6">
	<g>
		<polygon class="st37" points="152.6,95.5 153.4,94.3 154.6,94.2 155.3,95.1 155.3,95.9 155,96.5 154.1,97.1 153.3,96.7 
			152.7,96.3 		"/>
		<polygon class="st37" points="165.4,127.7 166.2,126.4 167.4,126.4 168.1,127.3 168.1,128.1 167.8,128.7 166.9,129.3 166.1,128.9 
			165.5,128.4 		"/>
		<polygon class="st37" points="114.7,127.7 115.5,126.4 116.7,126.4 117.4,127.3 117.4,128.1 117.1,128.7 116.2,129.3 115.4,128.9 
			114.8,128.4 		"/>
		<polygon class="st37" points="154.7,117.6 155.5,116.3 156.7,116.3 157.4,117.2 157.4,118 157.1,118.6 156.2,119.2 155.5,118.8 
			154.8,118.3 		"/>
		<polygon class="st37" points="145.8,129.1 146.6,127.9 147.8,127.8 148.5,128.7 148.5,129.5 148.2,130.1 147.3,130.7 146.5,130.3 
			145.9,129.9 		"/>
		<polygon class="st37" points="157.3,126.9 158.1,125.6 159.3,125.6 160,126.4 160,127.3 159.7,127.8 158.8,128.4 158,128 
			157.4,127.6 		"/>
		<polygon class="st37" points="143,117.6 143.8,116.3 145.1,116.3 145.8,117.2 145.8,118 145.5,118.6 144.5,119.2 143.8,118.8 
			143.1,118.3 		"/>
		<polygon class="st37" points="171.2,99 172,97.8 173.2,97.7 173.9,98.6 173.9,99.4 173.6,100 172.7,100.6 171.9,100.2 171.3,99.8 
					"/>
		<polygon class="st37" points="163.1,98.2 163.9,96.9 165.1,96.9 165.8,97.8 165.8,98.6 165.5,99.2 164.6,99.8 163.8,99.4 
			163.2,98.9 		"/>
		<polygon class="st37" points="148.8,88.9 149.6,87.7 150.9,87.6 151.6,88.5 151.6,89.3 151.3,89.9 150.4,90.5 149.6,90.1 
			148.9,89.7 		"/>
		<polygon class="st37" points="129.8,99 130.5,97.8 131.8,97.7 132.5,98.6 132.5,99.4 132.2,100 131.3,100.6 130.5,100.2 
			129.9,99.8 		"/>
		<polygon class="st37" points="163,89.1 163.8,87.8 165.1,87.8 165.7,88.6 165.8,89.5 165.5,90 164.5,90.6 163.8,90.2 163.1,89.8 
					"/>
		<polygon class="st37" points="150.2,136.8 151,135.5 152.2,135.5 152.9,136.4 152.9,137.2 152.6,137.8 151.7,138.3 151,138 
			150.3,137.5 		"/>
		<polygon class="st37" points="178.6,126.7 179.4,125.4 180.6,125.4 181.3,126.3 181.3,127.1 181,127.7 180.1,128.3 179.3,127.9 
			178.7,127.4 		"/>
		<polygon class="st37" points="156.9,110 157.7,108.7 158.9,108.7 159.6,109.6 159.7,110.4 159.3,111 158.4,111.5 157.7,111.1 
			157,110.7 		"/>
		<polygon class="st37" points="148.8,109.2 149.6,107.9 150.9,107.9 151.6,108.7 151.6,109.5 151.3,110.1 150.4,110.7 149.6,110.3 
			148.9,109.9 		"/>
		<polygon class="st37" points="170.1,109 170.9,107.7 172.2,107.7 172.9,108.6 172.9,109.4 172.6,110 171.6,110.6 170.9,110.2 
			170.2,109.7 		"/>
		<polygon class="st37" points="149,145.1 149.8,143.8 151,143.8 151.7,144.6 151.7,145.4 151.4,146 150.5,146.6 149.8,146.2 
			149.1,145.8 		"/>
		<polygon class="st37" points="140.9,144.2 141.7,143 142.9,142.9 143.6,143.8 143.7,144.6 143.3,145.2 142.4,145.8 141.7,145.4 
			141,145 		"/>
		<polygon class="st37" points="162.2,144.1 163,142.8 164.2,142.8 164.9,143.7 164.9,144.5 164.6,145 163.7,145.6 163,145.2 
			162.3,144.8 		"/>
		<polygon class="st37" points="120.6,134.4 121.4,133.2 122.6,133.1 123.3,134 123.3,134.8 123,135.4 122.1,136 121.3,135.6 
			120.7,135.2 		"/>
		<polygon class="st37" points="125,116 125.8,114.7 127,114.7 127.7,115.6 127.7,116.4 127.4,117 126.5,117.5 125.8,117.2 
			125.1,116.7 		"/>
		<polygon class="st37" points="123.8,124.3 124.6,123 125.8,123 126.5,123.8 126.5,124.6 126.2,125.2 125.3,125.8 124.6,125.4 
			123.9,125 		"/>
		<polygon class="st37" points="117.8,116 118.6,114.7 119.9,114.7 120.5,115.6 120.6,116.4 120.3,117 119.3,117.5 118.6,117.2 
			117.9,116.7 		"/>
		<polygon class="st37" points="133,127.6 133.8,126.3 135.1,126.3 135.7,127.2 135.8,128 135.5,128.6 134.5,129.2 133.8,128.8 
			133.1,128.3 		"/>
		<polygon class="st37" points="131.8,135.9 132.6,134.6 133.9,134.6 134.5,135.5 134.6,136.3 134.3,136.9 133.3,137.4 132.6,137 
			131.9,136.6 		"/>
		<polygon class="st37" points="137.5,95 138.2,93.7 139.5,93.7 140.2,94.6 140.2,95.4 139.9,96 139,96.6 138.2,96.2 137.6,95.7 		
			"/>
		<polygon class="st37" points="136.3,103.3 137.1,102 138.3,102 139,102.9 139,103.7 138.7,104.3 137.8,104.9 137,104.5 136.4,104 
					"/>
		<polygon class="st37" points="173.8,111.6 174.6,110.3 175.8,110.3 176.5,111.2 176.5,112 176.2,112.5 175.3,113.1 174.5,112.7 
			173.9,112.3 		"/>
		<polygon class="st37" points="163.8,121.6 164.6,120.3 165.8,120.3 166.5,121.1 166.5,122 166.2,122.5 165.3,123.1 164.5,122.7 
			163.9,122.3 		"/>
		<polygon class="st37" points="150.7,127.3 151.5,126 152.7,126 153.4,126.9 153.5,127.7 153.1,128.2 152.2,128.8 151.5,128.4 
			150.8,128 		"/>
		<polygon class="st37" points="136.9,119.8 137.7,118.5 138.9,118.5 139.6,119.4 139.7,120.2 139.3,120.8 138.4,121.4 137.7,121 
			137,120.5 		"/>
		<polygon class="st37" points="142.6,126.4 143.4,125.2 144.7,125.1 145.4,126 145.4,126.8 145.1,127.4 144.2,128 143.4,127.6 
			142.7,127.2 		"/>
		<polygon class="st37" points="128.4,117.2 129.2,115.9 130.4,115.9 131.1,116.8 131.1,117.6 130.8,118.2 129.9,118.8 129.1,118.4 
			128.5,117.9 		"/>
		<polygon class="st37" points="142.3,109.6 143.1,108.3 144.3,108.3 145,109.1 145,109.9 144.7,110.5 143.8,111.1 143,110.7 
			142.4,110.3 		"/>
		<polygon class="st37" points="134.2,108.7 135,107.5 136.2,107.4 136.9,108.3 136.9,109.1 136.6,109.7 135.7,110.3 134.9,109.9 
			134.3,109.5 		"/>
		<polygon class="st37" points="149.1,121.1 149.9,119.9 151.1,119.8 151.8,120.7 151.9,121.5 151.5,122.1 150.6,122.7 149.9,122.3 
			149.2,121.9 		"/>
		<polygon class="st37" points="168.4,136.3 169.2,135 170.5,135 171.1,135.9 171.2,136.7 170.9,137.3 169.9,137.9 169.2,137.5 
			168.5,137 		"/>
		<polygon class="st37" points="160.4,135.5 161.1,134.2 162.4,134.2 163.1,135 163.1,135.9 162.8,136.4 161.9,137 161.1,136.6 
			160.4,136.2 		"/>
		<polygon class="st37" points="179.2,120.1 180,118.9 181.2,118.8 181.9,119.7 181.9,120.5 181.6,121.1 180.7,121.7 179.9,121.3 
			179.3,120.9 		"/>
		<polygon class="st37" points="171.1,119.3 171.9,118 173.1,118 173.8,118.9 173.8,119.7 173.5,120.3 172.6,120.9 171.8,120.5 
			171.2,120 		"/>
		<polygon class="st37" points="151.2,103 152,101.7 153.2,101.7 153.9,102.5 153.9,103.3 153.6,103.9 152.7,104.5 151.9,104.1 
			151.3,103.7 		"/>
		<polygon class="st37" points="143.1,102.1 143.9,100.9 145.1,100.8 145.8,101.7 145.8,102.5 145.5,103.1 144.6,103.7 143.8,103.3 
			143.2,102.9 		"/>
		<polygon class="st37" points="127.7,108.5 128.5,107.3 129.7,107.2 130.4,108.1 130.4,108.9 130.1,109.5 129.2,110.1 128.4,109.7 
			127.8,109.3 		"/>
		<polygon class="st37" points="119.6,107.7 120.4,106.4 121.6,106.4 122.3,107.3 122.3,108.1 122,108.7 121.1,109.3 120.3,108.9 
			119.7,108.4 		"/>
	</g>
</g>
</svg>
