<?xml version="1.0" encoding="utf-8"?>
<!-- Generator: Adobe Illustrator 21.0.1, SVG Export Plug-In . SVG Version: 6.00 Build 0)  -->
<svg version="1.1" id="Layer_1" xmlns="http://www.w3.org/2000/svg" xmlns:xlink="http://www.w3.org/1999/xlink" x="0px" y="0px"
	 viewBox="0 0 256.6 152.1" style="enable-background:new 0 0 256.6 152.1;" xml:space="preserve">
<style type="text/css">
	.st0{fill:#F3CB8C;}
	.st1{fill:#958935;}
	.st2{fill:#7F6A2A;}
	.st3{fill:#EDBA66;}
	.st4{fill:#EAAC47;}
	.st5{fill:#605221;}
	.st6{fill:#3F3415;}
	.st7{fill:#403719;}
	.st8{fill:#231F10;}
	.st9{fill:#7D6B2B;}
	.st10{fill:#9B8632;}
	.st11{fill:#816528;}
	.st12{fill:#A87029;}
	.st13{fill:#998635;}
	.st14{fill:#CF8529;}
	.st15{fill:#DD9C3D;}
	.st16{fill:#F9D19B;}
	.st17{fill:#ECAA52;}
	.st18{fill:#F9C67D;}
	.st19{fill:none;stroke:#000000;stroke-width:2;stroke-miterlimit:10;}
	.st20{fill:#FEE8D9;}
	.st21{fill:#A93D30;}
	.st22{fill:#C2473E;}
	.st23{fill:none;}
	.st24{fill:#A23635;}
	.st25{fill:none;stroke:#3E7EC1;stroke-width:2.5;stroke-linecap:round;stroke-linejoin:round;}
</style>
<g id="Fisch">
	<g id="fish">
		<polygon class="st0" points="256.6,67.4 167.6,5.6 188.1,66.2 		"/>
		<polygon class="st1" points="109.6,7.7 167.6,5.6 141.8,18 		"/>
		<polygon class="st2" points="128.2,24.5 141.8,18 109.6,7.7 		"/>
		<polygon class="st3" points="99.1,65.1 188.1,66.2 167.6,5.6 		"/>
		<polygon class="st4" points="73.5,50.7 99.1,65.1 167.6,5.6 		"/>
		<polygon class="st5" points="0,12.4 63.6,59 73.5,50.7 		"/>
		<polygon class="st6" points="49.7,70.4 63.6,59 0,12.4 		"/>
		<polygon class="st7" points="66.1,78.7 49.7,70.4 16.5,128.9 		"/>
		<polygon class="st8" points="83.5,86.1 66.1,78.7 16.5,128.9 		"/>
		<polygon class="st9" points="99.1,65.1 63.6,59 73.5,50.7 		"/>
		<polygon class="st10" points="49.7,70.4 99.1,65.1 63.6,59 		"/>
		<polygon class="st5" points="66.1,78.7 99.1,65.1 49.7,70.4 		"/>
		<polygon class="st11" points="83.5,86.1 99.1,65.1 66.1,78.7 		"/>
		<polygon class="st12" points="155.6,116.6 99.1,65.1 83.5,86.1 		"/>
		<polygon class="st2" points="102.1,152.1 120.1,101.6 136.2,108.4 		"/>
		<polygon class="st13" points="155.6,116.6 136.2,108.4 102.1,152.1 		"/>
		<polygon class="st14" points="188.1,66.2 155.6,116.6 99.1,65.1 		"/>
		<polygon class="st15" points="256.6,67.4 155.6,116.6 188.1,66.2 		"/>
		<polygon class="st16" points="256.6,67.4 167.6,5.6 188.1,66.2 		"/>
		<polygon class="st17" points="256.6,67.4 155.6,116.6 188.1,66.2 		"/>
		<polygon class="st18" points="167.6,5.9 227.3,67.1 188.1,66.5 		"/>
		<polygon class="st15" points="188.1,66.2 227.3,66.9 155.6,116.6 		"/>
		<g>
			<line class="st19" x1="187.3" y1="48" x2="202.2" y2="61.2"/>
			<line class="st19" x1="200.7" y1="48.2" x2="190.5" y2="62.5"/>
		</g>
		<polygon class="st20" points="175.4,29.2 141.8,28 99.1,65.1 139.7,102.1 164.9,102.1 181.2,76.8 188.1,66.2 		"/>
		<polygon class="st20" points="99.1,65.1 133.9,48.8 141.8,28 		"/>
		<polygon class="st21" points="145,101.5 99.1,65.1 139.7,102.1 		"/>
		<polygon class="st22" points="99.1,65.1 102.2,67.5 141.8,28 		"/>
		<polygon class="st22" points="139.7,102.1 167.1,98.7 164.9,102.1 		"/>
		<polyline class="st21" points="164,99.1 188.1,66.2 167.1,98.7 		"/>
		<polyline class="st22" points="175.4,29.2 186.1,68.9 188.1,66.2 		"/>
		<line class="st23" x1="137.8" y1="32" x2="141.8" y2="28"/>
		<path class="st22" d="M139.3,30.5"/>
		<polygon class="st21" points="141.8,28 175.4,29.2 140.4,29.4 		"/>
		<path class="st22" d="M139.3,30.5"/>
		<g id="fish_mikroplastik">
			<polygon class="st24" points="152.4,39.5 153.2,38.3 154.4,38.2 155.1,39.1 155.1,39.9 154.8,40.5 153.9,41.1 153.1,40.7 
				152.5,40.3 			"/>
			<polygon class="st24" points="165.2,71.7 166,70.4 167.2,70.4 167.9,71.3 167.9,72.1 167.6,72.7 166.7,73.3 165.9,72.9 
				165.3,72.4 			"/>
			<polygon class="st24" points="114.5,71.7 115.3,70.4 116.5,70.4 117.2,71.3 117.2,72.1 116.9,72.7 116,73.3 115.2,72.9 
				114.6,72.4 			"/>
			<polygon class="st24" points="154.5,61.6 155.3,60.3 156.5,60.3 157.2,61.2 157.2,62 156.9,62.6 156,63.2 155.3,62.8 154.6,62.3 
							"/>
			<polygon class="st24" points="145.6,73.1 146.4,71.9 147.6,71.8 148.3,72.7 148.3,73.5 148,74.1 147.1,74.7 146.3,74.3 
				145.7,73.9 			"/>
			<polygon class="st24" points="157.1,70.9 157.9,69.6 159.1,69.6 159.8,70.4 159.8,71.3 159.5,71.8 158.6,72.4 157.8,72 
				157.2,71.6 			"/>
			<polygon class="st24" points="142.8,61.6 143.6,60.3 144.9,60.3 145.6,61.2 145.6,62 145.3,62.6 144.3,63.2 143.6,62.8 
				142.9,62.3 			"/>
			<polygon class="st24" points="171,43 171.8,41.8 173,41.7 173.7,42.6 173.7,43.4 173.4,44 172.5,44.6 171.7,44.2 171.1,43.8 			
				"/>
			<polygon class="st24" points="162.9,42.2 163.7,40.9 164.9,40.9 165.6,41.8 165.6,42.6 165.3,43.2 164.4,43.8 163.6,43.4 
				163,42.9 			"/>
			<polygon class="st24" points="148.6,32.9 149.4,31.7 150.7,31.6 151.4,32.5 151.4,33.3 151.1,33.9 150.2,34.5 149.4,34.1 
				148.7,33.7 			"/>
			<polygon class="st24" points="129.6,43 130.3,41.8 131.6,41.7 132.3,42.6 132.3,43.4 132,44 131.1,44.6 130.3,44.2 129.7,43.8 
							"/>
			<polygon class="st24" points="162.8,33.1 163.6,31.8 164.9,31.8 165.5,32.6 165.6,33.5 165.3,34 164.3,34.6 163.6,34.2 
				162.9,33.8 			"/>
			<polygon class="st24" points="150,80.8 150.8,79.5 152,79.5 152.7,80.4 152.7,81.2 152.4,81.8 151.5,82.3 150.8,82 150.1,81.5 
							"/>
			<polygon class="st24" points="178.4,70.7 179.2,69.4 180.4,69.4 181.1,70.3 181.1,71.1 180.8,71.7 179.9,72.3 179.1,71.9 
				178.5,71.4 			"/>
			<polygon class="st24" points="156.7,54 157.5,52.7 158.7,52.7 159.4,53.6 159.5,54.4 159.1,55 158.2,55.5 157.5,55.1 156.8,54.7 
							"/>
			<polygon class="st24" points="148.6,53.2 149.4,51.9 150.7,51.9 151.4,52.7 151.4,53.5 151.1,54.1 150.2,54.7 149.4,54.3 
				148.7,53.9 			"/>
			<polygon class="st24" points="169.9,53 170.7,51.7 172,51.7 172.7,52.6 172.7,53.4 172.4,54 171.4,54.6 170.7,54.2 170,53.7 			
				"/>
			<polygon class="st24" points="148.8,89.1 149.6,87.8 150.8,87.8 151.5,88.6 151.5,89.4 151.2,90 150.3,90.6 149.6,90.2 
				148.9,89.8 			"/>
			<polygon class="st24" points="140.7,88.2 141.5,87 142.7,86.9 143.4,87.8 143.5,88.6 143.1,89.2 142.2,89.8 141.5,89.4 140.8,89 
							"/>
			<polygon class="st24" points="162,88.1 162.8,86.8 164,86.8 164.7,87.7 164.7,88.5 164.4,89 163.5,89.6 162.8,89.2 162.1,88.8 
							"/>
			<polygon class="st24" points="120.4,78.4 121.2,77.2 122.4,77.1 123.1,78 123.1,78.8 122.8,79.4 121.9,80 121.1,79.6 120.5,79.2 
							"/>
			<polygon class="st24" points="124.8,60 125.6,58.7 126.8,58.7 127.5,59.6 127.5,60.4 127.2,61 126.3,61.5 125.6,61.2 124.9,60.7 
							"/>
			<polygon class="st24" points="123.6,68.3 124.4,67 125.6,67 126.3,67.8 126.3,68.6 126,69.2 125.1,69.8 124.4,69.4 123.7,69 			
				"/>
			<polygon class="st24" points="117.6,60 118.4,58.7 119.7,58.7 120.3,59.6 120.4,60.4 120.1,61 119.1,61.5 118.4,61.2 117.7,60.7 
							"/>
			<polygon class="st24" points="132.8,71.6 133.6,70.3 134.9,70.3 135.5,71.2 135.6,72 135.3,72.6 134.3,73.2 133.6,72.8 
				132.9,72.3 			"/>
			<polygon class="st24" points="131.6,79.9 132.4,78.6 133.7,78.6 134.3,79.5 134.4,80.3 134.1,80.9 133.1,81.4 132.4,81 
				131.7,80.6 			"/>
			<polygon class="st24" points="137.3,39 138,37.7 139.3,37.7 140,38.6 140,39.4 139.7,40 138.8,40.6 138,40.2 137.4,39.7 			"/>
			<polygon class="st24" points="136.1,47.3 136.9,46 138.1,46 138.8,46.9 138.8,47.7 138.5,48.3 137.6,48.9 136.8,48.5 136.2,48 
							"/>
			<polygon class="st24" points="173.6,55.6 174.4,54.3 175.6,54.3 176.3,55.2 176.3,56 176,56.5 175.1,57.1 174.3,56.7 173.7,56.3 
							"/>
			<polygon class="st24" points="163.6,65.6 164.4,64.3 165.6,64.3 166.3,65.1 166.3,66 166,66.5 165.1,67.1 164.3,66.7 163.7,66.3 
							"/>
			<polygon class="st24" points="150.5,71.3 151.3,70 152.5,70 153.2,70.9 153.3,71.7 152.9,72.2 152,72.8 151.3,72.4 150.6,72 			
				"/>
			<polygon class="st24" points="136.7,63.8 137.5,62.5 138.7,62.5 139.4,63.4 139.5,64.2 139.1,64.8 138.2,65.4 137.5,65 
				136.8,64.5 			"/>
			<polygon class="st24" points="142.4,70.4 143.2,69.2 144.5,69.1 145.2,70 145.2,70.8 144.9,71.4 144,72 143.2,71.6 142.5,71.2 
							"/>
			<polygon class="st24" points="128.2,61.2 129,59.9 130.2,59.9 130.9,60.8 130.9,61.6 130.6,62.2 129.7,62.8 128.9,62.4 
				128.3,61.9 			"/>
			<polygon class="st24" points="142.1,53.6 142.9,52.3 144.1,52.3 144.8,53.1 144.8,53.9 144.5,54.5 143.6,55.1 142.8,54.7 
				142.2,54.3 			"/>
			<polygon class="st24" points="134,52.7 134.8,51.5 136,51.4 136.7,52.3 136.7,53.1 136.4,53.7 135.5,54.3 134.7,53.9 134.1,53.5 
							"/>
			<polygon class="st24" points="148.9,65.1 149.7,63.9 150.9,63.8 151.6,64.7 151.7,65.5 151.3,66.1 150.4,66.7 149.7,66.3 
				149,65.9 			"/>
			<polygon class="st24" points="168.2,80.3 169,79 170.3,79 170.9,79.9 171,80.7 170.7,81.3 169.7,81.9 169,81.5 168.3,81 			"/>
			<polygon class="st24" points="160.2,79.5 160.9,78.2 162.2,78.2 162.9,79 162.9,79.9 162.6,80.4 161.7,81 160.9,80.6 160.2,80.2 
							"/>
			<polygon class="st24" points="179,64.1 179.8,62.9 181,62.8 181.7,63.7 181.7,64.5 181.4,65.1 180.5,65.7 179.7,65.3 179.1,64.9 
							"/>
			<polygon class="st24" points="170.9,63.3 171.7,62 172.9,62 173.6,62.9 173.6,63.7 173.3,64.3 172.4,64.9 171.6,64.5 171,64 			
				"/>
			<polygon class="st24" points="151,47 151.8,45.7 153,45.7 153.7,46.5 153.7,47.3 153.4,47.9 152.5,48.5 151.7,48.1 151.1,47.7 
							"/>
			<polygon class="st24" points="142.9,46.1 143.7,44.9 144.9,44.8 145.6,45.7 145.6,46.5 145.3,47.1 144.4,47.7 143.6,47.3 
				143,46.9 			"/>
			<polygon class="st24" points="127.5,52.5 128.3,51.3 129.5,51.2 130.2,52.1 130.2,52.9 129.9,53.5 129,54.1 128.2,53.7 
				127.6,53.3 			"/>
			<polygon class="st24" points="119.4,51.7 120.2,50.4 121.4,50.4 122.1,51.3 122.1,52.1 121.8,52.7 120.9,53.3 120.1,52.9 
				119.5,52.4 			"/>
		</g>
	</g>
</g>
<g id="Layer_3_2_">
	<g id="pulse">
		<path class="st25" d="M204.1,98.3c15.4-7.7,25.5-20.4,25.5-34.7s-10-27-25.5-34.7"/>
		<path class="st25" d="M184.2,118.3c-9.8,4.9-21.8,7.8-34.7,7.8c-12.9,0-24.9-2.9-34.7-7.8"/>
		<path class="st25" d="M114.8,9c9.8-4.9,21.8-7.8,34.7-7.8c12.9,0,24.9,2.9,34.7,7.8"/>
		<path class="st25" d="M94.9,29c-15.4,7.7-25.5,20.4-25.5,34.7s10,27,25.5,34.7"/>
		<path class="st25" d="M124,109.1c7.2,3.6,16,5.7,25.5,5.7c9.5,0,18.3-2.1,25.5-5.7"/>
		<path class="st25" d="M104,38.2c-11.3,5.7-18.7,15-18.7,25.5c0,10.5,7.4,19.9,18.7,25.5"/>
		<path class="st25" d="M175,18.2c-7.2-3.6-16-5.7-25.5-5.7c-9.5,0-18.3,2.1-25.5,5.7"/>
		<path class="st25" d="M195,89.2c11.3-5.7,18.7-15,18.7-25.5s-7.4-19.9-18.7-25.5"/>
	</g>
</g>
</svg>
