<?xml version="1.0" encoding="utf-8"?>
<!-- Generator: Adobe Illustrator 21.0.1, SVG Export Plug-In . SVG Version: 6.00 Build 0)  -->
<svg version="1.1" xmlns="http://www.w3.org/2000/svg" xmlns:xlink="http://www.w3.org/1999/xlink" x="0px" y="0px"
	 viewBox="0 0 414.7 324.2" style="enable-background:new 0 0 414.7 324.2;" xml:space="preserve">
<style type="text/css">
	.st0{fill:#F3CB8C;}
	.st1{fill:#958935;}
	.st2{fill:#7F6A2A;}
	.st3{fill:#EDBA66;}
	.st4{fill:#EAAC47;}
	.st5{fill:#605221;}
	.st6{fill:#3F3415;}
	.st7{fill:#403719;}
	.st8{fill:#231F10;}
	.st9{fill:#7D6B2B;}
	.st10{fill:#9B8632;}
	.st11{fill:#816528;}
	.st12{fill:#A87029;}
	.st13{fill:#998635;}
	.st14{fill:#CF8529;}
	.st15{fill:#DD9C3D;}
	.st16{fill:#F9D19B;}
	.st17{fill:#ECAA52;}
	.st18{fill:#F9C67D;}
	.st19{fill:none;stroke:#000000;stroke-width:2;stroke-miterlimit:10;}
	.st20{fill:#FEE8D9;}
	.st21{fill:#A93D30;}
	.st22{fill:#C2473E;}
	.st23{fill:none;}
	.st24{fill:#A23635;}
	.st25{fill:none;stroke:#3E7EC1;stroke-width:6;stroke-linecap:round;stroke-linejoin:round;}
</style>
<g id="Fisch">
	<g id="fish">
		<polygon class="st0" points="356.1,154.3 267.1,92.5 287.6,153.1 		"/>
		<polygon class="st1" points="209.1,94.6 267.1,92.5 241.3,104.9 		"/>
		<polygon class="st2" points="227.7,111.4 241.3,104.9 209.1,94.6 		"/>
		<polygon class="st3" points="198.6,152 287.6,153.1 267.1,92.5 		"/>
		<polygon class="st4" points="173,137.6 198.6,152 267.1,92.5 		"/>
		<polygon class="st5" points="99.5,99.3 163.1,145.9 173,137.6 		"/>
		<polygon class="st6" points="149.2,157.3 163.1,145.9 99.5,99.3 		"/>
		<polygon class="st7" points="165.6,165.6 149.2,157.3 116,215.8 		"/>
		<polygon class="st8" points="183,173 165.6,165.6 116,215.8 		"/>
		<polygon class="st9" points="198.6,152 163.1,145.9 173,137.6 		"/>
		<polygon class="st10" points="149.2,157.3 198.6,152 163.1,145.9 		"/>
		<polygon class="st5" points="165.6,165.6 198.6,152 149.2,157.3 		"/>
		<polygon class="st11" points="183,173 198.6,152 165.6,165.6 		"/>
		<polygon class="st12" points="255.1,203.5 198.6,152 183,173 		"/>
		<polygon class="st2" points="201.6,239 219.6,188.5 235.7,195.3 		"/>
		<polygon class="st13" points="255.1,203.5 235.7,195.3 201.6,239 		"/>
		<polygon class="st14" points="287.6,153.1 255.1,203.5 198.6,152 		"/>
		<polygon class="st15" points="356.1,154.3 255.1,203.5 287.6,153.1 		"/>
		<polygon class="st16" points="356.1,154.3 267.1,92.5 287.6,153.1 		"/>
		<polygon class="st17" points="356.1,154.3 255.1,203.5 287.6,153.1 		"/>
		<polygon class="st18" points="267.1,92.8 326.8,154 287.6,153.4 		"/>
		<polygon class="st15" points="287.6,153.1 326.8,153.8 255.1,203.5 		"/>
		<g>
			<line class="st19" x1="286.8" y1="134.9" x2="301.7" y2="148.1"/>
			<line class="st19" x1="300.2" y1="135.1" x2="290" y2="149.4"/>
		</g>
		<polygon class="st20" points="274.9,116.1 241.3,114.9 198.6,152 239.2,189 264.4,189 280.7,163.7 287.6,153.1 		"/>
		<polygon class="st20" points="198.6,152 233.4,135.7 241.3,114.9 		"/>
		<polygon class="st21" points="244.5,188.4 198.6,152 239.2,189 		"/>
		<polygon class="st22" points="198.6,152 201.7,154.4 241.3,114.9 		"/>
		<polygon class="st22" points="239.2,189 266.6,185.6 264.4,189 		"/>
		<polyline class="st21" points="263.5,186 287.6,153.1 266.6,185.6 		"/>
		<polyline class="st22" points="274.9,116.1 285.6,155.8 287.6,153.1 		"/>
		<line class="st23" x1="237.3" y1="118.9" x2="241.3" y2="114.9"/>
		<path class="st22" d="M238.8,117.4"/>
		<polygon class="st21" points="241.3,114.9 274.9,116.1 239.9,116.3 		"/>
		<path class="st22" d="M238.8,117.4"/>
		<g id="MP">
			<polygon class="st24" points="251.9,126.4 252.7,125.2 253.9,125.1 254.6,126 254.6,126.8 254.3,127.4 253.4,128 252.6,127.6 
				252,127.2 			"/>
			<polygon class="st24" points="264.7,158.6 265.5,157.3 266.7,157.3 267.4,158.2 267.4,159 267.1,159.6 266.2,160.2 265.4,159.8 
				264.8,159.3 			"/>
			<polygon class="st24" points="214,158.6 214.8,157.3 216,157.3 216.7,158.2 216.7,159 216.4,159.6 215.5,160.2 214.7,159.8 
				214.1,159.3 			"/>
			<polygon class="st24" points="254,148.5 254.8,147.2 256,147.2 256.7,148.1 256.7,148.9 256.4,149.5 255.5,150.1 254.8,149.7 
				254.1,149.2 			"/>
			<polygon class="st24" points="245.1,160 245.9,158.8 247.1,158.7 247.8,159.6 247.8,160.4 247.5,161 246.6,161.6 245.8,161.2 
				245.2,160.8 			"/>
			<polygon class="st24" points="256.6,157.8 257.4,156.5 258.6,156.5 259.3,157.3 259.3,158.2 259,158.7 258.1,159.3 257.3,158.9 
				256.7,158.5 			"/>
			<polygon class="st24" points="242.3,148.5 243.1,147.2 244.4,147.2 245.1,148.1 245.1,148.9 244.8,149.5 243.8,150.1 
				243.1,149.7 242.4,149.2 			"/>
			<polygon class="st24" points="270.5,129.9 271.3,128.7 272.5,128.6 273.2,129.5 273.2,130.3 272.9,130.9 272,131.5 271.2,131.1 
				270.6,130.7 			"/>
			<polygon class="st24" points="262.4,129.1 263.2,127.8 264.4,127.8 265.1,128.7 265.1,129.5 264.8,130.1 263.9,130.7 
				263.1,130.3 262.5,129.8 			"/>
			<polygon class="st24" points="248.1,119.8 248.9,118.6 250.2,118.5 250.9,119.4 250.9,120.2 250.6,120.8 249.7,121.4 248.9,121 
				248.2,120.6 			"/>
			<polygon class="st24" points="229.1,129.9 229.8,128.7 231.1,128.6 231.8,129.5 231.8,130.3 231.5,130.9 230.6,131.5 
				229.8,131.1 229.2,130.7 			"/>
			<polygon class="st24" points="262.3,120 263.1,118.7 264.4,118.7 265,119.5 265.1,120.4 264.8,120.9 263.8,121.5 263.1,121.1 
				262.4,120.7 			"/>
			<polygon class="st24" points="249.5,167.7 250.3,166.4 251.5,166.4 252.2,167.3 252.2,168.1 251.9,168.7 251,169.2 250.3,168.9 
				249.6,168.4 			"/>
			<polygon class="st24" points="277.9,157.6 278.7,156.3 279.9,156.3 280.6,157.2 280.6,158 280.3,158.6 279.4,159.2 278.6,158.8 
				278,158.3 			"/>
			<polygon class="st24" points="256.2,140.9 257,139.6 258.2,139.6 258.9,140.5 259,141.3 258.6,141.9 257.7,142.4 257,142 
				256.3,141.6 			"/>
			<polygon class="st24" points="248.1,140.1 248.9,138.8 250.2,138.8 250.9,139.6 250.9,140.4 250.6,141 249.7,141.6 248.9,141.2 
				248.2,140.8 			"/>
			<polygon class="st24" points="269.4,139.9 270.2,138.6 271.5,138.6 272.2,139.5 272.2,140.3 271.9,140.9 270.9,141.5 
				270.2,141.1 269.5,140.6 			"/>
			<polygon class="st24" points="248.3,176 249.1,174.7 250.3,174.7 251,175.5 251,176.3 250.7,176.9 249.8,177.5 249.1,177.1 
				248.4,176.7 			"/>
			<polygon class="st24" points="240.2,175.1 241,173.9 242.2,173.8 242.9,174.7 243,175.5 242.6,176.1 241.7,176.7 241,176.3 
				240.3,175.9 			"/>
			<polygon class="st24" points="261.5,175 262.3,173.7 263.5,173.7 264.2,174.6 264.2,175.4 263.9,175.9 263,176.5 262.3,176.1 
				261.6,175.7 			"/>
			<polygon class="st24" points="219.9,165.3 220.7,164.1 221.9,164 222.6,164.9 222.6,165.7 222.3,166.3 221.4,166.9 220.6,166.5 
				220,166.1 			"/>
			<polygon class="st24" points="224.3,146.9 225.1,145.6 226.3,145.6 227,146.5 227,147.3 226.7,147.9 225.8,148.4 225.1,148.1 
				224.4,147.6 			"/>
			<polygon class="st24" points="223.1,155.2 223.9,153.9 225.1,153.9 225.8,154.7 225.8,155.5 225.5,156.1 224.6,156.7 
				223.9,156.3 223.2,155.9 			"/>
			<polygon class="st24" points="217.1,146.9 217.9,145.6 219.2,145.6 219.8,146.5 219.9,147.3 219.6,147.9 218.6,148.4 
				217.9,148.1 217.2,147.6 			"/>
			<polygon class="st24" points="232.3,158.5 233.1,157.2 234.4,157.2 235,158.1 235.1,158.9 234.8,159.5 233.8,160.1 233.1,159.7 
				232.4,159.2 			"/>
			<polygon class="st24" points="231.1,166.8 231.9,165.5 233.2,165.5 233.8,166.4 233.9,167.2 233.6,167.8 232.6,168.3 
				231.9,167.9 231.2,167.5 			"/>
			<polygon class="st24" points="236.8,125.9 237.5,124.6 238.8,124.6 239.5,125.5 239.5,126.3 239.2,126.9 238.3,127.5 
				237.5,127.1 236.9,126.6 			"/>
			<polygon class="st24" points="235.6,134.2 236.4,132.9 237.6,132.9 238.3,133.8 238.3,134.6 238,135.2 237.1,135.8 236.3,135.4 
				235.7,134.9 			"/>
			<polygon class="st24" points="273.1,142.5 273.9,141.2 275.1,141.2 275.8,142.1 275.8,142.9 275.5,143.4 274.6,144 273.8,143.6 
				273.2,143.2 			"/>
			<polygon class="st24" points="263.1,152.5 263.9,151.2 265.1,151.2 265.8,152 265.8,152.9 265.5,153.4 264.6,154 263.8,153.6 
				263.2,153.2 			"/>
			<polygon class="st24" points="250,158.2 250.8,156.9 252,156.9 252.7,157.8 252.8,158.6 252.4,159.1 251.5,159.7 250.8,159.3 
				250.1,158.9 			"/>
			<polygon class="st24" points="236.2,150.7 237,149.4 238.2,149.4 238.9,150.3 239,151.1 238.6,151.7 237.7,152.3 237,151.9 
				236.3,151.4 			"/>
			<polygon class="st24" points="241.9,157.3 242.7,156.1 244,156 244.7,156.9 244.7,157.7 244.4,158.3 243.5,158.9 242.7,158.5 
				242,158.1 			"/>
			<polygon class="st24" points="227.7,148.1 228.5,146.8 229.7,146.8 230.4,147.7 230.4,148.5 230.1,149.1 229.2,149.7 
				228.4,149.3 227.8,148.8 			"/>
			<polygon class="st24" points="241.6,140.5 242.4,139.2 243.6,139.2 244.3,140 244.3,140.8 244,141.4 243.1,142 242.3,141.6 
				241.7,141.2 			"/>
			<polygon class="st24" points="233.5,139.6 234.3,138.4 235.5,138.3 236.2,139.2 236.2,140 235.9,140.6 235,141.2 234.2,140.8 
				233.6,140.4 			"/>
			<polygon class="st24" points="248.4,152 249.2,150.8 250.4,150.7 251.1,151.6 251.2,152.4 250.8,153 249.9,153.6 249.2,153.2 
				248.5,152.8 			"/>
			<polygon class="st24" points="267.7,167.2 268.5,165.9 269.8,165.9 270.4,166.8 270.5,167.6 270.2,168.2 269.2,168.8 
				268.5,168.4 267.8,167.9 			"/>
			<polygon class="st24" points="259.7,166.4 260.4,165.1 261.7,165.1 262.4,165.9 262.4,166.8 262.1,167.3 261.2,167.9 
				260.4,167.5 259.7,167.1 			"/>
			<polygon class="st24" points="278.5,151 279.3,149.8 280.5,149.7 281.2,150.6 281.2,151.4 280.9,152 280,152.6 279.2,152.2 
				278.6,151.8 			"/>
			<polygon class="st24" points="270.4,150.2 271.2,148.9 272.4,148.9 273.1,149.8 273.1,150.6 272.8,151.2 271.9,151.8 
				271.1,151.4 270.5,150.9 			"/>
			<polygon class="st24" points="250.5,133.9 251.3,132.6 252.5,132.6 253.2,133.4 253.2,134.2 252.9,134.8 252,135.4 251.2,135 
				250.6,134.6 			"/>
			<polygon class="st24" points="242.4,133 243.2,131.8 244.4,131.7 245.1,132.6 245.1,133.4 244.8,134 243.9,134.6 243.1,134.2 
				242.5,133.8 			"/>
			<polygon class="st24" points="227,139.4 227.8,138.2 229,138.1 229.7,139 229.7,139.8 229.4,140.4 228.5,141 227.7,140.6 
				227.1,140.2 			"/>
			<polygon class="st24" points="218.9,138.6 219.7,137.3 220.9,137.3 221.6,138.2 221.6,139 221.3,139.6 220.4,140.2 219.6,139.8 
				219,139.3 			"/>
		</g>
	</g>
</g>
<g id="Layer_3_2_">
	<g id="pulse">
		<path class="st25" d="M347.1,250.8c39.4-19.7,65.1-52.1,65.1-88.7s-25.7-69.1-65.1-88.7"/>
		<path class="st25" d="M296.1,301.8c-25.1,12.5-55.7,19.9-88.7,19.9s-63.6-7.4-88.7-19.9"/>
		<path class="st25" d="M118.6,22.4c25.1-12.5,55.7-19.9,88.7-19.9s63.6,7.4,88.7,19.9"/>
		<path class="st25" d="M67.6,73.4C28.2,93.1,2.5,125.5,2.5,162.1s25.7,69.1,65.1,88.7"/>
		<path class="st25" d="M142.1,278.3c18.4,9.2,40.9,14.6,65.2,14.6s46.8-5.4,65.2-14.6"/>
		<path class="st25" d="M91.1,96.9c-29,14.5-47.9,38.3-47.9,65.2c0,26.9,18.9,50.8,47.9,65.2"/>
		<path class="st25" d="M272.6,45.9c-18.4-9.2-40.9-14.6-65.2-14.6s-46.8,5.4-65.2,14.6"/>
		<path class="st25" d="M323.6,227.3c29-14.5,47.9-38.3,47.9-65.2c0-26.9-18.9-50.8-47.9-65.2"/>
	</g>
</g>
</svg>
