<?xml version="1.0" encoding="utf-8"?>
<!-- Generator: Adobe Illustrator 21.0.1, SVG Export Plug-In . SVG Version: 6.00 Build 0)  -->
<svg version="1.1" id="Layer_1" xmlns="http://www.w3.org/2000/svg" xmlns:xlink="http://www.w3.org/1999/xlink" x="0px" y="0px"
	 viewBox="0 0 2000 4000" style="enable-background:new 0 0 2000 4000;" width="2000" height="4000" xml:space="preserve">
<style type="text/css">
	.st0{fill:#A23635;}
</style>
<polygon class="st0" points="1576.2,2857.9 1582.8,2847.4 1593,2847.1 1598.8,2854.5 1598.9,2861.2 1596.4,2866.1 1588.8,2871
	1582.4,2867.7 1577,2864 "/>
<polygon class="st0" points="356.7,2857.9 363.3,2847.4 373.5,2847.1 379.3,2854.5 379.4,2861.2 376.9,2866.1 369.3,2871
	362.9,2867.7 357.5,2864 "/>
<polygon class="st0" points="436.3,2295.6 442.9,2285.1 453.1,2284.8 458.9,2292.2 459,2298.9 456.5,2303.8 448.9,2308.7
	442.5,2305.4 437.1,2301.7 "/>
<polygon class="st0" points="86.3,2395.6 92.9,2385.1 103.1,2384.8 108.9,2392.2 109,2398.9 106.4,2403.8 98.9,2408.7 92.5,2405.4
	87.1,2401.7 "/>
<polygon class="st0" points="1524.8,2194.3 1531.4,2183.7 1541.6,2183.4 1547.4,2190.8 1547.5,2197.5 1544.9,2202.4 1537.3,2207.3
	1531,2204 1525.6,2200.4 "/>
<polygon class="st0" points="186.3,2105.5 192.9,2095 203.1,2094.7 208.9,2102.1 209,2108.8 206.5,2113.7 198.9,2118.6
	192.5,2115.3 187.1,2111.6 "/>
<polygon class="st0" points="1524.8,1929.8 1531.4,1919.3 1541.6,1919 1547.4,1926.4 1547.5,1933.1 1544.9,1937.9 1537.3,1942.9
	1531,1939.6 1525.6,1935.9 "/>
<polygon class="st0" points="1827.8,1807.9 1834.3,1797.3 1844.6,1797 1850.3,1804.4 1850.5,1811.1 1847.9,1816 1840.3,1820.9
	1834,1817.6 1828.6,1814 "/>
<polygon class="st0" points="1767.8,2027.9 1774.3,2017.3 1784.6,2017.1 1790.3,2024.4 1790.5,2031.1 1787.9,2036 1780.3,2041
	1774,2037.7 1768.6,2034 "/>
<polygon class="st0" points="1769.4,3064.6 1776,3054 1786.2,3053.8 1792,3061.1 1792.1,3067.8 1789.6,3072.7 1782,3077.7
	1775.6,3074.4 1770.2,3070.7 "/>
<polygon class="st0" points="742.2,3437.5 748.8,3426.9 759,3426.6 764.8,3434 764.9,3440.7 762.3,3445.6 754.7,3450.5
	748.4,3447.2 743,3443.6 "/>
<polygon class="st0" points="1279.2,3497.4 1285.8,3486.9 1296,3486.6 1301.8,3494 1301.9,3500.7 1299.3,3505.6 1291.8,3510.5
	1285.4,3507.2 1280,3503.5 "/>
<polygon class="st0" points="1076.7,3485.5 1083.2,3474.9 1093.4,3474.7 1099.2,3482 1099.4,3488.7 1096.8,3493.6 1089.2,3498.6
	1082.8,3495.3 1077.4,3491.6 "/>
<polygon class="st0" points="897.7,3497.4 904.2,3486.9 914.4,3486.6 920.2,3494 920.4,3500.7 917.8,3505.6 910.2,3510.5
	903.8,3507.2 898.4,3503.5 "/>
<polygon class="st0" points="1292.5,3373.2 1299.1,3362.7 1309.3,3362.4 1315.1,3369.8 1315.2,3376.5 1312.6,3381.4 1305,3386.3
	1298.7,3383 1293.3,3379.3 "/>
<polygon class="st0" points="1927.1,3163.7 1933.6,3153.2 1943.9,3152.9 1949.6,3160.3 1949.8,3166.9 1947.2,3171.8 1939.6,3176.8
	1933.3,3173.5 1927.9,3169.8 "/>
<polygon class="st0" points="1559.1,3052.7 1565.6,3042.1 1575.9,3041.8 1581.6,3049.2 1581.8,3055.9 1579.2,3060.8 1571.6,3065.7
	1565.3,3062.4 1559.9,3058.7 "/>
<polygon class="st0" points="1209,3152.7 1215.6,3142.1 1225.8,3141.8 1231.6,3149.2 1231.7,3155.9 1229.2,3160.8 1221.6,3165.7
	1215.2,3162.4 1209.8,3158.8 "/>
<polygon class="st0" points="1010.7,3001.1 1017.3,2990.5 1027.5,2990.2 1033.3,2997.6 1033.4,3004.3 1030.8,3009.2 1023.3,3014.1
	1016.9,3010.9 1011.5,3007.2 "/>
<polygon class="st0" points="909,3302.7 915.6,3292.1 925.8,3291.8 931.6,3299.2 931.7,3305.9 929.1,3310.8 921.6,3315.7
	915.2,3312.5 909.8,3308.8 "/>
<polygon class="st0" points="1819.1,2832.6 1825.7,2822.1 1835.9,2821.8 1841.7,2829.2 1841.8,2835.9 1839.2,2840.8 1831.7,2845.7
	1825.3,2842.4 1819.9,2838.7 "/>
<polygon class="st0" points="1289.1,2742.5 1295.6,2732 1305.9,2731.7 1311.6,2739.1 1311.8,2745.8 1309.2,2750.7 1301.6,2755.6
	1295.3,2752.3 1289.9,2748.6 "/>
<polygon class="st0" points="1289.1,2952.6 1295.6,2942 1305.9,2941.7 1311.6,2949.1 1311.8,2955.8 1309.2,2960.7 1301.6,2965.6
	1295.3,2962.3 1289.9,2958.7 "/>
<polygon class="st0" points="1580.4,2642.6 1587,2632.1 1597.2,2631.8 1603,2639.2 1603.1,2645.8 1600.6,2650.7 1593,2655.7
	1586.6,2652.4 1581.2,2648.7 "/>
<polygon class="st0" points="1829.5,3433.2 1836.1,3422.7 1846.3,3422.4 1852.1,3429.8 1852.2,3436.5 1849.6,3441.3 1842.1,3446.3
	1835.7,3443 1830.3,3439.3 "/>
<polygon class="st0" points="1559.5,3653.2 1566.1,3642.7 1576.3,3642.4 1582.1,3649.8 1582.2,3656.5 1579.6,3661.4 1572,3666.3
	1565.7,3663 1560.3,3659.3 "/>
<polygon class="st0" points="1559.5,3393.2 1566.1,3382.7 1576.3,3382.4 1582.1,3389.8 1582.2,3396.5 1579.6,3401.3 1572,3406.3
	1565.7,3403 1560.3,3399.3 "/>
<polygon class="st0" points="101.1,3369.4 107.7,3358.9 117.9,3358.6 123.7,3366 123.8,3372.6 121.2,3377.5 113.7,3382.5
	107.3,3379.2 101.9,3375.5 "/>
<polygon class="st0" points="735.7,3159.9 742.3,3149.3 752.5,3149 758.3,3156.4 758.4,3163.1 755.8,3168 748.2,3172.9
	741.9,3169.6 736.5,3166 "/>
<polygon class="st0" points="367.7,3048.8 374.3,3038.3 384.5,3038 390.3,3045.4 390.4,3052.1 387.8,3056.9 380.2,3061.9
	373.9,3058.6 368.5,3054.9 "/>
<polygon class="st0" points="17.7,3148.8 24.2,3138.3 34.4,3138 40.2,3145.4 40.4,3152.1 37.8,3156.9 30.2,3161.9 23.8,3158.6
	18.4,3154.9 "/>
<polygon class="st0" points="627.7,2828.8 634.3,2818.2 644.5,2818 650.3,2825.3 650.4,2832 647.8,2836.9 640.3,2841.9
	633.9,2838.6 628.5,2834.9 "/>
<polygon class="st0" points="97.7,2738.7 104.3,2728.1 114.5,2727.9 120.3,2735.2 120.4,2741.9 117.8,2746.8 110.2,2751.8
	103.9,2748.5 98.5,2744.8 "/>
<polygon class="st0" points="389,2638.8 395.6,2628.2 405.8,2627.9 411.6,2635.3 411.7,2642 409.2,2646.9 401.6,2651.8
	395.2,2648.5 389.8,2644.9 "/>
<polygon class="st0" points="848,2666.5 854.6,2655.9 864.8,2655.7 870.6,2663 870.7,2669.7 868.1,2674.6 860.5,2679.6
	854.2,2676.3 848.8,2672.6 "/>
<polygon class="st0" points="368.1,3649.4 374.7,3638.9 384.9,3638.6 390.7,3646 390.8,3652.6 388.2,3657.5 380.7,3662.5
	374.3,3659.2 368.9,3655.5 "/>
<polygon class="st0" points="368.1,3389.4 374.7,3378.8 384.9,3378.6 390.7,3385.9 390.8,3392.6 388.2,3397.5 380.7,3402.4
	374.3,3399.2 368.9,3395.5 "/>
<polygon class="st0" points="989.4,3939.4 995.9,3928.9 1006.1,3928.6 1011.9,3936 1012.1,3942.7 1009.5,3947.6 1001.9,3952.5
	995.5,3949.2 990.1,3945.5 "/>
<polygon class="st0" points="1419.4,3959.4 1426,3948.9 1436.2,3948.6 1442,3956 1442.1,3962.7 1439.5,3967.6 1432,3972.5
	1425.6,3969.2 1420.2,3965.5 "/>
<polygon class="st0" points="1899.4,3959.4 1906,3948.9 1916.2,3948.6 1922,3956 1922.2,3962.7 1919.6,3967.6 1912,3972.5
	1905.6,3969.2 1900.2,3965.5 "/>
<polygon class="st0" points="1299.4,3889.4 1306,3878.9 1316.2,3878.6 1322,3886 1322.1,3892.7 1319.5,3897.6 1311.9,3902.5
	1305.6,3899.2 1300.2,3895.5 "/>
<polygon class="st0" points="1199.4,3949.4 1205.9,3938.9 1216.2,3938.6 1221.9,3946 1222.1,3952.7 1219.5,3957.6 1211.9,3962.5
	1205.6,3959.2 1200.2,3955.5 "/>
<polygon class="st0" points="1199.4,3849.4 1205.9,3838.9 1216.2,3838.6 1221.9,3846 1222.1,3852.7 1219.5,3857.6 1211.9,3862.5
	1205.6,3859.2 1200.2,3855.5 "/>
<polygon class="st0" points="1099.4,3899.4 1105.9,3888.9 1116.2,3888.6 1121.9,3896 1122.1,3902.7 1119.5,3907.6 1111.9,3912.5
	1105.5,3909.2 1100.1,3905.5 "/>
<polygon class="st0" points="859.3,3949.4 865.9,3938.9 876.1,3938.6 881.9,3946 882,3952.7 879.5,3957.6 871.9,3962.5
	865.5,3959.2 860.1,3955.5 "/>
<polygon class="st0" points="939.3,3899.4 945.9,3888.9 956.1,3888.6 961.9,3896 962.1,3902.7 959.5,3907.6 951.9,3912.5
	945.5,3909.2 940.1,3905.5 "/>
<polygon class="st0" points="69.3,3899.4 75.8,3888.9 86.1,3888.6 91.8,3896 92,3902.7 89.4,3907.6 81.8,3912.5 75.4,3909.2
	70,3905.5 "/>
<polygon class="st0" points="69.3,3749.4 75.8,3738.9 86.1,3738.6 91.8,3746 92,3752.7 89.4,3757.5 81.8,3762.5 75.4,3759.2
	70,3755.5 "/>
<polygon class="st0" points="69.3,3589.4 75.8,3578.9 86.1,3578.6 91.8,3585.9 92,3592.6 89.4,3597.5 81.8,3602.5 75.4,3599.2
	70,3595.5 "/>
<polygon class="st0" points="749.3,3969.4 755.9,3958.9 766.1,3958.6 771.9,3966 772,3972.7 769.5,3977.6 761.9,3982.5
	755.5,3979.2 750.1,3975.5 "/>
<polygon class="st0" points="799.3,3919.4 805.9,3908.9 816.1,3908.6 821.9,3916 822,3922.7 819.5,3927.6 811.9,3932.5
	805.5,3929.2 800.1,3925.5 "/>
<polygon class="st0" points="569.3,3949.4 575.9,3938.9 586.1,3938.6 591.9,3946 592,3952.7 589.4,3957.6 581.9,3962.5
	575.5,3959.2 570.1,3955.5 "/>
<polygon class="st0" points="669.3,3909.4 675.9,3898.9 686.1,3898.6 691.9,3906 692,3912.7 689.4,3917.6 681.9,3922.5
	675.5,3919.2 670.1,3915.5 "/>
<polygon class="st0" points="749.3,3839.4 755.9,3828.9 766.1,3828.6 771.9,3836 772,3842.7 769.5,3847.5 761.9,3852.5
	755.5,3849.2 750.1,3845.5 "/>
<polygon class="st0" points="580.7,3497.4 587.2,3486.9 597.5,3486.6 603.2,3494 603.4,3500.7 600.8,3505.6 593.2,3510.5
	586.9,3507.2 581.5,3503.5 "/>
<polygon class="st0" points="999.4,3839.4 1005.9,3828.9 1016.1,3828.6 1021.9,3836 1022.1,3842.7 1019.5,3847.5 1011.9,3852.5
	1005.5,3849.2 1000.1,3845.5 "/>
<polygon class="st0" points="479.3,3839.4 485.9,3828.9 496.1,3828.6 501.9,3836 502,3842.7 499.4,3847.5 491.9,3852.5
	485.5,3849.2 480.1,3845.5 "/>
<polygon class="st0" points="579.3,3799.4 585.9,3788.9 596.1,3788.6 601.9,3796 602,3802.7 599.4,3807.5 591.9,3812.5
	585.5,3809.2 580.1,3805.5 "/>
<polygon class="st0" points="699.3,3729.4 705.9,3718.9 716.1,3718.6 721.9,3726 722,3732.7 719.5,3737.5 711.9,3742.5
	705.5,3739.2 700.1,3735.5 "/>
<polygon class="st0" points="939.3,3729.4 945.9,3718.9 956.1,3718.6 961.9,3726 962.1,3732.7 959.5,3737.5 951.9,3742.5
	945.5,3739.2 940.1,3735.5 "/>
<polygon class="st0" points="1129.4,3729.4 1135.9,3718.9 1146.2,3718.6 1151.9,3726 1152.1,3732.7 1149.5,3737.5 1141.9,3742.5
	1135.6,3739.2 1130.2,3735.5 "/>
<polygon class="st0" points="1289.4,3769.4 1296,3758.9 1306.2,3758.6 1312,3766 1312.1,3772.7 1309.5,3777.5 1301.9,3782.5
	1295.6,3779.2 1290.2,3775.5 "/>
<polygon class="st0" points="1678.1,3246 1684.6,3235.5 1694.9,3235.2 1700.6,3242.6 1700.8,3249.3 1698.2,3254.1 1690.6,3259.1
	1684.3,3255.8 1678.9,3252.1 "/>
<polygon class="st0" points="1819.4,3891.4 1826,3880.8 1836.2,3880.5 1842,3887.9 1842.1,3894.6 1839.6,3899.5 1832,3904.4
	1825.6,3901.2 1820.2,3897.5 "/>
<polygon class="st0" points="485.3,3972.5 491.9,3961.9 502.1,3961.7 507.9,3969 508,3975.7 505.5,3980.6 497.9,3985.6
	491.5,3982.3 486.1,3978.6 "/>
<polygon class="st0" points="365.3,3902.5 371.9,3891.9 382.1,3891.7 387.9,3899 388,3905.7 385.4,3910.6 377.9,3915.6
	371.5,3912.3 366.1,3908.6 "/>
<polygon class="st0" points="265.3,3962.5 271.9,3951.9 282.1,3951.7 287.9,3959 288,3965.7 285.4,3970.6 277.9,3975.6
	271.5,3972.3 266.1,3968.6 "/>
<polygon class="st0" points="265.3,3862.5 271.9,3851.9 282.1,3851.7 287.9,3859 288,3865.7 285.4,3870.6 277.9,3875.5
	271.5,3872.3 266.1,3868.6 "/>
<polygon class="st0" points="1929.4,3851.4 1936,3840.8 1946.2,3840.5 1952,3847.9 1952.2,3854.6 1949.6,3859.5 1942,3864.4
	1935.6,3861.1 1930.2,3857.5 "/>
<polygon class="st0" points="1689.4,3901.4 1696,3890.8 1706.2,3890.5 1712,3897.9 1712.1,3904.6 1709.6,3909.5 1702,3914.4
	1695.6,3911.2 1690.2,3907.5 "/>
<polygon class="st0" points="169.3,3801.4 175.8,3790.8 186.1,3790.5 191.8,3797.9 192,3804.6 189.4,3809.5 181.8,3814.4
	175.5,3811.1 170.1,3807.5 "/>
<polygon class="st0" points="1579.4,3921.4 1586,3910.8 1596.2,3910.6 1602,3917.9 1602.1,3924.6 1599.5,3929.5 1592,3934.4
	1585.6,3931.2 1580.2,3927.5 "/>
<polygon class="st0" points="1629.4,3871.4 1636,3860.8 1646.2,3860.5 1652,3867.9 1652.1,3874.6 1649.5,3879.5 1642,3884.4
	1635.6,3881.2 1630.2,3877.5 "/>
<polygon class="st0" points="259.3,3731.4 265.9,3720.8 276.1,3720.5 281.8,3727.9 282,3734.6 279.4,3739.5 271.8,3744.4
	265.5,3741.1 260.1,3737.5 "/>
<polygon class="st0" points="1399.4,3901.4 1406,3890.8 1416.2,3890.5 1422,3897.9 1422.1,3904.6 1419.5,3909.5 1411.9,3914.4
	1405.6,3911.2 1400.2,3907.5 "/>
<polygon class="st0" points="1499.4,3861.4 1506,3850.8 1516.2,3850.5 1522,3857.9 1522.1,3864.6 1519.5,3869.5 1512,3874.4
	1505.6,3871.1 1500.2,3867.5 "/>
<polygon class="st0" points="1579.4,3791.4 1586,3780.8 1596.2,3780.5 1602,3787.9 1602.1,3794.6 1599.5,3799.5 1592,3804.4
	1585.6,3801.1 1580.2,3797.5 "/>
<polygon class="st0" points="1699.4,3791.4 1706,3780.8 1716.2,3780.5 1722,3787.9 1722.1,3794.6 1719.6,3799.5 1712,3804.4
	1705.6,3801.1 1700.2,3797.5 "/>
<polygon class="st0" points="1829.4,3791.4 1836,3780.8 1846.2,3780.5 1852,3787.9 1852.1,3794.6 1849.6,3799.5 1842,3804.4
	1835.6,3801.1 1830.2,3797.5 "/>
<polygon class="st0" points="1409.4,3581.3 1416,3570.8 1426.2,3570.5 1432,3577.9 1432.1,3584.6 1429.5,3589.5 1422,3594.4
	1415.6,3591.1 1410.2,3587.4 "/>
<polygon class="st0" points="1769.4,3949.4 1776,3938.9 1786.2,3938.6 1792,3946 1792.1,3952.7 1789.6,3957.6 1782,3962.5
	1775.6,3959.2 1770.2,3955.5 "/>
<polygon class="st0" points="1769.4,3681.4 1776,3670.8 1786.2,3670.5 1792,3677.9 1792.1,3684.6 1789.6,3689.5 1782,3694.4
	1775.6,3691.1 1770.2,3687.4 "/>
<polygon class="st0" points="1959.4,3681.4 1966,3670.8 1976.2,3670.5 1982,3677.9 1982.2,3684.6 1979.6,3689.5 1972,3694.4
	1965.6,3691.1 1960.2,3687.4 "/>
<polygon class="st0" points="355.3,3782.5 361.9,3771.9 372.1,3771.7 377.9,3779 378,3785.7 375.4,3790.6 367.9,3795.5
	361.5,3792.3 356.1,3788.6 "/>
<polygon class="st0" points="445.3,3702.5 451.9,3691.9 462.1,3691.6 467.9,3699 468,3705.7 465.5,3710.6 457.9,3715.5
	451.5,3712.2 446.1,3708.6 "/>
<polygon class="st0" points="149.3,3948.6 155.8,3938.1 166.1,3937.8 171.8,3945.2 172,3951.9 169.4,3956.8 161.8,3961.7
	155.4,3958.4 150,3954.7 "/>
<polygon class="st0" points="1573.9,2394.3 1580.4,2383.7 1590.7,2383.4 1596.4,2390.8 1596.6,2397.5 1594,2402.4 1586.4,2407.3
	1580.1,2404 1574.7,2400.4 "/>
<polygon class="st0" points="1751.3,2414.5 1757.8,2404 1768.1,2403.7 1773.8,2411.1 1774,2417.8 1771.4,2422.6 1763.8,2427.6
	1757.4,2424.3 1752,2420.6 "/>
<polygon class="st0" points="549,3234.1 555.6,3223.5 565.8,3223.2 571.6,3230.6 571.7,3237.3 569.2,3242.2 561.6,3247.1
	555.2,3243.9 549.8,3240.2 "/>
<polygon class="st0" points="740.3,2193.7 746.9,2183.1 757.1,2182.9 762.9,2190.2 763.1,2196.9 760.5,2201.8 752.9,2206.7
	746.5,2203.5 741.1,2199.8 "/>
<polygon class="st0" points="1918.8,1902.3 1925.4,1891.7 1935.6,1891.5 1941.4,1898.8 1941.5,1905.5 1938.9,1910.4 1931.4,1915.4
	1925,1912.1 1919.6,1908.4 "/>
<polygon class="st0" points="1894.3,2602.2 1900.9,2591.7 1911.1,2591.4 1916.9,2598.8 1917,2605.5 1914.4,2610.3 1906.8,2615.3
	1900.5,2612 1895.1,2608.3 "/>
<polygon class="st0" points="1882.8,2202.5 1889.3,2191.9 1899.6,2191.7 1905.3,2199 1905.5,2205.7 1902.9,2210.6 1895.3,2215.5
	1888.9,2212.3 1883.5,2208.6 "/>
<polygon class="st0" points="1360.8,2474.2 1367.4,2463.7 1377.6,2463.4 1383.4,2470.8 1383.5,2477.5 1380.9,2482.4 1373.4,2487.3
	1367,2484 1361.6,2480.3 "/>
<polygon class="st0" points="1090.8,2694.3 1097.4,2683.7 1107.6,2683.4 1113.4,2690.8 1113.5,2697.5 1110.9,2702.4 1103.3,2707.3
	1097,2704 1091.6,2700.4 "/>
<polygon class="st0" points="1090.8,2474.2 1097.4,2463.7 1107.6,2463.4 1113.4,2470.8 1113.5,2477.5 1110.9,2482.4 1103.3,2487.3
	1097,2484 1091.6,2480.3 "/>
<polygon class="st0" points="1805.1,231.6 1811.6,221 1821.9,220.7 1827.6,228.1 1827.8,234.8 1825.2,239.7 1817.6,244.6
	1811.3,241.3 1805.9,237.7 "/>
<polygon class="st0" points="804.3,1376.6 810.9,1366 821.1,1365.8 826.9,1373.1 827,1379.8 824.5,1384.7 816.9,1389.7
	810.5,1386.4 805.1,1382.7 "/>
<polygon class="st0" points="436.3,1265.5 442.9,1255 453.1,1254.7 458.9,1262.1 459,1268.8 456.5,1273.7 448.9,1278.6
	442.5,1275.3 437.1,1271.6 "/>
<polygon class="st0" points="86.3,1365.5 92.9,1355 103.1,1354.7 108.9,1362.1 109,1368.8 106.4,1373.7 98.9,1378.6 92.5,1375.3
	87.1,1371.6 "/>
<polygon class="st0" points="1264.8,1404.2 1271.3,1393.6 1281.6,1393.4 1287.3,1400.7 1287.5,1407.4 1284.9,1412.3 1277.3,1417.2
	1270.9,1414 1265.5,1410.3 "/>
<polygon class="st0" points="166.3,635.4 172.9,624.8 183.1,624.6 188.9,631.9 189,638.6 186.5,643.5 178.9,648.4 172.5,645.2
	167.1,641.5 "/>
<polygon class="st0" points="457.7,855.5 464.3,844.9 474.5,844.7 480.3,852 480.4,858.7 477.8,863.6 470.3,868.5 463.9,865.3
	458.5,861.6 "/>
<polygon class="st0" points="1430.7,3234.1 1437.3,3223.5 1447.5,3223.2 1453.3,3230.6 1453.5,3237.3 1450.9,3242.2 1443.3,3247.1
	1436.9,3243.9 1431.5,3240.2 "/>
<polygon class="st0" points="1557.7,997.8 1564.3,987.2 1574.5,987 1580.3,994.3 1580.5,1001 1577.9,1005.9 1570.3,1010.8
	1563.9,1007.6 1558.5,1003.9 "/>
<polygon class="st0" points="1816.4,1491.1 1823,1480.5 1833.2,1480.2 1839,1487.6 1839.1,1494.3 1836.5,1499.2 1829,1504.1
	1822.6,1500.8 1817.2,1497.1 "/>
<polygon class="st0" points="1166.3,860.2 1159.6,849.7 1149.1,849.4 1143.2,856.8 1143.1,863.5 1145.7,868.4 1153.4,873.3
	1159.9,870 1165.5,866.3 "/>
<polygon class="st0" points="1282.5,1973 1289.1,1962.5 1299.3,1962.2 1305.1,1969.6 1305.2,1976.2 1302.6,1981.1 1295.1,1986.1
	1288.7,1982.8 1283.3,1979.1 "/>
<polygon class="st0" points="1580.4,1612.5 1587,1602 1597.2,1601.7 1603,1609 1603.1,1615.7 1600.6,1620.6 1593,1625.6
	1586.6,1622.3 1581.2,1618.6 "/>
<polygon class="st0" points="749.3,2474.2 755.9,2463.7 766.1,2463.4 771.9,2470.8 772,2477.5 769.5,2482.4 761.9,2487.3
	755.5,2484 750.1,2480.3 "/>
<polygon class="st0" points="97.7,1708.6 104.3,1698 114.5,1697.8 120.3,1705.1 120.4,1711.8 117.8,1716.7 110.2,1721.7
	103.9,1718.4 98.5,1714.7 "/>
<polygon class="st0" points="389,1608.7 395.6,1598.1 405.8,1597.8 411.6,1605.2 411.7,1611.9 409.2,1616.8 401.6,1621.7
	395.2,1618.4 389.8,1614.8 "/>
<polygon class="st0" points="699.3,1746.1 705.9,1735.6 716.1,1735.3 721.9,1742.7 722,1749.4 719.5,1754.2 711.9,1759.2
	705.5,1755.9 700.1,1752.2 "/>
<polygon class="st0" points="1573.9,1314.2 1580.4,1303.6 1590.7,1303.3 1596.4,1310.7 1596.6,1317.4 1594,1322.3 1586.4,1327.2
	1580.1,1323.9 1574.7,1320.2 "/>
<polygon class="st0" points="1006.1,1149.7 1012.7,1139.2 1022.9,1138.9 1028.7,1146.3 1028.8,1153 1026.2,1157.8 1018.6,1162.8
	1012.3,1159.5 1006.9,1155.8 "/>
<polygon class="st0" points="1396.1,229.6 1402.7,219.1 1412.9,218.8 1418.7,226.2 1418.8,232.9 1416.3,237.7 1408.7,242.7
	1402.3,239.4 1396.9,235.7 "/>
<polygon class="st0" points="1310.7,1737.5 1317.3,1727 1327.5,1726.7 1333.3,1734.1 1333.4,1740.8 1330.9,1745.6 1323.3,1750.6
	1316.9,1747.3 1311.5,1743.6 "/>
<polygon class="st0" points="510.4,1984.5 517,1973.9 527.2,1973.7 533,1981 533.1,1987.7 530.5,1992.6 523,1997.5 516.6,1994.3
	511.2,1990.6 "/>
<polygon class="st0" points="1918.8,872.2 1925.4,861.6 1935.6,861.4 1941.4,868.7 1941.5,875.4 1938.9,880.3 1931.4,885.2
	1925,882 1919.6,878.3 "/>
<polygon class="st0" points="1710.8,679.3 1717.4,668.8 1727.6,668.5 1733.3,675.9 1733.5,682.6 1730.9,687.5 1723.3,692.4
	1717,689.1 1711.6,685.4 "/>
<polygon class="st0" points="1882.8,1172.4 1889.3,1161.8 1899.6,1161.6 1905.3,1168.9 1905.5,1175.6 1902.9,1180.5 1895.3,1185.4
	1888.9,1182.2 1883.5,1178.5 "/>
<polygon class="st0" points="836.6,2952.6 843.2,2942 853.4,2941.7 859.2,2949.1 859.3,2955.8 856.8,2960.7 849.2,2965.6
	842.8,2962.3 837.4,2958.7 "/>
<polygon class="st0" points="1065.3,2214.4 1071.9,2203.9 1082.1,2203.6 1087.9,2211 1088,2217.7 1085.4,2222.5 1077.9,2227.5
	1071.5,2224.2 1066.1,2220.5 "/>
<polygon class="st0" points="1079.4,1563.4 1086,1552.9 1096.2,1552.6 1102,1560 1102.1,1566.6 1099.6,1571.5 1092,1576.5
	1085.6,1573.2 1080.2,1569.5 "/>
<polygon class="st0" points="1264.8,614.1 1271.3,603.6 1281.6,603.3 1287.3,610.7 1287.5,617.3 1284.9,622.2 1277.3,627.2
	1270.9,623.9 1265.5,620.2 "/>
<polygon class="st0" points="963.9,1914.2 970.5,1903.7 980.7,1903.4 986.5,1910.8 986.6,1917.5 984.1,1922.4 976.5,1927.3
	970.1,1924 964.7,1920.3 "/>
<polygon class="st0" points="1322.1,1104.2 1328.7,1093.6 1338.9,1093.3 1344.7,1100.7 1344.8,1107.4 1342.2,1112.3 1334.6,1117.2
	1328.3,1114 1322.9,1110.3 "/>
<polygon class="st0" points="836.6,638 843.2,627.4 853.4,627.2 859.2,634.5 859.3,641.2 856.8,646.1 849.2,651.1 842.8,647.8
	837.4,644.1 "/>
<polygon class="st0" points="760.7,932.1 767.3,921.6 777.5,921.3 783.3,928.7 783.4,935.4 780.8,940.3 773.2,945.2 766.9,941.9
	761.5,938.2 "/>
<polygon class="st0" points="549,409 555.6,398.5 565.8,398.2 571.6,405.5 571.7,412.2 569.2,417.1 561.6,422.1 555.2,418.8
	549.8,415.1 "/>
<polygon class="st0" points="1000.7,1716.2 1007.3,1705.6 1017.5,1705.4 1023.3,1712.7 1023.4,1719.4 1020.8,1724.3 1013.3,1729.2
	1006.9,1726 1001.5,1722.3 "/>
<polygon class="st0" points="229,159 235.6,148.4 245.8,148.2 251.6,155.5 251.7,162.2 249.1,167.1 241.5,172 235.2,168.8
	229.8,165.1 "/>
<polygon class="st0" points="859,148.8 865.6,138.2 875.8,138 881.5,145.3 881.7,152 879.1,156.9 871.5,161.9 865.2,158.6
	859.8,154.9 "/>
<polygon class="st0" points="199.4,1018.9 206,1008.4 216.2,1008.1 222,1015.5 222.1,1022.2 219.5,1027 212,1032 205.6,1028.7
	200.2,1025 "/>
</svg>
