<?xml version="1.0" encoding="utf-8"?>
<!-- Generator: Adobe Illustrator 21.0.1, SVG Export Plug-In . SVG Version: 6.00 Build 0)  -->
<svg version="1.1" id="Layer_7" xmlns="http://www.w3.org/2000/svg" xmlns:xlink="http://www.w3.org/1999/xlink" x="0px" y="0px"
	 viewBox="0 0 89.3 89.3" width="90" height="90" style="enable-background:new 0 0 89.3 89.3;" xml:space="preserve">
<style type="text/css">
	.st0{fill:#1E895E;}
</style>
<g>
	<path class="st0" d="M81.7,0.2c-0.7,0.7,0.3,3,2.3,5c2,2,4.3,3.1,5,2.3c0.7-0.7-0.3-3-2.3-5C84.7,0.5,82.4-0.5,81.7,0.2z"/>
	<path class="st0" d="M76.4,5.5c-3.9-2.9-7.4-4.2-8.7-2.8c-1.8,1.8,1,7.4,6.3,12.6c5.2,5.2,10.9,8,12.6,6.3c1.3-1.3,0.1-4.9-2.8-8.7
		l3.5-3.5c-1.1-0.1-2.9-1.2-4.5-2.8C81.1,4.9,80,3.1,79.9,2L76.4,5.5z"/>
	<path class="st0" d="M7.6,53.9l13.9,13.9l0,0l13.9,13.9l8.5-9.7c-4.3-3.7-9-8-13.8-12.8c-4.8-4.8-9.1-9.4-12.8-13.7L7.6,53.9z"/>
	<path class="st0" d="M73,16.6C73,16.5,72.9,16.5,73,16.6c-0.1-0.1-0.1-0.1-0.2-0.2c0,0-0.1,0-0.1-0.1c0,0,0,0-0.1-0.1
		c-5.5-5.5-8.6-11.4-6.9-13.2l0,0l-8.3,7.3c1.5,3.6,4.7,8.1,9,12.4c4.3,4.3,8.8,7.5,12.4,9l7.3-8.3l0,0C84.4,25.1,78.5,22.1,73,16.6
		z"/>
	<polygon class="st0" points="15.4,73.9 30.8,89.3 35.8,83.1 21,68.3 6.2,53.5 0,58.5 	"/>
	<path class="st0" d="M56.3,11.4L18.6,44.3c3.5,4.4,7.8,9.1,12.5,13.8c4.7,4.7,9.4,9,13.8,12.5L77.9,33c-4.1-1.8-8.6-4.9-12.6-9
		C61.1,19.9,58.1,15.5,56.3,11.4z"/>
</g>
</svg>
