<?xml version="1.0" encoding="utf-8"?>
<!-- Generator: Adobe Illustrator 21.0.1, SVG Export Plug-In . SVG Version: 6.00 Build 0)  -->
<svg version="1.1" xmlns="http://www.w3.org/2000/svg" xmlns:xlink="http://www.w3.org/1999/xlink" x="0px" y="0px"
	 viewBox="0 0 414.7 324.2" style="enable-background:new 0 0 414.7 324.2;" xml:space="preserve">
<style type="text/css">
	.st0{fill:#F3CB8C;}
	.st1{fill:#958935;}
	.st2{fill:#7F6A2A;}
	.st3{fill:#EDBA66;}
	.st4{fill:#EAAC47;}
	.st5{fill:#605221;}
	.st6{fill:#3F3415;}
	.st7{fill:#403719;}
	.st8{fill:#231F10;}
	.st9{fill:#7D6B2B;}
	.st10{fill:#9B8632;}
	.st11{fill:#816528;}
	.st12{fill:#A87029;}
	.st13{fill:#998635;}
	.st14{fill:#CF8529;}
	.st15{fill:#DD9C3D;}
	.st16{fill:#F9D19B;}
	.st17{fill:#ECAA52;}
	.st18{fill:#F9C67D;}
	.st19{fill:none;stroke:#000000;stroke-width:2;stroke-miterlimit:10;}
	.st20{fill:#FEE8D9;}
	.st21{fill:#A93D30;}
	.st22{fill:#C2473E;}
	.st23{fill:none;}
	.st24{fill:#603913;stroke:#603913;stroke-width:3;stroke-miterlimit:10;}
	.st25{fill:none;stroke:#58595B;stroke-width:5;stroke-miterlimit:10;}
	.st26{fill:#010101;}
	.st27{fill:none;stroke:#000000;stroke-miterlimit:10;}
	.st28{font-family:'WorkSans-Regular';}
	.st29{font-size:13px;}
	.st30{fill:#878D8E;}
	.st31{clip-path:url(#SVGID_2_);fill:#878D8E;}
	.st32{clip-path:url(#SVGID_4_);fill:#878D8E;}
	.st33{clip-path:url(#SVGID_6_);fill:#878D8E;}
	.st34{clip-path:url(#SVGID_8_);fill:#878D8E;}
	.st35{font-size:12px;}
</style>
<g id="fish">
	<g>
		<polygon class="st0" points="355.4,153.9 266.4,92.2 286.9,152.8 		"/>
		<polygon class="st1" points="208.4,94.3 266.4,92.2 240.6,104.5 		"/>
		<polygon class="st2" points="227,111 240.6,104.5 208.4,94.3 		"/>
		<polygon class="st3" points="197.9,151.7 286.9,152.8 266.4,92.2 		"/>
		<polygon class="st4" points="172.3,137.3 197.9,151.7 266.4,92.2 		"/>
		<polygon class="st5" points="98.8,98.9 162.4,145.5 172.3,137.3 		"/>
		<polygon class="st6" points="148.6,156.9 162.4,145.5 98.8,98.9 		"/>
		<polygon class="st7" points="164.9,165.3 148.6,156.9 115.3,215.4 		"/>
		<polygon class="st8" points="182.3,172.7 164.9,165.3 115.3,215.4 		"/>
		<polygon class="st9" points="197.9,151.7 162.4,145.5 172.3,137.3 		"/>
		<polygon class="st10" points="148.6,156.9 197.9,151.7 162.4,145.5 		"/>
		<polygon class="st5" points="164.9,165.3 197.9,151.7 148.6,156.9 		"/>
		<polygon class="st11" points="182.3,172.7 197.9,151.7 164.9,165.3 		"/>
		<polygon class="st12" points="254.4,203.2 197.9,151.7 182.3,172.7 		"/>
		<polygon class="st2" points="200.9,238.7 218.9,188.2 235,195 		"/>
		<polygon class="st13" points="254.4,203.2 235,195 200.9,238.7 		"/>
		<polygon class="st14" points="286.9,152.8 254.4,203.2 197.9,151.7 		"/>
		<polygon class="st15" points="355.4,153.9 254.4,203.2 286.9,152.8 		"/>
		<polygon class="st16" points="355.4,153.9 266.4,92.2 286.9,152.8 		"/>
		<polygon class="st17" points="355.4,153.9 254.4,203.2 286.9,152.8 		"/>
		<polygon class="st18" points="266.4,92.4 326.1,153.7 286.9,153 		"/>
		<polygon class="st15" points="286.9,152.8 326.1,153.4 254.4,203.2 		"/>
		<g>
			<line class="st19" x1="286.2" y1="134.5" x2="301.1" y2="147.7"/>
			<line class="st19" x1="299.5" y1="134.8" x2="289.4" y2="149"/>
		</g>
		<polygon class="st20" points="274.3,115.8 240.6,114.6 197.9,151.7 238.5,188.7 263.8,188.7 280.1,163.3 286.9,152.8 		"/>
		<polygon class="st20" points="197.9,151.7 232.7,135.4 240.6,114.6 		"/>
		<polygon class="st21" points="243.8,188 197.9,151.7 238.5,188.7 		"/>
		<polygon class="st22" points="197.9,151.7 201,154.1 240.6,114.6 		"/>
		<polygon class="st22" points="238.5,188.7 266,185.3 263.8,188.7 		"/>
		<polyline class="st21" points="262.9,185.6 286.9,152.8 266,185.3 		"/>
		<polyline class="st22" points="274.3,115.8 285,155.4 286.9,152.8 		"/>
		<line class="st23" x1="236.6" y1="118.6" x2="240.6" y2="114.6"/>
		<path class="st22" d="M238.2,117"/>
		<polygon class="st21" points="240.6,114.6 274.3,115.8 239.3,116 		"/>
		<path class="st22" d="M238.2,117"/>
	</g>
</g>
<g id="Magnified_1_">
	<g id="loupe_1_">
		
			<rect x="307.7" y="218.1" transform="matrix(0.8449 -0.5349 0.5349 0.8449 -93.8871 213.4206)" class="st24" width="26.9" height="101"/>
		<circle class="st25" cx="254.4" cy="152.4" r="81.8"/>
	</g>
	<g id="Magnification">
		<path class="st3" d="M290.4,85.9l7.3,21.4l-10-29.6c-10.2-4.5-21.4-7.1-33.3-7.1c-3.6,0-7.2,0.3-10.7,0.7l-68.2,59.2l0,0
			l53.8-46.8L290.4,85.9z"/>
		<path class="st4" d="M175.6,130.5l68.2-59.2C210.9,75.6,184.2,99.3,175.6,130.5z"/>
		<path class="st12" d="M225.6,218.2L174.9,172c7.8,31.9,34.4,56.5,67.3,61.4L225.6,218.2L225.6,218.2z"/>
		<polygon class="st14" points="271.4,218.2 313.3,153.2 275.4,212 		"/>
		<path class="st14" d="M225.6,218.2l16.7,15.2c4,0.6,8,0.9,12.2,0.9c2.3,0,4.5-0.1,6.8-0.3l10.2-15.8L225.6,218.2L225.6,218.2z"/>
		<path class="st17" d="M323.2,196.7l-51.4,35.7C293.3,227.8,311.7,214.6,323.2,196.7z"/>
		<path class="st18" d="M313.4,153.1l22.9,0.4c0-0.3,0-0.7,0-1c0-33.3-19.9-62-48.6-74.8l10,29.6L313.4,153.1z"/>
		<path class="st15" d="M323.2,196.7c8.1-12.5,12.8-27.3,13-43.3l-22.9-0.4l-0.1,0.2l-41.9,64.9l0,0l-10.2,15.8
			c3.6-0.3,7.1-0.8,10.6-1.6L323.2,196.7z"/>
		<path class="st20" d="M225.6,218.2l44.2-5.5l43.6-59.6l-3.5,4.8l-19.4-72l-62,0.3l-13.4,35.2l-41.7,19.5
			c-0.5,3.7-0.8,7.6-0.8,11.4c0,5.6,0.6,11,1.6,16.2l61,48.3L225.6,218.2z"/>
		<path class="st20" d="M228.5,86.3H227l2.5-2.5l-55.8,55.6c-0.1,0.5-0.2,1.1-0.2,1.7l41.7-19.5L228.5,86.3z"/>
		<path class="st21" d="M235.2,217l-61-48.3c0.2,1.1,0.5,2.2,0.8,3.3l50.7,46.2L235.2,217z"/>
		<path class="st22" d="M175.6,130.5c-0.8,2.9-1.5,5.8-1.9,8.8l55.8-55.6L175.6,130.5z"/>
		<polygon class="st22" points="269.8,212.7 225.6,218.2 225.6,218.2 271.4,218.2 271.4,218.2 275.4,212 		"/>
		<polygon class="st21" points="275.4,212 313.3,153.2 313.4,153.1 269.8,212.7 		"/>
		<polygon class="st22" points="290.4,85.9 309.9,157.9 313.4,153.1 297.7,107.3 		"/>
		<polygon class="st21" points="226.9,86.3 228.5,86.3 290.4,85.9 229.4,83.8 		"/>
	</g>
</g>
<g id="Icons">
	<g>
		<g>
			<g transform="translate(-540.000000, -189.000000)">
				<path class="st26" d="M771.5,290.4l0.4,17.2l18.4-0.4l-0.4-17.2l3.1,3l6-6.3l-9.4-9l-4,0.1c-0.7,2.2-2.7,3.7-5.1,3.8
					c-2.4,0-4.5-1.4-5.3-3.6l-4,0.1l-9,9.4l6.3,6L771.5,290.4L771.5,290.4z"/>
			</g>
		</g>
		<line class="st27" x1="255.9" y1="89.4" x2="273.3" y2="60.8"/>
		<text transform="matrix(1 0 0 1 274.1113 58.0111)" class="st28 st29">6</text>
	</g>
	<g>
		<g>
			<path class="st26" d="M290.6,138.1c0,0,14.1-24.1-8.3-36.5h-0.1c0,0.1,0,0.1,0,0.1s-0.1,0-0.4,0l0,0c1.4,3.4,2.6,5.3,5,9.7
				c0.2,0.5-1.8,0.3-2-0.1c-0.8-1.9-2.6-6.1-3.5-8.4c0.9,2.5,2.6,7.5,3.5,10.2c0.1,0.1-0.3,0.2-0.6,0.2c-0.3,0-0.6,0-0.8-0.1
				c-0.1-0.1-0.2-0.1-0.2-0.1c-0.1-0.2-0.2-0.4-0.2-0.6c-0.2-0.5-0.4-1.1-0.6-1.8c-1.1-3.3-2.3-8.2-2.5-9.2
				c-1.9-0.2-4.8-0.4-7.7-0.5c-0.1,0-0.1-0.1-0.1-0.1c-0.3,0-0.6,0-0.7,0.1c-24.3,11-15.6,34.4-15.6,34.4s-2.4,0.6-2.8,3.6
				c-0.1,0.7,3.7,0.2,5.5,0.3l0,0c0,0,2.7-0.5,3.8-0.8c1.5-0.4-2.3,1.1-2.3,1.1c5.9,1.4,18,2.1,26.7,1.6c0,0-3.8-2.1-2.2-1.5
				c1.1,0.4,3.9,1.4,3.9,1.4h-0.1c1.1,0.1,3.9,1.6,3.9,1.6C293.9,141.2,290.6,138.1,290.6,138.1z"/>
			<path class="st26" d="M272.2,99.4c2.7-0.5,4.7-0.3,9.7,0.6c2.2-0.7,4.1-3.8,4.9-5.2c0.4-0.8-1.2-1.4-3.2-1.6
				c-0.8,1-3.1,5.1-2.6,4.1c0.9-2,2.1-4.1,2.1-4.1l0,0c-0.1-0.1,0.1-0.9-0.1-0.9c-4.9-0.1-9.9-1.6-14.9,1
				C267.4,93.5,270.1,98.3,272.2,99.4z"/>
			<path class="st26" d="M286.9,141.2L286.9,141.2L286.9,141.2L286.9,141.2z"/>
		</g>
		<line class="st27" x1="292.6" y1="106.2" x2="329.8" y2="77.7"/>
		<text transform="matrix(1 0 0 1 336.235 76.8834)" class="st28 st29">1</text>
	</g>
	<g>
		<g>
			<path class="st26" d="M254.6,155.9c-4.6,1.6-10.7,2.5-17.2,2.5s-12.6-0.9-17.2-2.5c-4.7-1.7-7.3-4-7.3-6.5c0-0.2,0-0.4,0.1-0.6
				c-0.5,0.9-0.9,1.8-1,2.9c0,0.4-0.1,0.9-0.1,1.4c-0.1,0.6-0.1,1.2-0.2,1.9c0.7,2,3.3,3.8,7.3,5.2c4.9,1.8,11.5,2.7,18.4,2.7
				c7,0,13.5-1,18.4-2.7c4.1-1.4,6.6-3.3,7.3-5.2c-0.1-0.7-0.1-1.3-0.2-1.9c-0.1-0.5-0.1-1-0.1-1.4c-0.1-1.1-0.4-2-1-2.9
				c0,0.2,0.1,0.4,0.1,0.6C261.9,151.9,259.3,154.2,254.6,155.9z"/>
			<path class="st26" d="M221.2,169c-3.3-1.1-5.9-2.5-7.7-4.1c0.8,1.2,1.8,2.4,3.2,3.5c6.6,4.8,14.2,5.5,21.4,5.5h1.4
				c10.4-0.3,15.6-3.2,18.6-5.4c1.4-1,2.5-2.2,3.3-3.5c-4.1,3.5-12.9,6.6-24,6.6C231.6,171.6,226,170.7,221.2,169z"/>
			<path class="st26" d="M256,160.5c-5,1.8-11.5,2.7-18.5,2.7s-13.6-1-18.5-2.7c-3.7-1.3-6.2-3-7.2-4.8c-0.1,0.8-0.1,1.7,0,2.5
				c0.9,1.8,3.4,3.5,7.2,4.9c5,1.8,11.6,2.7,18.6,2.7s13.7-1,18.6-2.7c3.8-1.4,6.3-3,7.2-4.9c0-0.9,0-1.7,0-2.5
				C262.2,157.5,259.7,159.2,256,160.5z"/>
			<path class="st26" d="M256.2,165.5c-5.1,2-11.8,3.2-18.8,3.2s-13.6-1.1-18.8-3.2c-3.1-1.2-5.4-2.7-6.7-4.3
				c0.2,0.9,0.5,1.8,0.9,2.7c3.6,3.7,12.9,7.3,24.5,7.3c5.8,0,11.5-0.9,16.3-2.6c3.6-1.3,6.5-2.9,8.2-4.7c0.4-0.9,0.7-1.8,0.9-2.7
				C261.6,162.8,259.3,164.3,256.2,165.5z"/>
			<path class="st26" d="M256.2,163.4c-5,1.8-11.7,2.8-18.8,2.8s-13.7-1-18.8-2.8c-3.5-1.2-5.9-2.8-7-4.4c0,0.4,0.1,0.8,0.2,1.3
				c1.1,1.8,3.5,3.5,7,4.9c5.1,2,11.7,3.1,18.6,3.1c6.9,0,13.5-1.1,18.6-3.1c3.5-1.4,5.9-3.1,7-4.9c0.1-0.4,0.1-0.8,0.2-1.3
				C262,160.7,259.6,162.2,256.2,163.4z"/>
			<path class="st26" d="M220.6,143.8c-4.3,1.5-6.8,3.6-6.8,5.6c0,2.1,2.5,4.1,6.8,5.6c4.5,1.6,10.5,2.5,16.9,2.5s12.4-0.9,16.9-2.5
				c4.3-1.5,6.8-3.6,6.8-5.6s-2.5-4.1-6.8-5.6c-4.5-1.6-10.5-2.5-16.9-2.5C231,141.3,225.1,142.2,220.6,143.8z M249,154.4
				c-3.1,1-7.2,1.6-11.6,1.6c-4.4,0-8.5-0.6-11.6-1.6c-3.2-1.1-4.9-2.5-4.9-4.1c0-1.6,1.7-3,4.9-4.1c3.1-1,7.2-1.6,11.6-1.6
				s8.5,0.6,11.6,1.6c3.2,1.1,4.9,2.5,4.9,4.1C253.9,151.9,252.2,153.3,249,154.4z"/>
		</g>
		<line class="st27" x1="364.9" y1="141" x2="265.2" y2="151.2"/>
		<text transform="matrix(1 0 0 1 371.3242 143.0638)" class="st28 st29">4</text>
	</g>
	<g>
		<g>
			<g>
				
					<rect x="290.7" y="151.3" transform="matrix(0.5141 -0.8577 0.8577 0.5141 9.7461 325.7495)" class="st30" width="3.4" height="6"/>
				<path class="st30" d="M295.8,165.3l-0.2-3.3c-0.1-1.6-1.2-3.5-2.6-4.3l-4-2.4c-1.3-0.8-3.1-0.4-3.9,1l-11.5,19.1
					c-0.8,1.3-0.4,3,1,3.8l8.4,4.8c1.4,0.8,3.1,0.3,3.9-1l7.5-12.5C295.3,169.2,295.9,166.9,295.8,165.3z M292.8,167.7
					c-0.8,0-1.6-0.6-1.6-1.4l-0.3-4.6c0-0.8,0.6-1.6,1.4-1.6c0.8,0,1.6,0.6,1.6,1.4l0.3,4.6C294.3,167,293.7,167.7,292.8,167.7z"/>
			</g>
		</g>
		<line class="st27" x1="347.3" y1="194.7" x2="293" y2="174.8"/>
		<text transform="matrix(1 0 0 1 351.7978 201.474)" class="st28 st29">9</text>
	</g>
	<g>
		<g>
			<g>
				<g>
					<defs>
						<rect id="SVGID_1_" x="250.4" y="189.7" width="23" height="23"/>
					</defs>
					<clipPath id="SVGID_2_">
						<use xlink:href="#SVGID_1_"  style="overflow:visible;"/>
					</clipPath>
					<path class="st31" d="M269.6,197.6c-2.2-0.1-2.4-1.6-2.4-2.7c0-1.1-0.8-2-1.8-2c-0.5,0-0.9,0.2-1.2,0.5
						c-1.7,1.4-2.8,0.1-3.1-0.4c0,0,0-0.1-0.1-0.1l0,0l0,0c-0.4-0.6-1.2-1-2-1c-1.2,0-2.2,1.1-2.2,2.4c0,0.3,0,0.5,0.2,1.2
						c0.3,0.7-0.3,1.2-1,0.7c-0.6-0.4-1.2-0.7-2-0.7c-1.5,0-2.8,1.4-2.8,3c0,0.9,0.4,1.6,0.9,2.2c0.4,0.3,0.4,0.9,0.2,1.4
						c-0.2,0.4-0.3,0.9-0.3,1.3c0,1.4,1,2.5,2.3,2.5c1.7,0,2.9,0.3,3,2.9c0,1,0.7,1.8,1.6,1.8c0.7,0,1.4-0.5,1.5-1.3l0,0
						c0.3-1,1.5-2,4-0.3c0,0,0,0,0.1,0l0,0c0.3,0.2,0.5,0.3,0.9,0.3c0.9,0,1.6-0.7,1.7-1.7c0-0.1,0-0.3,0-0.4
						c-0.1-2.1,2.5-1.3,2.6-1.2l0,0c0.1,0,0.2,0.1,0.4,0.1c0.4,0,0.8-0.4,0.8-0.9c0-0.4-0.2-0.8-0.5-0.9l0,0
						c-1.9-0.9,0.5-3.5,0.5-3.5l0,0c0.3-0.3,0.5-0.8,0.5-1.3C271.3,198.4,270.5,197.6,269.6,197.6 M252.7,203.8
						c-0.1,0-0.1-0.1-0.1-0.1l0,0c0-0.1,0.1-0.1,0.1-0.1l0.1,0.1l0,0C252.9,203.7,252.8,203.8,252.7,203.8L252.7,203.8z M254,205.1
						L254,205.1L254,205.1c-0.1,0.1-0.1,0.1-0.1,0.1l0,0l0,0h-0.1c0,0,0,0-0.1,0c0,0,0,0-0.1,0h-0.1c0,0,0,0-0.1,0l0,0l0,0
						c0,0,0,0-0.1,0c0,0,0,0-0.1,0c0,0,0,0-0.1-0.1c0,0,0,0-0.1-0.1l-0.1-0.1c0,0,0,0,0-0.1c0,0,0,0,0-0.1c0,0,0-0.1-0.1-0.1
						c0,0,0,0,0-0.1c0,0,0,0,0-0.1l0,0l0,0v-0.1c0-0.1,0-0.1,0.1-0.1h0.1c0,0,0,0,0,0.1l0,0l0,0l0,0l0,0c0,0,0,0.1,0.1,0.1l0,0l0,0
						l0,0l0,0l0,0c0,0,0,0,0.1,0c0,0,0.1,0,0.1,0.1l0,0l0,0c0,0,0,0,0.1,0h0.1h0.1h0.1l0,0l0,0l0,0l0,0l0,0
						C254.1,204.9,254.1,205,254,205.1 M259,192.5c0-0.1,0.1-0.1,0.1-0.1l0,0c0.1,0,0.1,0.1,0.1,0.1s0,0.1-0.1,0.1l0,0l0,0
						C259,192.6,259,192.6,259,192.5 M258.5,209.8L258.5,209.8L258.5,209.8C258.5,209.8,258.4,209.8,258.5,209.8
						C258.4,209.8,258.4,209.8,258.5,209.8c-0.1,0-0.1,0-0.1,0v-0.1l0,0l0,0l0,0l0,0l0,0C258.6,209.8,258.5,209.8,258.5,209.8
						 M258.7,192.6L258.7,192.6C258.7,192.6,258.6,192.6,258.7,192.6c-0.1,0-0.1,0-0.1,0l0,0l0,0c0,0,0,0-0.1,0c0,0,0,0-0.1,0
						c0,0,0,0-0.1,0c0,0-0.1,0-0.1,0.1l-0.1,0.1l-0.1,0.1l0,0l0,0c0,0,0,0,0,0.1c0,0,0,0.1-0.1,0.1l0,0l0,0c0,0,0,0.1-0.1,0.1l0,0
						l0,0l0,0l0,0l0,0h-0.1c0,0,0,0,0-0.1l0,0c0,0,0,0,0-0.1l0,0c0,0,0,0,0-0.1v-0.1c0,0,0,0,0-0.1c0,0,0,0,0-0.1l0.1-0.1
						c0,0,0,0,0.1-0.1l0,0l0,0c0,0,0,0,0.1-0.1c0,0,0,0,0.1-0.1c0,0,0,0,0.1-0.1c0,0,0,0,0.1,0l0.1-0.1c0,0,0,0,0.1,0c0,0,0,0,0.1,0
						c0,0,0,0,0.1,0c0,0,0,0,0.1,0c0,0,0,0,0.1,0c0,0,0,0,0.1,0l0,0l0,0h0.1l0.1,0.1C258.8,192.6,258.8,192.6,258.7,192.6
						C258.8,192.6,258.7,192.6,258.7,192.6 M259.6,209.7c0,0,0,0.1-0.1,0.1c0,0,0,0-0.1,0c0,0,0,0-0.1,0c0,0,0,0-0.1,0
						c0,0,0,0-0.1,0s-0.1,0-0.1,0h-0.1c0,0,0,0-0.1,0l0,0l0,0c0,0-0.1-0.1,0-0.1l0,0l0,0l0,0l0,0c0,0,0,0,0.1,0c0,0,0,0,0.1,0
						c0,0,0,0,0.1,0c0,0,0,0,0.1,0h0.1h0.1l0,0l0,0l0,0l0,0C259.6,209.6,259.6,209.7,259.6,209.7L259.6,209.7 M266.2,208.4
						C266.2,208.4,266.1,208.4,266.2,208.4c0,0.1-0.1,0.1-0.1,0.1s0,0-0.1,0.1l0,0l0,0l0,0c0,0,0,0-0.1,0h-0.1h-0.1h-0.1h-0.1h-0.1
						h-0.1h-0.1l0,0l0,0l0,0v-0.1c0,0,0,0,0.1,0c0,0,0,0,0.1,0l0,0l0,0l0,0l0,0h0.1h0.1h0.1h0.1h0.1h0.1h0.1h0.1c0,0,0,0,0.1,0
						c0,0,0,0,0.1,0h0.1l0,0C266.1,208.3,266.2,208.3,266.2,208.4C266.2,208.3,266.2,208.4,266.2,208.4 M270.5,198.9L270.5,198.9
						C270.5,198.8,270.5,198.8,270.5,198.9C270.5,198.8,270.5,198.8,270.5,198.9C270.4,198.8,270.4,198.8,270.5,198.9
						c-0.1-0.1-0.1-0.1-0.1-0.1l0,0l0,0l0,0l0,0l0,0l0,0l0,0l0,0l0,0l0,0l0,0c0-0.1,0-0.1,0.1-0.1l0,0l0,0h0.1c0,0,0,0,0.1,0
						c0,0,0,0,0.1,0c0,0,0,0,0.1,0.1c0,0,0,0,0,0.1l0.1,0.1c0,0,0,0,0,0.1c0,0,0,0,0,0.1c0,0,0,0,0,0.1l0,0l0,0
						C270.6,198.9,270.6,198.9,270.5,198.9L270.5,198.9L270.5,198.9 M270.8,199.2C270.7,199.2,270.7,199.3,270.8,199.2
						c-0.1,0.1-0.1,0.1-0.1,0.1c-0.1,0-0.1-0.1-0.1-0.1H270.8h-0.2l0,0c0-0.1,0.1-0.1,0.1-0.1S270.8,199.1,270.8,199.2L270.8,199.2
						L270.8,199.2z"/>
				</g>
			</g>
			<g>
				<g>
					<defs>
						<rect id="SVGID_3_" x="250.4" y="189.7" width="23" height="23"/>
					</defs>
					<clipPath id="SVGID_4_">
						<use xlink:href="#SVGID_3_"  style="overflow:visible;"/>
					</clipPath>
					<path class="st32" d="M255,194.4c0.3,0,0.5-0.2,0.5-0.5s-0.2-0.5-0.5-0.5s-0.5,0.2-0.5,0.5C254.5,194.1,254.7,194.4,255,194.4
						 M254.7,193.6C254.7,193.6,254.8,193.6,254.7,193.6c0.1-0.1,0.1-0.1,0.1-0.1l0,0c0,0,0,0,0.1,0l0,0l0,0l0,0l0,0l0,0l0,0l0,0
						l0,0h-0.1C254.8,193.6,254.8,193.7,254.7,193.6C254.8,193.7,254.8,193.7,254.7,193.6C254.7,193.7,254.7,193.7,254.7,193.6
						L254.7,193.6C254.7,193.7,254.7,193.7,254.7,193.6C254.7,193.7,254.7,193.7,254.7,193.6C254.7,193.7,254.7,193.6,254.7,193.6"
						/>
				</g>
			</g>
			<g>
				<g>
					<defs>
						<rect id="SVGID_5_" x="250.4" y="189.7" width="23" height="23"/>
					</defs>
					<clipPath id="SVGID_6_">
						<use xlink:href="#SVGID_5_"  style="overflow:visible;"/>
					</clipPath>
					<path class="st33" d="M268.9,207c-0.6,0-1.1,0.5-1.1,1c0,0.6,0.5,1,1.1,1s1.1-0.5,1.1-1C270,207.5,269.5,207,268.9,207
						 M268.7,207.5L268.7,207.5L268.7,207.5L268.7,207.5c-0.1,0-0.1,0-0.1,0l0,0l0,0l0,0l0,0c0,0,0,0-0.1,0c0,0,0,0-0.1,0.1
						c0,0,0,0,0,0.1c0,0,0,0,0,0.1c0,0,0,0,0,0.1l0,0l0,0c0,0,0,0,0,0.1l0,0l0,0l0,0l0,0c0,0-0.1,0.1-0.1,0l0,0c0,0,0,0,0-0.1
						c0,0,0,0,0-0.1c0,0,0,0,0-0.1l0,0l0,0v-0.1c0,0,0-0.1,0.1-0.1c0,0,0-0.1,0.1-0.1l0.1-0.1c0,0,0.1,0,0.1-0.1h0.1l0,0l0,0h0.1
						l0,0l0,0l0,0C268.8,207.3,268.8,207.4,268.7,207.5C268.8,207.4,268.8,207.5,268.7,207.5 M269,207.5L269,207.5L269,207.5
						C268.9,207.5,268.9,207.4,269,207.5c-0.1-0.1,0-0.1,0-0.1l0,0C269,207.4,269.1,207.4,269,207.5L269,207.5"/>
				</g>
			</g>
			<g>
				<g>
					<defs>
						<rect id="SVGID_7_" x="250.4" y="189.7" width="23" height="23"/>
					</defs>
					<clipPath id="SVGID_8_">
						<use xlink:href="#SVGID_7_"  style="overflow:visible;"/>
					</clipPath>
					<path class="st34" d="M272,205.5c-0.3,0-0.5,0.3-0.5,0.6s0.2,0.6,0.5,0.6c0.3,0,0.5-0.3,0.5-0.6
						C272.6,205.7,272.3,205.5,272,205.5 M272,205.7L272,205.7L272,205.7L272,205.7c-0.1,0-0.1,0-0.1,0l0,0l0,0l0,0l0,0l0,0l0,0
						h-0.1l0,0c0,0,0,0,0-0.1l0,0c0,0,0,0,0.1,0l0,0l0,0c0,0,0,0,0.1,0l0,0C272,205.6,272,205.6,272,205.7
						C272,205.6,272,205.6,272,205.7C272.1,205.6,272.1,205.7,272,205.7C272.1,205.7,272.1,205.7,272,205.7"/>
				</g>
			</g>
		</g>
		<line class="st27" x1="265.8" y1="263.3" x2="263.6" y2="210"/>
		<text transform="matrix(1 0 0 1 264.2443 281.2223)" class="st28 st29">3</text>
	</g>
	<g>
		<g>
			<polygon class="st26" points="263.7,170 268,178 253.4,185.8 252.4,180.3 246,179.5 			"/>
			<polygon class="st26" points="233,186.5 238,189.1 231.5,192.7 237.9,194.1 224.6,201.2 220.4,193.3 			"/>
			<polygon class="st26" points="243.2,181.8 244.8,176.5 241.1,176.8 			"/>
			<polygon class="st26" points="249.5,189.1 253.5,192.6 254.9,190.3 			"/>
			<polygon class="st26" points="244.8,192.5 244.5,196.5 242.5,194.3 243.8,191.3 			"/>
			<polygon class="st26" points="239.9,179.9 236.8,181.6 241.8,183.8 			"/>
			<polygon class="st26" points="237.1,198.9 238.8,200.1 239.7,194.7 			"/>
			<polygon class="st26" points="242.4,187 239.4,186.1 238.8,188.4 			"/>
			<polygon class="st26" points="247.7,181.5 251.1,181.3 249.5,182.4 			"/>
			<polygon class="st26" points="249.9,184.6 252.3,186.4 251.8,183.2 			"/>
			<polygon class="st26" points="235.9,192.1 240.4,193.1 240.3,190.4 			"/>
			<polygon class="st26" points="237.4,185.4 236,182.8 233.9,183.3 			"/>
			<polygon class="st26" points="249,194.5 246.5,191.2 247.5,195.3 			"/>
			<polygon class="st26" points="244.8,186.7 242.9,188.9 248.3,186.9 248,183.4 245.5,184.8 245.7,182 243.2,183.6 242.4,185.3 			
				"/>
		</g>
		<line class="st27" x1="208.6" y1="263.3" x2="226.9" y2="203.9"/>
		<text transform="matrix(1 0 0 1 201.0475 280.653)" class="st28 st29">2</text>
	</g>
	<g>
		<g>
			<path class="st30" d="M215.2,195.1c-0.1-0.2-0.7-0.1-1.4,0.3c-0.6,0.4-1,0.9-0.9,1.1c0.1,0.2,0.7,0.1,1.4-0.3
				S215.4,195.3,215.2,195.1z"/>
			<path class="st30" d="M214.3,193.5c0.9-0.8,1.4-1.6,1.2-2c-0.3-0.5-1.9-0.2-3.4,0.8c-1.6,1-2.6,2.2-2.3,2.7
				c0.2,0.4,1.2,0.3,2.3-0.2l0.7,1.1c0.1-0.3,0.4-0.6,0.9-0.9c0.5-0.3,1-0.5,1.3-0.4L214.3,193.5z"/>
			<path class="st30" d="M206.4,173.9l-4.2,2.6l0,0l-4.2,2.6l1.9,2.6c1.2-0.8,2.5-1.7,3.9-2.6c1.4-0.9,2.8-1.7,4.1-2.3L206.4,173.9z
				"/>
			<path class="st30" d="M211.8,192L211.8,192L211.8,192L211.8,192L211.8,192c1.8-1.1,3.4-1.5,3.7-1l0,0l-1.3-2.4
				c-1,0.2-2.3,0.7-3.5,1.5c-1.3,0.8-2.3,1.7-2.9,2.5l1.6,2.2l0,0C209,194.3,210.1,193,211.8,192z"/>
			<polygon class="st30" points="201.1,174.7 196.4,177.5 197.6,179.1 202.1,176.3 206.6,173.6 205.7,171.8 			"/>
			<path class="st30" d="M214,188.2l-5.9-11.1c-1.3,0.6-2.7,1.4-4.1,2.3c-1.4,0.9-2.7,1.8-3.8,2.7l7.3,10.2c0.7-0.9,1.7-1.8,2.9-2.6
				C211.6,188.9,212.9,188.4,214,188.2z"/>
		</g>
		<line class="st27" x1="154.6" y1="226.2" x2="197" y2="183.3"/>
		<rect x="144.9" y="228.9" class="st23" width="7.2" height="15.5"/>
		<text transform="matrix(1 0 0 1 144.8882 237.6944)" class="st28 st35">7</text>
	</g>
	<g>
		<g>
			<path class="st26" d="M187.6,138.6c-0.1,0-0.2,0-0.4,0c-0.5,0.1-0.9,0.5-1.2,1.1c-0.5,1-0.6,2-0.2,2.8c0.4,0.8,1.1,1.4,1.9,1.8
				c1,0.6,2.2,1,3.2,1.4c-2.4,0.4-4.3,0.2-5.7-0.2c-1.7-0.5-2.3-1-2.5-1.2s-0.6-0.2-0.8,0c-0.2,0.2-0.1,0.7,0.1,0.8s1.1,0.9,2.9,1.4
				c0.7,0.2,1.6,0.4,2.5,0.4c-2.9,1.7-5.8,4.4-7.9,7.4c-2.1,3.2-3.2,6.8-2.2,10.2c0.8,2.5,3,4.1,5.6,5c2.6,1,5.5,1.3,8,1.5
				c2.4,0.1,5.3,0,7.9-0.7c2.6-0.7,4.9-2,6-4.4c1.5-3.1,1.1-6.9-0.4-10.4c-1.4-3.5-3.8-6.6-6.6-8.6c-0.3-0.2-0.5-0.4-0.8-0.5
				c2-0.2,4.3-0.8,5.8-2.7c0.2-0.2,0.1-0.6-0.1-0.8c-0.2-0.2-0.6-0.1-0.8,0.1c-1.3,1.6-3.6,2.2-5.6,2.3c-0.9,0.1-1.6,0-2.2-0.1
				c0.5-0.3,0.8-0.4,1.5-1c0.7-0.5,1.3-1.2,1.7-1.9s0.5-1.6,0.1-2.4c-0.3-0.5-0.9-0.8-1.4-0.8c-0.6,0-1.1,0.3-1.6,0.8
				c-0.8,0.8-1.5,2.2-1.9,4.1c-0.6-1.1-1.2-2.2-1.8-3.1c-0.7-1-1.4-2-2.2-2.5c-0.2-0.1-0.4-0.2-0.7-0.3
				C187.9,138.6,187.7,138.6,187.6,138.6z M187.6,139.7c0.1,0,0.3,0,0.4,0.2c0.5,0.3,1.2,1.2,1.9,2.1c0.6,0.9,1.2,2,1.6,2.8
				c-1.1-0.4-2.2-0.8-3.2-1.4c-0.7-0.4-1.2-0.9-1.5-1.4c-0.2-0.5-0.3-1,0.2-1.8C187.2,139.8,187.4,139.7,187.6,139.7L187.6,139.7z
				 M196.2,140.6c0.2,0,0.3,0.1,0.4,0.2c0.2,0.4,0.2,0.7-0.1,1.2c-0.3,0.5-0.8,1.1-1.4,1.6c-0.6,0.5-0.9,0.6-1.4,1
				c0.4-1.7,1-3,1.5-3.5C195.6,140.8,196,140.7,196.2,140.6z M192.9,146.8c1.7,0,3.3,0.4,4.5,1.3c2.5,1.8,4.9,4.9,6.2,8.1
				c1.3,3.3,1.7,6.8,0.4,9.5c-0.9,1.9-2.9,3.1-5.3,3.8c-2.4,0.7-5.2,0.8-7.6,0.7c-2.4-0.1-5.2-0.5-7.6-1.4c-2.4-0.9-4.3-2.3-4.9-4.3
				c-0.9-2.9,0.1-6.3,2-9.3c2-3,4.9-5.7,7.7-7.3C189.6,147.1,191.3,146.7,192.9,146.8z"/>
			<path class="st26" d="M184.4,160.4c0,0.5-0.4,0.9-0.9,0.9s-0.9-0.4-0.9-0.9s0.4-0.9,0.9-0.9S184.4,159.9,184.4,160.4z"/>
			<path class="st26" d="M189.9,164.1c0,0.5-0.4,0.9-0.9,0.9s-0.9-0.4-0.9-0.9s0.4-0.9,0.9-0.9S189.9,163.7,189.9,164.1z"/>
			<path class="st26" d="M192.1,162.4c0,0.5-0.4,0.9-0.9,0.9s-0.9-0.4-0.9-0.9s0.4-0.9,0.9-0.9S192.1,161.9,192.1,162.4z"/>
			<path class="st26" d="M186.4,158.2c0,0.5-0.4,0.9-0.9,0.9s-0.9-0.4-0.9-0.9c0-0.5,0.4-0.9,0.9-0.9
				C186,157.3,186.4,157.7,186.4,158.2z"/>
			<path class="st26" d="M190.2,160.9c0,0.5-0.4,0.9-0.9,0.9s-0.9-0.4-0.9-0.9s0.4-0.9,0.9-0.9S190.2,160.4,190.2,160.9z"/>
			<path class="st26" d="M194.5,161.1c0,0.5-0.4,0.9-0.9,0.9s-0.9-0.4-0.9-0.9s0.4-0.9,0.9-0.9S194.5,160.6,194.5,161.1z"/>
			<path class="st26" d="M185.4,166.5c0,0.5-0.4,0.9-0.9,0.9s-0.9-0.4-0.9-0.9s0.4-0.9,0.9-0.9S185.4,166,185.4,166.5z"/>
			<path class="st26" d="M190.8,166.7c0,0.5-0.4,0.9-0.9,0.9s-0.9-0.4-0.9-0.9s0.4-0.9,0.9-0.9S190.8,166.2,190.8,166.7z"/>
			<path class="st26" d="M193.8,166.7c0,0.5-0.4,0.9-0.9,0.9s-0.9-0.4-0.9-0.9s0.4-0.9,0.9-0.9C193.4,165.9,193.8,166.2,193.8,166.7
				z"/>
			<path class="st26" d="M194.4,163.8c0,0.5-0.4,0.9-0.9,0.9s-0.9-0.4-0.9-0.9s0.4-0.9,0.9-0.9S194.4,163.3,194.4,163.8z"/>
			<path class="st26" d="M200.6,165.8c0,0.5-0.4,0.9-0.9,0.9s-0.9-0.4-0.9-0.9s0.4-0.9,0.9-0.9S200.6,165.3,200.6,165.8z"/>
			<path class="st26" d="M201.8,159c0,0.5-0.4,0.9-0.9,0.9s-0.9-0.4-0.9-0.9s0.4-0.9,0.9-0.9C201.4,158.1,201.8,158.5,201.8,159z"/>
			<path class="st26" d="M199.1,161.8c0,0.5-0.4,0.9-0.9,0.9s-0.9-0.4-0.9-0.9s0.4-0.9,0.9-0.9C198.7,161,199.1,161.3,199.1,161.8z"
				/>
			<path class="st26" d="M182.1,159.5c0,0.5-0.4,0.9-0.9,0.9s-0.9-0.4-0.9-0.9s0.4-0.9,0.9-0.9S182.1,159,182.1,159.5z"/>
			<path class="st26" d="M202.8,162.7c0,0.5-0.4,0.9-0.9,0.9s-0.9-0.4-0.9-0.9s0.4-0.9,0.9-0.9C202.4,161.8,202.8,162.2,202.8,162.7
				z"/>
			<path class="st26" d="M197.6,158c0,0.5-0.4,0.9-0.9,0.9s-0.9-0.5-0.9-0.9c0-0.4,0.4-0.9,0.9-0.9S197.6,157.5,197.6,158z"/>
			<path class="st26" d="M197.3,167.6c0,0.5-0.4,0.9-0.9,0.9s-0.9-0.4-0.9-0.9s0.4-0.9,0.9-0.9C196.9,166.8,197.3,167.2,197.3,167.6
				z"/>
			<path class="st26" d="M181.8,164.5c0,0.5-0.4,0.9-0.9,0.9s-0.9-0.4-0.9-0.9s0.4-0.9,0.9-0.9S181.8,164,181.8,164.5z"/>
			<path class="st26" d="M200,155c0,0.5-0.4,0.9-0.9,0.9s-0.9-0.4-0.9-0.9s0.4-0.9,0.9-0.9C199.6,154.2,200,154.6,200,155z"/>
			<path class="st26" d="M193.3,157.3c0,0.5-0.4,0.9-0.9,0.9s-0.9-0.4-0.9-0.9s0.4-0.9,0.9-0.9S193.3,156.8,193.3,157.3z"/>
			<path class="st26" d="M184,156c0,0.5-0.4,0.9-0.9,0.9s-0.9-0.4-0.9-0.9s0.4-0.9,0.9-0.9S184,155.5,184,156z"/>
			<path class="st26" d="M189.3,155.9c0,0.5-0.4,0.9-0.9,0.9s-0.9-0.4-0.9-0.9s0.4-0.9,0.9-0.9S189.3,155.4,189.3,155.9z"/>
			<path class="st26" d="M195.9,154.1c0,0.5-0.4,0.9-0.9,0.9s-0.9-0.4-0.9-0.9s0.4-0.9,0.9-0.9S195.9,153.6,195.9,154.1z"/>
			<path class="st26" d="M186.6,153.1c0,0.5-0.4,0.9-0.9,0.9s-0.9-0.4-0.9-0.9s0.4-0.9,0.9-0.9S186.6,152.6,186.6,153.1z"/>
			<path class="st26" d="M191.7,153.8c0,0.5-0.4,0.9-0.9,0.9s-0.9-0.4-0.9-0.9s0.4-0.9,0.9-0.9S191.7,153.3,191.7,153.8z"/>
			<path class="st26" d="M199.7,157.4c0,0.5-0.4,0.9-0.9,0.9s-0.9-0.4-0.9-0.9s0.4-0.9,0.9-0.9S199.7,156.9,199.7,157.4z"/>
			<path class="st26" d="M201.8,156.6c0,0.5-0.4,0.9-0.9,0.9s-0.9-0.4-0.9-0.9s0.4-0.9,0.9-0.9S201.8,156.1,201.8,156.6z"/>
			<path class="st26" d="M201.1,161.2c0,0.5-0.4,0.9-0.9,0.9s-0.9-0.4-0.9-0.9s0.4-0.9,0.9-0.9C200.8,160.3,201.1,160.7,201.1,161.2
				z"/>
			<path class="st26" d="M187.6,151c0,0.5-0.4,0.9-0.9,0.9s-0.9-0.4-0.9-0.9s0.4-0.9,0.9-0.9S187.6,150.5,187.6,151z"/>
			<path class="st26" d="M190.3,151.9c0,0.5-0.4,0.9-0.9,0.9s-0.9-0.4-0.9-0.9s0.4-0.9,0.9-0.9C190,151,190.3,151.4,190.3,151.9z"/>
			<path class="st26" d="M195.2,158.8c0,0.5-0.4,0.9-0.9,0.9s-0.9-0.4-0.9-0.9s0.4-0.9,0.9-0.9C194.8,158,195.2,158.4,195.2,158.8z"
				/>
			<path class="st26" d="M197.8,155.7c0,0.5-0.4,0.9-0.9,0.9s-0.9-0.4-0.9-0.9s0.4-0.9,0.9-0.9S197.8,155.2,197.8,155.7z"/>
			<path class="st26" d="M199,159.7c0,0.5-0.4,0.9-0.9,0.9s-0.9-0.4-0.9-0.9s0.4-0.9,0.9-0.9C198.6,158.8,199,159.2,199,159.7z"/>
			<path class="st26" d="M203.3,160.5c0,0.5-0.4,0.9-0.9,0.9s-0.9-0.4-0.9-0.9s0.4-0.9,0.9-0.9C202.9,159.6,203.3,160,203.3,160.5z"
				/>
			<path class="st26" d="M195.3,156.5c0,0.5-0.4,0.9-0.9,0.9s-0.9-0.4-0.9-0.9s0.4-0.9,0.9-0.9S195.3,156,195.3,156.5z"/>
			<path class="st26" d="M202.9,165.1c0,0.5-0.4,0.9-0.9,0.9s-0.9-0.4-0.9-0.9s0.4-0.9,0.9-0.9S202.9,164.6,202.9,165.1z"/>
			<path class="st26" d="M196.7,163c0,0.5-0.4,0.9-0.9,0.9s-0.9-0.4-0.9-0.9s0.4-0.9,0.9-0.9C196.3,162.1,196.7,162.5,196.7,163z"/>
			<path class="st26" d="M196.8,160.8c0,0.5-0.4,0.9-0.9,0.9s-0.9-0.4-0.9-0.9s0.4-0.9,0.9-0.9S196.8,160.3,196.8,160.8z"/>
			<path class="st26" d="M193.6,155c0,0.5-0.4,0.9-0.9,0.9s-0.9-0.4-0.9-0.9s0.4-0.9,0.9-0.9S193.6,154.5,193.6,155z"/>
			<path class="st26" d="M198.3,164.7c0,0.5-0.4,0.9-0.9,0.9s-0.9-0.4-0.9-0.9s0.4-0.9,0.9-0.9C197.9,163.8,198.3,164.2,198.3,164.7
				z"/>
			<path class="st26" d="M199.5,167.9c0,0.5-0.4,0.9-0.9,0.9s-0.9-0.4-0.9-0.9s0.4-0.9,0.9-0.9S199.5,167.4,199.5,167.9z"/>
			<path class="st26" d="M200.5,163.5c0,0.5-0.4,0.9-0.9,0.9s-0.9-0.4-0.9-0.9s0.4-0.9,0.9-0.9C200.1,162.6,200.5,163,200.5,163.5z"
				/>
			<path class="st26" d="M198.4,153c0,0.5-0.4,0.9-0.9,0.9s-0.9-0.4-0.9-0.9s0.4-0.9,0.9-0.9S198.4,152.5,198.4,153z"/>
			<path class="st26" d="M191,158.4c0,0.5-0.4,0.9-0.9,0.9s-0.9-0.4-0.9-0.9c0-0.5,0.4-0.9,0.9-0.9C190.6,157.5,191,157.9,191,158.4
				z"/>
			<path class="st26" d="M188.9,158.3c0,0.5-0.4,0.9-0.9,0.9s-0.9-0.4-0.9-0.9c0-0.5,0.4-0.9,0.9-0.9S188.9,157.8,188.9,158.3z"/>
			<path class="st26" d="M193.6,152.2c0,0.5-0.4,0.9-0.9,0.9s-0.9-0.4-0.9-0.9s0.4-0.9,0.9-0.9S193.6,151.7,193.6,152.2z"/>
			<path class="st26" d="M191.2,156c0,0.5-0.4,0.9-0.9,0.9s-0.9-0.4-0.9-0.9s0.4-0.9,0.9-0.9S191.2,155.6,191.2,156z"/>
			<path class="st26" d="M184.3,153.7c0,0.5-0.4,0.9-0.9,0.9s-0.9-0.4-0.9-0.9s0.4-0.9,0.9-0.9S184.3,153.2,184.3,153.7z"/>
			<path class="st26" d="M189.3,153.3c0,0.5-0.4,0.9-0.9,0.9s-0.9-0.4-0.9-0.9s0.4-0.9,0.9-0.9S189.3,152.8,189.3,153.3z"/>
			<path class="st26" d="M186.8,155.7c0,0.5-0.4,0.9-0.9,0.9s-0.9-0.4-0.9-0.9s0.4-0.9,0.9-0.9S186.8,155.2,186.8,155.7z"/>
			<path class="st26" d="M182.9,166.6c0,0.5-0.4,0.9-0.9,0.9s-0.9-0.4-0.9-0.9s0.4-0.9,0.9-0.9S182.9,166.1,182.9,166.6z"/>
			<path class="st26" d="M192.2,168.7c0,0.5-0.4,0.9-0.9,0.9s-0.9-0.4-0.9-0.9s0.4-0.9,0.9-0.9C191.8,167.8,192.2,168.2,192.2,168.7
				z"/>
			<path class="st26" d="M181.7,157.1c0,0.5-0.4,0.9-0.9,0.9s-0.9-0.4-0.9-0.9s0.4-0.9,0.9-0.9S181.7,156.6,181.7,157.1z"/>
			<path class="st26" d="M185.7,162.5c0,0.5-0.4,0.9-0.9,0.9s-0.9-0.4-0.9-0.9s0.4-0.9,0.9-0.9C185.3,161.7,185.7,162.1,185.7,162.5
				z"/>
			<path class="st26" d="M188.6,166c0,0.5-0.4,0.9-0.9,0.9s-0.9-0.4-0.9-0.9s0.4-0.9,0.9-0.9S188.6,165.5,188.6,166z"/>
			<path class="st26" d="M189.3,168.6c0,0.5-0.4,0.9-0.9,0.9s-0.9-0.4-0.9-0.9s0.4-0.9,0.9-0.9S189.3,168.1,189.3,168.6z"/>
			<path class="st26" d="M187.1,168.1c0,0.5-0.4,0.9-0.9,0.9s-0.9-0.4-0.9-0.9s0.4-0.9,0.9-0.9S187.1,167.6,187.1,168.1z"/>
			<path class="st26" d="M195,168.8c0,0.5-0.4,0.9-0.9,0.9s-0.9-0.4-0.9-0.9s0.4-0.9,0.9-0.9S195,168.3,195,168.8z"/>
			<path class="st26" d="M187.4,160.3c0,0.5-0.4,0.9-0.9,0.9s-0.9-0.4-0.9-0.9s0.4-0.9,0.9-0.9S187.4,159.8,187.4,160.3z"/>
			<path class="st26" d="M180.4,161.6c0,0.5-0.4,0.9-0.9,0.9s-0.9-0.4-0.9-0.9s0.4-0.9,0.9-0.9S180.4,161.1,180.4,161.6z"/>
			<path class="st26" d="M195.8,165.5c0,0.5-0.4,0.9-0.9,0.9s-0.9-0.4-0.9-0.9s0.4-0.9,0.9-0.9C195.4,164.6,195.8,165,195.8,165.5z"
				/>
			<path class="st26" d="M182.5,162.3c0,0.5-0.4,0.9-0.9,0.9s-0.9-0.4-0.9-0.9s0.4-0.9,0.9-0.9S182.5,161.8,182.5,162.3z"/>
			<path class="st26" d="M192.1,164.9c0,0.5-0.4,0.9-0.9,0.9s-0.9-0.4-0.9-0.9s0.4-0.9,0.9-0.9S192.1,164.4,192.1,164.9z"/>
			<path class="st26" d="M184.2,158.1c0,0.5-0.4,0.9-0.9,0.9s-0.9-0.4-0.9-0.9s0.4-0.9,0.9-0.9C183.8,157.2,184.2,157.6,184.2,158.1
				z"/>
			<path class="st26" d="M184,164.1c0,0.5-0.4,0.9-0.9,0.9s-0.9-0.4-0.9-0.9s0.4-0.9,0.9-0.9S184,163.6,184,164.1z"/>
			<path class="st26" d="M186.8,164.6c0,0.5-0.4,0.9-0.9,0.9s-0.9-0.4-0.9-0.9s0.4-0.9,0.9-0.9S186.8,164.1,186.8,164.6z"/>
			<path class="st26" d="M188.5,162.4c0,0.5-0.4,0.9-0.9,0.9s-0.9-0.4-0.9-0.9s0.4-0.9,0.9-0.9C188.1,161.6,188.5,161.9,188.5,162.4
				z"/>
			<path class="st26" d="M192.6,159.8c0,0.5-0.4,0.9-0.9,0.9s-0.9-0.4-0.9-0.9s0.4-0.9,0.9-0.9C192.2,159,192.6,159.4,192.6,159.8z"
				/>
			<path class="st26" d="M189.5,149.4c0,0.5-0.4,0.9-0.9,0.9s-0.9-0.4-0.9-0.9s0.4-0.9,0.9-0.9C189,148.5,189.5,148.9,189.5,149.4z"
				/>
			<path class="st26" d="M195.9,151.6c0,0.5-0.4,0.9-0.9,0.9s-0.9-0.4-0.9-0.9s0.4-0.9,0.9-0.9S195.9,151.2,195.9,151.6z"/>
			<path class="st26" d="M198,150.7c0,0.5-0.4,0.9-0.9,0.9s-0.9-0.4-0.9-0.9s0.4-0.9,0.9-0.9S198,150.2,198,150.7z"/>
			<path class="st26" d="M192,149.9c0,0.5-0.4,0.9-0.9,0.9s-0.9-0.4-0.9-0.9s0.4-0.9,0.9-0.9S192,149.4,192,149.9z"/>
			<path class="st26" d="M194.5,149.2c0,0.5-0.4,0.9-0.9,0.9s-0.9-0.4-0.9-0.9s0.4-0.9,0.9-0.9S194.5,148.7,194.5,149.2z"/>
		</g>
		<line class="st27" x1="146.3" y1="82.6" x2="183.5" y2="136.9"/>
		<text transform="matrix(1 0 0 1 138.1004 77.8834)" class="st28 st29">5</text>
	</g>
	<g>
		<g>
			<path class="st30" d="M215.9,121.2c0.2-0.1,0.4-0.3,0.5-0.4l0.1-0.2l1-2.1l0,0l0,0l0.5-1.1c0.1-0.2,0.3-0.3,0.5-0.2
				c0.2,0.1,0.3,0.3,0.2,0.5l-0.4,0.8l4.3,2.5l-1.5-6.3c0,0-0.7-2.3-2.7-1.9c-0.9,0.2-1.6,0.8-2.1,1.7l-1.8,5l-4.1,1.5
				c-0.4,0.1-0.7,0.7-0.7,1.1c0,0.7,0.8,1.2,1.6,1L215.9,121.2z"/>
			
				<rect x="222.6" y="109.7" transform="matrix(0.9721 -0.2346 0.2346 0.9721 -19.6743 55.6547)" class="st30" width="3" height="1.6"/>
			<path class="st30" d="M203.4,131.7c-0.1,0-0.2,0-0.3-0.1c-0.2-0.2-0.3-0.5-0.1-0.7l5.6-8c0.2-0.2,0.5-0.3,0.7-0.1
				s0.3,0.5,0.1,0.7l-5.6,8C203.7,131.6,203.6,131.7,203.4,131.7L203.4,131.7z"/>
			<path class="st30" d="M202.9,137.4c-0.2,0-0.4-0.2-0.5-0.4c0-0.1,0-0.2,0.1-0.3c0.1-0.1,0.2-0.1,0.3-0.2l0,0
				c0.3,0,0.5,0.2,0.5,0.4C203.4,137.2,203.2,137.4,202.9,137.4L202.9,137.4L202.9,137.4z M202.8,135.9c-0.2,0-0.4-0.2-0.5-0.4
				c0-0.1,0-0.2,0.1-0.3c0.1-0.1,0.2-0.1,0.3-0.2l0,0c0.3,0,0.5,0.2,0.5,0.4C203.3,135.7,203.1,135.9,202.8,135.9
				C202.9,135.9,202.8,135.9,202.8,135.9L202.8,135.9z M202.8,134.4L202.8,134.4c-0.3,0-0.5-0.2-0.5-0.4c0-0.3,0.2-0.5,0.4-0.5l0,0
				c0.3,0,0.5,0.2,0.5,0.4c0,0.1,0,0.2-0.1,0.3S202.9,134.4,202.8,134.4L202.8,134.4L202.8,134.4z M202.7,132.8
				c-0.2,0-0.4-0.2-0.5-0.4c0-0.1,0-0.2,0.1-0.3c0.1-0.1,0.2-0.1,0.3-0.2l0,0c0.3,0,0.5,0.2,0.5,0.4
				C203.1,132.6,203,132.8,202.7,132.8L202.7,132.8L202.7,132.8z"/>
			<path class="st30" d="M228.9,124.2c-0.2-1.4-1.2-2.8-1.7-3.5l0.9-0.2c0.8-0.2,1.3-1,1.1-1.8l-1.4-6c-0.2-0.8-1-1.3-1.8-1.1
				l-2.8,0.7c-0.8,0.2-1.3,1-1.1,1.8l1.4,6c0.2,0.8,1,1.3,1.8,1.1l1-0.2c0.4,0.5,1.6,2,1.8,3.4c0.2,1.3,0,2.3-0.7,3
				c-0.8,0.8-2,1.1-2.9,1.2l-1.6-6.5l-4.8-2.8l-0.8,1.7l0.7,3.1l-4.7,4.4c-0.3,0.3-0.5,0.9-0.5,1.4v6.9c0,0.2,0,0.3,0,0.4
				c0,0.5,0.2,0.9,0.6,1.2c0.4,0.3,0.8,0.5,1.3,0.4c0.9-0.1,1.4-0.6,1.6-1.4l0.1-7.2l3.9-3.2l0.8,3.5c0.1,0.4,0.4,0.7,0.4,0.7
				l4.2,6.6c0.4,0.6,0.9,0.9,1.7,0.9c0.5-0.1,0.9-0.3,1.2-0.6c0.3-0.4,0.5-0.8,0.4-1.3c0-0.3-0.1-0.5-0.2-0.7l-4-6.2l-0.1-0.4
				c1-0.1,2.4-0.4,3.4-1.5C228.8,127,229.1,125.8,228.9,124.2z"/>
			<path class="st30" d="M217.9,110L217.9,110L217.9,110v-0.8c-0.1-1.4-1.2-2.5-2.6-2.5c-1.4,0-2.6,1.1-2.6,2.5h-2.8v0.8H217.9z"/>
			<path class="st30" d="M199.8,136.9c-0.1,0-0.2,0-0.3-0.1c-0.2-0.1-0.3-0.4-0.1-0.6c0.1-0.2,0.4-0.3,0.6-0.1
				c0.2,0.1,0.3,0.4,0.1,0.6C200.1,136.8,199.9,136.9,199.8,136.9L199.8,136.9z M200.6,135.7c-0.1,0-0.2,0-0.3-0.1
				c-0.1-0.1-0.2-0.2-0.2-0.3s0-0.2,0.1-0.4c0.1-0.2,0.4-0.3,0.6-0.1c0.1,0.1,0.2,0.2,0.2,0.3c0,0.1,0,0.2-0.1,0.3
				C200.9,135.6,200.8,135.7,200.6,135.7L200.6,135.7z M201.5,134.4c-0.1,0-0.2,0-0.3-0.1c-0.2-0.1-0.3-0.4-0.1-0.6
				c0.1-0.2,0.4-0.3,0.6-0.1c0.1,0.1,0.2,0.2,0.2,0.3c0,0.1,0,0.2-0.1,0.3C201.8,134.3,201.6,134.4,201.5,134.4L201.5,134.4z"/>
			<path class="st30" d="M198.3,134c-0.2,0-0.4-0.1-0.4-0.3c-0.1-0.3,0.1-0.5,0.3-0.6c0.2-0.1,0.5,0.1,0.6,0.3
				c0.1,0.2-0.1,0.5-0.3,0.6C198.4,134,198.3,134,198.3,134L198.3,134z M199.8,133.6c-0.2,0-0.4-0.1-0.4-0.3
				c-0.1-0.2,0.1-0.5,0.3-0.6c0.3-0.1,0.5,0.1,0.6,0.3c0.1,0.2-0.1,0.5-0.3,0.6C199.8,133.6,199.8,133.6,199.8,133.6L199.8,133.6z
				 M201.2,133.2c-0.2,0-0.4-0.1-0.4-0.3c-0.1-0.2,0.1-0.5,0.3-0.6c0.2-0.1,0.5,0.1,0.6,0.3c0.1,0.2-0.1,0.5-0.3,0.6
				C201.3,133.2,201.3,133.2,201.2,133.2L201.2,133.2z"/>
			<path class="st30" d="M215.7,110.6L215.7,110.6h-4.9l0.1,0.4c0.3,2.4,2.2,4.2,4.5,4.2h0.4v-2.1c1.2-0.2,2.1-1.2,2.1-2.4l0,0l0,0
				l0,0L215.7,110.6L215.7,110.6z M214.9,114.4c-1.6-0.2-2.8-1.4-3.2-3h3.2V114.4z"/>
		</g>
		<line class="st27" x1="214" y1="104.6" x2="204.6" y2="47.5"/>
		<text transform="matrix(1 0 0 1 199.749 41.2255)" class="st28 st29">8</text>
	</g>
</g>
</svg>
