<?xml version="1.0" encoding="utf-8"?>
<!-- Generator: Adobe Illustrator 21.0.1, SVG Export Plug-In . SVG Version: 6.00 Build 0)  -->
<svg version="1.1" xmlns="http://www.w3.org/2000/svg" xmlns:xlink="http://www.w3.org/1999/xlink" x="0px" y="0px"
	 viewBox="0 0 511.1 399.4" style="enable-background:new 0 0 511.1 399.4;" xml:space="preserve">
<style type="text/css">
	.st0{display:none;}
	.st1{display:inline;}
	.st2{fill:#F3CB8C;}
	.st3{fill:#958935;}
	.st4{fill:#7F6A2A;}
	.st5{fill:#EDBA66;}
	.st6{fill:#EAAC47;}
	.st7{fill:#605221;}
	.st8{fill:#3F3415;}
	.st9{fill:#403719;}
	.st10{fill:#231F10;}
	.st11{fill:#7D6B2B;}
	.st12{fill:#9B8632;}
	.st13{fill:#816528;}
	.st14{fill:#A87029;}
	.st15{fill:#998635;}
	.st16{fill:#CF8529;}
	.st17{fill:#DD9C3D;}
	.st18{fill:#F9D19B;}
	.st19{fill:#ECAA52;}
	.st20{fill:#F9C67D;}
	.st21{fill:none;stroke:#000000;stroke-width:2;stroke-miterlimit:10;}
	.st22{fill:#FEE8D9;}
	.st23{fill:#A93D30;}
	.st24{fill:#C2473E;}
	.st25{fill:none;}
	.st26{display:inline;fill:#603913;stroke:#603913;stroke-width:3;stroke-miterlimit:10;}
	.st27{display:inline;fill:none;stroke:#58595B;stroke-width:5;stroke-miterlimit:10;}
	.st28{fill:#878D8E;}
	.st29{clip-path:url(#SVGID_2_);fill:#878D8E;}
	.st30{clip-path:url(#SVGID_4_);fill:#878D8E;}
	.st31{clip-path:url(#SVGID_6_);fill:#878D8E;}
	.st32{clip-path:url(#SVGID_8_);fill:#878D8E;}
	.st33{fill:#010101;}
	.st34{display:inline;fill:none;stroke:#000000;stroke-miterlimit:10;}
	.st35{display:inline;fill:none;}
	.st36{font-family:'WorkSans-Regular';}
	.st37{font-size:13px;}
	.st38{fill:#A23635;}
	.st39{fill:none;stroke:#3E7EC1;stroke-width:5;stroke-linecap:round;stroke-linejoin:round;}
	.st40{fill:#603913;stroke:#603913;stroke-width:3;stroke-miterlimit:10;}
	.st41{fill:none;stroke:#58595B;stroke-width:5;stroke-miterlimit:10;}
	.st42{clip-path:url(#SVGID_10_);fill:#878D8E;}
	.st43{clip-path:url(#SVGID_12_);fill:#878D8E;}
	.st44{clip-path:url(#SVGID_14_);fill:#878D8E;}
	.st45{clip-path:url(#SVGID_16_);fill:#878D8E;}
	.st46{fill:none;stroke:#000000;stroke-miterlimit:10;}
	.st47{font-size:12px;}
</style>
<g id="Layer_1" class="st0">
	<g id="fishie">
		<g class="st1">
			<polygon class="st2" points="404.1,191.9 315.1,130.2 335.6,190.8 			"/>
			<polygon class="st3" points="257.1,132.3 315.1,130.2 289.3,142.5 			"/>
			<polygon class="st4" points="275.7,149 289.3,142.5 257.1,132.3 			"/>
			<polygon class="st5" points="246.6,189.7 335.6,190.8 315.1,130.2 			"/>
			<polygon class="st6" points="221,175.3 246.6,189.7 315.1,130.2 			"/>
			<polygon class="st7" points="147.5,136.9 211.1,183.5 221,175.3 			"/>
			<polygon class="st8" points="197.3,194.9 211.1,183.5 147.5,136.9 			"/>
			<polygon class="st9" points="213.6,203.3 197.3,194.9 164,253.4 			"/>
			<polygon class="st10" points="231,210.7 213.6,203.3 164,253.4 			"/>
			<polygon class="st11" points="246.6,189.7 211.1,183.5 221,175.3 			"/>
			<polygon class="st12" points="197.3,194.9 246.6,189.7 211.1,183.5 			"/>
			<polygon class="st7" points="213.6,203.3 246.6,189.7 197.3,194.9 			"/>
			<polygon class="st13" points="231,210.7 246.6,189.7 213.6,203.3 			"/>
			<polygon class="st14" points="303.1,241.2 246.6,189.7 231,210.7 			"/>
			<polygon class="st4" points="249.6,276.7 267.6,226.2 283.7,233 			"/>
			<polygon class="st15" points="303.1,241.2 283.7,233 249.6,276.7 			"/>
			<polygon class="st16" points="335.6,190.8 303.1,241.2 246.6,189.7 			"/>
			<polygon class="st17" points="404.1,191.9 303.1,241.2 335.6,190.8 			"/>
			<polygon class="st18" points="404.1,191.9 315.1,130.2 335.6,190.8 			"/>
			<polygon class="st19" points="404.1,191.9 303.1,241.2 335.6,190.8 			"/>
			<polygon class="st20" points="315.1,130.4 374.8,191.7 335.6,191 			"/>
			<polygon class="st17" points="335.6,190.8 374.8,191.4 303.1,241.2 			"/>
			<g>
				<line class="st21" x1="334.9" y1="172.5" x2="349.8" y2="185.7"/>
				<line class="st21" x1="348.2" y1="172.8" x2="338.1" y2="187"/>
			</g>
			<polygon class="st22" points="323,153.8 289.3,152.6 246.6,189.7 287.2,226.7 312.5,226.7 328.8,201.3 335.6,190.8 			"/>
			<polygon class="st22" points="246.6,189.7 281.4,173.4 289.3,152.6 			"/>
			<polygon class="st23" points="292.5,226 246.6,189.7 287.2,226.7 			"/>
			<polygon class="st24" points="246.6,189.7 249.7,192.1 289.3,152.6 			"/>
			<polygon class="st24" points="287.2,226.7 314.7,223.3 312.5,226.7 			"/>
			<polyline class="st23" points="311.6,223.6 335.6,190.8 314.7,223.3 			"/>
			<polyline class="st24" points="323,153.8 333.7,193.4 335.6,190.8 			"/>
			<line class="st25" x1="285.3" y1="156.6" x2="289.3" y2="152.6"/>
			<path class="st24" d="M286.9,155"/>
			<polygon class="st23" points="289.3,152.6 323,153.8 288,154 			"/>
			<path class="st24" d="M286.9,155"/>
		</g>
	</g>
	<g id="Layer_3">
		<g class="st1">
			<path class="st5" d="M339.1,123.9l7.3,21.4l-10-29.6c-10.2-4.5-21.4-7.1-33.3-7.1c-3.6,0-7.2,0.3-10.7,0.7l-68.2,59.2l0,0
				l53.8-46.8L339.1,123.9z"/>
			<path class="st6" d="M224.3,168.5l68.2-59.2C259.6,113.6,232.9,137.3,224.3,168.5z"/>
			<path class="st14" d="M274.3,256.2L223.6,210c7.8,31.9,34.4,56.5,67.3,61.4L274.3,256.2L274.3,256.2z"/>
			<polygon class="st16" points="320.1,256.2 362,191.2 324.1,250 			"/>
			<path class="st16" d="M274.3,256.2l16.7,15.2c4,0.6,8,0.9,12.2,0.9c2.3,0,4.5-0.1,6.8-0.3l10.2-15.8H274.3L274.3,256.2z"/>
			<path class="st19" d="M371.9,234.7l-51.4,35.7C342,265.8,360.4,252.6,371.9,234.7z"/>
			<path class="st20" d="M362.1,191.1l22.9,0.4c0-0.3,0-0.7,0-1c0-33.3-19.9-62-48.6-74.8l10,29.6L362.1,191.1z"/>
			<path class="st17" d="M371.9,234.7c8.1-12.5,12.8-27.3,13-43.3L362,191l-0.1,0.2L320,256.1l0,0l-10.2,15.8
				c3.6-0.3,7.1-0.8,10.6-1.6L371.9,234.7z"/>
			<path class="st22" d="M274.3,256.2l44.2-5.5l43.6-59.6l-3.5,4.8l-19.4-72l-62,0.3l-13.4,35.2l-41.7,19.5
				c-0.5,3.7-0.8,7.6-0.8,11.4c0,5.6,0.6,11,1.6,16.2l61,48.3L274.3,256.2z"/>
			<path class="st22" d="M277.2,124.3h-1.5l2.5-2.5l-55.8,55.6c-0.1,0.5-0.2,1.1-0.2,1.7l41.7-19.5L277.2,124.3z"/>
			<path class="st23" d="M283.9,255l-61-48.3c0.2,1.1,0.5,2.2,0.8,3.3l50.7,46.2L283.9,255z"/>
			<path class="st24" d="M224.3,168.5c-0.8,2.9-1.5,5.8-1.9,8.8l55.8-55.6L224.3,168.5z"/>
			<polygon class="st24" points="318.5,250.7 274.3,256.2 274.3,256.2 320.1,256.2 320.1,256.2 324.1,250 			"/>
			<polygon class="st23" points="324.1,250 362,191.2 362.1,191.1 318.5,250.7 			"/>
			<polygon class="st24" points="339.1,123.9 358.6,195.9 362.1,191.1 346.4,145.3 			"/>
			<polygon class="st23" points="275.6,124.3 277.2,124.3 339.1,123.9 278.1,121.8 			"/>
		</g>
		
			<rect x="356.3" y="256.1" transform="matrix(0.8449 -0.5349 0.5349 0.8449 -106.6578 245.3541)" class="st26" width="26.9" height="101"/>
		<circle class="st27" cx="303.1" cy="190.4" r="81.8"/>
	</g>
	<g id="waste">
		<g class="st1">
			<g>
				
					<rect x="339.4" y="189.3" transform="matrix(0.5141 -0.8577 0.8577 0.5141 0.8177 385.969)" class="st28" width="3.4" height="6"/>
				<path class="st28" d="M344.5,203.3l-0.2-3.3c-0.1-1.6-1.2-3.5-2.6-4.3l-4-2.4c-1.3-0.8-3.1-0.4-3.9,1l-11.5,19.1
					c-0.8,1.3-0.4,3,1,3.8l8.4,4.8c1.4,0.8,3.1,0.3,3.9-1l7.5-12.5C344,207.2,344.6,204.9,344.5,203.3z M341.5,205.7
					c-0.8,0-1.6-0.6-1.6-1.4l-0.3-4.6c0-0.8,0.6-1.6,1.4-1.6s1.6,0.6,1.6,1.4l0.3,4.6C343,205,342.4,205.7,341.5,205.7z"/>
			</g>
		</g>
		<g class="st1">
			<g>
				<g>
					<defs>
						<rect id="SVGID_1_" x="299.1" y="227.7" width="23" height="23"/>
					</defs>
					<clipPath id="SVGID_2_">
						<use xlink:href="#SVGID_1_"  style="overflow:visible;"/>
					</clipPath>
					<path class="st29" d="M318.3,235.6c-2.2-0.1-2.4-1.6-2.4-2.7c0-1.1-0.8-2-1.8-2c-0.5,0-0.9,0.2-1.2,0.5
						c-1.7,1.4-2.8,0.1-3.1-0.4c0,0,0-0.1-0.1-0.1l0,0l0,0c-0.4-0.6-1.2-1-2-1c-1.2,0-2.2,1.1-2.2,2.4c0,0.3,0,0.5,0.2,1.2
						c0.3,0.7-0.3,1.2-1,0.7c-0.6-0.4-1.2-0.7-2-0.7c-1.5,0-2.8,1.4-2.8,3c0,0.9,0.4,1.6,0.9,2.2c0.4,0.3,0.4,0.9,0.2,1.4
						c-0.2,0.4-0.3,0.9-0.3,1.3c0,1.4,1,2.5,2.3,2.5c1.7,0,2.9,0.3,3,2.9c0,1,0.7,1.8,1.6,1.8c0.7,0,1.4-0.5,1.5-1.3l0,0
						c0.3-1,1.5-2,4-0.3c0,0,0,0,0.1,0l0,0c0.3,0.2,0.5,0.3,0.9,0.3c0.9,0,1.6-0.7,1.7-1.7c0-0.1,0-0.3,0-0.4
						c-0.1-2.1,2.5-1.3,2.6-1.2l0,0c0.1,0,0.2,0.1,0.4,0.1c0.4,0,0.8-0.4,0.8-0.9c0-0.4-0.2-0.8-0.5-0.9l0,0
						c-1.9-0.9,0.5-3.5,0.5-3.5l0,0c0.3-0.3,0.5-0.8,0.5-1.3C320,236.4,319.2,235.6,318.3,235.6 M301.4,241.8
						c-0.1,0-0.1-0.1-0.1-0.1l0,0c0-0.1,0.1-0.1,0.1-0.1l0.1,0.1l0,0C301.6,241.7,301.5,241.8,301.4,241.8L301.4,241.8z
						 M302.7,243.1L302.7,243.1L302.7,243.1c-0.1,0.1-0.1,0.1-0.1,0.1l0,0l0,0h-0.1c0,0,0,0-0.1,0c0,0,0,0-0.1,0h-0.1c0,0,0,0-0.1,0
						l0,0l0,0c0,0,0,0-0.1,0c0,0,0,0-0.1,0c0,0,0,0-0.1-0.1c0,0,0,0-0.1-0.1l-0.1-0.1c0,0,0,0,0-0.1c0,0,0,0,0-0.1
						c0,0,0-0.1-0.1-0.1c0,0,0,0,0-0.1c0,0,0,0,0-0.1l0,0l0,0v-0.1c0-0.1,0-0.1,0.1-0.1h0.1c0,0,0,0,0,0.1l0,0l0,0l0,0l0,0
						c0,0,0,0.1,0.1,0.1l0,0l0,0l0,0l0,0l0,0c0,0,0,0,0.1,0c0,0,0.1,0,0.1,0.1l0,0l0,0c0,0,0,0,0.1,0h0.1h0.1h0.1l0,0l0,0l0,0l0,0
						l0,0C302.8,242.9,302.8,243,302.7,243.1 M307.7,230.5c0-0.1,0.1-0.1,0.1-0.1l0,0c0.1,0,0.1,0.1,0.1,0.1s0,0.1-0.1,0.1l0,0l0,0
						C307.7,230.6,307.7,230.6,307.7,230.5 M307.2,247.8L307.2,247.8L307.2,247.8C307.2,247.8,307.1,247.8,307.2,247.8
						C307.1,247.8,307.1,247.8,307.2,247.8c-0.1,0-0.1,0-0.1,0v-0.1l0,0l0,0l0,0l0,0l0,0C307.3,247.8,307.2,247.8,307.2,247.8
						 M307.4,230.6L307.4,230.6C307.4,230.6,307.3,230.6,307.4,230.6c-0.1,0-0.1,0-0.1,0l0,0l0,0c0,0,0,0-0.1,0c0,0,0,0-0.1,0
						c0,0,0,0-0.1,0c0,0-0.1,0-0.1,0.1l-0.1,0.1l-0.1,0.1l0,0l0,0c0,0,0,0,0,0.1c0,0,0,0.1-0.1,0.1l0,0l0,0c0,0,0,0.1-0.1,0.1l0,0
						l0,0l0,0l0,0l0,0h-0.1c0,0,0,0,0-0.1l0,0c0,0,0,0,0-0.1l0,0c0,0,0,0,0-0.1v-0.1c0,0,0,0,0-0.1c0,0,0,0,0-0.1l0.1-0.1
						c0,0,0,0,0.1-0.1l0,0l0,0c0,0,0,0,0.1-0.1c0,0,0,0,0.1-0.1c0,0,0,0,0.1-0.1c0,0,0,0,0.1,0l0.1-0.1c0,0,0,0,0.1,0c0,0,0,0,0.1,0
						c0,0,0,0,0.1,0c0,0,0,0,0.1,0c0,0,0,0,0.1,0c0,0,0,0,0.1,0l0,0l0,0h0.1l0.1,0.1C307.5,230.6,307.5,230.6,307.4,230.6
						C307.5,230.6,307.4,230.6,307.4,230.6 M308.3,247.7c0,0,0,0.1-0.1,0.1c0,0,0,0-0.1,0c0,0,0,0-0.1,0c0,0,0,0-0.1,0
						c0,0,0,0-0.1,0s-0.1,0-0.1,0h-0.1c0,0,0,0-0.1,0l0,0l0,0c0,0-0.1-0.1,0-0.1l0,0l0,0l0,0l0,0c0,0,0,0,0.1,0c0,0,0,0,0.1,0
						c0,0,0,0,0.1,0c0,0,0,0,0.1,0h0.1h0.1l0,0l0,0l0,0l0,0C308.3,247.6,308.3,247.7,308.3,247.7L308.3,247.7 M314.9,246.4
						C314.9,246.4,314.8,246.4,314.9,246.4c0,0.1-0.1,0.1-0.1,0.1s0,0-0.1,0.1l0,0l0,0l0,0c0,0,0,0-0.1,0h-0.1h-0.1h-0.1h-0.1h-0.1
						H314h-0.1l0,0l0,0l0,0v-0.1c0,0,0,0,0.1,0c0,0,0,0,0.1,0l0,0l0,0l0,0l0,0h0.1h0.1h0.1h0.1h0.1h0.1h0.1h0.1c0,0,0,0,0.1,0
						c0,0,0,0,0.1,0h0.1l0,0C314.8,246.3,314.9,246.3,314.9,246.4C314.9,246.3,314.9,246.4,314.9,246.4 M319.2,236.9L319.2,236.9
						C319.2,236.8,319.2,236.8,319.2,236.9C319.2,236.8,319.2,236.8,319.2,236.9C319.1,236.8,319.1,236.8,319.2,236.9
						c-0.1-0.1-0.1-0.1-0.1-0.1l0,0l0,0l0,0l0,0l0,0l0,0l0,0l0,0l0,0l0,0l0,0c0-0.1,0-0.1,0.1-0.1l0,0l0,0h0.1c0,0,0,0,0.1,0
						c0,0,0,0,0.1,0c0,0,0,0,0.1,0.1c0,0,0,0,0,0.1l0.1,0.1c0,0,0,0,0,0.1c0,0,0,0,0,0.1c0,0,0,0,0,0.1l0,0l0,0
						C319.3,236.9,319.3,236.9,319.2,236.9L319.2,236.9L319.2,236.9 M319.5,237.2C319.4,237.2,319.4,237.3,319.5,237.2
						c-0.1,0.1-0.1,0.1-0.1,0.1c-0.1,0-0.1-0.1-0.1-0.1H319.5h-0.2l0,0c0-0.1,0.1-0.1,0.1-0.1C319.4,237.1,319.5,237.1,319.5,237.2
						L319.5,237.2L319.5,237.2z"/>
				</g>
			</g>
			<g>
				<g>
					<defs>
						<rect id="SVGID_3_" x="299.1" y="227.7" width="23" height="23"/>
					</defs>
					<clipPath id="SVGID_4_">
						<use xlink:href="#SVGID_3_"  style="overflow:visible;"/>
					</clipPath>
					<path class="st30" d="M303.7,232.4c0.3,0,0.5-0.2,0.5-0.5s-0.2-0.5-0.5-0.5c-0.3,0-0.5,0.2-0.5,0.5
						C303.2,232.1,303.4,232.4,303.7,232.4 M303.4,231.6C303.4,231.6,303.5,231.6,303.4,231.6c0.1-0.1,0.1-0.1,0.1-0.1l0,0
						c0,0,0,0,0.1,0l0,0l0,0l0,0l0,0l0,0l0,0l0,0l0,0h-0.1C303.5,231.6,303.5,231.7,303.4,231.6
						C303.5,231.7,303.5,231.7,303.4,231.6C303.4,231.7,303.4,231.7,303.4,231.6L303.4,231.6C303.4,231.7,303.4,231.7,303.4,231.6
						C303.4,231.7,303.4,231.7,303.4,231.6C303.4,231.7,303.4,231.6,303.4,231.6"/>
				</g>
			</g>
			<g>
				<g>
					<defs>
						<rect id="SVGID_5_" x="299.1" y="227.7" width="23" height="23"/>
					</defs>
					<clipPath id="SVGID_6_">
						<use xlink:href="#SVGID_5_"  style="overflow:visible;"/>
					</clipPath>
					<path class="st31" d="M317.6,245c-0.6,0-1.1,0.5-1.1,1c0,0.6,0.5,1,1.1,1s1.1-0.5,1.1-1S318.2,245,317.6,245 M317.4,245.5
						L317.4,245.5L317.4,245.5L317.4,245.5c-0.1,0-0.1,0-0.1,0l0,0l0,0l0,0l0,0c0,0,0,0-0.1,0c0,0,0,0-0.1,0.1c0,0,0,0,0,0.1
						c0,0,0,0,0,0.1c0,0,0,0,0,0.1l0,0l0,0c0,0,0,0,0,0.1l0,0l0,0l0,0l0,0c0,0-0.1,0.1-0.1,0l0,0c0,0,0,0,0-0.1c0,0,0,0,0-0.1
						c0,0,0,0,0-0.1l0,0l0,0v-0.1c0,0,0-0.1,0.1-0.1c0,0,0-0.1,0.1-0.1l0.1-0.1c0,0,0.1,0,0.1-0.1h0.1l0,0l0,0h0.1l0,0l0,0l0,0
						C317.5,245.3,317.5,245.4,317.4,245.5C317.5,245.4,317.5,245.5,317.4,245.5 M317.7,245.5L317.7,245.5L317.7,245.5
						C317.6,245.5,317.6,245.4,317.7,245.5c-0.1-0.1,0-0.1,0-0.1l0,0C317.7,245.4,317.8,245.4,317.7,245.5L317.7,245.5"/>
				</g>
			</g>
			<g>
				<g>
					<defs>
						<rect id="SVGID_7_" x="299.1" y="227.7" width="23" height="23"/>
					</defs>
					<clipPath id="SVGID_8_">
						<use xlink:href="#SVGID_7_"  style="overflow:visible;"/>
					</clipPath>
					<path class="st32" d="M320.7,243.5c-0.3,0-0.5,0.3-0.5,0.6s0.2,0.6,0.5,0.6c0.3,0,0.5-0.3,0.5-0.6
						C321.3,243.7,321,243.5,320.7,243.5 M320.7,243.7L320.7,243.7L320.7,243.7L320.7,243.7c-0.1,0-0.1,0-0.1,0l0,0l0,0l0,0l0,0l0,0
						l0,0h-0.1l0,0c0,0,0,0,0-0.1l0,0c0,0,0,0,0.1,0l0,0l0,0c0,0,0,0,0.1,0l0,0C320.7,243.6,320.7,243.6,320.7,243.7
						C320.7,243.6,320.7,243.6,320.7,243.7C320.8,243.6,320.8,243.7,320.7,243.7C320.8,243.7,320.8,243.7,320.7,243.7"/>
				</g>
			</g>
		</g>
		<g class="st1">
			<path class="st33" d="M339.3,176.1c0,0,14.1-24.1-8.3-36.5h-0.1c0,0.1,0,0.1,0,0.1s-0.1,0-0.4,0l0,0c1.4,3.4,2.6,5.3,5,9.7
				c0.2,0.5-1.8,0.3-2-0.1c-0.8-1.9-2.6-6.1-3.5-8.4c0.9,2.5,2.6,7.5,3.5,10.2c0.1,0.1-0.3,0.2-0.6,0.2c-0.3,0-0.6,0-0.8-0.1
				c-0.1-0.1-0.2-0.1-0.2-0.1c-0.1-0.2-0.2-0.4-0.2-0.6c-0.2-0.5-0.4-1.1-0.6-1.8c-1.1-3.3-2.3-8.2-2.5-9.2
				c-1.9-0.2-4.8-0.4-7.7-0.5c-0.1,0-0.1-0.1-0.1-0.1c-0.3,0-0.6,0-0.7,0.1c-24.3,11-15.6,34.4-15.6,34.4s-2.4,0.6-2.8,3.6
				c-0.1,0.7,3.7,0.2,5.5,0.3l0,0c0,0,2.7-0.5,3.8-0.8c1.5-0.4-2.3,1.1-2.3,1.1c5.9,1.4,18,2.1,26.7,1.6c0,0-3.8-2.1-2.2-1.5
				c1.1,0.4,3.9,1.4,3.9,1.4H337c1.1,0.1,3.9,1.6,3.9,1.6C342.6,179.2,339.3,176.1,339.3,176.1z"/>
			<path class="st33" d="M320.9,137.4c2.7-0.5,4.7-0.3,9.7,0.6c2.2-0.7,4.1-3.8,4.9-5.2c0.4-0.8-1.2-1.4-3.2-1.6
				c-0.8,1-3.1,5.1-2.6,4.1c0.9-2,2.1-4.1,2.1-4.1l0,0c-0.1-0.1,0.1-0.9-0.1-0.9c-4.9-0.1-9.9-1.6-14.9,1
				C316.1,131.5,318.8,136.3,320.9,137.4z"/>
			<path class="st33" d="M335.6,179.2L335.6,179.2L335.6,179.2L335.6,179.2z"/>
		</g>
		<g class="st1">
			<path class="st33" d="M236.3,176.6c-0.1,0-0.2,0-0.4,0c-0.5,0.1-0.9,0.5-1.2,1.1c-0.5,1-0.6,2-0.2,2.8c0.4,0.8,1.1,1.4,1.9,1.8
				c1,0.6,2.2,1,3.2,1.4c-2.4,0.4-4.3,0.2-5.7-0.2c-1.7-0.5-2.3-1-2.5-1.2s-0.6-0.2-0.8,0s-0.1,0.7,0.1,0.8s1.1,0.9,2.9,1.4
				c0.7,0.2,1.6,0.4,2.5,0.4c-2.9,1.7-5.8,4.4-7.9,7.4c-2.1,3.2-3.2,6.8-2.2,10.2c0.8,2.5,3,4.1,5.6,5c2.6,1,5.5,1.3,8,1.5
				c2.4,0.1,5.3,0,7.9-0.7c2.6-0.7,4.9-2,6-4.4c1.5-3.1,1.1-6.9-0.4-10.4c-1.4-3.5-3.8-6.6-6.6-8.6c-0.3-0.2-0.5-0.4-0.8-0.5
				c2-0.2,4.3-0.8,5.8-2.7c0.2-0.2,0.1-0.6-0.1-0.8c-0.2-0.2-0.6-0.1-0.8,0.1c-1.3,1.6-3.6,2.2-5.6,2.3c-0.9,0.1-1.6,0-2.2-0.1
				c0.5-0.3,0.8-0.4,1.5-1c0.7-0.5,1.3-1.2,1.7-1.9c0.4-0.7,0.5-1.6,0.1-2.4c-0.3-0.5-0.9-0.8-1.4-0.8c-0.6,0-1.1,0.3-1.6,0.8
				c-0.8,0.8-1.5,2.2-1.9,4.1c-0.6-1.1-1.2-2.2-1.8-3.1c-0.7-1-1.4-2-2.2-2.5c-0.2-0.1-0.4-0.2-0.7-0.3
				C236.6,176.6,236.4,176.6,236.3,176.6z M236.3,177.7c0.1,0,0.3,0,0.4,0.2c0.5,0.3,1.2,1.2,1.9,2.1c0.6,0.9,1.2,2,1.6,2.8
				c-1.1-0.4-2.2-0.8-3.2-1.4c-0.7-0.4-1.2-0.9-1.5-1.4c-0.2-0.5-0.3-1,0.2-1.8C235.9,177.8,236.1,177.7,236.3,177.7L236.3,177.7z
				 M244.9,178.6c0.2,0,0.3,0.1,0.4,0.2c0.2,0.4,0.2,0.7-0.1,1.2s-0.8,1.1-1.4,1.6c-0.6,0.5-0.9,0.6-1.4,1c0.4-1.7,1-3,1.5-3.5
				C244.3,178.8,244.7,178.7,244.9,178.6z M241.6,184.8c1.7,0,3.3,0.4,4.5,1.3c2.5,1.8,4.9,4.9,6.2,8.1c1.3,3.3,1.7,6.8,0.4,9.5
				c-0.9,1.9-2.9,3.1-5.3,3.8c-2.4,0.7-5.2,0.8-7.6,0.7c-2.4-0.1-5.2-0.5-7.6-1.4c-2.4-0.9-4.3-2.3-4.9-4.3c-0.9-2.9,0.1-6.3,2-9.3
				c2-3,4.9-5.7,7.7-7.3C238.3,185.1,240,184.7,241.6,184.8z"/>
			<path class="st33" d="M233.1,198.4c0,0.5-0.4,0.9-0.9,0.9s-0.9-0.4-0.9-0.9s0.4-0.9,0.9-0.9S233.1,197.9,233.1,198.4z"/>
			<path class="st33" d="M238.6,202.1c0,0.5-0.4,0.9-0.9,0.9s-0.9-0.4-0.9-0.9s0.4-0.9,0.9-0.9S238.6,201.7,238.6,202.1z"/>
			<path class="st33" d="M240.8,200.4c0,0.5-0.4,0.9-0.9,0.9s-0.9-0.4-0.9-0.9s0.4-0.9,0.9-0.9S240.8,199.9,240.8,200.4z"/>
			<path class="st33" d="M235.1,196.2c0,0.5-0.4,0.9-0.9,0.9s-0.9-0.4-0.9-0.9c0-0.5,0.4-0.9,0.9-0.9
				C234.7,195.3,235.1,195.7,235.1,196.2z"/>
			<path class="st33" d="M238.9,198.9c0,0.5-0.4,0.9-0.9,0.9s-0.9-0.4-0.9-0.9s0.4-0.9,0.9-0.9S238.9,198.4,238.9,198.9z"/>
			<path class="st33" d="M243.2,199.1c0,0.5-0.4,0.9-0.9,0.9s-0.9-0.4-0.9-0.9s0.4-0.9,0.9-0.9S243.2,198.6,243.2,199.1z"/>
			<path class="st33" d="M234.1,204.5c0,0.5-0.4,0.9-0.9,0.9s-0.9-0.4-0.9-0.9s0.4-0.9,0.9-0.9S234.1,204,234.1,204.5z"/>
			<path class="st33" d="M239.5,204.7c0,0.5-0.4,0.9-0.9,0.9s-0.9-0.4-0.9-0.9s0.4-0.9,0.9-0.9S239.5,204.2,239.5,204.7z"/>
			<path class="st33" d="M242.5,204.7c0,0.5-0.4,0.9-0.9,0.9s-0.9-0.4-0.9-0.9s0.4-0.9,0.9-0.9C242.1,203.9,242.5,204.2,242.5,204.7
				z"/>
			<path class="st33" d="M243.1,201.8c0,0.5-0.4,0.9-0.9,0.9s-0.9-0.4-0.9-0.9s0.4-0.9,0.9-0.9S243.1,201.3,243.1,201.8z"/>
			<path class="st33" d="M249.3,203.8c0,0.5-0.4,0.9-0.9,0.9s-0.9-0.4-0.9-0.9s0.4-0.9,0.9-0.9S249.3,203.3,249.3,203.8z"/>
			<path class="st33" d="M250.5,197c0,0.5-0.4,0.9-0.9,0.9s-0.9-0.4-0.9-0.9s0.4-0.9,0.9-0.9C250.1,196.1,250.5,196.5,250.5,197z"/>
			<path class="st33" d="M247.8,199.8c0,0.5-0.4,0.9-0.9,0.9s-0.9-0.4-0.9-0.9s0.4-0.9,0.9-0.9C247.4,199,247.8,199.3,247.8,199.8z"
				/>
			<path class="st33" d="M230.8,197.5c0,0.5-0.4,0.9-0.9,0.9s-0.9-0.4-0.9-0.9s0.4-0.9,0.9-0.9S230.8,197,230.8,197.5z"/>
			<path class="st33" d="M251.5,200.7c0,0.5-0.4,0.9-0.9,0.9s-0.9-0.4-0.9-0.9s0.4-0.9,0.9-0.9C251.1,199.8,251.5,200.2,251.5,200.7
				z"/>
			<path class="st33" d="M246.3,196c0,0.5-0.4,0.9-0.9,0.9s-0.9-0.5-0.9-0.9c0-0.4,0.4-0.9,0.9-0.9S246.3,195.5,246.3,196z"/>
			<path class="st33" d="M246,205.6c0,0.5-0.4,0.9-0.9,0.9s-0.9-0.4-0.9-0.9s0.4-0.9,0.9-0.9C245.6,204.8,246,205.2,246,205.6z"/>
			<path class="st33" d="M230.5,202.5c0,0.5-0.4,0.9-0.9,0.9s-0.9-0.4-0.9-0.9s0.4-0.9,0.9-0.9S230.5,202,230.5,202.5z"/>
			<path class="st33" d="M248.7,193c0,0.5-0.4,0.9-0.9,0.9s-0.9-0.4-0.9-0.9s0.4-0.9,0.9-0.9C248.3,192.2,248.7,192.6,248.7,193z"/>
			<path class="st33" d="M242,195.3c0,0.5-0.4,0.9-0.9,0.9s-0.9-0.4-0.9-0.9s0.4-0.9,0.9-0.9S242,194.8,242,195.3z"/>
			<path class="st33" d="M232.7,194c0,0.5-0.4,0.9-0.9,0.9s-0.9-0.4-0.9-0.9s0.4-0.9,0.9-0.9C232.3,193.1,232.7,193.5,232.7,194z"/>
			<path class="st33" d="M238,193.9c0,0.5-0.4,0.9-0.9,0.9s-0.9-0.4-0.9-0.9s0.4-0.9,0.9-0.9S238,193.4,238,193.9z"/>
			<path class="st33" d="M244.6,192.1c0,0.5-0.4,0.9-0.9,0.9s-0.9-0.4-0.9-0.9s0.4-0.9,0.9-0.9S244.6,191.6,244.6,192.1z"/>
			<path class="st33" d="M235.3,191.1c0,0.5-0.4,0.9-0.9,0.9s-0.9-0.4-0.9-0.9s0.4-0.9,0.9-0.9S235.3,190.6,235.3,191.1z"/>
			<path class="st33" d="M240.4,191.8c0,0.5-0.4,0.9-0.9,0.9s-0.9-0.4-0.9-0.9s0.4-0.9,0.9-0.9S240.4,191.3,240.4,191.8z"/>
			<path class="st33" d="M248.4,195.4c0,0.5-0.4,0.9-0.9,0.9s-0.9-0.4-0.9-0.9s0.4-0.9,0.9-0.9S248.4,194.9,248.4,195.4z"/>
			<path class="st33" d="M250.5,194.6c0,0.5-0.4,0.9-0.9,0.9s-0.9-0.4-0.9-0.9s0.4-0.9,0.9-0.9S250.5,194.1,250.5,194.6z"/>
			<path class="st33" d="M249.8,199.2c0,0.5-0.4,0.9-0.9,0.9s-0.9-0.4-0.9-0.9s0.4-0.9,0.9-0.9C249.5,198.3,249.8,198.7,249.8,199.2
				z"/>
			<path class="st33" d="M236.3,189c0,0.5-0.4,0.9-0.9,0.9s-0.9-0.4-0.9-0.9s0.4-0.9,0.9-0.9S236.3,188.5,236.3,189z"/>
			<path class="st33" d="M239,189.9c0,0.5-0.4,0.9-0.9,0.9s-0.9-0.4-0.9-0.9s0.4-0.9,0.9-0.9C238.7,189,239,189.4,239,189.9z"/>
			<path class="st33" d="M243.9,196.8c0,0.5-0.4,0.9-0.9,0.9s-0.9-0.4-0.9-0.9s0.4-0.9,0.9-0.9C243.5,196,243.9,196.4,243.9,196.8z"
				/>
			<path class="st33" d="M246.5,193.7c0,0.5-0.4,0.9-0.9,0.9s-0.9-0.4-0.9-0.9s0.4-0.9,0.9-0.9S246.5,193.2,246.5,193.7z"/>
			<path class="st33" d="M247.7,197.7c0,0.5-0.4,0.9-0.9,0.9s-0.9-0.4-0.9-0.9s0.4-0.9,0.9-0.9C247.3,196.8,247.7,197.2,247.7,197.7
				z"/>
			<path class="st33" d="M252,198.5c0,0.5-0.4,0.9-0.9,0.9s-0.9-0.4-0.9-0.9s0.4-0.9,0.9-0.9C251.6,197.6,252,198,252,198.5z"/>
			<path class="st33" d="M244,194.5c0,0.5-0.4,0.9-0.9,0.9s-0.9-0.4-0.9-0.9s0.4-0.9,0.9-0.9S244,194,244,194.5z"/>
			<path class="st33" d="M251.6,203.1c0,0.5-0.4,0.9-0.9,0.9s-0.9-0.4-0.9-0.9s0.4-0.9,0.9-0.9S251.6,202.6,251.6,203.1z"/>
			<path class="st33" d="M245.4,201c0,0.5-0.4,0.9-0.9,0.9s-0.9-0.4-0.9-0.9s0.4-0.9,0.9-0.9C245,200.1,245.4,200.5,245.4,201z"/>
			<path class="st33" d="M245.5,198.8c0,0.5-0.4,0.9-0.9,0.9s-0.9-0.4-0.9-0.9s0.4-0.9,0.9-0.9S245.5,198.3,245.5,198.8z"/>
			<path class="st33" d="M242.3,193c0,0.5-0.4,0.9-0.9,0.9s-0.9-0.4-0.9-0.9s0.4-0.9,0.9-0.9S242.3,192.5,242.3,193z"/>
			<path class="st33" d="M247,202.7c0,0.5-0.4,0.9-0.9,0.9s-0.9-0.4-0.9-0.9s0.4-0.9,0.9-0.9C246.6,201.8,247,202.2,247,202.7z"/>
			<path class="st33" d="M248.2,205.9c0,0.5-0.4,0.9-0.9,0.9s-0.9-0.4-0.9-0.9s0.4-0.9,0.9-0.9C247.8,205,248.2,205.4,248.2,205.9z"
				/>
			<path class="st33" d="M249.2,201.5c0,0.5-0.4,0.9-0.9,0.9s-0.9-0.4-0.9-0.9s0.4-0.9,0.9-0.9C248.8,200.6,249.2,201,249.2,201.5z"
				/>
			<path class="st33" d="M247.1,191c0,0.5-0.4,0.9-0.9,0.9s-0.9-0.4-0.9-0.9s0.4-0.9,0.9-0.9S247.1,190.5,247.1,191z"/>
			<path class="st33" d="M239.7,196.4c0,0.5-0.4,0.9-0.9,0.9s-0.9-0.4-0.9-0.9c0-0.5,0.4-0.9,0.9-0.9
				C239.3,195.5,239.7,195.9,239.7,196.4z"/>
			<path class="st33" d="M237.6,196.3c0,0.5-0.4,0.9-0.9,0.9s-0.9-0.4-0.9-0.9c0-0.5,0.4-0.9,0.9-0.9S237.6,195.8,237.6,196.3z"/>
			<path class="st33" d="M242.3,190.2c0,0.5-0.4,0.9-0.9,0.9s-0.9-0.4-0.9-0.9s0.4-0.9,0.9-0.9S242.3,189.7,242.3,190.2z"/>
			<path class="st33" d="M239.9,194c0,0.5-0.4,0.9-0.9,0.9s-0.9-0.4-0.9-0.9s0.4-0.9,0.9-0.9S239.9,193.6,239.9,194z"/>
			<path class="st33" d="M233,191.7c0,0.5-0.4,0.9-0.9,0.9s-0.9-0.4-0.9-0.9s0.4-0.9,0.9-0.9S233,191.2,233,191.7z"/>
			<path class="st33" d="M238,191.3c0,0.5-0.4,0.9-0.9,0.9s-0.9-0.4-0.9-0.9s0.4-0.9,0.9-0.9S238,190.8,238,191.3z"/>
			<path class="st33" d="M235.5,193.7c0,0.5-0.4,0.9-0.9,0.9s-0.9-0.4-0.9-0.9s0.4-0.9,0.9-0.9S235.5,193.2,235.5,193.7z"/>
			<path class="st33" d="M231.6,204.6c0,0.5-0.4,0.9-0.9,0.9s-0.9-0.4-0.9-0.9s0.4-0.9,0.9-0.9S231.6,204.1,231.6,204.6z"/>
			<path class="st33" d="M240.9,206.7c0,0.5-0.4,0.9-0.9,0.9s-0.9-0.4-0.9-0.9s0.4-0.9,0.9-0.9C240.5,205.8,240.9,206.2,240.9,206.7
				z"/>
			<path class="st33" d="M230.4,195.1c0,0.5-0.4,0.9-0.9,0.9s-0.9-0.4-0.9-0.9s0.4-0.9,0.9-0.9S230.4,194.6,230.4,195.1z"/>
			<path class="st33" d="M234.4,200.5c0,0.5-0.4,0.9-0.9,0.9s-0.9-0.4-0.9-0.9s0.4-0.9,0.9-0.9C234,199.7,234.4,200.1,234.4,200.5z"
				/>
			<path class="st33" d="M237.3,204c0,0.5-0.4,0.9-0.9,0.9s-0.9-0.4-0.9-0.9s0.4-0.9,0.9-0.9S237.3,203.5,237.3,204z"/>
			<path class="st33" d="M238,206.6c0,0.5-0.4,0.9-0.9,0.9s-0.9-0.4-0.9-0.9s0.4-0.9,0.9-0.9S238,206.1,238,206.6z"/>
			<path class="st33" d="M235.8,206.1c0,0.5-0.4,0.9-0.9,0.9s-0.9-0.4-0.9-0.9s0.4-0.9,0.9-0.9S235.8,205.6,235.8,206.1z"/>
			<path class="st33" d="M243.7,206.8c0,0.5-0.4,0.9-0.9,0.9s-0.9-0.4-0.9-0.9s0.4-0.9,0.9-0.9C243.3,205.9,243.7,206.3,243.7,206.8
				z"/>
			<path class="st33" d="M236.1,198.3c0,0.5-0.4,0.9-0.9,0.9s-0.9-0.4-0.9-0.9s0.4-0.9,0.9-0.9S236.1,197.8,236.1,198.3z"/>
			<path class="st33" d="M229.1,199.6c0,0.5-0.4,0.9-0.9,0.9s-0.9-0.4-0.9-0.9s0.4-0.9,0.9-0.9S229.1,199.1,229.1,199.6z"/>
			<path class="st33" d="M244.5,203.5c0,0.5-0.4,0.9-0.9,0.9s-0.9-0.4-0.9-0.9s0.4-0.9,0.9-0.9C244.1,202.6,244.5,203,244.5,203.5z"
				/>
			<path class="st33" d="M231.2,200.3c0,0.5-0.4,0.9-0.9,0.9s-0.9-0.4-0.9-0.9s0.4-0.9,0.9-0.9S231.2,199.8,231.2,200.3z"/>
			<path class="st33" d="M240.8,202.9c0,0.5-0.4,0.9-0.9,0.9s-0.9-0.4-0.9-0.9s0.4-0.9,0.9-0.9S240.8,202.4,240.8,202.9z"/>
			<path class="st33" d="M232.9,196.1c0,0.5-0.4,0.9-0.9,0.9s-0.9-0.4-0.9-0.9s0.4-0.9,0.9-0.9C232.5,195.2,232.9,195.6,232.9,196.1
				z"/>
			<path class="st33" d="M232.7,202.1c0,0.5-0.4,0.9-0.9,0.9s-0.9-0.4-0.9-0.9s0.4-0.9,0.9-0.9S232.7,201.6,232.7,202.1z"/>
			<path class="st33" d="M235.5,202.6c0,0.5-0.4,0.9-0.9,0.9s-0.9-0.4-0.9-0.9s0.4-0.9,0.9-0.9S235.5,202.1,235.5,202.6z"/>
			<path class="st33" d="M237.2,200.4c0,0.5-0.4,0.9-0.9,0.9s-0.9-0.4-0.9-0.9s0.4-0.9,0.9-0.9C236.8,199.6,237.2,199.9,237.2,200.4
				z"/>
			<path class="st33" d="M241.3,197.8c0,0.5-0.4,0.9-0.9,0.9s-0.9-0.4-0.9-0.9s0.4-0.9,0.9-0.9C240.9,197,241.3,197.4,241.3,197.8z"
				/>
			<path class="st33" d="M238.2,187.4c0,0.5-0.4,0.9-0.9,0.9s-0.9-0.4-0.9-0.9s0.4-0.9,0.9-0.9C237.7,186.5,238.2,186.9,238.2,187.4
				z"/>
			<path class="st33" d="M244.6,189.6c0,0.5-0.4,0.9-0.9,0.9s-0.9-0.4-0.9-0.9s0.4-0.9,0.9-0.9S244.6,189.2,244.6,189.6z"/>
			<path class="st33" d="M246.7,188.7c0,0.5-0.4,0.9-0.9,0.9s-0.9-0.4-0.9-0.9s0.4-0.9,0.9-0.9C246.3,187.8,246.7,188.2,246.7,188.7
				z"/>
			<path class="st33" d="M240.7,187.9c0,0.5-0.4,0.9-0.9,0.9s-0.9-0.4-0.9-0.9s0.4-0.9,0.9-0.9S240.7,187.4,240.7,187.9z"/>
			<path class="st33" d="M243.2,187.2c0,0.5-0.4,0.9-0.9,0.9s-0.9-0.4-0.9-0.9s0.4-0.9,0.9-0.9S243.2,186.7,243.2,187.2z"/>
		</g>
		<g class="st1">
			<g transform="translate(-540.000000, -189.000000)">
				<path class="st33" d="M820.2,328.4l0.4,17.2l18.4-0.4l-0.4-17.2l3.1,3l6-6.3l-9.4-9l-4,0.1c-0.7,2.2-2.7,3.7-5.1,3.8
					c-2.4,0-4.5-1.4-5.3-3.6l-4,0.1l-9,9.4l6.3,6L820.2,328.4L820.2,328.4z"/>
			</g>
		</g>
		<g class="st1">
			<path class="st28" d="M264.6,159.2c0.2-0.1,0.4-0.3,0.5-0.4l0.1-0.2l1-2.1l0,0l0,0l0.5-1.1c0.1-0.2,0.3-0.3,0.5-0.2
				c0.2,0.1,0.3,0.3,0.2,0.5l-0.4,0.8l4.3,2.5l-1.5-6.3c0,0-0.7-2.3-2.7-1.9c-0.9,0.2-1.6,0.8-2.1,1.7l-1.8,5l-4.1,1.5
				c-0.4,0.1-0.7,0.7-0.7,1.1c0,0.7,0.8,1.2,1.6,1L264.6,159.2z"/>
			
				<rect x="271.3" y="147.7" transform="matrix(0.9721 -0.2346 0.2346 0.9721 -27.228 68.1363)" class="st28" width="3" height="1.6"/>
			<path class="st28" d="M252.1,169.7c-0.1,0-0.2,0-0.3-0.1c-0.2-0.2-0.3-0.5-0.1-0.7l5.6-8c0.2-0.2,0.5-0.3,0.7-0.1
				c0.2,0.2,0.3,0.5,0.1,0.7l-5.6,8C252.4,169.6,252.3,169.7,252.1,169.7L252.1,169.7z"/>
			<path class="st28" d="M251.6,175.4c-0.2,0-0.4-0.2-0.5-0.4c0-0.1,0-0.2,0.1-0.3c0.1-0.1,0.2-0.1,0.3-0.2l0,0
				c0.3,0,0.5,0.2,0.5,0.4C252.1,175.2,251.9,175.4,251.6,175.4L251.6,175.4L251.6,175.4z M251.5,173.9c-0.2,0-0.4-0.2-0.5-0.4
				c0-0.1,0-0.2,0.1-0.3c0.1-0.1,0.2-0.1,0.3-0.2l0,0c0.3,0,0.5,0.2,0.5,0.4C252,173.7,251.8,173.9,251.5,173.9
				C251.6,173.9,251.5,173.9,251.5,173.9L251.5,173.9z M251.5,172.4L251.5,172.4c-0.3,0-0.5-0.2-0.5-0.4c0-0.3,0.2-0.5,0.4-0.5l0,0
				c0.3,0,0.5,0.2,0.5,0.4c0,0.1,0,0.2-0.1,0.3C251.7,172.3,251.6,172.4,251.5,172.4L251.5,172.4L251.5,172.4z M251.4,170.8
				c-0.2,0-0.4-0.2-0.5-0.4c0-0.1,0-0.2,0.1-0.3c0.1-0.1,0.2-0.1,0.3-0.2l0,0c0.3,0,0.5,0.2,0.5,0.4
				C251.8,170.6,251.7,170.8,251.4,170.8L251.4,170.8L251.4,170.8z"/>
			<path class="st28" d="M277.6,162.2c-0.2-1.4-1.2-2.8-1.7-3.5l0.9-0.2c0.8-0.2,1.3-1,1.1-1.8l-1.4-6c-0.2-0.8-1-1.3-1.8-1.1
				l-2.8,0.7c-0.8,0.2-1.3,1-1.1,1.8l1.4,6c0.2,0.8,1,1.3,1.8,1.1l1-0.2c0.4,0.5,1.6,2,1.8,3.4c0.2,1.3,0,2.3-0.7,3
				c-0.8,0.8-2,1.1-2.9,1.2l-1.6-6.5l-4.8-2.8L266,159l0.7,3.1l-4.7,4.4c-0.3,0.3-0.5,0.9-0.5,1.4v6.9c0,0.2,0,0.3,0,0.4
				c0,0.5,0.2,0.9,0.6,1.2c0.4,0.3,0.8,0.5,1.3,0.4c0.9-0.1,1.4-0.6,1.6-1.4l0.1-7.2l3.9-3.2l0.8,3.5c0.1,0.4,0.4,0.7,0.4,0.7
				l4.2,6.6c0.4,0.6,0.9,0.9,1.7,0.9c0.5-0.1,0.9-0.3,1.2-0.6c0.3-0.4,0.5-0.8,0.4-1.3c0-0.3-0.1-0.5-0.2-0.7l-4-6.2l-0.1-0.4
				c1-0.1,2.4-0.4,3.4-1.5C277.5,165,277.8,163.8,277.6,162.2z"/>
			<path class="st28" d="M266.6,148L266.6,148L266.6,148v-0.8c-0.1-1.4-1.2-2.5-2.6-2.5c-1.4,0-2.6,1.1-2.6,2.5h-2.8v0.8H266.6z"/>
			<path class="st28" d="M248.5,174.9c-0.1,0-0.2,0-0.3-0.1c-0.2-0.1-0.3-0.4-0.1-0.6c0.1-0.2,0.4-0.3,0.6-0.1
				c0.2,0.1,0.3,0.4,0.1,0.6C248.8,174.8,248.6,174.9,248.5,174.9L248.5,174.9z M249.3,173.7c-0.1,0-0.2,0-0.3-0.1
				c-0.1-0.1-0.2-0.2-0.2-0.3s0-0.2,0.1-0.4c0.1-0.2,0.4-0.3,0.6-0.1c0.1,0.1,0.2,0.2,0.2,0.3c0,0.1,0,0.2-0.1,0.3
				C249.6,173.6,249.5,173.7,249.3,173.7L249.3,173.7z M250.2,172.4c-0.1,0-0.2,0-0.3-0.1c-0.2-0.1-0.3-0.4-0.1-0.6
				c0.1-0.2,0.4-0.3,0.6-0.1c0.1,0.1,0.2,0.2,0.2,0.3c0,0.1,0,0.2-0.1,0.3C250.5,172.3,250.3,172.4,250.2,172.4L250.2,172.4z"/>
			<path class="st28" d="M247,172c-0.2,0-0.4-0.1-0.4-0.3c-0.1-0.3,0.1-0.5,0.3-0.6c0.2-0.1,0.5,0.1,0.6,0.3
				c0.1,0.2-0.1,0.5-0.3,0.6C247.1,172,247,172,247,172L247,172z M248.5,171.6c-0.2,0-0.4-0.1-0.4-0.3c-0.1-0.2,0.1-0.5,0.3-0.6
				c0.3-0.1,0.5,0.1,0.6,0.3c0.1,0.2-0.1,0.5-0.3,0.6C248.5,171.6,248.5,171.6,248.5,171.6L248.5,171.6z M249.9,171.2
				c-0.2,0-0.4-0.1-0.4-0.3c-0.1-0.2,0.1-0.5,0.3-0.6c0.2-0.1,0.5,0.1,0.6,0.3c0.1,0.2-0.1,0.5-0.3,0.6
				C250,171.2,250,171.2,249.9,171.2L249.9,171.2z"/>
			<path class="st28" d="M264.4,148.6L264.4,148.6h-4.9l0.1,0.4c0.3,2.4,2.2,4.2,4.5,4.2h0.4v-2.1c1.2-0.2,2.1-1.2,2.1-2.4l0,0l0,0
				l0,0h-2.2V148.6z M263.6,152.4c-1.6-0.2-2.8-1.4-3.2-3h3.2V152.4z"/>
		</g>
		<g class="st1">
			<path class="st33" d="M303.3,193.9c-4.6,1.6-10.7,2.5-17.2,2.5s-12.6-0.9-17.2-2.5c-4.7-1.7-7.3-4-7.3-6.5c0-0.2,0-0.4,0.1-0.6
				c-0.5,0.9-0.9,1.8-1,2.9c0,0.4-0.1,0.9-0.1,1.4c-0.1,0.6-0.1,1.2-0.2,1.9c0.7,2,3.3,3.8,7.3,5.2c4.9,1.8,11.5,2.7,18.4,2.7
				c7,0,13.5-1,18.4-2.7c4.1-1.4,6.6-3.3,7.3-5.2c-0.1-0.7-0.1-1.3-0.2-1.9c-0.1-0.5-0.1-1-0.1-1.4c-0.1-1.1-0.4-2-1-2.9
				c0,0.2,0.1,0.4,0.1,0.6C310.6,189.9,308,192.2,303.3,193.9z"/>
			<path class="st33" d="M269.9,207c-3.3-1.1-5.9-2.5-7.7-4.1c0.8,1.2,1.8,2.4,3.2,3.5c6.6,4.8,14.2,5.5,21.4,5.5h1.4
				c10.4-0.3,15.6-3.2,18.6-5.4c1.4-1,2.5-2.2,3.3-3.5c-4.1,3.5-12.9,6.6-24,6.6C280.3,209.6,274.7,208.7,269.9,207z"/>
			<path class="st33" d="M304.7,198.5c-5,1.8-11.5,2.7-18.5,2.7s-13.6-1-18.5-2.7c-3.7-1.3-6.2-3-7.2-4.8c-0.1,0.8-0.1,1.7,0,2.5
				c0.9,1.8,3.4,3.5,7.2,4.9c5,1.8,11.6,2.7,18.6,2.7s13.7-1,18.6-2.7c3.8-1.4,6.3-3,7.2-4.9c0-0.9,0-1.7,0-2.5
				C310.9,195.5,308.4,197.2,304.7,198.5z"/>
			<path class="st33" d="M304.9,203.5c-5.1,2-11.8,3.2-18.8,3.2s-13.6-1.1-18.8-3.2c-3.1-1.2-5.4-2.7-6.7-4.3
				c0.2,0.9,0.5,1.8,0.9,2.7c3.6,3.7,12.9,7.3,24.5,7.3c5.8,0,11.5-0.9,16.3-2.6c3.6-1.3,6.5-2.9,8.2-4.7c0.4-0.9,0.7-1.8,0.9-2.7
				C310.3,200.8,308,202.3,304.9,203.5z"/>
			<path class="st33" d="M304.9,201.4c-5,1.8-11.7,2.8-18.8,2.8s-13.7-1-18.8-2.8c-3.5-1.2-5.9-2.8-7-4.4c0,0.4,0.1,0.8,0.2,1.3
				c1.1,1.8,3.5,3.5,7,4.9c5.1,2,11.7,3.1,18.6,3.1c6.9,0,13.5-1.1,18.6-3.1c3.5-1.4,5.9-3.1,7-4.9c0.1-0.4,0.1-0.8,0.2-1.3
				C310.7,198.7,308.3,200.2,304.9,201.4z"/>
			<path class="st33" d="M269.3,181.8c-4.3,1.5-6.8,3.6-6.8,5.6c0,2.1,2.5,4.1,6.8,5.6c4.5,1.6,10.5,2.5,16.9,2.5s12.4-0.9,16.9-2.5
				c4.3-1.5,6.8-3.6,6.8-5.6s-2.5-4.1-6.8-5.6c-4.5-1.6-10.5-2.5-16.9-2.5C279.7,179.3,273.8,180.2,269.3,181.8z M297.7,192.4
				c-3.1,1-7.2,1.6-11.6,1.6s-8.5-0.6-11.6-1.6c-3.2-1.1-4.9-2.5-4.9-4.1c0-1.6,1.7-3,4.9-4.1c3.1-1,7.2-1.6,11.6-1.6
				s8.5,0.6,11.6,1.6c3.2,1.1,4.9,2.5,4.9,4.1C302.6,189.9,300.9,191.3,297.7,192.4z"/>
		</g>
		<g class="st1">
			<path class="st28" d="M263.9,233.1c-0.1-0.2-0.7-0.1-1.4,0.3c-0.6,0.4-1,0.9-0.9,1.1c0.1,0.2,0.7,0.1,1.4-0.3
				C263.7,233.8,264.1,233.3,263.9,233.1z"/>
			<path class="st28" d="M263,231.5c0.9-0.8,1.4-1.6,1.2-2c-0.3-0.5-1.9-0.2-3.4,0.8c-1.6,1-2.6,2.2-2.3,2.7
				c0.2,0.4,1.2,0.3,2.3-0.2l0.7,1.1c0.1-0.3,0.4-0.6,0.9-0.9c0.5-0.3,1-0.5,1.3-0.4L263,231.5z"/>
			<path class="st28" d="M255.1,211.9l-4.2,2.6l0,0l-4.2,2.6l1.9,2.6c1.2-0.8,2.5-1.7,3.9-2.6c1.4-0.9,2.8-1.7,4.1-2.3L255.1,211.9z
				"/>
			<path class="st28" d="M260.5,230L260.5,230L260.5,230L260.5,230L260.5,230c1.8-1.1,3.4-1.5,3.7-1l0,0l-1.3-2.4
				c-1,0.2-2.3,0.7-3.5,1.5c-1.3,0.8-2.3,1.7-2.9,2.5l1.6,2.2l0,0C257.7,232.3,258.8,231,260.5,230z"/>
			<polygon class="st28" points="249.8,212.7 245.1,215.5 246.3,217.1 250.8,214.3 255.3,211.6 254.4,209.8 			"/>
			<path class="st28" d="M262.7,226.2l-5.9-11.1c-1.3,0.6-2.7,1.4-4.1,2.3c-1.4,0.9-2.7,1.8-3.8,2.7l7.3,10.2
				c0.7-0.9,1.7-1.8,2.9-2.6C260.3,226.9,261.6,226.4,262.7,226.2z"/>
		</g>
		<g class="st1">
			<polygon class="st33" points="312.4,208 316.7,216 302.1,223.8 301.1,218.3 294.7,217.5 			"/>
			<polygon class="st33" points="281.7,224.5 286.7,227.1 280.2,230.7 286.6,232.1 273.3,239.2 269.1,231.3 			"/>
			<polygon class="st33" points="291.9,219.8 293.5,214.5 289.8,214.8 			"/>
			<polygon class="st33" points="298.2,227.1 302.2,230.6 303.6,228.3 			"/>
			<polygon class="st33" points="293.5,230.5 293.2,234.5 291.2,232.3 292.5,229.3 			"/>
			<polygon class="st33" points="288.6,217.9 285.5,219.6 290.5,221.8 			"/>
			<polygon class="st33" points="285.8,236.9 287.5,238.1 288.4,232.7 			"/>
			<polygon class="st33" points="291.1,225 288.1,224.1 287.5,226.4 			"/>
			<polygon class="st33" points="296.4,219.5 299.8,219.3 298.2,220.4 			"/>
			<polygon class="st33" points="298.6,222.6 301,224.4 300.5,221.2 			"/>
			<polygon class="st33" points="284.6,230.1 289.1,231.1 289,228.4 			"/>
			<polygon class="st33" points="286.1,223.4 284.7,220.8 282.6,221.3 			"/>
			<polygon class="st33" points="297.7,232.5 295.2,229.2 296.2,233.3 			"/>
			<polygon class="st33" points="293.5,224.7 291.6,226.9 297,224.9 296.7,221.4 294.2,222.8 294.4,220 291.9,221.6 291.1,223.3 			
				"/>
		</g>
	</g>
	<g id="Beschriftung">
		<line class="st34" x1="413.6" y1="179" x2="313.9" y2="189.2"/>
		<line class="st34" x1="413.6" y1="179" x2="313.9" y2="189.2"/>
		<line class="st34" x1="262.7" y1="142.6" x2="253.3" y2="85.5"/>
		<line class="st34" x1="304.6" y1="127.4" x2="322" y2="98.8"/>
		<rect x="322.8" y="86.5" class="st35" width="9.7" height="13.2"/>
		<text transform="matrix(1 0 0 1 322.7957 96.0002)" class="st1 st36 st37">6</text>
		<line class="st34" x1="341.3" y1="144.2" x2="378.5" y2="115.7"/>
		<line class="st34" x1="396" y1="232.7" x2="341.7" y2="212.8"/>
		<line class="st34" x1="314.5" y1="301.3" x2="312.3" y2="248"/>
		<line class="st34" x1="257.3" y1="301.3" x2="275.6" y2="241.9"/>
		<line class="st34" x1="203.3" y1="264.2" x2="245.7" y2="221.3"/>
		<line class="st34" x1="195" y1="120.6" x2="232.2" y2="174.9"/>
		<rect x="384.9" y="105.4" class="st35" width="7.2" height="15.5"/>
		<text transform="matrix(1 0 0 1 384.9195 114.8726)" class="st1 st36 st37">1</text>
		<rect x="420" y="171.5" class="st35" width="10.6" height="13.6"/>
		<text transform="matrix(1 0 0 1 420.0088 181.0539)" class="st1 st36 st37">4</text>
		<rect x="400.5" y="230" class="st35" width="9.2" height="12.5"/>
		<text transform="matrix(1 0 0 1 400.4823 239.4641)" class="st1 st36 st37">9</text>
		<rect x="313" y="309.7" class="st35" width="9" height="12.7"/>
		<text transform="matrix(1 0 0 1 312.9287 319.2124)" class="st1 st36 st37">3</text>
		<rect x="249.8" y="309.1" class="st35" width="10.2" height="12.7"/>
		<text transform="matrix(1 0 0 1 249.7321 318.6431)" class="st1 st36 st37">2</text>
		<rect x="193.6" y="266.9" class="st35" width="7.2" height="15.5"/>
		<rect x="186.8" y="106.4" class="st35" width="11.2" height="12.1"/>
		<text transform="matrix(1 0 0 1 186.785 115.8726)" class="st1 st36 st37">5</text>
		<rect x="248.5" y="69.7" class="st35" width="8.5" height="12.2"/>
		<text transform="matrix(1 0 0 1 248.4335 79.2146)" class="st1 st36 st37">8</text>
	</g>
	<g id="Layer_5" class="st1">
		<polygon class="st2" points="404.3,191.8 315.3,130 335.8,190.6 		"/>
		<polygon class="st3" points="257.3,132.1 315.3,130 289.5,142.4 		"/>
		<polygon class="st4" points="275.9,148.9 289.5,142.4 257.3,132.1 		"/>
		<polygon class="st5" points="246.8,189.5 335.8,190.6 315.3,130 		"/>
		<polygon class="st6" points="221.2,175.1 246.8,189.5 315.3,130 		"/>
		<polygon class="st7" points="147.7,136.8 211.3,183.4 221.2,175.1 		"/>
		<polygon class="st8" points="197.4,194.8 211.3,183.4 147.7,136.8 		"/>
		<polygon class="st9" points="213.8,203.1 197.4,194.8 164.2,253.3 		"/>
		<polygon class="st10" points="231.2,210.5 213.8,203.1 164.2,253.3 		"/>
		<polygon class="st11" points="246.8,189.5 211.3,183.4 221.2,175.1 		"/>
		<polygon class="st12" points="197.4,194.8 246.8,189.5 211.3,183.4 		"/>
		<polygon class="st7" points="213.8,203.1 246.8,189.5 197.4,194.8 		"/>
		<polygon class="st13" points="231.2,210.5 246.8,189.5 213.8,203.1 		"/>
		<polygon class="st14" points="303.3,241 246.8,189.5 231.2,210.5 		"/>
		<polygon class="st4" points="249.8,276.5 267.8,226 283.9,232.8 		"/>
		<polygon class="st15" points="303.3,241 283.9,232.8 249.8,276.5 		"/>
		<polygon class="st16" points="335.8,190.6 303.3,241 246.8,189.5 		"/>
		<polygon class="st17" points="404.3,191.8 303.3,241 335.8,190.6 		"/>
		<polygon class="st18" points="404.3,191.8 315.3,130 335.8,190.6 		"/>
		<polygon class="st19" points="404.3,191.8 303.3,241 335.8,190.6 		"/>
		<polygon class="st20" points="315.3,130.3 375,191.5 335.8,190.9 		"/>
		<polygon class="st17" points="335.8,190.6 375,191.3 303.3,241 		"/>
		<g>
			<line class="st21" x1="335" y1="172.4" x2="349.9" y2="185.6"/>
			<line class="st21" x1="348.4" y1="172.6" x2="338.2" y2="186.9"/>
		</g>
		<polygon class="st22" points="323.1,153.6 289.5,152.4 246.8,189.5 287.4,226.5 312.6,226.5 328.9,201.2 335.8,190.6 		"/>
		<polygon class="st22" points="246.8,189.5 281.6,173.2 289.5,152.4 		"/>
		<polygon class="st23" points="292.7,225.9 246.8,189.5 287.4,226.5 		"/>
		<polygon class="st24" points="246.8,189.5 249.9,191.9 289.5,152.4 		"/>
		<polygon class="st24" points="287.4,226.5 314.8,223.1 312.6,226.5 		"/>
		<polyline class="st23" points="311.7,223.5 335.8,190.6 314.8,223.1 		"/>
		<polyline class="st24" points="323.1,153.6 333.8,193.3 335.8,190.6 		"/>
		<line class="st25" x1="285.5" y1="156.4" x2="289.5" y2="152.4"/>
		<path class="st24" d="M287,154.9"/>
		<polygon class="st23" points="289.5,152.4 323.1,153.6 288.1,153.8 		"/>
		<path class="st24" d="M287,154.9"/>
	</g>
	<g id="Layer_6" class="st1">
		<g>
			<polygon class="st38" points="300.1,163.9 300.9,162.7 302.1,162.6 302.8,163.5 302.8,164.3 302.5,164.9 301.6,165.5 
				300.8,165.1 300.2,164.7 			"/>
			<polygon class="st38" points="312.9,196.1 313.7,194.8 314.9,194.8 315.6,195.7 315.6,196.5 315.3,197.1 314.4,197.7 
				313.6,197.3 313,196.8 			"/>
			<polygon class="st38" points="262.2,196.1 263,194.8 264.2,194.8 264.9,195.7 264.9,196.5 264.6,197.1 263.7,197.7 262.9,197.3 
				262.3,196.8 			"/>
			<polygon class="st38" points="302.2,186 303,184.7 304.2,184.7 304.9,185.6 304.9,186.4 304.6,187 303.7,187.6 303,187.2 
				302.3,186.7 			"/>
			<polygon class="st38" points="293.3,197.5 294.1,196.3 295.3,196.2 296,197.1 296,197.9 295.7,198.5 294.8,199.1 294,198.7 
				293.4,198.3 			"/>
			<polygon class="st38" points="304.8,195.3 305.6,194 306.8,194 307.5,194.8 307.5,195.7 307.2,196.2 306.3,196.8 305.5,196.4 
				304.9,196 			"/>
			<polygon class="st38" points="290.5,186 291.3,184.7 292.6,184.7 293.3,185.6 293.3,186.4 293,187 292,187.6 291.3,187.2 
				290.6,186.7 			"/>
			<polygon class="st38" points="318.7,167.4 319.5,166.2 320.7,166.1 321.4,167 321.4,167.8 321.1,168.4 320.2,169 319.4,168.6 
				318.8,168.2 			"/>
			<polygon class="st38" points="310.6,166.6 311.4,165.3 312.6,165.3 313.3,166.2 313.3,167 313,167.6 312.1,168.2 311.3,167.8 
				310.7,167.3 			"/>
			<polygon class="st38" points="296.3,157.3 297.1,156.1 298.4,156 299.1,156.9 299.1,157.7 298.8,158.3 297.9,158.9 297.1,158.5 
				296.4,158.1 			"/>
			<polygon class="st38" points="277.3,167.4 278,166.2 279.3,166.1 280,167 280,167.8 279.7,168.4 278.8,169 278,168.6 
				277.4,168.2 			"/>
			<polygon class="st38" points="310.5,157.5 311.3,156.2 312.6,156.2 313.2,157 313.3,157.9 313,158.4 312,159 311.3,158.6 
				310.6,158.2 			"/>
			<polygon class="st38" points="297.7,205.2 298.5,203.9 299.7,203.9 300.4,204.8 300.4,205.6 300.1,206.2 299.2,206.7 
				298.5,206.4 297.8,205.9 			"/>
			<polygon class="st38" points="326.1,195.1 326.9,193.8 328.1,193.8 328.8,194.7 328.8,195.5 328.5,196.1 327.6,196.7 
				326.8,196.3 326.2,195.8 			"/>
			<polygon class="st38" points="304.4,178.4 305.2,177.1 306.4,177.1 307.1,178 307.2,178.8 306.8,179.4 305.9,179.9 305.2,179.5 
				304.5,179.1 			"/>
			<polygon class="st38" points="296.3,177.6 297.1,176.3 298.4,176.3 299.1,177.1 299.1,177.9 298.8,178.5 297.9,179.1 
				297.1,178.7 296.4,178.3 			"/>
			<polygon class="st38" points="317.6,177.4 318.4,176.1 319.7,176.1 320.4,177 320.4,177.8 320.1,178.4 319.1,179 318.4,178.6 
				317.7,178.1 			"/>
			<polygon class="st38" points="296.5,213.5 297.3,212.2 298.5,212.2 299.2,213 299.2,213.8 298.9,214.4 298,215 297.3,214.6 
				296.6,214.2 			"/>
			<polygon class="st38" points="288.4,212.6 289.2,211.4 290.4,211.3 291.1,212.2 291.2,213 290.8,213.6 289.9,214.2 289.2,213.8 
				288.5,213.4 			"/>
			<polygon class="st38" points="309.7,212.5 310.5,211.2 311.7,211.2 312.4,212.1 312.4,212.9 312.1,213.4 311.2,214 310.5,213.6 
				309.8,213.2 			"/>
			<polygon class="st38" points="268.1,202.8 268.9,201.6 270.1,201.5 270.8,202.4 270.8,203.2 270.5,203.8 269.6,204.4 268.8,204 
				268.2,203.6 			"/>
			<polygon class="st38" points="272.5,184.4 273.3,183.1 274.5,183.1 275.2,184 275.2,184.8 274.9,185.4 274,185.9 273.3,185.6 
				272.6,185.1 			"/>
			<polygon class="st38" points="271.3,192.7 272.1,191.4 273.3,191.4 274,192.2 274,193 273.7,193.6 272.8,194.2 272.1,193.8 
				271.4,193.4 			"/>
			<polygon class="st38" points="265.3,184.4 266.1,183.1 267.4,183.1 268,184 268.1,184.8 267.8,185.4 266.8,185.9 266.1,185.6 
				265.4,185.1 			"/>
			<polygon class="st38" points="280.5,196 281.3,194.7 282.6,194.7 283.2,195.6 283.3,196.4 283,197 282,197.6 281.3,197.2 
				280.6,196.7 			"/>
			<polygon class="st38" points="279.3,204.3 280.1,203 281.4,203 282,203.9 282.1,204.7 281.8,205.3 280.8,205.8 280.1,205.4 
				279.4,205 			"/>
			<polygon class="st38" points="285,163.4 285.7,162.1 287,162.1 287.7,163 287.7,163.8 287.4,164.4 286.5,165 285.7,164.6 
				285.1,164.1 			"/>
			<polygon class="st38" points="283.8,171.7 284.6,170.4 285.8,170.4 286.5,171.3 286.5,172.1 286.2,172.7 285.3,173.3 
				284.5,172.9 283.9,172.4 			"/>
			<polygon class="st38" points="321.3,180 322.1,178.7 323.3,178.7 324,179.6 324,180.4 323.7,180.9 322.8,181.5 322,181.1 
				321.4,180.7 			"/>
			<polygon class="st38" points="311.3,190 312.1,188.7 313.3,188.7 314,189.5 314,190.4 313.7,190.9 312.8,191.5 312,191.1 
				311.4,190.7 			"/>
			<polygon class="st38" points="298.2,195.7 299,194.4 300.2,194.4 300.9,195.3 301,196.1 300.6,196.6 299.7,197.2 299,196.8 
				298.3,196.4 			"/>
			<polygon class="st38" points="284.4,188.2 285.2,186.9 286.4,186.9 287.1,187.8 287.2,188.6 286.8,189.2 285.9,189.8 
				285.2,189.4 284.5,188.9 			"/>
			<polygon class="st38" points="290.1,194.8 290.9,193.6 292.2,193.5 292.9,194.4 292.9,195.2 292.6,195.8 291.7,196.4 290.9,196 
				290.2,195.6 			"/>
			<polygon class="st38" points="275.9,185.6 276.7,184.3 277.9,184.3 278.6,185.2 278.6,186 278.3,186.6 277.4,187.2 276.6,186.8 
				276,186.3 			"/>
			<polygon class="st38" points="289.8,178 290.6,176.7 291.8,176.7 292.5,177.5 292.5,178.3 292.2,178.9 291.3,179.5 290.5,179.1 
				289.9,178.7 			"/>
			<polygon class="st38" points="281.7,177.1 282.5,175.9 283.7,175.8 284.4,176.7 284.4,177.5 284.1,178.1 283.2,178.7 
				282.4,178.3 281.8,177.9 			"/>
			<polygon class="st38" points="296.6,189.5 297.4,188.3 298.6,188.2 299.3,189.1 299.4,189.9 299,190.5 298.1,191.1 297.4,190.7 
				296.7,190.3 			"/>
			<polygon class="st38" points="315.9,204.7 316.7,203.4 318,203.4 318.6,204.3 318.7,205.1 318.4,205.7 317.4,206.3 316.7,205.9 
				316,205.4 			"/>
			<polygon class="st38" points="307.9,203.9 308.6,202.6 309.9,202.6 310.6,203.4 310.6,204.3 310.3,204.8 309.4,205.4 308.6,205 
				307.9,204.6 			"/>
			<polygon class="st38" points="326.7,188.5 327.5,187.3 328.7,187.2 329.4,188.1 329.4,188.9 329.1,189.5 328.2,190.1 
				327.4,189.7 326.8,189.3 			"/>
			<polygon class="st38" points="318.6,187.7 319.4,186.4 320.6,186.4 321.3,187.3 321.3,188.1 321,188.7 320.1,189.3 319.3,188.9 
				318.7,188.4 			"/>
			<polygon class="st38" points="298.7,171.4 299.5,170.1 300.7,170.1 301.4,170.9 301.4,171.7 301.1,172.3 300.2,172.9 
				299.4,172.5 298.8,172.1 			"/>
			<polygon class="st38" points="290.6,170.5 291.4,169.3 292.6,169.2 293.3,170.1 293.3,170.9 293,171.5 292.1,172.1 291.3,171.7 
				290.7,171.3 			"/>
			<polygon class="st38" points="275.2,176.9 276,175.7 277.2,175.6 277.9,176.5 277.9,177.3 277.6,177.9 276.7,178.5 275.9,178.1 
				275.3,177.7 			"/>
			<polygon class="st38" points="267.1,176.1 267.9,174.8 269.1,174.8 269.8,175.7 269.8,176.5 269.5,177.1 268.6,177.7 
				267.8,177.3 267.2,176.8 			"/>
		</g>
	</g>
	<g class="st1">
		<path class="st39" d="M428.2,309.3c48.7-24.3,80.4-64.3,80.4-109.6c0-45.3-31.8-85.3-80.4-109.6"/>
		<path class="st39" d="M365.2,372.3c-31,15.5-68.8,24.5-109.6,24.5s-78.6-9.1-109.6-24.5"/>
		<path class="st39" d="M146,27c31-15.5,68.8-24.5,109.6-24.5s78.6,9.1,109.6,24.5"/>
		<path class="st39" d="M82.9,90.1C34.3,114.4,2.5,154.4,2.5,199.7c0,45.3,31.8,85.3,80.4,109.6"/>
		<path class="st39" d="M175,343.3c22.8,11.4,50.6,18,80.6,18s57.8-6.7,80.6-18"/>
		<path class="st39" d="M112,119.1c-35.8,17.9-59.1,47.3-59.1,80.6c0,33.3,23.4,62.7,59.1,80.6"/>
		<path class="st39" d="M336.1,56.1c-22.8-11.4-50.6-18-80.6-18s-57.8,6.7-80.6,18"/>
		<path class="st39" d="M399.2,280.2c35.8-17.9,59.1-47.3,59.1-80.6c0-33.3-23.4-62.7-59.1-80.6"/>
		<path class="st39" d="M146,90.1"/>
		<path class="st39" d="M83.1,27.2"/>
		<path class="st39" d="M336.1,280.2"/>
		<path class="st39" d="M365.2,309.3"/>
	</g>
</g>
<g id="Layer_2">
	<g id="fishie_1_">
		<g>
			<polygon class="st2" points="403.6,191.5 314.6,129.8 335.1,190.4 			"/>
			<polygon class="st3" points="256.6,131.9 314.6,129.8 288.8,142.1 			"/>
			<polygon class="st4" points="275.2,148.6 288.8,142.1 256.6,131.9 			"/>
			<polygon class="st5" points="246.1,189.3 335.1,190.4 314.6,129.8 			"/>
			<polygon class="st6" points="220.5,174.9 246.1,189.3 314.6,129.8 			"/>
			<polygon class="st7" points="147,136.5 210.6,183.1 220.5,174.9 			"/>
			<polygon class="st8" points="196.8,194.5 210.6,183.1 147,136.5 			"/>
			<polygon class="st9" points="213.1,202.9 196.8,194.5 163.5,253 			"/>
			<polygon class="st10" points="230.5,210.3 213.1,202.9 163.5,253 			"/>
			<polygon class="st11" points="246.1,189.3 210.6,183.1 220.5,174.9 			"/>
			<polygon class="st12" points="196.8,194.5 246.1,189.3 210.6,183.1 			"/>
			<polygon class="st7" points="213.1,202.9 246.1,189.3 196.8,194.5 			"/>
			<polygon class="st13" points="230.5,210.3 246.1,189.3 213.1,202.9 			"/>
			<polygon class="st14" points="302.6,240.8 246.1,189.3 230.5,210.3 			"/>
			<polygon class="st4" points="249.1,276.3 267.1,225.8 283.2,232.6 			"/>
			<polygon class="st15" points="302.6,240.8 283.2,232.6 249.1,276.3 			"/>
			<polygon class="st16" points="335.1,190.4 302.6,240.8 246.1,189.3 			"/>
			<polygon class="st17" points="403.6,191.5 302.6,240.8 335.1,190.4 			"/>
			<polygon class="st18" points="403.6,191.5 314.6,129.8 335.1,190.4 			"/>
			<polygon class="st19" points="403.6,191.5 302.6,240.8 335.1,190.4 			"/>
			<polygon class="st20" points="314.6,130 374.3,191.3 335.1,190.6 			"/>
			<polygon class="st17" points="335.1,190.4 374.3,191 302.6,240.8 			"/>
			<g>
				<line class="st21" x1="334.4" y1="172.1" x2="349.3" y2="185.3"/>
				<line class="st21" x1="347.7" y1="172.4" x2="337.6" y2="186.6"/>
			</g>
			<polygon class="st22" points="322.5,153.4 288.8,152.2 246.1,189.3 286.7,226.3 312,226.3 328.3,200.9 335.1,190.4 			"/>
			<polygon class="st22" points="246.1,189.3 280.9,173 288.8,152.2 			"/>
			<polygon class="st23" points="292,225.6 246.1,189.3 286.7,226.3 			"/>
			<polygon class="st24" points="246.1,189.3 249.2,191.7 288.8,152.2 			"/>
			<polygon class="st24" points="286.7,226.3 314.2,222.9 312,226.3 			"/>
			<polyline class="st23" points="311.1,223.2 335.1,190.4 314.2,222.9 			"/>
			<polyline class="st24" points="322.5,153.4 333.2,193 335.1,190.4 			"/>
			<line class="st25" x1="284.8" y1="156.2" x2="288.8" y2="152.2"/>
			<path class="st24" d="M286.4,154.6"/>
			<polygon class="st23" points="288.8,152.2 322.5,153.4 287.5,153.6 			"/>
			<path class="st24" d="M286.4,154.6"/>
		</g>
	</g>
	<g id="Layer_3_1_">
		<g>
			<path class="st5" d="M338.6,123.5l7.3,21.4l-10-29.6c-10.2-4.5-21.4-7.1-33.3-7.1c-3.6,0-7.2,0.3-10.7,0.7l-68.2,59.2l0,0
				l53.8-46.8L338.6,123.5z"/>
			<path class="st6" d="M223.8,168.1l68.2-59.2C259.1,113.2,232.4,136.9,223.8,168.1z"/>
			<path class="st14" d="M273.8,255.8l-50.7-46.2c7.8,31.9,34.4,56.5,67.3,61.4L273.8,255.8L273.8,255.8z"/>
			<polygon class="st16" points="319.6,255.8 361.5,190.8 323.6,249.6 			"/>
			<path class="st16" d="M273.8,255.8l16.7,15.2c4,0.6,8,0.9,12.2,0.9c2.3,0,4.5-0.1,6.8-0.3l10.2-15.8L273.8,255.8L273.8,255.8z"/>
			<path class="st19" d="M371.4,234.3L320,270C341.5,265.4,359.9,252.2,371.4,234.3z"/>
			<path class="st20" d="M361.6,190.7l22.9,0.4c0-0.3,0-0.7,0-1c0-33.3-19.9-62-48.6-74.8l10,29.6L361.6,190.7z"/>
			<path class="st17" d="M371.4,234.3c8.1-12.5,12.8-27.3,13-43.3l-22.9-0.4l-0.1,0.2l-41.9,64.9l0,0l-10.2,15.8
				c3.6-0.3,7.1-0.8,10.6-1.6L371.4,234.3z"/>
			<path class="st22" d="M273.8,255.8l44.2-5.5l43.6-59.6l-3.5,4.8l-19.4-72l-62,0.3L263.3,159l-41.7,19.5
				c-0.5,3.7-0.8,7.6-0.8,11.4c0,5.6,0.6,11,1.6,16.2l61,48.3L273.8,255.8z"/>
			<path class="st22" d="M276.7,123.9h-1.5l2.5-2.5L221.9,177c-0.1,0.5-0.2,1.1-0.2,1.7l41.7-19.5L276.7,123.9z"/>
			<path class="st23" d="M283.4,254.6l-61-48.3c0.2,1.1,0.5,2.2,0.8,3.3l50.7,46.2L283.4,254.6z"/>
			<path class="st24" d="M223.8,168.1c-0.8,2.9-1.5,5.8-1.9,8.8l55.8-55.6L223.8,168.1z"/>
			<polygon class="st24" points="318,250.3 273.8,255.8 273.8,255.8 319.6,255.8 319.6,255.8 323.6,249.6 			"/>
			<polygon class="st23" points="323.6,249.6 361.5,190.8 361.6,190.7 318,250.3 			"/>
			<polygon class="st24" points="338.6,123.5 358.1,195.5 361.6,190.7 345.9,144.9 			"/>
			<polygon class="st23" points="275.1,123.9 276.7,123.9 338.6,123.5 277.6,121.4 			"/>
		</g>
		
			<rect x="355.9" y="255.7" transform="matrix(0.8449 -0.5349 0.5349 0.8449 -106.5041 245.0375)" class="st40" width="26.9" height="101"/>
		<circle class="st41" cx="302.6" cy="190" r="81.8"/>
	</g>
	<g id="waste_1_">
		<g>
			<g>
				
					<rect x="338.9" y="188.8" transform="matrix(0.5141 -0.8577 0.8577 0.5141 0.9528 385.3609)" class="st28" width="3.4" height="6"/>
				<path class="st28" d="M344,202.9l-0.2-3.3c-0.1-1.6-1.2-3.5-2.6-4.3l-4-2.4c-1.3-0.8-3.1-0.4-3.9,1L321.8,213
					c-0.8,1.3-0.4,3,1,3.8l8.4,4.8c1.4,0.8,3.1,0.3,3.9-1l7.5-12.5C343.5,206.8,344.1,204.5,344,202.9z M341,205.3
					c-0.8,0-1.6-0.6-1.6-1.4l-0.3-4.6c0-0.8,0.6-1.6,1.4-1.6c0.8,0,1.6,0.6,1.6,1.4l0.3,4.6C342.5,204.6,341.9,205.3,341,205.3z"/>
			</g>
		</g>
		<g>
			<g>
				<g>
					<defs>
						<rect id="SVGID_9_" x="298.6" y="227.3" width="23" height="23"/>
					</defs>
					<clipPath id="SVGID_10_">
						<use xlink:href="#SVGID_9_"  style="overflow:visible;"/>
					</clipPath>
					<path class="st42" d="M317.8,235.2c-2.2-0.1-2.4-1.6-2.4-2.7c0-1.1-0.8-2-1.8-2c-0.5,0-0.9,0.2-1.2,0.5
						c-1.7,1.4-2.8,0.1-3.1-0.4c0,0,0-0.1-0.1-0.1l0,0l0,0c-0.4-0.6-1.2-1-2-1c-1.2,0-2.2,1.1-2.2,2.4c0,0.3,0,0.5,0.2,1.2
						c0.3,0.7-0.3,1.2-1,0.7c-0.6-0.4-1.2-0.7-2-0.7c-1.5,0-2.8,1.4-2.8,3c0,0.9,0.4,1.6,0.9,2.2c0.4,0.3,0.4,0.9,0.2,1.4
						c-0.2,0.4-0.3,0.9-0.3,1.3c0,1.4,1,2.5,2.3,2.5c1.7,0,2.9,0.3,3,2.9c0,1,0.7,1.8,1.6,1.8c0.7,0,1.4-0.5,1.5-1.3l0,0
						c0.3-1,1.5-2,4-0.3c0,0,0,0,0.1,0l0,0c0.3,0.2,0.5,0.3,0.9,0.3c0.9,0,1.6-0.7,1.7-1.7c0-0.1,0-0.3,0-0.4
						c-0.1-2.1,2.5-1.3,2.6-1.2l0,0c0.1,0,0.2,0.1,0.4,0.1c0.4,0,0.8-0.4,0.8-0.9c0-0.4-0.2-0.8-0.5-0.9l0,0
						c-1.9-0.9,0.5-3.5,0.5-3.5l0,0c0.3-0.3,0.5-0.8,0.5-1.3C319.5,236,318.7,235.2,317.8,235.2 M300.9,241.4
						c-0.1,0-0.1-0.1-0.1-0.1l0,0c0-0.1,0.1-0.1,0.1-0.1l0.1,0.1l0,0C301.1,241.3,301,241.4,300.9,241.4L300.9,241.4z M302.2,242.7
						L302.2,242.7L302.2,242.7c-0.1,0.1-0.1,0.1-0.1,0.1l0,0l0,0H302c0,0,0,0-0.1,0c0,0,0,0-0.1,0h-0.1c0,0,0,0-0.1,0l0,0l0,0
						c0,0,0,0-0.1,0c0,0,0,0-0.1,0c0,0,0,0-0.1-0.1c0,0,0,0-0.1-0.1l-0.1-0.1c0,0,0,0,0-0.1c0,0,0,0,0-0.1c0,0,0-0.1-0.1-0.1
						c0,0,0,0,0-0.1c0,0,0,0,0-0.1l0,0l0,0v-0.1c0-0.1,0-0.1,0.1-0.1h0.1c0,0,0,0,0,0.1l0,0l0,0l0,0l0,0c0,0,0,0.1,0.1,0.1l0,0l0,0
						l0,0l0,0l0,0c0,0,0,0,0.1,0c0,0,0.1,0,0.1,0.1l0,0l0,0c0,0,0,0,0.1,0h0.1h0.1h0.1l0,0l0,0l0,0l0,0l0,0
						C302.3,242.5,302.3,242.6,302.2,242.7 M307.2,230.1c0-0.1,0.1-0.1,0.1-0.1l0,0c0.1,0,0.1,0.1,0.1,0.1s0,0.1-0.1,0.1l0,0l0,0
						C307.2,230.2,307.2,230.2,307.2,230.1 M306.7,247.4L306.7,247.4L306.7,247.4C306.7,247.4,306.6,247.4,306.7,247.4
						C306.6,247.4,306.6,247.4,306.7,247.4c-0.1,0-0.1,0-0.1,0v-0.1l0,0l0,0l0,0l0,0l0,0C306.8,247.4,306.7,247.4,306.7,247.4
						 M306.9,230.2L306.9,230.2C306.9,230.2,306.8,230.2,306.9,230.2c-0.1,0-0.1,0-0.1,0l0,0l0,0c0,0,0,0-0.1,0c0,0,0,0-0.1,0
						c0,0,0,0-0.1,0c0,0-0.1,0-0.1,0.1l-0.1,0.1l-0.1,0.1l0,0l0,0c0,0,0,0,0,0.1c0,0,0,0.1-0.1,0.1l0,0l0,0c0,0,0,0.1-0.1,0.1l0,0
						l0,0l0,0l0,0l0,0h-0.1c0,0,0,0,0-0.1l0,0c0,0,0,0,0-0.1l0,0c0,0,0,0,0-0.1v-0.1c0,0,0,0,0-0.1c0,0,0,0,0-0.1l0.1-0.1
						c0,0,0,0,0.1-0.1l0,0l0,0c0,0,0,0,0.1-0.1c0,0,0,0,0.1-0.1c0,0,0,0,0.1-0.1c0,0,0,0,0.1,0l0.1-0.1c0,0,0,0,0.1,0c0,0,0,0,0.1,0
						c0,0,0,0,0.1,0c0,0,0,0,0.1,0c0,0,0,0,0.1,0c0,0,0,0,0.1,0l0,0l0,0h0.1l0.1,0.1C307,230.2,307,230.2,306.9,230.2
						C307,230.2,306.9,230.2,306.9,230.2 M307.8,247.3c0,0,0,0.1-0.1,0.1c0,0,0,0-0.1,0c0,0,0,0-0.1,0c0,0,0,0-0.1,0c0,0,0,0-0.1,0
						s-0.1,0-0.1,0h-0.1c0,0,0,0-0.1,0l0,0l0,0c0,0-0.1-0.1,0-0.1l0,0l0,0l0,0l0,0c0,0,0,0,0.1,0c0,0,0,0,0.1,0c0,0,0,0,0.1,0
						c0,0,0,0,0.1,0h0.1h0.1l0,0l0,0l0,0l0,0C307.8,247.2,307.8,247.3,307.8,247.3L307.8,247.3 M314.4,246
						C314.4,246,314.3,246,314.4,246c0,0.1-0.1,0.1-0.1,0.1s0,0-0.1,0.1l0,0l0,0l0,0c0,0,0,0-0.1,0H314h-0.1h-0.1h-0.1h-0.1h-0.1
						h-0.1l0,0l0,0l0,0v-0.1c0,0,0,0,0.1,0c0,0,0,0,0.1,0l0,0l0,0l0,0l0,0h0.1h0.1h0.1h0.1h0.1h0.1h0.1h0.1c0,0,0,0,0.1,0
						c0,0,0,0,0.1,0h0.1l0,0C314.3,245.9,314.4,245.9,314.4,246C314.4,245.9,314.4,246,314.4,246 M318.7,236.5L318.7,236.5
						C318.7,236.4,318.7,236.4,318.7,236.5C318.7,236.4,318.7,236.4,318.7,236.5C318.6,236.4,318.6,236.4,318.7,236.5
						c-0.1-0.1-0.1-0.1-0.1-0.1l0,0l0,0l0,0l0,0l0,0l0,0l0,0l0,0l0,0l0,0l0,0c0-0.1,0-0.1,0.1-0.1l0,0l0,0h0.1c0,0,0,0,0.1,0
						c0,0,0,0,0.1,0c0,0,0,0,0.1,0.1c0,0,0,0,0,0.1l0.1,0.1c0,0,0,0,0,0.1c0,0,0,0,0,0.1c0,0,0,0,0,0.1l0,0l0,0
						C318.8,236.5,318.8,236.5,318.7,236.5L318.7,236.5L318.7,236.5 M319,236.8C318.9,236.8,318.9,236.9,319,236.8
						c-0.1,0.1-0.1,0.1-0.1,0.1c-0.1,0-0.1-0.1-0.1-0.1H319h-0.2l0,0c0-0.1,0.1-0.1,0.1-0.1S319,236.7,319,236.8L319,236.8
						L319,236.8z"/>
				</g>
			</g>
			<g>
				<g>
					<defs>
						<rect id="SVGID_11_" x="298.6" y="227.3" width="23" height="23"/>
					</defs>
					<clipPath id="SVGID_12_">
						<use xlink:href="#SVGID_11_"  style="overflow:visible;"/>
					</clipPath>
					<path class="st43" d="M303.2,232c0.3,0,0.5-0.2,0.5-0.5s-0.2-0.5-0.5-0.5c-0.3,0-0.5,0.2-0.5,0.5
						C302.7,231.7,302.9,232,303.2,232 M302.9,231.2C302.9,231.2,303,231.2,302.9,231.2c0.1-0.1,0.1-0.1,0.1-0.1l0,0c0,0,0,0,0.1,0
						l0,0l0,0l0,0l0,0l0,0l0,0l0,0l0,0H303C303,231.2,303,231.3,302.9,231.2C303,231.3,303,231.3,302.9,231.2
						C302.9,231.3,302.9,231.3,302.9,231.2L302.9,231.2C302.9,231.3,302.9,231.3,302.9,231.2C302.9,231.3,302.9,231.3,302.9,231.2
						C302.9,231.3,302.9,231.2,302.9,231.2"/>
				</g>
			</g>
			<g>
				<g>
					<defs>
						<rect id="SVGID_13_" x="298.6" y="227.3" width="23" height="23"/>
					</defs>
					<clipPath id="SVGID_14_">
						<use xlink:href="#SVGID_13_"  style="overflow:visible;"/>
					</clipPath>
					<path class="st44" d="M317.1,244.6c-0.6,0-1.1,0.5-1.1,1c0,0.6,0.5,1,1.1,1s1.1-0.5,1.1-1C318.2,245.1,317.7,244.6,317.1,244.6
						 M316.9,245.1L316.9,245.1L316.9,245.1L316.9,245.1c-0.1,0-0.1,0-0.1,0l0,0l0,0l0,0l0,0c0,0,0,0-0.1,0c0,0,0,0-0.1,0.1
						c0,0,0,0,0,0.1c0,0,0,0,0,0.1c0,0,0,0,0,0.1l0,0l0,0c0,0,0,0,0,0.1l0,0l0,0l0,0l0,0c0,0-0.1,0.1-0.1,0l0,0c0,0,0,0,0-0.1
						c0,0,0,0,0-0.1c0,0,0,0,0-0.1l0,0l0,0v-0.1c0,0,0-0.1,0.1-0.1c0,0,0-0.1,0.1-0.1l0.1-0.1c0,0,0.1,0,0.1-0.1h0.1l0,0l0,0h0.1
						l0,0l0,0l0,0C317,244.9,317,245,316.9,245.1C317,245,317,245.1,316.9,245.1 M317.2,245.1L317.2,245.1L317.2,245.1
						C317.1,245.1,317.1,245,317.2,245.1c-0.1-0.1,0-0.1,0-0.1l0,0C317.2,245,317.3,245,317.2,245.1L317.2,245.1"/>
				</g>
			</g>
			<g>
				<g>
					<defs>
						<rect id="SVGID_15_" x="298.6" y="227.3" width="23" height="23"/>
					</defs>
					<clipPath id="SVGID_16_">
						<use xlink:href="#SVGID_15_"  style="overflow:visible;"/>
					</clipPath>
					<path class="st45" d="M320.2,243.1c-0.3,0-0.5,0.3-0.5,0.6s0.2,0.6,0.5,0.6c0.3,0,0.5-0.3,0.5-0.6
						C320.8,243.3,320.5,243.1,320.2,243.1 M320.2,243.3L320.2,243.3L320.2,243.3L320.2,243.3c-0.1,0-0.1,0-0.1,0l0,0l0,0l0,0l0,0
						l0,0l0,0H320l0,0c0,0,0,0,0-0.1l0,0c0,0,0,0,0.1,0l0,0l0,0c0,0,0,0,0.1,0l0,0C320.2,243.2,320.2,243.2,320.2,243.3
						C320.2,243.2,320.2,243.2,320.2,243.3C320.3,243.2,320.3,243.3,320.2,243.3C320.3,243.3,320.3,243.3,320.2,243.3"/>
				</g>
			</g>
		</g>
		<g>
			<path class="st33" d="M338.8,175.7c0,0,14.1-24.1-8.3-36.5h-0.1c0,0.1,0,0.1,0,0.1s-0.1,0-0.4,0l0,0c1.4,3.4,2.6,5.3,5,9.7
				c0.2,0.5-1.8,0.3-2-0.1c-0.8-1.9-2.6-6.1-3.5-8.4c0.9,2.5,2.6,7.5,3.5,10.2c0.1,0.1-0.3,0.2-0.6,0.2c-0.3,0-0.6,0-0.8-0.1
				c-0.1-0.1-0.2-0.1-0.2-0.1c-0.1-0.2-0.2-0.4-0.2-0.6c-0.2-0.5-0.4-1.1-0.6-1.8c-1.1-3.3-2.3-8.2-2.5-9.2
				c-1.9-0.2-4.8-0.4-7.7-0.5c-0.1,0-0.1-0.1-0.1-0.1c-0.3,0-0.6,0-0.7,0.1C295.3,149.6,304,173,304,173s-2.4,0.6-2.8,3.6
				c-0.1,0.7,3.7,0.2,5.5,0.3l0,0c0,0,2.7-0.5,3.8-0.8c1.5-0.4-2.3,1.1-2.3,1.1c5.9,1.4,18,2.1,26.7,1.6c0,0-3.8-2.1-2.2-1.5
				c1.1,0.4,3.9,1.4,3.9,1.4h-0.1c1.1,0.1,3.9,1.6,3.9,1.6C342.1,178.8,338.8,175.7,338.8,175.7z"/>
			<path class="st33" d="M320.4,137c2.7-0.5,4.7-0.3,9.7,0.6c2.2-0.7,4.1-3.8,4.9-5.2c0.4-0.8-1.2-1.4-3.2-1.6
				c-0.8,1-3.1,5.1-2.6,4.1c0.9-2,2.1-4.1,2.1-4.1l0,0c-0.1-0.1,0.1-0.9-0.1-0.9c-4.9-0.1-9.9-1.6-14.9,1
				C315.6,131.1,318.3,135.9,320.4,137z"/>
			<path class="st33" d="M335.1,178.8L335.1,178.8L335.1,178.8L335.1,178.8z"/>
		</g>
		<g>
			<path class="st33" d="M235.8,176.2c-0.1,0-0.2,0-0.4,0c-0.5,0.1-0.9,0.5-1.2,1.1c-0.5,1-0.6,2-0.2,2.8c0.4,0.8,1.1,1.4,1.9,1.8
				c1,0.6,2.2,1,3.2,1.4c-2.4,0.4-4.3,0.2-5.7-0.2c-1.7-0.5-2.3-1-2.5-1.2s-0.6-0.2-0.8,0c-0.2,0.2-0.1,0.7,0.1,0.8
				c0.2,0.1,1.1,0.9,2.9,1.4c0.7,0.2,1.6,0.4,2.5,0.4c-2.9,1.7-5.8,4.4-7.9,7.4c-2.1,3.2-3.2,6.8-2.2,10.2c0.8,2.5,3,4.1,5.6,5
				c2.6,1,5.5,1.3,8,1.5c2.4,0.1,5.3,0,7.9-0.7c2.6-0.7,4.9-2,6-4.4c1.5-3.1,1.1-6.9-0.4-10.4c-1.4-3.5-3.8-6.6-6.6-8.6
				c-0.3-0.2-0.5-0.4-0.8-0.5c2-0.2,4.3-0.8,5.8-2.7c0.2-0.2,0.1-0.6-0.1-0.8s-0.6-0.1-0.8,0.1c-1.3,1.6-3.6,2.2-5.6,2.3
				c-0.9,0.1-1.6,0-2.2-0.1c0.5-0.3,0.8-0.4,1.5-1c0.7-0.5,1.3-1.2,1.7-1.9c0.4-0.7,0.5-1.6,0.1-2.4c-0.3-0.5-0.9-0.8-1.4-0.8
				c-0.6,0-1.1,0.3-1.6,0.8c-0.8,0.8-1.5,2.2-1.9,4.1c-0.6-1.1-1.2-2.2-1.8-3.1c-0.7-1-1.4-2-2.2-2.5c-0.2-0.1-0.4-0.2-0.7-0.3
				C236.1,176.2,235.9,176.2,235.8,176.2z M235.8,177.3c0.1,0,0.3,0,0.4,0.2c0.5,0.3,1.2,1.2,1.9,2.1c0.6,0.9,1.2,2,1.6,2.8
				c-1.1-0.4-2.2-0.8-3.2-1.4c-0.7-0.4-1.2-0.9-1.5-1.4c-0.2-0.5-0.3-1,0.2-1.8C235.4,177.4,235.6,177.3,235.8,177.3L235.8,177.3z
				 M244.4,178.2c0.2,0,0.3,0.1,0.4,0.2c0.2,0.4,0.2,0.7-0.1,1.2c-0.3,0.5-0.8,1.1-1.4,1.6c-0.6,0.5-0.9,0.6-1.4,1
				c0.4-1.7,1-3,1.5-3.5C243.8,178.4,244.2,178.3,244.4,178.2z M241.1,184.4c1.7,0,3.3,0.4,4.5,1.3c2.5,1.8,4.9,4.9,6.2,8.1
				c1.3,3.3,1.7,6.8,0.4,9.5c-0.9,1.9-2.9,3.1-5.3,3.8c-2.4,0.7-5.2,0.8-7.6,0.7c-2.4-0.1-5.2-0.5-7.6-1.4c-2.4-0.9-4.3-2.3-4.9-4.3
				c-0.9-2.9,0.1-6.3,2-9.3c2-3,4.9-5.7,7.7-7.3C237.8,184.7,239.5,184.3,241.1,184.4z"/>
			<path class="st33" d="M232.6,198c0,0.5-0.4,0.9-0.9,0.9s-0.9-0.4-0.9-0.9s0.4-0.9,0.9-0.9S232.6,197.5,232.6,198z"/>
			<path class="st33" d="M238.1,201.7c0,0.5-0.4,0.9-0.9,0.9s-0.9-0.4-0.9-0.9s0.4-0.9,0.9-0.9S238.1,201.3,238.1,201.7z"/>
			<path class="st33" d="M240.3,200c0,0.5-0.4,0.9-0.9,0.9s-0.9-0.4-0.9-0.9s0.4-0.9,0.9-0.9S240.3,199.5,240.3,200z"/>
			<path class="st33" d="M234.6,195.8c0,0.5-0.4,0.9-0.9,0.9s-0.9-0.4-0.9-0.9c0-0.5,0.4-0.9,0.9-0.9S234.6,195.3,234.6,195.8z"/>
			<path class="st33" d="M238.4,198.5c0,0.5-0.4,0.9-0.9,0.9s-0.9-0.4-0.9-0.9s0.4-0.9,0.9-0.9S238.4,198,238.4,198.5z"/>
			<path class="st33" d="M242.7,198.7c0,0.5-0.4,0.9-0.9,0.9s-0.9-0.4-0.9-0.9s0.4-0.9,0.9-0.9S242.7,198.2,242.7,198.7z"/>
			<path class="st33" d="M233.6,204.1c0,0.5-0.4,0.9-0.9,0.9s-0.9-0.4-0.9-0.9s0.4-0.9,0.9-0.9S233.6,203.6,233.6,204.1z"/>
			<path class="st33" d="M239,204.3c0,0.5-0.4,0.9-0.9,0.9s-0.9-0.4-0.9-0.9s0.4-0.9,0.9-0.9S239,203.8,239,204.3z"/>
			<path class="st33" d="M242,204.3c0,0.5-0.4,0.9-0.9,0.9s-0.9-0.4-0.9-0.9s0.4-0.9,0.9-0.9C241.6,203.5,242,203.8,242,204.3z"/>
			<path class="st33" d="M242.6,201.4c0,0.5-0.4,0.9-0.9,0.9s-0.9-0.4-0.9-0.9s0.4-0.9,0.9-0.9S242.6,200.9,242.6,201.4z"/>
			<path class="st33" d="M248.8,203.4c0,0.5-0.4,0.9-0.9,0.9s-0.9-0.4-0.9-0.9s0.4-0.9,0.9-0.9S248.8,202.9,248.8,203.4z"/>
			<path class="st33" d="M250,196.6c0,0.5-0.4,0.9-0.9,0.9s-0.9-0.4-0.9-0.9s0.4-0.9,0.9-0.9S250,196.1,250,196.6z"/>
			<path class="st33" d="M247.3,199.4c0,0.5-0.4,0.9-0.9,0.9s-0.9-0.4-0.9-0.9s0.4-0.9,0.9-0.9C246.9,198.6,247.3,198.9,247.3,199.4
				z"/>
			<path class="st33" d="M230.3,197.1c0,0.5-0.4,0.9-0.9,0.9s-0.9-0.4-0.9-0.9s0.4-0.9,0.9-0.9S230.3,196.6,230.3,197.1z"/>
			<path class="st33" d="M251,200.3c0,0.5-0.4,0.9-0.9,0.9s-0.9-0.4-0.9-0.9s0.4-0.9,0.9-0.9C250.6,199.4,251,199.8,251,200.3z"/>
			<path class="st33" d="M245.8,195.6c0,0.5-0.4,0.9-0.9,0.9s-0.9-0.5-0.9-0.9c0-0.4,0.4-0.9,0.9-0.9S245.8,195.1,245.8,195.6z"/>
			<path class="st33" d="M245.5,205.2c0,0.5-0.4,0.9-0.9,0.9s-0.9-0.4-0.9-0.9s0.4-0.9,0.9-0.9C245.1,204.4,245.5,204.8,245.5,205.2
				z"/>
			<path class="st33" d="M230,202.1c0,0.5-0.4,0.9-0.9,0.9s-0.9-0.4-0.9-0.9s0.4-0.9,0.9-0.9S230,201.6,230,202.1z"/>
			<path class="st33" d="M248.2,192.6c0,0.5-0.4,0.9-0.9,0.9s-0.9-0.4-0.9-0.9s0.4-0.9,0.9-0.9C247.8,191.8,248.2,192.2,248.2,192.6
				z"/>
			<path class="st33" d="M241.5,194.9c0,0.5-0.4,0.9-0.9,0.9s-0.9-0.4-0.9-0.9s0.4-0.9,0.9-0.9S241.5,194.4,241.5,194.9z"/>
			<path class="st33" d="M232.2,193.6c0,0.5-0.4,0.9-0.9,0.9s-0.9-0.4-0.9-0.9s0.4-0.9,0.9-0.9S232.2,193.1,232.2,193.6z"/>
			<path class="st33" d="M237.5,193.5c0,0.5-0.4,0.9-0.9,0.9s-0.9-0.4-0.9-0.9s0.4-0.9,0.9-0.9S237.5,193,237.5,193.5z"/>
			<path class="st33" d="M244.1,191.7c0,0.5-0.4,0.9-0.9,0.9s-0.9-0.4-0.9-0.9s0.4-0.9,0.9-0.9S244.1,191.2,244.1,191.7z"/>
			<path class="st33" d="M234.8,190.7c0,0.5-0.4,0.9-0.9,0.9s-0.9-0.4-0.9-0.9s0.4-0.9,0.9-0.9C234.4,189.8,234.8,190.2,234.8,190.7
				z"/>
			<path class="st33" d="M239.9,191.4c0,0.5-0.4,0.9-0.9,0.9s-0.9-0.4-0.9-0.9s0.4-0.9,0.9-0.9S239.9,190.9,239.9,191.4z"/>
			<path class="st33" d="M247.9,195c0,0.5-0.4,0.9-0.9,0.9s-0.9-0.4-0.9-0.9s0.4-0.9,0.9-0.9S247.9,194.5,247.9,195z"/>
			<path class="st33" d="M250,194.2c0,0.5-0.4,0.9-0.9,0.9s-0.9-0.4-0.9-0.9s0.4-0.9,0.9-0.9S250,193.7,250,194.2z"/>
			<path class="st33" d="M249.3,198.8c0,0.5-0.4,0.9-0.9,0.9s-0.9-0.4-0.9-0.9s0.4-0.9,0.9-0.9C249,197.9,249.3,198.3,249.3,198.8z"
				/>
			<path class="st33" d="M235.8,188.6c0,0.5-0.4,0.9-0.9,0.9s-0.9-0.4-0.9-0.9s0.4-0.9,0.9-0.9S235.8,188.1,235.8,188.6z"/>
			<path class="st33" d="M238.5,189.5c0,0.5-0.4,0.9-0.9,0.9s-0.9-0.4-0.9-0.9s0.4-0.9,0.9-0.9C238.2,188.6,238.5,189,238.5,189.5z"
				/>
			<path class="st33" d="M243.4,196.4c0,0.5-0.4,0.9-0.9,0.9s-0.9-0.4-0.9-0.9s0.4-0.9,0.9-0.9C243,195.6,243.4,196,243.4,196.4z"/>
			<path class="st33" d="M246,193.3c0,0.5-0.4,0.9-0.9,0.9s-0.9-0.4-0.9-0.9s0.4-0.9,0.9-0.9S246,192.8,246,193.3z"/>
			<path class="st33" d="M247.2,197.3c0,0.5-0.4,0.9-0.9,0.9s-0.9-0.4-0.9-0.9s0.4-0.9,0.9-0.9C246.8,196.4,247.2,196.8,247.2,197.3
				z"/>
			<path class="st33" d="M251.5,198.1c0,0.5-0.4,0.9-0.9,0.9s-0.9-0.4-0.9-0.9s0.4-0.9,0.9-0.9C251.1,197.2,251.5,197.6,251.5,198.1
				z"/>
			<path class="st33" d="M243.5,194.1c0,0.5-0.4,0.9-0.9,0.9s-0.9-0.4-0.9-0.9s0.4-0.9,0.9-0.9S243.5,193.6,243.5,194.1z"/>
			<path class="st33" d="M251.1,202.7c0,0.5-0.4,0.9-0.9,0.9s-0.9-0.4-0.9-0.9s0.4-0.9,0.9-0.9S251.1,202.2,251.1,202.7z"/>
			<path class="st33" d="M244.9,200.6c0,0.5-0.4,0.9-0.9,0.9s-0.9-0.4-0.9-0.9s0.4-0.9,0.9-0.9C244.5,199.7,244.9,200.1,244.9,200.6
				z"/>
			<path class="st33" d="M245,198.4c0,0.5-0.4,0.9-0.9,0.9s-0.9-0.4-0.9-0.9s0.4-0.9,0.9-0.9S245,197.9,245,198.4z"/>
			<path class="st33" d="M241.8,192.6c0,0.5-0.4,0.9-0.9,0.9s-0.9-0.4-0.9-0.9s0.4-0.9,0.9-0.9S241.8,192.1,241.8,192.6z"/>
			<path class="st33" d="M246.5,202.3c0,0.5-0.4,0.9-0.9,0.9s-0.9-0.4-0.9-0.9s0.4-0.9,0.9-0.9C246.1,201.4,246.5,201.8,246.5,202.3
				z"/>
			<path class="st33" d="M247.7,205.5c0,0.5-0.4,0.9-0.9,0.9s-0.9-0.4-0.9-0.9s0.4-0.9,0.9-0.9S247.7,205,247.7,205.5z"/>
			<path class="st33" d="M248.7,201.1c0,0.5-0.4,0.9-0.9,0.9s-0.9-0.4-0.9-0.9s0.4-0.9,0.9-0.9C248.3,200.2,248.7,200.6,248.7,201.1
				z"/>
			<path class="st33" d="M246.6,190.6c0,0.5-0.4,0.9-0.9,0.9s-0.9-0.4-0.9-0.9s0.4-0.9,0.9-0.9S246.6,190.1,246.6,190.6z"/>
			<path class="st33" d="M239.2,196c0,0.5-0.4,0.9-0.9,0.9s-0.9-0.4-0.9-0.9c0-0.5,0.4-0.9,0.9-0.9S239.2,195.5,239.2,196z"/>
			<path class="st33" d="M237.1,195.9c0,0.5-0.4,0.9-0.9,0.9s-0.9-0.4-0.9-0.9c0-0.5,0.4-0.9,0.9-0.9S237.1,195.4,237.1,195.9z"/>
			<path class="st33" d="M241.8,189.8c0,0.5-0.4,0.9-0.9,0.9s-0.9-0.4-0.9-0.9s0.4-0.9,0.9-0.9S241.8,189.3,241.8,189.8z"/>
			<path class="st33" d="M239.4,193.6c0,0.5-0.4,0.9-0.9,0.9s-0.9-0.4-0.9-0.9s0.4-0.9,0.9-0.9S239.4,193.2,239.4,193.6z"/>
			<path class="st33" d="M232.5,191.3c0,0.5-0.4,0.9-0.9,0.9s-0.9-0.4-0.9-0.9s0.4-0.9,0.9-0.9S232.5,190.8,232.5,191.3z"/>
			<path class="st33" d="M237.5,190.9c0,0.5-0.4,0.9-0.9,0.9s-0.9-0.4-0.9-0.9s0.4-0.9,0.9-0.9S237.5,190.4,237.5,190.9z"/>
			<path class="st33" d="M235,193.3c0,0.5-0.4,0.9-0.9,0.9s-0.9-0.4-0.9-0.9s0.4-0.9,0.9-0.9S235,192.8,235,193.3z"/>
			<path class="st33" d="M231.1,204.2c0,0.5-0.4,0.9-0.9,0.9s-0.9-0.4-0.9-0.9s0.4-0.9,0.9-0.9S231.1,203.7,231.1,204.2z"/>
			<path class="st33" d="M240.4,206.3c0,0.5-0.4,0.9-0.9,0.9s-0.9-0.4-0.9-0.9s0.4-0.9,0.9-0.9C240,205.4,240.4,205.8,240.4,206.3z"
				/>
			<path class="st33" d="M229.9,194.7c0,0.5-0.4,0.9-0.9,0.9s-0.9-0.4-0.9-0.9s0.4-0.9,0.9-0.9C229.5,193.8,229.9,194.2,229.9,194.7
				z"/>
			<path class="st33" d="M233.9,200.1c0,0.5-0.4,0.9-0.9,0.9s-0.9-0.4-0.9-0.9s0.4-0.9,0.9-0.9C233.5,199.3,233.9,199.7,233.9,200.1
				z"/>
			<path class="st33" d="M236.8,203.6c0,0.5-0.4,0.9-0.9,0.9s-0.9-0.4-0.9-0.9s0.4-0.9,0.9-0.9S236.8,203.1,236.8,203.6z"/>
			<path class="st33" d="M237.5,206.2c0,0.5-0.4,0.9-0.9,0.9s-0.9-0.4-0.9-0.9s0.4-0.9,0.9-0.9S237.5,205.7,237.5,206.2z"/>
			<path class="st33" d="M235.3,205.7c0,0.5-0.4,0.9-0.9,0.9s-0.9-0.4-0.9-0.9s0.4-0.9,0.9-0.9S235.3,205.2,235.3,205.7z"/>
			<path class="st33" d="M243.2,206.4c0,0.5-0.4,0.9-0.9,0.9s-0.9-0.4-0.9-0.9s0.4-0.9,0.9-0.9S243.2,205.9,243.2,206.4z"/>
			<path class="st33" d="M235.6,197.9c0,0.5-0.4,0.9-0.9,0.9s-0.9-0.4-0.9-0.9s0.4-0.9,0.9-0.9S235.6,197.4,235.6,197.9z"/>
			<path class="st33" d="M228.6,199.2c0,0.5-0.4,0.9-0.9,0.9s-0.9-0.4-0.9-0.9s0.4-0.9,0.9-0.9S228.6,198.7,228.6,199.2z"/>
			<path class="st33" d="M244,203.1c0,0.5-0.4,0.9-0.9,0.9s-0.9-0.4-0.9-0.9s0.4-0.9,0.9-0.9C243.6,202.2,244,202.6,244,203.1z"/>
			<path class="st33" d="M230.7,199.9c0,0.5-0.4,0.9-0.9,0.9s-0.9-0.4-0.9-0.9s0.4-0.9,0.9-0.9S230.7,199.4,230.7,199.9z"/>
			<path class="st33" d="M240.3,202.5c0,0.5-0.4,0.9-0.9,0.9s-0.9-0.4-0.9-0.9s0.4-0.9,0.9-0.9S240.3,202,240.3,202.5z"/>
			<path class="st33" d="M232.4,195.7c0,0.5-0.4,0.9-0.9,0.9s-0.9-0.4-0.9-0.9c0-0.5,0.4-0.9,0.9-0.9
				C232,194.8,232.4,195.2,232.4,195.7z"/>
			<path class="st33" d="M232.2,201.7c0,0.5-0.4,0.9-0.9,0.9s-0.9-0.4-0.9-0.9s0.4-0.9,0.9-0.9S232.2,201.2,232.2,201.7z"/>
			<path class="st33" d="M235,202.2c0,0.5-0.4,0.9-0.9,0.9s-0.9-0.4-0.9-0.9s0.4-0.9,0.9-0.9S235,201.7,235,202.2z"/>
			<path class="st33" d="M236.7,200c0,0.5-0.4,0.9-0.9,0.9s-0.9-0.4-0.9-0.9s0.4-0.9,0.9-0.9C236.3,199.2,236.7,199.5,236.7,200z"/>
			<path class="st33" d="M240.8,197.4c0,0.5-0.4,0.9-0.9,0.9s-0.9-0.4-0.9-0.9s0.4-0.9,0.9-0.9C240.4,196.6,240.8,197,240.8,197.4z"
				/>
			<path class="st33" d="M237.7,187c0,0.5-0.4,0.9-0.9,0.9s-0.9-0.4-0.9-0.9s0.4-0.9,0.9-0.9C237.2,186.1,237.7,186.5,237.7,187z"/>
			<path class="st33" d="M244.1,189.2c0,0.5-0.4,0.9-0.9,0.9s-0.9-0.4-0.9-0.9s0.4-0.9,0.9-0.9S244.1,188.8,244.1,189.2z"/>
			<path class="st33" d="M246.2,188.3c0,0.5-0.4,0.9-0.9,0.9s-0.9-0.4-0.9-0.9s0.4-0.9,0.9-0.9S246.2,187.8,246.2,188.3z"/>
			<path class="st33" d="M240.2,187.5c0,0.5-0.4,0.9-0.9,0.9s-0.9-0.4-0.9-0.9s0.4-0.9,0.9-0.9S240.2,187,240.2,187.5z"/>
			<path class="st33" d="M242.7,186.8c0,0.5-0.4,0.9-0.9,0.9s-0.9-0.4-0.9-0.9s0.4-0.9,0.9-0.9S242.7,186.3,242.7,186.8z"/>
		</g>
		<g>
			<g transform="translate(-540.000000, -189.000000)">
				<path class="st33" d="M819.7,328l0.4,17.2l18.4-0.4l-0.4-17.2l3.1,3l6-6.3l-9.4-9l-4,0.1c-0.7,2.2-2.7,3.7-5.1,3.8
					c-2.4,0-4.5-1.4-5.3-3.6l-4,0.1l-9,9.4l6.3,6L819.7,328L819.7,328z"/>
			</g>
		</g>
		<g>
			<path class="st28" d="M264.1,158.8c0.2-0.1,0.4-0.3,0.5-0.4l0.1-0.2l1-2.1l0,0l0,0l0.5-1.1c0.1-0.2,0.3-0.3,0.5-0.2
				c0.2,0.1,0.3,0.3,0.2,0.5l-0.4,0.8l4.3,2.5l-1.5-6.3c0,0-0.7-2.3-2.7-1.9c-0.9,0.2-1.6,0.8-2.1,1.7l-1.8,5l-4.1,1.5
				c-0.4,0.1-0.7,0.7-0.7,1.1c0,0.7,0.8,1.2,1.6,1L264.1,158.8z"/>
			
				<rect x="270.8" y="147.3" transform="matrix(0.9721 -0.2346 0.2346 0.9721 -27.1418 68.0144)" class="st28" width="3" height="1.6"/>
			<path class="st28" d="M251.6,169.3c-0.1,0-0.2,0-0.3-0.1c-0.2-0.2-0.3-0.5-0.1-0.7l5.6-8c0.2-0.2,0.5-0.3,0.7-0.1
				c0.2,0.2,0.3,0.5,0.1,0.7l-5.6,8C251.9,169.2,251.8,169.3,251.6,169.3L251.6,169.3z"/>
			<path class="st28" d="M251.1,175c-0.2,0-0.4-0.2-0.5-0.4c0-0.1,0-0.2,0.1-0.3c0.1-0.1,0.2-0.1,0.3-0.2l0,0c0.3,0,0.5,0.2,0.5,0.4
				C251.6,174.8,251.4,175,251.1,175L251.1,175L251.1,175z M251,173.5c-0.2,0-0.4-0.2-0.5-0.4c0-0.1,0-0.2,0.1-0.3
				c0.1-0.1,0.2-0.1,0.3-0.2l0,0c0.3,0,0.5,0.2,0.5,0.4C251.5,173.3,251.3,173.5,251,173.5C251.1,173.5,251,173.5,251,173.5
				L251,173.5z M251,172L251,172c-0.3,0-0.5-0.2-0.5-0.4c0-0.3,0.2-0.5,0.4-0.5l0,0c0.3,0,0.5,0.2,0.5,0.4c0,0.1,0,0.2-0.1,0.3
				C251.2,171.9,251.1,172,251,172L251,172L251,172z M250.9,170.4c-0.2,0-0.4-0.2-0.5-0.4c0-0.1,0-0.2,0.1-0.3
				c0.1-0.1,0.2-0.1,0.3-0.2l0,0c0.3,0,0.5,0.2,0.5,0.4C251.3,170.2,251.2,170.4,250.9,170.4L250.9,170.4L250.9,170.4z"/>
			<path class="st28" d="M277.1,161.8c-0.2-1.4-1.2-2.8-1.7-3.5l0.9-0.2c0.8-0.2,1.3-1,1.1-1.8l-1.4-6c-0.2-0.8-1-1.3-1.8-1.1
				l-2.8,0.7c-0.8,0.2-1.3,1-1.1,1.8l1.4,6c0.2,0.8,1,1.3,1.8,1.1l1-0.2c0.4,0.5,1.6,2,1.8,3.4c0.2,1.3,0,2.3-0.7,3
				c-0.8,0.8-2,1.1-2.9,1.2l-1.6-6.5l-4.8-2.8l-0.8,1.7l0.7,3.1l-4.7,4.4c-0.3,0.3-0.5,0.9-0.5,1.4v6.9c0,0.2,0,0.3,0,0.4
				c0,0.5,0.2,0.9,0.6,1.2s0.8,0.5,1.3,0.4c0.9-0.1,1.4-0.6,1.6-1.4l0.1-7.2l3.9-3.2l0.8,3.5c0.1,0.4,0.4,0.7,0.4,0.7l4.2,6.6
				c0.4,0.6,0.9,0.9,1.7,0.9c0.5-0.1,0.9-0.3,1.2-0.6c0.3-0.4,0.5-0.8,0.4-1.3c0-0.3-0.1-0.5-0.2-0.7l-4-6.2l-0.1-0.4
				c1-0.1,2.4-0.4,3.4-1.5C277,164.6,277.3,163.4,277.1,161.8z"/>
			<path class="st28" d="M266.1,147.6L266.1,147.6L266.1,147.6v-0.8c-0.1-1.4-1.2-2.5-2.6-2.5c-1.4,0-2.6,1.1-2.6,2.5h-2.8v0.8
				H266.1z"/>
			<path class="st28" d="M248,174.5c-0.1,0-0.2,0-0.3-0.1c-0.2-0.1-0.3-0.4-0.1-0.6c0.1-0.2,0.4-0.3,0.6-0.1
				c0.2,0.1,0.3,0.4,0.1,0.6C248.3,174.4,248.1,174.5,248,174.5L248,174.5z M248.8,173.3c-0.1,0-0.2,0-0.3-0.1
				c-0.1-0.1-0.2-0.2-0.2-0.3c0-0.1,0-0.2,0.1-0.4c0.1-0.2,0.4-0.3,0.6-0.1c0.1,0.1,0.2,0.2,0.2,0.3s0,0.2-0.1,0.3
				C249.1,173.2,249,173.3,248.8,173.3L248.8,173.3z M249.7,172c-0.1,0-0.2,0-0.3-0.1c-0.2-0.1-0.3-0.4-0.1-0.6
				c0.1-0.2,0.4-0.3,0.6-0.1c0.1,0.1,0.2,0.2,0.2,0.3s0,0.2-0.1,0.3C250,171.9,249.8,172,249.7,172L249.7,172z"/>
			<path class="st28" d="M246.5,171.6c-0.2,0-0.4-0.1-0.4-0.3c-0.1-0.3,0.1-0.5,0.3-0.6c0.2-0.1,0.5,0.1,0.6,0.3
				c0.1,0.2-0.1,0.5-0.3,0.6C246.6,171.6,246.5,171.6,246.5,171.6L246.5,171.6z M248,171.2c-0.2,0-0.4-0.1-0.4-0.3
				c-0.1-0.2,0.1-0.5,0.3-0.6c0.3-0.1,0.5,0.1,0.6,0.3c0.1,0.2-0.1,0.5-0.3,0.6C248,171.2,248,171.2,248,171.2L248,171.2z
				 M249.4,170.8c-0.2,0-0.4-0.1-0.4-0.3c-0.1-0.2,0.1-0.5,0.3-0.6c0.2-0.1,0.5,0.1,0.6,0.3c0.1,0.2-0.1,0.5-0.3,0.6
				C249.5,170.8,249.5,170.8,249.4,170.8L249.4,170.8z"/>
			<path class="st28" d="M263.9,148.2L263.9,148.2H259l0.1,0.4c0.3,2.4,2.2,4.2,4.5,4.2h0.4v-2.1c1.2-0.2,2.1-1.2,2.1-2.4l0,0l0,0
				l0,0L263.9,148.2L263.9,148.2z M263.1,152c-1.6-0.2-2.8-1.4-3.2-3h3.2V152z"/>
		</g>
		<g>
			<path class="st33" d="M302.8,193.5c-4.6,1.6-10.7,2.5-17.2,2.5s-12.6-0.9-17.2-2.5c-4.7-1.7-7.3-4-7.3-6.5c0-0.2,0-0.4,0.1-0.6
				c-0.5,0.9-0.9,1.8-1,2.9c0,0.4-0.1,0.9-0.1,1.4c-0.1,0.6-0.1,1.2-0.2,1.9c0.7,2,3.3,3.8,7.3,5.2c4.9,1.8,11.5,2.7,18.4,2.7
				c7,0,13.5-1,18.4-2.7c4.1-1.4,6.6-3.3,7.3-5.2c-0.1-0.7-0.1-1.3-0.2-1.9c-0.1-0.5-0.1-1-0.1-1.4c-0.1-1.1-0.4-2-1-2.9
				c0,0.2,0.1,0.4,0.1,0.6C310.1,189.5,307.5,191.8,302.8,193.5z"/>
			<path class="st33" d="M269.4,206.6c-3.3-1.1-5.9-2.5-7.7-4.1c0.8,1.2,1.8,2.4,3.2,3.5c6.6,4.8,14.2,5.5,21.4,5.5h1.4
				c10.4-0.3,15.6-3.2,18.6-5.4c1.4-1,2.5-2.2,3.3-3.5c-4.1,3.5-12.9,6.6-24,6.6C279.8,209.2,274.2,208.3,269.4,206.6z"/>
			<path class="st33" d="M304.2,198.1c-5,1.8-11.5,2.7-18.5,2.7s-13.6-1-18.5-2.7c-3.7-1.3-6.2-3-7.2-4.8c-0.1,0.8-0.1,1.7,0,2.5
				c0.9,1.8,3.4,3.5,7.2,4.9c5,1.8,11.6,2.7,18.6,2.7s13.7-1,18.6-2.7c3.8-1.4,6.3-3,7.2-4.9c0-0.9,0-1.7,0-2.5
				C310.4,195.1,307.9,196.8,304.2,198.1z"/>
			<path class="st33" d="M304.4,203.1c-5.1,2-11.8,3.2-18.8,3.2s-13.6-1.1-18.8-3.2c-3.1-1.2-5.4-2.7-6.7-4.3
				c0.2,0.9,0.5,1.8,0.9,2.7c3.6,3.7,12.9,7.3,24.5,7.3c5.8,0,11.5-0.9,16.3-2.6c3.6-1.3,6.5-2.9,8.2-4.7c0.4-0.9,0.7-1.8,0.9-2.7
				C309.8,200.4,307.5,201.9,304.4,203.1z"/>
			<path class="st33" d="M304.4,201c-5,1.8-11.7,2.8-18.8,2.8s-13.7-1-18.8-2.8c-3.5-1.2-5.9-2.8-7-4.4c0,0.4,0.1,0.8,0.2,1.3
				c1.1,1.8,3.5,3.5,7,4.9c5.1,2,11.7,3.1,18.6,3.1s13.5-1.1,18.6-3.1c3.5-1.4,5.9-3.1,7-4.9c0.1-0.4,0.1-0.8,0.2-1.3
				C310.2,198.3,307.8,199.8,304.4,201z"/>
			<path class="st33" d="M268.8,181.4c-4.3,1.5-6.8,3.6-6.8,5.6c0,2.1,2.5,4.1,6.8,5.6c4.5,1.6,10.5,2.5,16.9,2.5s12.4-0.9,16.9-2.5
				c4.3-1.5,6.8-3.6,6.8-5.6s-2.5-4.1-6.8-5.6c-4.5-1.6-10.5-2.5-16.9-2.5C279.2,178.9,273.3,179.8,268.8,181.4z M297.2,192
				c-3.1,1-7.2,1.6-11.6,1.6c-4.4,0-8.5-0.6-11.6-1.6c-3.2-1.1-4.9-2.5-4.9-4.1c0-1.6,1.7-3,4.9-4.1c3.1-1,7.2-1.6,11.6-1.6
				s8.5,0.6,11.6,1.6c3.2,1.1,4.9,2.5,4.9,4.1C302.1,189.5,300.4,190.9,297.2,192z"/>
		</g>
		<g>
			<path class="st28" d="M263.4,232.7c-0.1-0.2-0.7-0.1-1.4,0.3c-0.6,0.4-1,0.9-0.9,1.1c0.1,0.2,0.7,0.1,1.4-0.3
				C263.2,233.4,263.6,232.9,263.4,232.7z"/>
			<path class="st28" d="M262.5,231.1c0.9-0.8,1.4-1.6,1.2-2c-0.3-0.5-1.9-0.2-3.4,0.8c-1.6,1-2.6,2.2-2.3,2.7
				c0.2,0.4,1.2,0.3,2.3-0.2l0.7,1.1c0.1-0.3,0.4-0.6,0.9-0.9c0.5-0.3,1-0.5,1.3-0.4L262.5,231.1z"/>
			<path class="st28" d="M254.6,211.5l-4.2,2.6l0,0l-4.2,2.6l1.9,2.6c1.2-0.8,2.5-1.7,3.9-2.6c1.4-0.9,2.8-1.7,4.1-2.3L254.6,211.5z
				"/>
			<path class="st28" d="M260,229.6L260,229.6L260,229.6L260,229.6L260,229.6c1.8-1.1,3.4-1.5,3.7-1l0,0l-1.3-2.4
				c-1,0.2-2.3,0.7-3.5,1.5c-1.3,0.8-2.3,1.7-2.9,2.5l1.6,2.2l0,0C257.2,231.9,258.3,230.6,260,229.6z"/>
			<polygon class="st28" points="249.3,212.3 244.6,215.1 245.8,216.7 250.3,213.9 254.8,211.2 253.9,209.4 			"/>
			<path class="st28" d="M262.2,225.8l-5.9-11.1c-1.3,0.6-2.7,1.4-4.1,2.3c-1.4,0.9-2.7,1.8-3.8,2.7l7.3,10.2
				c0.7-0.9,1.7-1.8,2.9-2.6C259.8,226.5,261.1,226,262.2,225.8z"/>
		</g>
		<g>
			<polygon class="st33" points="311.9,207.6 316.2,215.6 301.6,223.4 300.6,217.9 294.2,217.1 			"/>
			<polygon class="st33" points="281.2,224.1 286.2,226.7 279.7,230.3 286.1,231.7 272.8,238.8 268.6,230.9 			"/>
			<polygon class="st33" points="291.4,219.4 293,214.1 289.3,214.4 			"/>
			<polygon class="st33" points="297.7,226.7 301.7,230.2 303.1,227.9 			"/>
			<polygon class="st33" points="293,230.1 292.7,234.1 290.7,231.9 292,228.9 			"/>
			<polygon class="st33" points="288.1,217.5 285,219.2 290,221.4 			"/>
			<polygon class="st33" points="285.3,236.5 287,237.7 287.9,232.3 			"/>
			<polygon class="st33" points="290.6,224.6 287.6,223.7 287,226 			"/>
			<polygon class="st33" points="295.9,219.1 299.3,218.9 297.7,220 			"/>
			<polygon class="st33" points="298.1,222.2 300.5,224 300,220.8 			"/>
			<polygon class="st33" points="284.1,229.7 288.6,230.7 288.5,228 			"/>
			<polygon class="st33" points="285.6,223 284.2,220.4 282.1,220.9 			"/>
			<polygon class="st33" points="297.2,232.1 294.7,228.8 295.7,232.9 			"/>
			<polygon class="st33" points="293,224.3 291.1,226.5 296.5,224.5 296.2,221 293.7,222.4 293.9,219.6 291.4,221.2 290.6,222.9 			
				"/>
		</g>
	</g>
	<line class="st46" x1="413.1" y1="178.6" x2="313.4" y2="188.8"/>
	<line class="st46" x1="413.1" y1="178.6" x2="313.4" y2="188.8"/>
	<line class="st46" x1="262.2" y1="142.2" x2="252.8" y2="85.1"/>
	<line class="st46" x1="304.1" y1="127" x2="321.5" y2="98.4"/>
	<rect x="322.3" y="86.1" class="st25" width="9.7" height="13.2"/>
	<text transform="matrix(1 0 0 1 322.3267 95.5776)" class="st36 st37">6</text>
	<line class="st46" x1="340.8" y1="143.8" x2="378" y2="115.3"/>
	<line class="st46" x1="395.5" y1="232.3" x2="341.2" y2="212.4"/>
	<line class="st46" x1="314" y1="300.9" x2="311.8" y2="247.6"/>
	<line class="st46" x1="256.8" y1="300.9" x2="275.1" y2="241.5"/>
	<line class="st46" x1="202.8" y1="263.8" x2="245.2" y2="220.9"/>
	<line class="st46" x1="194.5" y1="120.2" x2="231.7" y2="174.5"/>
	<rect x="384.4" y="105" class="st25" width="7.2" height="15.5"/>
	<text transform="matrix(1 0 0 1 384.4504 114.4499)" class="st36 st37">1</text>
	<rect x="419.5" y="171.1" class="st25" width="10.6" height="13.6"/>
	<text transform="matrix(1 0 0 1 419.5396 180.6304)" class="st36 st37">4</text>
	<rect x="400" y="229.6" class="st25" width="9.2" height="12.5"/>
	<text transform="matrix(1 0 0 1 400.0132 239.0405)" class="st36 st37">9</text>
	<rect x="312.5" y="309.3" class="st25" width="9" height="12.7"/>
	<text transform="matrix(1 0 0 1 312.4597 318.7888)" class="st36 st37">3</text>
	<rect x="249.3" y="308.7" class="st25" width="10.2" height="12.7"/>
	<text transform="matrix(1 0 0 1 249.263 318.2195)" class="st36 st37">2</text>
	<rect x="193.1" y="266.5" class="st25" width="7.2" height="15.5"/>
	<text transform="matrix(1 0 0 1 193.1036 275.261)" class="st36 st47">7</text>
	<rect x="186.3" y="106" class="st25" width="11.2" height="12.1"/>
	<text transform="matrix(1 0 0 1 186.3158 115.4499)" class="st36 st37">5</text>
	<rect x="248" y="69.3" class="st25" width="8.5" height="12.2"/>
	<text transform="matrix(1 0 0 1 247.9644 78.792)" class="st36 st37">8</text>
</g>
</svg>
