<svg version="1.1" xmlns="http://www.w3.org/2000/svg" xmlns:xlink="http://www.w3.org/1999/xlink" x="0px" y="0px" viewBox="0 0 2016.2 5826.3" style="enable-background:new 0 0 2016.2 5826.3;" xml:space="preserve">
    <defs>
        <linearGradient id="ocean_gradient_1_" gradientUnits="userSpaceOnUse" x1="-180.1298" y1="3107.217" x2="2158.627" y2="3107.217">
            <stop offset="0" style="stop-color:#3E7EC1"/>
            <stop offset="0.2067" style="stop-color:#315F8F"/>
            <stop offset="0.426" style="stop-color:#23486D"/>
            <stop offset="0.6368" style="stop-color:#183858"/>
            <stop offset="0.8329" style="stop-color:#102E4C"/>
            <stop offset="1" style="stop-color:#0E2B48"/>
        </linearGradient>
    </defs>
    <g id="Land_neu">
        <polygon class="st0" points="2015.2,481 1030.4,481 1081.2,283.9 1196.5,170.3 1550.3,126.3 2015.2,179.4 	"/>
        <rect x="1190.8" y="243.3" class="st1" width="796.3" height="180.6"/>
        <text id="Infobox_1" transform="matrix(1 0 0 1 1190.7623 276.1377)">
            <tspan x="0" y="0" class="st2 st3 st4">6-10% des weltweit produzierten
            </tspan>
            <tspan x="0" y="54" class="st2 st3 st4">Kunststoffs gelangen ins Meer.
            </tspan>
            <tspan x="0" y="108" class="st2 st3 st4">2014 entsprach das ca. 31 Mio.
            </tspan>
        </text>
    </g>
    <g id="Ocean">
        <path
            id="ocean_shape"
            class="st5"
            d="M2084.1,473.5c-40.8,0-74.2-36.4-77.6-82.7c-3.4,46.4-36.8,82.7-77.6,82.7
		c-41.3,0-75-37.3-77.7-84.5c-2.7,47.2-36.4,84.5-77.7,84.5c-41.6,0-75.4-37.7-77.7-85.3h-0.5c-2.3,47.6-36.2,85.3-77.7,85.3
		c-41.3,0-75-37.3-77.7-84.5c-2.7,47.2-36.4,84.5-77.7,84.5c-40.8,0-74.2-36.4-77.6-82.7c-3.4,46.4-36.8,82.7-77.6,82.7
		c-41.3,0-75-37.3-77.7-84.5c-2.7,47.2-36.4,84.5-77.7,84.5c-40.8,0-74.2-36.4-77.6-82.7c-3.4,46.4-36.8,82.7-77.6,82.7
		c-41.3,0-75-37.3-77.7-84.5c-2.7,47.2-36.4,84.5-77.7,84.5c-41,0-74.6-36.8-77.6-83.5c-3.1,46.7-36.6,83.5-77.6,83.5
		c-41.3,0-75-37.3-77.7-84.5c-2.7,47.2-36.4,84.5-77.7,84.5c-41.6,0-75.4-37.7-77.7-85.3H452c-2.3,47.6-36.2,85.3-77.7,85.3
		c-41.3,0-75-37.3-77.7-84.5c-2.7,47.2-36.4,84.5-77.7,84.5c-40.8,0-74.2-36.5-77.6-82.7c-3.4,46.4-36.8,82.7-77.6,82.7
		c-41.6,0-75.3-37.8-77.6-85.3h0c-2.3,47.6-36.2,85.3-77.7,85.3c-41.6,0-75.3-37.9-77.6-85.3h-10.8v5438.1h2338.8V409.4
		C2148.9,446.5,2119.3,473.5,2084.1,473.5z"/>

        <path
            id="ocean_gradient"
            class="st6"
            fill="url(#ocean_gradient_1_)"
            d="M2084.1,473.5c-40.8,0-74.2-36.4-77.6-82.7c-3.4,46.4-36.8,82.7-77.6,82.7
		c-41.3,0-75-37.3-77.7-84.5c-2.7,47.2-36.4,84.5-77.7,84.5c-41.6,0-75.4-37.7-77.7-85.3h-0.5c-2.3,47.6-36.2,85.3-77.7,85.3
		c-41.3,0-75-37.3-77.7-84.5c-2.7,47.2-36.4,84.5-77.7,84.5c-40.8,0-74.2-36.4-77.6-82.7c-3.4,46.4-36.8,82.7-77.6,82.7
		c-41.3,0-75-37.3-77.7-84.5c-2.7,47.2-36.4,84.5-77.7,84.5c-40.8,0-74.2-36.4-77.6-82.7c-3.4,46.4-36.8,82.7-77.6,82.7
		c-41.3,0-75-37.3-77.7-84.5c-2.7,47.2-36.4,84.5-77.7,84.5c-41,0-74.6-36.8-77.6-83.5c-3.1,46.7-36.6,83.5-77.6,83.5
		c-41.3,0-75-37.3-77.7-84.5c-2.7,47.2-36.4,84.5-77.7,84.5c-41.6,0-75.4-37.7-77.7-85.3H452c-2.3,47.6-36.2,85.3-77.7,85.3
		c-41.3,0-75-37.3-77.7-84.5c-2.7,47.2-36.4,84.5-77.7,84.5c-40.8,0-74.2-36.5-77.6-82.7c-3.4,46.4-36.8,82.7-77.6,82.7
		c-41.6,0-75.3-37.8-77.6-85.3h0c-2.3,47.6-36.2,85.3-77.7,85.3c-41.6,0-75.3-37.9-77.6-85.3h-10.8v5438.1h2338.8V409.4
		C2148.9,446.5,2119.3,473.5,2084.1,473.5z"/>
        <g id="MP">
            <polygon class="st7" points="1586.1,4764.9 1592.7,4756.8 1602.9,4756.6 1608.7,4762.3 1608.8,4767.4 1606.3,4771.1
			1598.7,4774.9 1592.3,4772.4 1586.9,4769.5 		"/>
            <polygon class="st7" points="366.6,4764.9 373.2,4756.8 383.4,4756.6 389.2,4762.3 389.3,4767.4 386.8,4771.1 379.2,4774.9
			372.8,4772.4 367.4,4769.5 		"/>
            <polygon class="st7" points="446.2,4333.6 452.8,4325.6 463,4325.4 468.8,4331 468.9,4336.2 466.4,4339.9 458.8,4343.7
			452.4,4341.2 447,4338.3 		"/>
            <polygon class="st7" points="96.2,4410.3 102.8,4402.3 113,4402 118.8,4407.7 118.9,4412.9 116.3,4416.6 108.8,4420.4
			102.4,4417.8 97,4415 		"/>
            <polygon class="st7" points="1534.7,4256 1541.3,4247.8 1551.5,4247.6 1557.3,4253.3 1557.4,4258.4 1554.8,4262.2 1547.2,4265.9
			1540.9,4263.4 1535.5,4260.6 		"/>
            <polygon class="st7" points="196.2,4187.9 202.8,4179.8 213,4179.6 218.8,4185.2 218.9,4190.4 216.4,4194.1 208.8,4197.9
			202.4,4195.4 197,4192.5 		"/>
            <polygon class="st7" points="1534.7,4053.1 1541.3,4045.1 1551.5,4044.8 1557.3,4050.5 1557.4,4055.6 1554.8,4059.3
			1547.2,4063.2 1540.9,4060.6 1535.5,4057.8 		"/>
            <polygon class="st7" points="1837.7,3959.6 1844.2,3951.5 1854.5,3951.3 1860.2,3956.9 1860.4,3962.1 1857.8,3965.8
			1850.2,3969.6 1843.9,3967.1 1838.5,3964.3 		"/>
            <polygon class="st7" points="1777.7,4128.3 1784.2,4120.2 1794.5,4120.1 1800.2,4125.7 1800.4,4130.8 1797.8,4134.6
			1790.2,4138.4 1783.9,4135.9 1778.5,4133 		"/>
            <polygon class="st7" points="1779.3,4923.4 1785.9,4915.2 1796.1,4915.1 1801.9,4920.7 1802,4925.8 1799.5,4929.6 1791.9,4933.4
			1785.5,4930.9 1780.1,4928.1 		"/>
            <polygon class="st7" points="752.1,5209.4 758.7,5201.2 768.9,5201 774.7,5206.7 774.8,5211.8 772.2,5215.6 764.6,5219.3
			758.3,5216.8 752.9,5214 		"/>
            <polygon class="st7" points="1289.1,5255.3 1295.7,5247.2 1305.9,5247 1311.7,5252.7 1311.8,5257.8 1309.2,5261.6 1301.7,5265.3
			1295.3,5262.8 1289.9,5260 		"/>
            <polygon class="st7" points="1086.6,5246.2 1093.1,5238 1103.3,5237.9 1109.1,5243.5 1109.3,5248.6 1106.7,5252.4 1099.1,5256.2
			1092.7,5253.7 1087.3,5250.8 		"/>
            <polygon class="st7" points="907.6,5255.3 914.1,5247.2 924.3,5247 930.1,5252.7 930.3,5257.8 927.7,5261.6 920.1,5265.3
			913.7,5262.8 908.3,5260 		"/>
            <polygon class="st7" points="1302.4,5160 1309,5152 1319.2,5151.8 1325,5157.4 1325.1,5162.6 1322.5,5166.3 1314.9,5170.1
			1308.6,5167.6 1303.2,5164.7 		"/>
            <polygon class="st7" points="1937,4999.4 1943.5,4991.3 1953.8,4991.1 1959.5,4996.8 1959.7,5001.8 1957.1,5005.6 1949.5,5009.4
			1943.2,5006.9 1937.8,5004.1 		"/>
            <polygon class="st7" points="1569,4914.3 1575.5,4906.1 1585.8,4905.9 1591.5,4911.6 1591.7,4916.7 1589.1,4920.5 1581.5,4924.2
			1575.2,4921.7 1569.8,4918.9 		"/>
            <polygon class="st7" points="1218.9,4990.9 1225.5,4982.8 1235.7,4982.6 1241.5,4988.3 1241.6,4993.4 1239.1,4997.2
			1231.5,5000.9 1225.1,4998.4 1219.7,4995.6 		"/>
            <polygon class="st7" points="1020.6,4874.7 1027.2,4866.6 1037.4,4866.3 1043.2,4872 1043.3,4877.1 1040.7,4880.9 1033.2,4884.6
			1026.8,4882.2 1021.4,4879.4 		"/>
            <polygon class="st7" points="918.9,5106 925.5,5097.8 935.7,5097.6 941.5,5103.3 941.6,5108.4 939,5112.2 931.5,5115.9
			925.1,5113.5 919.7,5110.7 		"/>
            <polygon class="st7" points="1829,4745.5 1835.6,4737.4 1845.8,4737.2 1851.6,4742.9 1851.7,4748 1849.1,4751.7 1841.6,4755.5
			1835.2,4753 1829.8,4750.1 		"/>
            <polygon class="st7" points="1299,4676.4 1305.5,4668.3 1315.8,4668.1 1321.5,4673.8 1321.7,4678.9 1319.1,4682.7 1311.5,4686.4
			1305.2,4683.9 1299.8,4681 		"/>
            <polygon class="st7" points="1299,4837.5 1305.5,4829.4 1315.8,4829.1 1321.5,4834.8 1321.7,4839.9 1319.1,4843.7 1311.5,4847.5
			1305.2,4844.9 1299.8,4842.2 		"/>
            <polygon class="st7" points="1590.3,4599.7 1596.9,4591.7 1607.1,4591.5 1612.9,4597.1 1613,4602.2 1610.5,4606 1602.9,4609.8
			1596.5,4607.3 1591.1,4604.4 		"/>
            <polygon class="st7" points="1839.4,5206.1 1846,5198 1856.2,5197.8 1862,5203.4 1862.1,5208.6 1859.5,5212.3 1852,5216.1
			1845.6,5213.6 1840.2,5210.7 		"/>
            <polygon class="st7" points="1569.4,5374.8 1576,5366.7 1586.2,5366.5 1592,5372.2 1592.1,5377.3 1589.5,5381.1 1581.9,5384.8
			1575.6,5382.3 1570.2,5379.4 		"/>
            <polygon class="st7" points="1569.4,5175.4 1576,5167.3 1586.2,5167.1 1592,5172.8 1592.1,5177.9 1589.5,5181.6 1581.9,5185.4
			1575.6,5182.9 1570.2,5180.1 		"/>
            <polygon class="st7" points="111,5157.1 117.6,5149.1 127.8,5148.8 133.6,5154.5 133.7,5159.6 131.1,5163.3 123.6,5167.2
			117.2,5164.6 111.8,5161.8 		"/>
            <polygon class="st7" points="745.6,4996.5 752.2,4988.3 762.4,4988.1 768.2,4993.8 768.3,4998.9 765.7,5002.7 758.1,5006.4
			751.8,5003.9 746.4,5001.1 		"/>
            <polygon class="st7" points="377.6,4911.3 384.2,4903.2 394.4,4903 400.2,4908.7 400.3,4913.8 397.7,4917.5 390.1,4921.3
			383.8,4918.8 378.4,4915.9 		"/>
            <polygon class="st7" points="27.6,4988 34.1,4979.9 44.3,4979.7 50.1,4985.3 50.3,4990.5 47.7,4994.2 40.1,4998 33.7,4995.5
			28.3,4992.6 		"/>
            <polygon class="st7" points="637.6,4742.5 644.2,4734.4 654.4,4734.3 660.2,4739.9 660.3,4745 657.7,4748.8 650.2,4752.6
			643.8,4750.1 638.4,4747.2 		"/>
            <polygon class="st7" points="107.6,4673.4 114.2,4665.3 124.4,4665.2 130.2,4670.8 130.3,4675.9 127.7,4679.7 120.1,4683.5
			113.8,4681 108.4,4678.1 		"/>
            <polygon class="st7" points="398.9,4596.8 405.5,4588.7 415.7,4588.5 421.5,4594.2 421.6,4599.3 419.1,4603 411.5,4606.8
			405.1,4604.3 399.7,4601.5 		"/>
            <polygon class="st7" points="857.9,4618.1 864.5,4609.9 874.7,4609.8 880.5,4615.4 880.6,4620.5 878,4624.3 870.4,4628.1
			864.1,4625.6 858.7,4622.8 		"/>
            <polygon class="st7" points="378,5371.9 384.6,5363.8 394.8,5363.6 400.6,5369.2 400.7,5374.3 398.1,5378.1 390.6,5381.9
			384.2,5379.4 378.8,5376.5 		"/>
            <polygon class="st7" points="378,5172.5 384.6,5164.3 394.8,5164.2 400.6,5169.8 400.7,5174.9 398.1,5178.7 390.6,5182.4
			384.2,5180 378.8,5177.1 		"/>
            <polygon class="st7" points="999.3,5594.3 1005.8,5586.2 1016,5586 1021.8,5591.6 1022,5596.8 1019.4,5600.5 1011.8,5604.3
			1005.4,5601.8 1000,5598.9 		"/>
            <polygon class="st7" points="1429.3,5609.6 1435.9,5601.5 1446.1,5601.3 1451.9,5607 1452,5612.1 1449.4,5615.9 1441.9,5619.6
			1435.5,5617.1 1430.1,5614.3 		"/>
            <polygon class="st7" points="1909.3,5609.6 1915.9,5601.5 1926.1,5601.3 1931.9,5607 1932.1,5612.1 1929.5,5615.9 1921.9,5619.6
			1915.5,5617.1 1910.1,5614.3 		"/>
            <polygon class="st7" points="1309.3,5555.9 1315.9,5547.9 1326.1,5547.6 1331.9,5553.3 1332,5558.4 1329.4,5562.2 1321.8,5566
			1315.5,5563.4 1310.1,5560.6 		"/>
            <polygon class="st7" points="1209.3,5601.9 1215.8,5593.9 1226.1,5593.6 1231.8,5599.3 1232,5604.5 1229.4,5608.2 1221.8,5612
			1215.5,5609.4 1210.1,5606.6 		"/>
            <polygon class="st7" points="1209.3,5525.2 1215.8,5517.2 1226.1,5517 1231.8,5522.6 1232,5527.8 1229.4,5531.5 1221.8,5535.3
			1215.5,5532.8 1210.1,5529.9 		"/>
            <polygon class="st7" points="1109.3,5563.6 1115.8,5555.5 1126.1,5555.3 1131.8,5561 1132,5566.1 1129.4,5569.9 1121.8,5573.6
			1115.4,5571.1 1110,5568.3 		"/>
            <polygon class="st7" points="869.2,5601.9 875.8,5593.9 886,5593.6 891.8,5599.3 891.9,5604.5 889.4,5608.2 881.8,5612
			875.4,5609.4 870,5606.6 		"/>
            <polygon class="st7" points="949.2,5563.6 955.8,5555.5 966,5555.3 971.8,5561 972,5566.1 969.4,5569.9 961.8,5573.6
			955.4,5571.1 950,5568.3 		"/>
            <polygon class="st7" points="79.2,5563.6 85.7,5555.5 96,5555.3 101.7,5561 101.9,5566.1 99.3,5569.9 91.7,5573.6 85.3,5571.1
			79.9,5568.3 		"/>
            <polygon class="st7" points="79.2,5448.5 85.7,5440.5 96,5440.3 101.7,5445.9 101.9,5451.1 99.3,5454.8 91.7,5458.6 85.3,5456.1
			79.9,5453.2 		"/>
            <polygon class="st7" points="79.2,5325.8 85.7,5317.8 96,5317.6 101.7,5323.2 101.9,5328.3 99.3,5332.1 91.7,5335.9 85.3,5333.4
			79.9,5330.5 		"/>
            <polygon class="st7" points="759.2,5617.3 765.8,5609.2 776,5609 781.8,5614.7 781.9,5619.8 779.4,5623.6 771.8,5627.3
			765.4,5624.8 760,5621.9 		"/>
            <polygon class="st7" points="809.2,5578.9 815.8,5570.9 826,5570.6 831.8,5576.3 831.9,5581.4 829.4,5585.2 821.8,5589
			815.4,5586.4 810,5583.6 		"/>
            <polygon class="st7" points="579.2,5601.9 585.8,5593.9 596,5593.6 601.8,5599.3 601.9,5604.5 599.3,5608.2 591.8,5612
			585.4,5609.4 580,5606.6 		"/>
            <polygon class="st7" points="679.2,5571.2 685.8,5563.2 696,5563 701.8,5568.6 701.9,5573.8 699.3,5577.5 691.8,5581.3
			685.4,5578.8 680,5575.9 		"/>
            <polygon class="st7" points="759.2,5517.6 765.8,5509.5 776,5509.3 781.8,5515 781.9,5520.1 779.4,5523.8 771.8,5527.6
			765.4,5525.1 760,5522.2 		"/>
            <polygon class="st7" points="590.6,5255.3 597.1,5247.2 607.4,5247 613.1,5252.7 613.3,5257.8 610.7,5261.6 603.1,5265.3
			596.8,5262.8 591.4,5260 		"/>
            <polygon class="st7" points="1009.3,5517.6 1015.8,5509.5 1026,5509.3 1031.8,5515 1032,5520.1 1029.4,5523.8 1021.8,5527.6
			1015.4,5525.1 1010,5522.2 		"/>
            <polygon class="st7" points="489.2,5517.6 495.8,5509.5 506,5509.3 511.8,5515 511.9,5520.1 509.3,5523.8 501.8,5527.6
			495.4,5525.1 490,5522.2 		"/>
            <polygon class="st7" points="589.2,5486.9 595.8,5478.8 606,5478.6 611.8,5484.3 611.9,5489.4 609.3,5493.1 601.8,5496.9
			595.4,5494.4 590,5491.6 		"/>
            <polygon class="st7" points="709.2,5433.2 715.8,5425.2 726,5424.9 731.8,5430.6 731.9,5435.7 729.4,5439.4 721.8,5443.3
			715.4,5440.7 710,5437.9 		"/>
            <polygon class="st7" points="949.2,5433.2 955.8,5425.2 966,5424.9 971.8,5430.6 972,5435.7 969.4,5439.4 961.8,5443.3
			955.4,5440.7 950,5437.9 		"/>
            <polygon class="st7" points="1139.3,5433.2 1145.8,5425.2 1156.1,5424.9 1161.8,5430.6 1162,5435.7 1159.4,5439.4 1151.8,5443.3
			1145.5,5440.7 1140.1,5437.9 		"/>
            <polygon class="st7" points="1299.3,5463.9 1305.9,5455.8 1316.1,5455.6 1321.9,5461.3 1322,5466.4 1319.4,5470.1 1311.8,5473.9
			1305.5,5471.4 1300.1,5468.6 		"/>
            <polygon class="st7" points="1688,5062.5 1694.5,5054.4 1704.8,5054.2 1710.5,5059.9 1710.7,5065 1708.1,5068.7 1700.5,5072.5
			1694.2,5070 1688.8,5067.2 		"/>
            <polygon class="st7" points="1829.3,5557.4 1835.9,5549.3 1846.1,5549.1 1851.9,5554.8 1852,5559.9 1849.5,5563.7 1841.9,5567.4
			1835.5,5565 1830.1,5562.1 		"/>
            <polygon class="st7" points="495.2,5619.6 501.8,5611.5 512,5611.4 517.8,5617 517.9,5622.1 515.4,5625.9 507.8,5629.7
			501.4,5627.2 496,5624.3 		"/>
            <polygon class="st7" points="375.2,5566 381.8,5557.8 392,5557.7 397.8,5563.3 397.9,5568.4 395.3,5572.2 387.8,5576
			381.4,5573.5 376,5570.6 		"/>
            <polygon class="st7" points="275.2,5612 281.8,5603.8 292,5603.7 297.8,5609.3 297.9,5614.4 295.3,5618.2 287.8,5622
			281.4,5619.5 276,5616.6 		"/>
            <polygon class="st7" points="275.2,5535.3 281.8,5527.2 292,5527 297.8,5532.6 297.9,5537.7 295.3,5541.5 287.8,5545.3
			281.4,5542.8 276,5540 		"/>
            <polygon class="st7" points="1939.3,5526.8 1945.9,5518.6 1956.1,5518.4 1961.9,5524.1 1962.1,5529.2 1959.5,5533 1951.9,5536.7
			1945.5,5534.2 1940.1,5531.4 		"/>
            <polygon class="st7" points="1699.3,5565.1 1705.9,5557 1716.1,5556.8 1721.9,5562.4 1722,5567.6 1719.5,5571.3 1711.9,5575.1
			1705.5,5572.6 1700.1,5569.8 		"/>
            <polygon class="st7" points="179.2,5488.4 185.7,5480.3 196,5480.1 201.7,5485.7 201.9,5490.9 199.3,5494.6 191.7,5498.4
			185.4,5495.9 180,5493.1 		"/>
            <polygon class="st7" points="1589.3,5580.5 1595.9,5572.3 1606.1,5572.2 1611.9,5577.8 1612,5582.9 1609.4,5586.7 1601.9,5590.4
			1595.5,5588 1590.1,5585.1 		"/>
            <polygon class="st7" points="1639.3,5542.1 1645.9,5534 1656.1,5533.7 1661.9,5539.4 1662,5544.6 1659.4,5548.3 1651.9,5552.1
			1645.5,5549.6 1640.1,5546.8 		"/>
            <polygon class="st7" points="269.2,5434.7 275.8,5426.6 286,5426.4 291.7,5432.1 291.9,5437.2 289.3,5441 281.7,5444.7
			275.4,5442.2 270,5439.4 		"/>
            <polygon class="st7" points="1409.3,5565.1 1415.9,5557 1426.1,5556.8 1431.9,5562.4 1432,5567.6 1429.4,5571.3 1421.8,5575.1
			1415.5,5572.6 1410.1,5569.8 		"/>
            <polygon class="st7" points="1509.3,5534.4 1515.9,5526.3 1526.1,5526.1 1531.9,5531.8 1532,5536.9 1529.4,5540.6 1521.9,5544.4
			1515.5,5541.9 1510.1,5539.1 		"/>
            <polygon class="st7" points="1589.3,5480.8 1595.9,5472.6 1606.1,5472.4 1611.9,5478.1 1612,5483.2 1609.4,5487 1601.9,5490.7
			1595.5,5488.2 1590.1,5485.4 		"/>
            <polygon class="st7" points="1709.3,5480.8 1715.9,5472.6 1726.1,5472.4 1731.9,5478.1 1732,5483.2 1729.5,5487 1721.9,5490.7
			1715.5,5488.2 1710.1,5485.4 		"/>
            <polygon class="st7" points="1839.3,5480.8 1845.9,5472.6 1856.1,5472.4 1861.9,5478.1 1862,5483.2 1859.5,5487 1851.9,5490.7
			1845.5,5488.2 1840.1,5485.4 		"/>
            <polygon class="st7" points="1419.3,5319.6 1425.9,5311.6 1436.1,5311.3 1441.9,5317 1442,5322.2 1439.4,5325.9 1431.9,5329.7
			1425.5,5327.1 1420.1,5324.3 		"/>
            <polygon class="st7" points="1779.3,5601.9 1785.9,5593.9 1796.1,5593.6 1801.9,5599.3 1802,5604.5 1799.5,5608.2 1791.9,5612
			1785.5,5609.4 1780.1,5606.6 		"/>
            <polygon class="st7" points="1779.3,5396.4 1785.9,5388.3 1796.1,5388 1801.9,5393.7 1802,5398.9 1799.5,5402.6 1791.9,5406.4
			1785.5,5403.8 1780.1,5401 		"/>
            <polygon class="st7" points="1969.3,5396.4 1975.9,5388.3 1986.1,5388 1991.9,5393.7 1992.1,5398.9 1989.5,5402.6 1981.9,5406.4
			1975.5,5403.8 1970.1,5401 		"/>
            <polygon class="st7" points="365.2,5473.9 371.8,5465.8 382,5465.6 387.8,5471.2 387.9,5476.4 385.3,5480.1 377.8,5483.9
			371.4,5481.4 366,5478.6 		"/>
            <polygon class="st7" points="455.2,5412.6 461.8,5404.4 472,5404.2 477.8,5409.9 477.9,5415 475.4,5418.8 467.8,5422.5
			461.4,5420 456,5417.3 		"/>
            <polygon class="st7" points="159.2,5601.3 165.7,5593.3 176,5593 181.7,5598.7 181.9,5603.8 179.3,5607.6 171.7,5611.4
			165.3,5608.8 159.9,5606 		"/>
            <polygon class="st7" points="1583.8,4409.3 1590.3,4401.2 1600.6,4401 1606.3,4406.6 1606.5,4411.8 1603.9,4415.5 1596.3,4419.3
			1590,4416.8 1584.6,4414 		"/>
            <polygon class="st7" points="1761.2,4424.8 1767.7,4416.8 1778,4416.5 1783.7,4422.2 1783.9,4427.4 1781.3,4431 1773.7,4434.9
			1767.3,4432.3 1761.9,4429.5 		"/>
            <polygon class="st7" points="558.9,5053.4 565.5,5045.2 575.7,5045 581.5,5050.7 581.6,5055.8 579.1,5059.6 571.5,5063.3
			565.1,5060.9 559.7,5058 		"/>
            <polygon class="st7" points="750.2,4255.5 756.8,4247.4 767,4247.2 772.8,4252.8 773,4257.9 770.4,4261.7 762.8,4265.5
			756.4,4263 751,4260.2 		"/>
            <polygon class="st7" points="1928.7,4032 1935.3,4023.9 1945.5,4023.7 1951.3,4029.3 1951.4,4034.5 1948.8,4038.2 1941.3,4042.1
			1934.9,4039.5 1929.5,4036.7 		"/>
            <polygon class="st7" points="1904.2,4568.8 1910.8,4560.7 1921,4560.5 1926.8,4566.2 1926.9,4571.3 1924.3,4575 1916.7,4578.8
			1910.4,4576.3 1905,4573.4 		"/>
            <polygon class="st7" points="1892.7,4262.2 1899.2,4254.1 1909.5,4254 1915.2,4259.6 1915.4,4264.7 1912.8,4268.5 1905.2,4272.2
			1898.8,4269.8 1893.4,4266.9 		"/>
            <polygon class="st7" points="1370.7,4470.6 1377.3,4462.6 1387.5,4462.3 1393.3,4468 1393.4,4473.1 1390.8,4476.9 1383.3,4480.7
			1376.9,4478.1 1371.5,4475.3 		"/>
            <polygon class="st7" points="1100.7,4639.4 1107.3,4631.3 1117.5,4631 1123.3,4636.7 1123.4,4641.9 1120.8,4645.6 1113.2,4649.4
			1106.9,4646.8 1101.5,4644.1 		"/>
            <polygon class="st7" points="1100.7,4470.6 1107.3,4462.6 1117.5,4462.3 1123.3,4468 1123.4,4473.1 1120.8,4476.9 1113.2,4480.7
			1106.9,4478.1 1101.5,4475.3 		"/>
            <polygon class="st7" points="1815,2750.8 1821.5,2742.6 1831.8,2742.4 1837.5,2748.1 1837.7,2753.2 1835.1,2757 1827.5,2760.7
			1821.2,2758.2 1815.8,2755.5 		"/>
            <polygon class="st7" points="814.2,3628.9 820.8,3620.7 831,3620.6 836.8,3626.2 836.9,3631.3 834.4,3635.1 826.8,3638.9
			820.4,3636.4 815,3633.5 		"/>
            <polygon class="st7" points="446.2,3543.7 452.8,3535.6 463,3535.4 468.8,3541.1 468.9,3546.2 466.4,3550 458.8,3553.7
			452.4,3551.2 447,3548.3 		"/>
            <polygon class="st7" points="96.2,3620.4 102.8,3612.3 113,3612.1 118.8,3617.7 118.9,3622.9 116.3,3626.6 108.8,3630.4
			102.4,3627.9 97,3625 		"/>
            <polygon class="st7" points="1274.7,3650 1281.2,3641.9 1291.5,3641.7 1297.2,3647.3 1297.4,3652.5 1294.8,3656.2 1287.2,3660
			1280.8,3657.5 1275.4,3654.7 		"/>
            <polygon class="st7" points="176.2,3060.4 182.8,3052.3 193,3052.2 198.8,3057.8 198.9,3062.9 196.4,3066.7 188.8,3070.4
			182.4,3068 177,3065.1 		"/>
            <polygon class="st7" points="467.6,3229.2 474.2,3221.1 484.4,3221 490.2,3226.6 490.3,3231.7 487.7,3235.4 480.2,3239.2
			473.8,3236.8 468.4,3233.9 		"/>
            <polygon class="st7" points="1440.6,5053.4 1447.2,5045.2 1457.4,5045 1463.2,5050.7 1463.4,5055.8 1460.8,5059.6 1453.2,5063.3
			1446.8,5060.9 1441.4,5058 		"/>
            <polygon class="st7" points="1567.6,3338.4 1574.2,3330.2 1584.4,3330.1 1590.2,3335.7 1590.4,3340.8 1587.8,3344.6
			1580.2,3348.3 1573.8,3345.9 1568.4,3343 		"/>
            <polygon class="st7" points="1826.3,3716.7 1832.9,3708.5 1843.1,3708.3 1848.9,3714 1849,3719.1 1846.4,3722.9 1838.9,3726.6
			1832.5,3724.1 1827.1,3721.3 		"/>
            <polygon class="st7" points="1176.2,3232.8 1169.5,3224.8 1159,3224.6 1153.1,3230.2 1153,3235.4 1155.6,3239.1 1163.3,3242.9
			1169.8,3240.4 1175.4,3237.5 		"/>
            <polygon class="st7" points="1292.4,4086.2 1299,4078.2 1309.2,4078 1315,4083.6 1315.1,4088.7 1312.5,4092.5 1305,4096.3
			1298.6,4093.8 1293.2,4090.9 		"/>
            <polygon class="st7" points="1590.3,3809.8 1596.9,3801.7 1607.1,3801.5 1612.9,3807.1 1613,3812.2 1610.5,3816 1602.9,3819.8
			1596.5,3817.3 1591.1,3814.5 		"/>
            <polygon class="st7" points="759.2,4470.6 765.8,4462.6 776,4462.3 781.8,4468 781.9,4473.1 779.4,4476.9 771.8,4480.7
			765.4,4478.1 760,4475.3 		"/>
            <polygon class="st7" points="107.6,3883.5 114.2,3875.3 124.4,3875.2 130.2,3880.8 130.3,3885.9 127.7,3889.7 120.1,3893.5
			113.8,3891 108.4,3888.2 		"/>
            <polygon class="st7" points="398.9,3806.9 405.5,3798.7 415.7,3798.5 421.5,3804.2 421.6,3809.3 419.1,3813.1 411.5,3816.8
			405.1,3814.3 399.7,3811.5 		"/>
            <polygon class="st7" points="709.2,3912.2 715.8,3904.2 726,3903.9 731.8,3909.6 731.9,3914.8 729.4,3918.4 721.8,3922.3
			715.4,3919.7 710,3916.9 		"/>
            <polygon class="st7" points="1583.8,3581 1590.3,3572.9 1600.6,3572.7 1606.3,3578.3 1606.5,3583.5 1603.9,3587.2 1596.3,3591
			1590,3588.4 1584.6,3585.6 		"/>
            <polygon class="st7" points="1016,3454.9 1022.6,3446.8 1032.8,3446.6 1038.6,3452.2 1038.7,3457.4 1036.1,3461.1 1028.5,3464.9
			1022.2,3462.4 1016.8,3459.5 		"/>
            <polygon class="st7" points="1406,2749.2 1412.6,2741.2 1422.8,2741 1428.6,2746.6 1428.7,2751.8 1426.2,2755.5 1418.6,2759.3
			1412.2,2756.8 1406.8,2753.9 		"/>
            <polygon class="st7" points="1320.6,3905.6 1327.2,3897.6 1337.4,3897.4 1343.2,3903 1343.3,3908.2 1340.8,3911.8 1333.2,3915.7
			1326.8,3913.2 1321.4,3910.3 		"/>
            <polygon class="st7" points="520.3,4095.1 526.9,4086.9 537.1,4086.8 542.9,4092.4 543,4097.5 540.4,4101.3 532.9,4105
			526.5,4102.6 521.1,4099.7 		"/>
            <polygon class="st7" points="1928.7,3242 1935.3,3233.9 1945.5,3233.8 1951.3,3239.4 1951.4,3244.5 1948.8,3248.3 1941.3,3252
			1934.9,3249.6 1929.5,3246.7 		"/>
            <polygon class="st7" points="1720.7,3094.1 1727.3,3086.1 1737.5,3085.8 1743.2,3091.5 1743.4,3096.6 1740.8,3100.4
			1733.2,3104.2 1726.9,3101.6 1721.5,3098.8 		"/>
            <polygon class="st7" points="1892.7,3472.3 1899.2,3464.1 1909.5,3464 1915.2,3469.6 1915.4,3474.7 1912.8,3478.5 1905.2,3482.2
			1898.8,3479.8 1893.4,3476.9 		"/>
            <polygon class="st7" points="846.5,4837.5 853.1,4829.4 863.3,4829.1 869.1,4834.8 869.2,4839.9 866.7,4843.7 859.1,4847.5
			852.7,4844.9 847.3,4842.2 		"/>
            <polygon class="st7" points="1075.2,4271.4 1081.8,4263.3 1092,4263.1 1097.8,4268.8 1097.9,4273.9 1095.3,4277.6 1087.8,4281.4
			1081.4,4278.9 1076,4276 		"/>
            <polygon class="st7" points="1089.3,3772.1 1095.9,3764.1 1106.1,3763.8 1111.9,3769.5 1112,3774.6 1109.5,3778.3 1101.9,3782.2
			1095.5,3779.6 1090.1,3776.8 		"/>
            <polygon class="st7" points="1274.7,3044.1 1281.2,3036.1 1291.5,3035.8 1297.2,3041.5 1297.4,3046.6 1294.8,3050.3
			1287.2,3054.2 1280.8,3051.6 1275.4,3048.8 		"/>
            <polygon class="st7" points="973.8,4041.1 980.4,4033.1 990.6,4032.9 996.4,4038.5 996.5,4043.7 994,4047.4 986.4,4051.2
			980,4048.7 974.6,4045.8 		"/>
            <polygon class="st7" points="1332,3420 1338.6,3411.8 1348.8,3411.6 1354.6,3417.3 1354.7,3422.4 1352.1,3426.2 1344.5,3429.9
			1338.2,3427.5 1332.8,3424.6 		"/>
            <polygon class="st7" points="846.5,3062.4 853.1,3054.3 863.3,3054.2 869.1,3059.8 869.2,3064.9 866.7,3068.6 859.1,3072.5
			852.7,3070 847.3,3067.1 		"/>
            <polygon class="st7" points="770.6,3288 777.2,3279.9 787.4,3279.7 793.2,3285.4 793.3,3290.5 790.7,3294.3 783.1,3298
			776.8,3295.5 771.4,3292.7 		"/>
            <polygon class="st7" points="558.9,2886.8 565.5,2878.8 575.7,2878.5 581.5,2884.1 581.6,2889.3 579.1,2893 571.5,2896.9
			565.1,2894.3 559.7,2891.5 		"/>
            <polygon class="st7" points="1010.6,3889.3 1017.2,3881.2 1027.4,3881 1033.2,3886.6 1033.3,3891.8 1030.7,3895.5 1023.2,3899.3
			1016.8,3896.8 1011.4,3894 		"/>
            <polygon class="st7" points="238.9,2695.1 245.5,2687 255.7,2686.8 261.5,2692.4 261.6,2697.5 259,2701.3 251.4,2705.1
			245.1,2702.6 239.7,2699.8 		"/>
            <polygon class="st7" points="868.9,2687.3 875.5,2679.1 885.7,2679 891.4,2684.6 891.6,2689.7 889,2693.5 881.4,2697.3
			875.1,2694.8 869.7,2692 		"/>
            <polygon class="st7" points="209.3,3354.5 215.9,3346.5 226.1,3346.3 231.9,3351.9 232,3357.1 229.4,3360.8 221.9,3364.6
			215.5,3362.1 210.1,3359.2 		"/>
            <polygon class="st7" points="459.3,2449.5 465.9,2441.5 476.1,2441.3 481.9,2446.9 482,2452.1 479.4,2455.7 471.9,2459.6
			465.5,2457.1 460.1,2454.2 		"/>
            <polygon class="st7" points="1129.4,2441.9 1136,2433.8 1146.2,2433.6 1152,2439.3 1152.1,2444.4 1149.5,2448.1 1142,2451.9
			1135.6,2449.4 1130.2,2446.5 		"/>
            <polygon class="st7" points="1589.4,2564.6 1596,2556.5 1606.2,2556.3 1612,2562 1612.1,2567.1 1609.5,2570.8 1602,2574.6
			1595.6,2572.1 1590.2,2569.2 		"/>
        </g>
        <g id="neues_MP">
            <polygon class="st7" points="573.1,588.1 584.7,583.8 593,589.8 593.1,599.2 589.2,604.5 584.2,606.9 575.2,606.2 572.1,599.7
			570.1,593.5 		"/>
            <polygon class="st7" points="271.3,2284.4 277.9,2273.9 288.1,2273.6 293.9,2281 294,2287.7 291.5,2292.6 283.9,2297.5
			277.5,2294.2 272.1,2290.5 		"/>
            <polygon class="st8" points="1765,2524.9 1772.4,2513.1 1783.8,2512.8 1790.3,2521.1 1790.4,2528.6 1787.6,2534.1 1779.1,2539.6
			1771.9,2535.9 1765.9,2531.7 		"/>
            <polygon class="st7" points="1804.2,1654.4 1810.8,1643.9 1821,1643.6 1826.8,1651 1826.9,1657.7 1824.4,1662.6 1816.8,1667.5
			1810.4,1664.2 1805,1660.5 		"/>
            <polygon class="st7" points="962.4,1325.5 969,1315 979.2,1314.7 985,1322.1 985.1,1328.8 982.6,1333.7 975,1338.6 968.6,1335.3
			963.2,1331.6 		"/>
            <polygon class="st7" points="1629.6,867.8 1636.3,857.3 1646.5,857 1652.3,864.4 1652.3,871.1 1649.8,876 1642.3,880.9
			1635.8,877.6 1630.5,873.9 		"/>
            <polygon class="st7" points="1406,3157.6 1412.6,3147.1 1422.8,3146.8 1428.6,3154.2 1428.7,3160.9 1426.2,3165.8 1418.6,3170.7
			1412.2,3167.4 1406.8,3163.7 		"/>
            <polygon class="st7" points="283.3,1097.5 280.3,1085.4 287.1,1077.9 296.4,1078.8 301.4,1083.4 303.2,1088.6 301.4,1097.4
			294.6,1099.8 288.2,1101.1 		"/>
            <polygon class="st7" points="1613.8,1132.5 1618.3,1120.9 1628.3,1118.7 1635.4,1124.9 1636.7,1131.5 1635.2,1136.8 1628.6,1143
			1621.7,1140.9 1615.7,1138.3 		"/>
            <polygon class="st7" points="1100.9,718.1 1105.4,706.5 1115.4,704.3 1122.5,710.5 1123.8,717.1 1122.3,722.4 1115.7,728.6
			1108.8,726.6 1102.8,723.9 		"/>
            <polygon class="st7" points="643.4,1489.8 640.4,1477.8 647.2,1470.2 656.6,1471.1 661.5,1475.7 663.3,1480.9 661.6,1489.8
			654.8,1492.1 648.4,1493.5 		"/>
            <polygon class="st7" points="1641,1480.7 1647.6,1470.2 1657.8,1469.9 1663.6,1477.3 1663.7,1484 1661.2,1488.9 1653.6,1493.8
			1647.2,1490.5 1641.8,1486.8 		"/>
            <polygon class="st7" points="387.5,1821.3 394.2,1810.8 404.4,1810.5 410.2,1817.9 410.3,1824.6 407.8,1829.5 400.2,1834.4
			393.8,1831.1 388.4,1827.4 		"/>
            <polygon class="st7" points="1826.4,1240.7 1833,1230.2 1843.2,1229.9 1849,1237.3 1849.1,1244 1846.6,1248.9 1839,1253.8
			1832.6,1250.5 1827.2,1246.8 		"/>
            <polygon class="st7" points="1424.7,2226.9 1431.3,2216.4 1441.5,2216.1 1447.3,2223.5 1447.4,2230.2 1444.9,2235.1 1437.3,2240
			1430.9,2236.7 1425.5,2233 		"/>
            <polygon class="st7" points="1019,1678.3 1025.6,1667.8 1035.8,1667.5 1041.6,1674.9 1041.7,1681.6 1039.2,1686.5 1031.6,1691.4
			1025.2,1688.1 1019.8,1684.4 		"/>
            <polygon class="st7" points="1641.3,1584.7 1644.9,1581.4 1648.8,1582.4 1650.3,1585.8 1649.6,1588.4 1648.1,1590 1644.7,1591
			1642.6,1589.1 1641,1587.1 		"/>
            <polygon class="st7" points="338.4,987.2 345,976.7 355.2,976.4 361,983.8 361.1,990.5 358.6,995.4 351,1000.3 344.6,997
			339.2,993.3 		"/>
            <polygon class="st9" points="265.5,4516.2 272.1,4505.7 282.3,4505.4 288.1,4512.8 288.2,4519.5 285.7,4524.4 278.1,4529.3
			271.7,4526 266.3,4522.3 		"/>
            <polygon class="st7" points="274.3,4291.6 284.5,4275.3 300.3,4274.8 309.3,4286.3 309.5,4296.7 305.6,4304.3 293.8,4311.9
			283.9,4306.8 275.6,4301 		"/>
            <polygon class="st8" points="1040.5,5165.9 1037.2,5160.5 1039.5,5155.8 1044.2,5154.9 1047.3,5156.4 1048.9,5158.7
			1049.4,5163.3 1046.4,5165.4 1043.4,5167 		"/>
            <polygon class="st9" points="651.9,4905 656.8,4897.3 664.3,4897 668.6,4902.5 668.7,4907.5 666.8,4911.1 661.2,4914.7
			656.5,4912.3 652.5,4909.6 		"/>
            <polygon class="st7" points="242,780.9 246.8,773.3 254.2,773.1 258.4,778.5 258.5,783.3 256.7,786.9 251.2,790.5 246.5,788.1
			242.6,785.4 		"/>
            <polygon class="st8" points="764.5,929 767.7,916.8 777.5,913.4 785.3,918.8 787.5,925.3 786.6,930.8 780.7,937.9 773.5,936.6
			767.1,934.7 		"/>
            <polygon class="st8" points="995.3,1021.6 1001.9,1011.1 1012.1,1010.8 1017.9,1018.2 1018,1024.9 1015.5,1029.8 1007.9,1034.7
			1001.5,1031.4 996.1,1027.7 		"/>
            <polygon class="st9" points="1592.8,1192.8 1599.4,1182.3 1609.6,1182 1615.4,1189.4 1615.5,1196.1 1613,1201 1605.4,1205.9
			1599,1202.6 1593.6,1198.9 		"/>
            <polygon class="st7" points="782,1149.1 788.6,1138.6 798.8,1138.3 804.6,1145.7 804.7,1152.4 802.2,1157.3 794.6,1162.2
			788.2,1158.9 782.8,1155.2 		"/>
            <polygon class="st8" points="868.4,557.5 865.2,552.1 867.5,547.4 872.2,546.5 875.2,548 876.9,550.3 877.3,554.9 874.3,557
			871.4,558.6 		"/>
            <polygon class="st9" points="1405.3,853.1 1410.2,845.3 1417.8,845.1 1422,850.6 1422.1,855.5 1420.3,859.2 1414.6,862.8
			1409.9,860.3 1405.9,857.6 		"/>
            <polygon class="st7" points="1322.7,1453.3 1327.5,1445.6 1335,1445.4 1339.2,1450.8 1339.3,1455.7 1337.4,1459.3 1331.9,1462.8
			1327.2,1460.4 1323.3,1457.7 		"/>
            <polygon class="st8" points="1232.5,1117.2 1235.6,1105 1245.4,1101.6 1253.3,1107 1255.4,1113.4 1254.5,1118.9 1248.7,1126
			1241.5,1124.8 1235.1,1122.8 		"/>
            <polygon class="st8" points="144.6,1241 151.2,1230.5 161.4,1230.2 167.2,1237.5 167.3,1244.3 164.8,1249.2 157.2,1254
			150.8,1250.8 145.4,1247 		"/>
            <polygon class="st9" points="1372,1703 1378.6,1692.5 1388.8,1692.2 1394.6,1699.6 1394.7,1706.3 1392.2,1711.2 1384.6,1716.1
			1378.2,1712.8 1372.8,1709.1 		"/>
            <polygon class="st7" points="508.1,1294.9 514.7,1284.4 524.9,1284.1 530.7,1291.5 530.8,1298.2 528.3,1303.1 520.7,1308
			514.3,1304.7 508.9,1301 		"/>
            <polygon class="st8" points="428.5,1161.3 425.2,1155.8 427.5,1151.1 432.2,1150.2 435.3,1151.7 436.9,1154 437.4,1158.6
			434.4,1160.8 431.4,1162.3 		"/>
            <polygon class="st9" points="311.1,1593 316,1585.3 323.5,1585 327.8,1590.5 327.9,1595.5 326.1,1599.1 320.4,1602.7
			315.7,1600.3 311.7,1597.5 		"/>
            <polygon class="st7" points="1807.3,2235.4 1812.1,2227.7 1819.5,2227.5 1823.7,2232.9 1823.8,2237.8 1822,2241.4 1816.5,2244.9
			1811.8,2242.5 1807.9,2239.8 		"/>
            <polygon class="st8" points="166.2,1901.5 169.4,1889.3 179.1,1885.9 187,1891.3 189.2,1897.7 188.3,1903.2 182.4,1910.3
			175.2,1909.1 168.8,1907.1 		"/>
            <polygon class="st8" points="694.7,1833.3 701.4,1822.8 711.5,1822.5 717.4,1829.9 717.5,1836.6 715,1841.5 707.4,1846.4
			701,1843.1 695.5,1839.4 		"/>
            <polygon class="st9" points="600.2,2161.7 606.8,2151.2 617,2150.9 622.8,2158.3 622.9,2165 620.4,2169.9 612.8,2174.8
			606.4,2171.5 601,2167.8 		"/>
            <polygon class="st7" points="1247.9,1976.7 1254.5,1966.2 1264.7,1965.9 1270.5,1973.3 1270.6,1980 1268.1,1984.9 1260.5,1989.8
			1254.1,1986.5 1248.7,1982.8 		"/>
            <polygon class="st8" points="1757.3,700.6 1754.1,695.2 1756.4,690.5 1761.1,689.6 1764.1,691.1 1765.8,693.4 1766.2,698
			1763.2,700.1 1760.3,701.7 		"/>
            <polygon class="st9" points="268.5,2492.6 273.4,2484.8 280.9,2484.6 285.2,2490.1 285.3,2495 283.4,2498.7 277.8,2502.3
			273.1,2499.8 269.1,2497.1 		"/>
            <polygon class="st7" points="1874.3,563.7 1879.1,556 1886.6,555.8 1890.8,561.2 1890.9,566.1 1889,569.6 1883.5,573.2
			1878.8,570.8 1874.9,568.1 		"/>
            <polygon class="st8" points="1371.9,598.8 1375,586.6 1384.8,583.2 1392.7,588.5 1394.8,595 1393.9,600.5 1388.1,607.6
			1380.9,606.3 1374.5,604.4 		"/>
            <polygon class="st8" points="889.7,2086.2 896.3,2075.7 906.5,2075.4 912.3,2082.8 912.4,2089.5 909.9,2094.4 902.3,2099.3
			895.9,2096 890.5,2092.3 		"/>
            <polygon class="st9" points="1221.1,2633.7 1227.7,2623.2 1237.9,2622.9 1243.7,2630.3 1243.8,2637 1241.3,2641.9 1233.7,2646.8
			1227.3,2643.5 1221.9,2639.8 		"/>
            <polygon class="st7" points="722.3,2513.1 729,2502.6 739.2,2502.3 745,2509.7 745.1,2516.4 742.6,2521.3 735,2526.2
			728.6,2522.9 723.2,2519.2 		"/>
            <polygon class="st8" points="1045.4,2241.2 1042.2,2235.8 1044.4,2231.1 1049.2,2230.2 1052.2,2231.7 1053.9,2234 1054.3,2238.6
			1051.3,2240.7 1048.4,2242.3 		"/>
            <polygon class="st9" points="1757.8,2016.5 1762.7,2008.8 1770.3,2008.5 1774.5,2014 1774.6,2019 1772.8,2022.6 1767.1,2026.2
			1762.4,2023.8 1758.4,2021 		"/>
            <polygon class="st8" points="924.5,3658.8 931.1,3648.3 941.3,3648 947.1,3655.4 947.2,3662.1 944.7,3667 937.1,3671.9
			930.7,3668.6 925.3,3664.9 		"/>
            <polygon class="st9" points="355.3,3037.7 361.9,3027.2 372.1,3026.9 377.9,3034.3 378,3041 375.5,3045.9 367.9,3050.8
			361.5,3047.5 356.1,3043.8 		"/>
            <polygon class="st7" points="531.6,3376.6 538.3,3366.1 548.5,3365.8 554.3,3373.2 554.4,3379.9 551.9,3384.8 544.3,3389.7
			537.9,3386.4 532.5,3382.7 		"/>
            <polygon class="st8" points="1054.4,2968.1 1051.2,2962.6 1053.5,2957.9 1058.2,2957 1061.2,2958.6 1062.9,2960.8 1063.3,2965.4
			1060.3,2967.6 1057.4,2969.2 		"/>
            <polygon class="st9" points="1559.2,2911.5 1564.1,2903.7 1571.6,2903.5 1575.9,2909 1576,2913.9 1574.1,2917.6 1568.5,2921.2
			1563.8,2918.7 1559.8,2916 		"/>
            <polygon class="st8" points="678.7,3892.4 685.4,3881.9 695.5,3881.6 701.4,3889 701.5,3895.7 699,3900.6 691.4,3905.5
			685,3902.2 679.5,3898.5 		"/>
            <polygon class="st9" points="1254.9,3806.5 1261.5,3796 1271.7,3795.7 1277.5,3803.1 1277.6,3809.8 1275.1,3814.7 1267.5,3819.6
			1261.1,3816.3 1255.7,3812.6 		"/>
            <polygon class="st8" points="1689.5,3635.4 1686.3,3629.9 1688.6,3625.2 1693.3,3624.3 1696.4,3625.9 1698,3628.1 1698.4,3632.7
			1695.4,3634.9 1692.5,3636.5 		"/>
            <polygon class="st9" points="328,3725.8 332.9,3718 340.5,3717.8 344.8,3723.3 344.8,3728.2 343,3731.9 337.4,3735.5 332.6,3733
			328.6,3730.3 		"/>
            <polygon class="st8" points="694.7,3771.9 701.4,3761.4 711.5,3761.1 717.4,3768.5 717.5,3775.2 715,3780.1 707.4,3785
			701,3781.7 695.5,3778 		"/>
            <polygon class="st9" points="1209.8,4246.1 1216.4,4235.6 1226.6,4235.3 1232.4,4242.7 1232.5,4249.4 1230,4254.3 1222.4,4259.2
			1216,4255.9 1210.6,4252.2 		"/>
            <polygon class="st8" points="257.7,4134.2 254.4,4128.8 256.7,4124.1 261.4,4123.2 264.5,4124.7 266.1,4127 266.6,4131.6
			263.6,4133.7 260.6,4135.3 		"/>
            <polygon class="st9" points="1643.9,4137.5 1648.8,4129.8 1656.4,4129.5 1660.7,4135 1660.8,4140 1658.9,4143.6 1653.3,4147.2
			1648.5,4144.8 1644.5,4142.1 		"/>
            <polygon class="st8" points="667.8,5752.1 674.5,5741.6 684.7,5741.3 690.5,5748.7 690.6,5755.4 688.1,5760.3 680.5,5765.2
			674.1,5761.9 668.7,5758.2 		"/>
            <polygon class="st9" points="434.8,5482.7 441.5,5472.2 451.7,5471.9 457.5,5479.3 457.6,5486 455.1,5490.9 447.5,5495.8
			441.1,5492.5 435.7,5488.8 		"/>
            <polygon class="st7" points="889,4181.3 895.6,4170.8 905.8,4170.5 911.6,4177.9 911.7,4184.6 909.2,4189.5 901.6,4194.4
			895.2,4191.1 889.8,4187.4 		"/>
            <polygon class="st8" points="1027.5,5340.9 1024.3,5335.4 1026.5,5330.7 1031.3,5329.8 1034.3,5331.4 1036,5333.6 1036.4,5338.2
			1033.4,5340.4 1030.5,5342 		"/>
            <polygon class="st9" points="1832.3,4601.2 1837.1,4593.4 1844.7,4593.2 1849,4598.7 1849.1,4603.6 1847.2,4607.3 1841.6,4610.9
			1836.8,4608.4 1832.8,4605.7 		"/>
            <polygon class="st8" points="889,4089.4 895.6,4078.9 905.8,4078.6 911.6,4086 911.7,4092.7 909.2,4097.6 901.6,4102.5
			895.2,4099.2 889.8,4095.5 		"/>
            <polygon class="st9" points="570.3,4280.3 576.9,4269.8 587.1,4269.5 592.9,4276.9 593,4283.6 590.5,4288.5 582.9,4293.4
			576.5,4290.1 571.1,4286.4 		"/>
            <polygon class="st8" points="1022.2,4092.3 1018.9,4086.8 1021.2,4082.1 1025.9,4081.2 1029,4082.7 1030.6,4085 1031,4089.6
			1028.1,4091.8 1025.1,4093.3 		"/>
            <polygon class="st9" points="1019.3,4146.8 1024.2,4139 1031.7,4138.8 1036,4144.3 1036.1,4149.2 1034.2,4152.8 1028.6,4156.5
			1023.9,4154 1019.9,4151.3 		"/>
            <polygon class="st8" points="889,4089.4 895.6,4078.9 905.8,4078.6 911.6,4086 911.7,4092.7 909.2,4097.6 901.6,4102.5
			895.2,4099.2 889.8,4095.5 		"/>
            <polygon class="st9" points="1263.4,5611.7 1270,5601.2 1280.2,5600.9 1286,5608.3 1286.1,5615 1283.6,5619.9 1276,5624.8
			1269.6,5621.5 1264.2,5617.8 		"/>
            <polygon class="st8" points="1022.2,4092.3 1018.9,4086.8 1021.2,4082.1 1025.9,4081.2 1029,4082.7 1030.6,4085 1031,4089.6
			1028.1,4091.8 1025.1,4093.3 		"/>
            <polygon class="st9" points="855.3,5532.9 860.1,5525.1 867.7,5524.9 872,5530.4 872.1,5535.3 870.2,5539 864.6,5542.6
			859.8,5540.1 855.8,5537.4 		"/>
            <polygon class="st8" points="1336,4024.4 1342.6,4013.9 1352.8,4013.6 1358.6,4021 1358.7,4027.7 1356.2,4032.6 1348.6,4037.5
			1342.2,4034.2 1336.8,4030.5 		"/>
            <polygon class="st9" points="84.8,5447.3 91.5,5436.8 101.7,5436.5 107.5,5443.9 107.6,5450.6 105.1,5455.5 97.5,5460.4
			91.1,5457.1 85.7,5453.4 		"/>
            <polygon class="st8" points="1448.7,4101.3 1445.5,4095.8 1447.7,4091.1 1452.5,4090.2 1455.5,4091.7 1457.2,4094 1457.6,4098.6
			1454.6,4100.8 1451.7,4102.3 		"/>
            <polygon class="st9" points="1443,4258.3 1447.8,4250.5 1455.4,4250.3 1459.7,4255.8 1459.8,4260.8 1457.9,4264.4 1452.3,4268
			1447.6,4265.6 1443.6,4262.8 		"/>
            <polygon class="st8" points="1370.7,4587.3 1377.3,4576.8 1387.5,4576.5 1393.3,4583.9 1393.4,4590.6 1390.9,4595.5
			1383.3,4600.4 1376.9,4597.1 1371.5,4593.4 		"/>
            <polygon class="st9" points="1380.8,4978.5 1387.4,4968 1397.6,4967.7 1403.4,4975.1 1403.5,4981.8 1401,4986.7 1393.4,4991.6
			1387,4988.3 1381.6,4984.6 		"/>
            <polygon class="st8" points="1683.5,5322.6 1680.3,5317.1 1682.5,5312.4 1687.2,5311.5 1690.3,5313 1691.9,5315.3 1692.4,5319.9
			1689.4,5322 1686.4,5323.6 		"/>
            <polygon class="st9" points="1078.2,5585.1 1083,5577.4 1090.6,5577.1 1094.9,5582.6 1095,5587.6 1093.1,5591.2 1087.5,5594.8
			1082.7,5592.4 1078.7,5589.6 		"/>
            <polygon class="st8" points="590.6,5405.2 597.2,5394.7 607.4,5394.4 613.2,5401.8 613.3,5408.5 610.8,5413.4 603.2,5418.3
			596.8,5415 591.4,5411.3 		"/>
            <polygon class="st9" points="1459.9,5695.6 1466.5,5685.1 1476.7,5684.8 1482.5,5692.2 1482.6,5698.9 1480.1,5703.8
			1472.5,5708.7 1466.1,5705.4 1460.7,5701.7 		"/>
            <polygon class="st8" points="1469.2,4675.3 1465.9,4669.8 1468.2,4665.1 1472.9,4664.2 1476,4665.7 1477.6,4668 1478,4672.6
			1475.1,4674.8 1472.1,4676.3 		"/>
            <polygon class="st9" points="1690,5417 1694.9,5409.2 1702.5,5409 1706.8,5414.5 1706.8,5419.4 1705,5423 1699.4,5426.7
			1694.6,5424.2 1690.6,5421.5 		"/>
            <polygon class="st8" points="1336,4672.4 1342.6,4661.9 1352.8,4661.6 1358.6,4669 1358.7,4675.7 1356.2,4680.6 1348.6,4685.5
			1342.2,4682.2 1336.8,4678.5 		"/>
            <polygon class="st9" points="1772.6,5524.9 1779.2,5514.4 1789.3,5514.1 1795.2,5521.5 1795.3,5528.2 1792.8,5533.1 1785.2,5538
			1778.8,5534.7 1773.3,5531 		"/>
            <polygon class="st8" points="1577.9,5543 1574.7,5537.6 1576.9,5532.9 1581.7,5532 1584.7,5533.5 1586.4,5535.8 1586.8,5540.4
			1583.8,5542.5 1580.9,5544.1 		"/>
            <polygon class="st9" points="1466.3,4729.8 1471.2,4722 1478.7,4721.8 1483,4727.3 1483.1,4732.2 1481.2,4735.8 1475.6,4739.5
			1470.9,4737 1466.9,4734.3 		"/>
            <polygon class="st8" points="1393,4769.4 1399.6,4758.9 1409.8,4758.6 1415.6,4766 1415.7,4772.7 1413.2,4777.6 1405.6,4782.5
			1399.2,4779.2 1393.8,4775.5 		"/>
            <polygon class="st9" points="679.2,5478.9 685.8,5468.4 696,5468.1 701.8,5475.5 701.9,5482.2 699.4,5487.1 691.8,5492
			685.4,5488.7 680,5485 		"/>
            <polygon class="st8" points="927.4,5650.3 924.2,5644.8 926.4,5640.1 931.2,5639.2 934.2,5640.8 935.9,5643 936.3,5647.6
			933.3,5649.8 930.4,5651.4 		"/>
            <polygon class="st9" points="1523.3,4826.8 1528.2,4819 1535.7,4818.8 1540,4824.3 1540.1,4829.2 1538.2,4832.8 1532.6,4836.5
			1527.9,4834 1523.9,4831.3 		"/>
            <polygon class="st8" points="243.1,4729.5 249.7,4719 259.9,4718.7 265.7,4726.1 265.8,4732.8 263.3,4737.7 255.7,4742.6
			249.3,4739.3 243.9,4735.6 		"/>
            <polygon class="st9" points="410.3,4461.2 416.9,4450.7 427.1,4450.4 432.9,4457.8 433,4464.5 430.5,4469.4 422.9,4474.3
			416.5,4471 411.1,4467.3 		"/>
            <polygon class="st8" points="1906.2,4872.3 1902.9,4866.8 1905.2,4862.1 1909.9,4861.2 1913,4862.7 1914.6,4865 1915,4869.6
			1912.1,4871.8 1909.1,4873.3 		"/>
            <polygon class="st9" points="260.8,4902.1 265.7,4894.4 273.2,4894.1 277.5,4899.6 277.6,4904.6 275.7,4908.2 270.1,4911.8
			265.4,4909.4 261.4,4906.6 		"/>
            <polygon class="st8" points="1766.4,4930.5 1773,4920 1783.2,4919.7 1789,4927.1 1789.1,4933.8 1786.6,4938.7 1779,4943.6
			1772.6,4940.3 1767.2,4936.6 		"/>
            <polygon class="st9" points="231.7,5245.9 238.3,5235.4 248.5,5235.1 254.3,5242.5 254.4,5249.2 251.9,5254.1 244.3,5259
			237.9,5255.7 232.5,5252 		"/>
            <polygon class="st8" points="1866.2,4876.3 1862.9,4870.8 1865.2,4866.1 1869.9,4865.2 1873,4866.7 1874.6,4869 1875,4873.6
			1872.1,4875.8 1869.1,4877.3 		"/>
            <polygon class="st9" points="1863.3,4930.8 1868.2,4923 1875.7,4922.8 1880,4928.3 1880.1,4933.2 1878.2,4936.8 1872.6,4940.5
			1867.9,4938 1863.9,4935.3 		"/>
            <polygon class="st8" points="1219,4387.4 1225.6,4376.9 1235.8,4376.6 1241.6,4384 1241.7,4390.7 1239.2,4395.6 1231.6,4400.5
			1225.2,4397.2 1219.8,4393.5 		"/>
            <polygon class="st9" points="1254.9,4559.3 1261.5,4548.8 1271.7,4548.5 1277.5,4555.9 1277.6,4562.6 1275.1,4567.5
			1267.5,4572.4 1261.1,4569.1 1255.7,4565.4 		"/>
            <polygon class="st8" points="1352.2,4390.3 1348.9,4384.8 1351.2,4380.1 1355.9,4379.2 1359,4380.7 1360.6,4383 1361,4387.6
			1358.1,4389.8 1355.1,4391.3 		"/>
            <polygon class="st9" points="1349.3,4444.8 1354.2,4437 1361.7,4436.8 1366,4442.3 1366.1,4447.2 1364.2,4450.8 1358.6,4454.5
			1353.9,4452 1349.9,4449.3 		"/>
        </g>
    </g>
    <g id="Mikroplastik">
        <g id="Teilchen">
            <polygon class="st9" points="739.9,1972 745.6,1964.5 756.7,1972.9 		"/>
            <polygon class="st9" points="763.8,1988.9 756.7,1972.9 769.4,1978.3 		"/>
            <polygon class="st8" points="745.6,1964.5 769.1,1963.9 756.7,1972.9 		"/>
            <polygon class="st7" points="769.4,1978.3 756.7,1972.9 769.1,1963.9 		"/>
            <polygon class="st9" points="745.6,1964.5 756.6,1947.9 769.1,1963.9 		"/>
            <polygon class="st8" points="739.9,1972 763.8,1988.9 756.7,1972.9 		"/>
            <polygon class="st7" points="747.5,1999.5 739.9,1972 763.8,1988.9 		"/>
            <polygon class="st8" points="756.6,1947.9 734.5,1948.5 745.6,1964.5 		"/>
            <polygon class="st7" points="739.9,1972 745.6,1964.5 734.5,1948.5 		"/>
            <polygon class="st8" points="720.3,1971.3 734.5,1948.5 739.9,1972 		"/>
            <polygon class="st7" points="722,1984.5 720.3,1971.3 739.9,1972 		"/>
            <polygon class="st8" points="747.5,1999.5 733.7,1992.4 739.9,1972 		"/>
            <polygon class="st9" points="722,1984.5 739.9,1972 733.7,1992.4 		"/>
        </g>
        <g id="pulse">
            <path class="st10" d="M793.9,2004.8c13.8-6.9,22.8-18.3,22.8-31.1c0-12.8-9-24.2-22.8-31.1"/>
            <path class="st10" d="M776,2022.7c-8.8,4.4-19.5,7-31.1,7s-22.3-2.6-31.1-7"/>
            <path class="st10" d="M713.8,1924.7c8.8-4.4,19.5-7,31.1-7s22.3,2.6,31.1,7"/>
            <path class="st10" d="M695.9,1942.6c-13.8,6.9-22.8,18.3-22.8,31.1c0,12.8,9,24.2,22.8,31.1"/>
            <path class="st10" d="M723.1,2012.5c6.1,3.1,13.6,4.9,21.7,4.9s15.6-1.8,21.7-4.9"/>
            <path class="st10" d="M706.1,1952c-9.7,4.8-16,12.8-16,21.7s6.3,16.9,16,21.7"/>
            <path class="st10" d="M766.6,1935c-6.1-3.1-13.6-4.9-21.7-4.9s-15.6,1.8-21.7,4.9"/>
            <path class="st10" d="M783.6,1995.5c9.7-4.8,16-12.8,16-21.7s-6.3-16.9-16-21.7"/>
            <path class="st11" d="M715.3,1944.1"/>
            <path class="st11" d="M698.3,1927.2"/>
            <path class="st11" d="M766.6,1995.5"/>
            <path class="st11" d="M774.5,2003.3"/>
        </g>
    </g>
    <g id="fishy">
        <g id="fish">
            <polygon class="st12" points="1112.4,3029.6 1244,3024.8 1185.5,3052.8 		"/>
            <polygon class="st13" points="1154.5,3067.6 1185.5,3052.8 1112.4,3029.6 		"/>
            <polygon class="st14" points="1088.6,3159.7 1290.5,3162.3 1244,3024.8 		"/>
            <polygon class="st15" points="1030.4,3127.1 1088.6,3159.7 1244,3024.8 		"/>
            <polygon class="st16" points="863.7,3040.1 1008,3145.8 1030.4,3127.1 		"/>
            <polygon class="st17" points="976.6,3171.6 1008,3145.8 863.7,3040.1 		"/>
            <polygon class="st18" points="1013.7,3190.6 976.6,3171.6 901.1,3304.4 		"/>
            <polygon class="st19" points="1053.1,3207.4 1013.7,3190.6 901.1,3304.4 		"/>
            <polygon class="st20" points="1088.6,3159.7 1008,3145.8 1030.4,3127.1 		"/>
            <polygon class="st21" points="976.6,3171.6 1088.6,3159.7 1008,3145.8 		"/>
            <polygon class="st16" points="1013.7,3190.6 1088.6,3159.7 976.6,3171.6 		"/>
            <polygon class="st22" points="1053.1,3207.4 1088.6,3159.7 1013.7,3190.6 		"/>
            <polygon class="st23" points="1216.7,3276.6 1088.6,3159.7 1053.1,3207.4 		"/>
            <polyline class="st13" points="1095.4,3357.1 1136.3,3242.5 1172.7,3258 1095.4,3357.1 		"/>
            <polyline class="st24" points="1095.4,3357.1 1216.7,3276.6 1172.7,3258 1095.4,3357.1 		"/>
            <polygon class="st25" points="1290.5,3162.3 1216.7,3276.6 1088.6,3159.7 		"/>
            <polygon class="st26" points="1379.4,3163.7 1290.5,3162.3 1216.7,3276.6 1404.5,3185 		"/>
            <polygon class="st27" points="1244,3024.8 1379.4,3163.7 1290.5,3162.3 		"/>
            <polyline class="st28" points="1244,3024.8 1403.4,3135.4 1379.4,3163.7 1290.5,3162.3 1244,3024.8 		"/>
            <g>
                <ellipse class="st29" cx="1298.1" cy="3126.3" rx="31.8" ry="34.5"/>
                <ellipse class="st30" cx="1298.1" cy="3119.6" rx="21.7" ry="23"/>
                <ellipse class="st31" cx="1300.6" cy="3117" rx="12.5" ry="13.1"/>
                <circle class="st32" cx="1304" cy="3112.8" r="4.2"/>
            </g>
            <polygon class="st33" points="1290.5,3162.3 1379.4,3163.7 1216.7,3276.6 		"/>
        </g>
        <g id="pulse_1_">
            <path class="st10" d="M1436.1,3365.8c89.6-44.7,148.2-118.5,148.2-201.9s-58.5-157.1-148.2-201.9"/>
            <path class="st10" d="M1319.9,3481.9c-57,28.5-126.7,45.2-201.9,45.2c-75.2,0-144.8-16.7-201.9-45.2"/>
            <path class="st10" d="M916.2,2845.9c57-28.5,126.7-45.2,201.9-45.2c75.2,0,144.8,16.7,201.9,45.2"/>
            <path class="st10" d="M800.1,2962c-89.6,44.7-148.2,118.5-148.2,201.9s58.5,157.1,148.2,201.9"/>
            <path class="st10" d="M976.9,3415.5c39.9,19.9,88.6,31.6,141.2,31.6c52.6,0,101.3-11.7,141.2-31.6"/>
            <path class="st10" d="M866.5,3022.8c-62.7,31.3-103.6,82.8-103.6,141.2s40.9,109.9,103.6,141.2"/>
            <path class="st10" d="M1259.2,2912.3c-39.9-19.9-88.6-31.6-141.2-31.6c-52.6,0-101.3,11.7-141.2,31.6"/>
            <path class="st10" d="M1369.7,3305.1c62.7-31.3,103.6-82.8,103.6-141.2s-40.9-109.9-103.6-141.2"/>
            <path class="st11" d="M926,2971.9"/>
            <path class="st11" d="M815.8,2861.7"/>
            <path class="st11" d="M1259.2,3305.1"/>
            <path class="st11" d="M1310.1,3356"/>
        </g>
    </g>
    <g id="mehr_Fische">
        <g id="fish_1_">
            <polygon class="st12" points="1424.9,5421.9 1414.9,5413.7 1440.2,5421 		"/>
            <polygon class="st13" points="1440.2,5421 1424.9,5421.9 1430.2,5426.3 		"/>
            <polygon class="st14" points="1414.9,5413.7 1399.4,5438.1 1438.5,5447.3 		"/>
            <polygon class="st15" points="1414.9,5413.7 1438.5,5447.3 1451.4,5443.8 		"/>
            <polygon class="st16" points="1451.4,5443.8 1454.8,5448.5 1487.8,5434.9 		"/>
            <polygon class="st17" points="1487.8,5434.9 1454.8,5448.5 1459.6,5454.9 		"/>
            <polygon class="st18" points="1467.9,5484.3 1459.6,5454.9 1451.5,5456.8 		"/>
            <polygon class="st19" points="1467.9,5484.3 1451.5,5456.8 1443.1,5458.2 		"/>
            <polygon class="st20" points="1451.4,5443.8 1454.8,5448.5 1438.5,5447.3 		"/>
            <polygon class="st21" points="1454.8,5448.5 1438.5,5447.3 1459.6,5454.9 		"/>
            <polygon class="st16" points="1459.6,5454.9 1438.5,5447.3 1451.5,5456.8 		"/>
            <polygon class="st22" points="1451.5,5456.8 1438.5,5447.3 1443.1,5458.2 		"/>
            <polygon class="st23" points="1443.1,5458.2 1438.5,5447.3 1408.2,5463.7 		"/>
            <polyline class="st13" points="1427.8,5485.1 1417.6,5462.3 1425.3,5461 1427.8,5485.1 		"/>
            <polyline class="st24" points="1427.8,5485.1 1417.6,5462.3 1408.2,5463.7 1427.8,5485.1 		"/>
            <polygon class="st25" points="1438.5,5447.3 1408.2,5463.7 1399.4,5438.1 		"/>
            <polygon class="st26" points="1376.2,5437 1408.2,5463.7 1399.4,5438.1 1382.1,5434.1 		"/>
            <polygon class="st27" points="1399.4,5438.1 1382.1,5434.1 1414.9,5413.7 		"/>
            <polyline class="st28" points="1414.9,5413.7 1399.4,5438.1 1382.1,5434.1 1378.8,5427.5 1414.9,5413.7 		"/>
            <g>

                <ellipse transform="matrix(0.2407 -0.9706 0.9706 0.2407 -4208.3672 5482.0195)" class="st29" cx="1399.6" cy="5430.8" rx="6.9" ry="6.3"/>

                <ellipse transform="matrix(0.2407 -0.9706 0.9706 0.2407 -4206.8652 5481.3477)" class="st30" cx="1399.9" cy="5429.5" rx="4.6" ry="4.3"/>

                <ellipse transform="matrix(0.2407 -0.9706 0.9706 0.2407 -4206.5332 5480.5259)" class="st31" cx="1399.6" cy="5428.8" rx="2.6" ry="2.5"/>

                <ellipse transform="matrix(0.2407 -0.9706 0.9706 0.2407 -4205.9326 5479.3423)" class="st32" cx="1399.1" cy="5427.9" rx="0.8" ry="0.8"/>
            </g>
            <polygon class="st33" points="1408.2,5463.7 1382.1,5434.1 1399.4,5438.1 		"/>
        </g>
        <g>
            <polygon class="st33" points="356,1100.7 391.2,1095.8 333.8,1150.4 		"/>
            <polygon class="st12" points="277.4,1059.1 329.2,1049.2 307.8,1063.8 		"/>
            <polygon class="st13" points="296.4,1071.5 307.8,1063.8 277.4,1059.1 		"/>
            <polygon class="st14" points="276,1112 356,1100.7 329.2,1049.2 		"/>
            <polygon class="st15" points="251,1102.7 276,1112 329.2,1049.2 		"/>
            <polygon class="st16" points="179.8,1078.5 243.3,1111.4 251,1102.7 		"/>
            <polygon class="st17" points="232.5,1123.6 243.3,1111.4 179.8,1078.5 		"/>
            <polygon class="st18" points="248.3,1128.8 232.5,1123.6 210.7,1180.7 		"/>
            <polygon class="st19" points="264.9,1133 248.3,1128.8 210.7,1180.7 		"/>
            <polygon class="st20" points="276,1112 243.3,1111.4 251,1102.7 		"/>
            <polygon class="st21" points="232.5,1123.6 276,1112 243.3,1111.4 		"/>
            <polygon class="st16" points="248.3,1128.8 276,1112 232.5,1123.6 		"/>
            <polygon class="st22" points="264.9,1133 276,1112 248.3,1128.8 		"/>
            <polygon class="st23" points="333.8,1150.4 276,1112 264.9,1133 		"/>
            <polyline class="st13" points="290.8,1189.6 299.9,1141.8 315.3,1145.7 290.8,1189.6 		"/>
            <polyline class="st24" points="290.8,1189.6 333.8,1150.4 315.3,1145.7 290.8,1189.6 		"/>
            <polygon class="st25" points="356,1100.7 333.8,1150.4 276,1112 		"/>
            <polygon class="st26" points="391.2,1095.8 356,1100.7 333.8,1150.4 404.5,1095 		"/>
            <polygon class="st27" points="329.2,1049.2 391.2,1095.8 356,1100.7 		"/>
            <polyline class="st28" points="329.2,1049.2 404.5,1095 391.2,1095.8 356,1100.7 329.2,1049.2 		"/>

            <ellipse transform="matrix(0.9882 -0.1531 0.1531 0.9882 -163.1893 65.9195)" class="st29" cx="346.5" cy="1092.8" rx="12.7" ry="13.8"/>

            <ellipse transform="matrix(0.9882 -0.1531 0.1531 0.9882 -162.7888 65.8255)" class="st30" cx="346.1" cy="1090.1" rx="8.7" ry="9.2"/>

            <ellipse transform="matrix(0.9882 -0.1531 0.1531 0.9882 -162.5983 65.9385)" class="st31" cx="346.9" cy="1089" rx="5" ry="5.2"/>

            <ellipse transform="matrix(0.9882 -0.1531 0.1531 0.9882 -162.2995 66.0828)" class="st32" cx="348" cy="1087.1" rx="1.7" ry="1.7"/>
        </g>
        <g>
            <polygon class="st34" points="491.2,3801.9 453.7,3770.9 548.7,3798.2 		"/>
            <polygon class="st35" points="548.7,3798.2 491.2,3801.9 511.2,3818.3 		"/>
            <polygon class="st36" points="453.7,3770.9 394.9,3862.8 542.5,3897.4 		"/>
            <polygon class="st37" points="453.7,3770.9 542.5,3897.4 590.8,3884.1 		"/>
            <polygon class="st38" points="590.8,3884.1 603.8,3901.8 728.1,3850.8 		"/>
            <polygon class="st39" points="728.1,3850.8 603.8,3901.8 622,3926.3 		"/>
            <polygon class="st40" points="653,4036.7 622,3926.3 591.5,3933.4 		"/>
            <polygon class="st41" points="653,4036.7 591.5,3933.4 559.8,3938.5 		"/>
            <polygon class="st42" points="590.8,3884.1 603.8,3901.8 542.5,3897.4 		"/>
            <polygon class="st37" points="603.8,3901.8 542.5,3897.4 622,3926.3 		"/>
            <polygon class="st43" points="622,3926.3 542.5,3897.4 591.5,3933.4 		"/>
            <polygon class="st42" points="591.5,3933.4 542.5,3897.4 559.8,3938.5 		"/>
            <polygon class="st44" points="559.8,3938.5 542.5,3897.4 428,3959.4 		"/>
            <polyline class="st35" points="501.9,4040 463.5,3953.8 492.8,3949.1 501.9,4040 		"/>
            <polyline class="st34" points="501.9,4040 463.5,3953.8 428,3959.4 501.9,4040 		"/>
            <polygon class="st45" points="542.5,3897.4 428,3959.4 394.9,3862.8 		"/>
            <polygon class="st46" points="307.7,3858.7 428,3959.4 394.9,3862.8 329.9,3847.7 		"/>
            <polygon class="st27" points="394.9,3862.8 329.9,3847.7 453.7,3770.9 		"/>
            <polyline class="st47" points="453.7,3770.9 394.9,3862.8 329.9,3847.7 317.5,3822.7 453.7,3770.9 		"/>
            <g>

                <ellipse transform="matrix(0.2407 -0.9706 0.9706 0.2407 -3421.7881 3296.2559)" class="st29" cx="395.9" cy="3835.1" rx="25.9" ry="23.9"/>

                <ellipse transform="matrix(0.2407 -0.9706 0.9706 0.2407 -3416.1289 3293.7236)" class="st30" cx="397.1" cy="3830.3" rx="17.3" ry="16.3"/>

                <ellipse transform="matrix(0.2407 -0.9706 0.9706 0.2407 -3414.8777 3290.6292)" class="st31" cx="395.7" cy="3827.9" rx="9.8" ry="9.4"/>

                <ellipse transform="matrix(0.2407 -0.9706 0.9706 0.2407 -3412.6152 3286.1699)" class="st32" cx="394" cy="3824.2" rx="3.2" ry="3.2"/>
            </g>
            <polygon class="st48" points="428,3959.4 329.9,3847.7 394.9,3862.8 		"/>
        </g>
        <g>
            <polygon class="st34" points="1490.7,1500.1 1497.3,1499.3 1484.5,1495.5 		"/>
            <polygon class="st35" points="1484.5,1495.5 1490.7,1500.1 1487.3,1500.5 		"/>
            <polygon class="st36" points="1497.3,1499.3 1497.3,1514 1477.9,1507.2 		"/>
            <polygon class="st37" points="1497.3,1499.3 1477.9,1507.2 1473.4,1502.2 		"/>
            <polygon class="st38" points="1473.4,1502.2 1470.6,1503.3 1460.2,1488.4 		"/>
            <polygon class="st39" points="1460.2,1488.4 1470.6,1503.3 1466.8,1504.7 		"/>
            <polygon class="st40" points="1455.2,1515.1 1466.8,1504.7 1469.7,1507.8 		"/>
            <polygon class="st41" points="1455.2,1515.1 1469.7,1507.8 1473,1510.7 		"/>
            <polygon class="st42" points="1473.4,1502.2 1470.6,1503.3 1477.9,1507.2 		"/>
            <polygon class="st37" points="1470.6,1503.3 1477.9,1507.2 1466.8,1504.7 		"/>
            <polygon class="st43" points="1466.8,1504.7 1477.9,1507.2 1469.7,1507.8 		"/>
            <polygon class="st42" points="1469.7,1507.8 1477.9,1507.2 1473,1510.7 		"/>
            <polygon class="st44" points="1473,1510.7 1477.9,1507.2 1486.5,1522.6 		"/>
            <polyline class="st35" points="1472.2,1526.4 1482.8,1519.4 1479.8,1516.7 1472.2,1526.4 		"/>
            <polyline class="st34" points="1472.2,1526.4 1482.8,1519.4 1486.5,1522.6 1472.2,1526.4 		"/>
            <polygon class="st45" points="1477.9,1507.2 1486.5,1522.6 1497.3,1514 		"/>
            <polygon class="st46" points="1507.5,1519.9 1486.5,1522.6 1497.3,1514 1505.8,1517 		"/>
            <polygon class="st27" points="1497.3,1514 1505.8,1517 1497.3,1499.3 		"/>
            <polyline class="st47" points="1497.3,1499.3 1497.3,1514 1505.8,1517 1509,1515.1 1497.3,1499.3 		"/>
            <g>

                <ellipse transform="matrix(0.3195 -0.9476 0.9476 0.3195 -411.4137 2448.7463)" class="st29" cx="1499.2" cy="1510.8" rx="3.5" ry="3.2"/>

                <ellipse transform="matrix(0.3195 -0.9476 0.9476 0.3195 -410.6552 2448.5137)" class="st30" cx="1499.4" cy="1510.2" rx="2.3" ry="2.2"/>

                <ellipse transform="matrix(0.3195 -0.9476 0.9476 0.3195 -410.274 2448.7065)" class="st31" cx="1499.7" cy="1510" rx="1.3" ry="1.3"/>

                <ellipse transform="matrix(0.3195 -0.9476 0.9476 0.3195 -409.6805 2448.9456)" class="st32" cx="1500.2" cy="1509.7" rx="0.4" ry="0.4"/>
            </g>
            <polygon class="st48" points="1486.5,1522.6 1505.8,1517 1497.3,1514 		"/>
        </g>
    </g>
    <g id="Footer">
        <rect x="1787.6" y="5733.5" class="st1" width="188.7" height="47.5"/>
        <text transform="matrix(1 0 0 1 1787.6349 5762.6611)" class="st2 st3 st49">Quellen</text>
        <text transform="matrix(1 0 0 1 50.3 5757.231)" class="st2 st50 st49"> Myriam Frisano &amp; Maja Gobeli  2017</text>
    </g>
    <g id="Fazit">
        <rect x="234.2" y="4641.5" class="st1" width="1601.1" height="605.5"/>
        <text id="Klapptext_1_" transform="matrix(1 0 0 1 234.1995 4674.3257)">
            <tspan x="0" y="0" class="st2 st3 st4">Obwohl genaue Daten zu Auswirkungen auf Menschen und Tiere noch
            </tspan>
            <tspan x="0" y="54" class="st2 st3 st4">fehlen, gilt es, prventiv der weiteren Verschmutzung entgegenzuwirk</tspan>
            <tspan x="1553.9" y="54" class="st2 st3 st4">-</tspan>
            <tspan x="0" y="108" class="st2 st3 st4">en. Es gestaltet sich sehr schwierig, Mikroplastik wieder aus der
            </tspan>
            <tspan x="0" y="162" class="st2 st3 st4">Umwelt zu entfernen. Plastik zersetzt sich niemals vollstndig, sondern
            </tspan>
            <tspan x="0" y="216" class="st2 st3 st4">fragmentiert nur zu immer kleineren Partikeln, die ihrerseits neue Ge</tspan>
            <tspan x="1535" y="216" class="st2 st3 st4">-</tspan>
            <tspan x="0" y="270" class="st2 st3 st4">fahren hervorrufen.
            </tspan>
            <tspan x="0" y="378" class="st2 st3 st4">Sofort wirksam werden eine stetige Verbesserung des Abfallmanage</tspan>
            <tspan x="1520.2" y="378" class="st2 st3 st4">-</tspan>
            <tspan x="0" y="432" class="st2 st3 st4">ments sowie der Abwasser-Reinigungssysteme. Langfristig ist die ein</tspan>
            <tspan x="1537.7" y="432" class="st2 st3 st4">-</tspan>
            <tspan x="0" y="486" class="st2 st3 st4">zige Lsung eine Entwicklung hin zu einer zirkulren Wirtschaft mit
            </tspan>
            <tspan x="0" y="540" class="st2 st3 st4">mehr Wiederverwertung und weniger Einwegverpackungen.</tspan>
        </text>
        <rect x="224" y="4295.6" class="st1" width="1614" height="267"/>
        <text transform="matrix(1 0 0 1 224.0211 4328.4121)">
            <tspan x="0" y="0" class="st2 st3 st4">FAZIT</tspan>
            <tspan x="0" y="54" class="st2 st3 st4">Die weltweit steigende Plastikverschmutzung der Meere stellt eine
            </tspan>
            <tspan x="0" y="108" class="st2 st3 st4">Bedrohung fr das ganze kosystem dar.
            </tspan>
            <tspan x="0" y="162" class="st2 st3 st4">Durch ein bewusstes Konsumverhalten kann jeder Einzelne zur Reduk</tspan>
            <tspan x="1556.8" y="162" class="st2 st3 st4">-</tspan>
            <tspan x="0" y="216" class="st2 st3 st4">tion der Plastikverschmutzung beitragen.</tspan>
        </text>
    </g>
    <g id="MP_grossgezogen" class="st51">
        <g id="Teilchen_1_" class="st52">
            <polygon class="st9" points="668.9,1989 737.9,1898.1 872.5,1999.9 		"/>
            <polygon class="st9" points="958.5,2193.8 872.5,1999.9 1026.4,2065.3 		"/>
            <polygon class="st8" points="737.9,1898.1 1022.8,1890.8 872.5,1999.9 		"/>
            <polygon class="st7" points="1026.4,2065.3 872.5,1999.9 1022.8,1890.8 		"/>
            <polygon class="st9" points="737.9,1898.1 871.3,1696.9 1022.8,1890.8 		"/>
            <polygon class="st8" points="668.9,1989 958.5,2193.8 872.5,1999.9 		"/>
            <polygon class="st7" points="761,2322.3 668.9,1989 958.5,2193.8 		"/>
            <polygon class="st8" points="871.3,1696.9 603.4,1704.2 737.9,1898.1 		"/>
            <polygon class="st7" points="668.9,1989 737.9,1898.1 603.4,1704.2 		"/>
            <polygon class="st8" points="431.3,1980.5 603.4,1704.2 668.9,1989 		"/>
            <polygon class="st7" points="451.9,2140.5 431.3,1980.5 668.9,1989 		"/>
            <polygon class="st8" points="761,2322.3 593.7,2236.2 668.9,1989 		"/>
            <polygon class="st9" points="451.9,2140.5 668.9,1989 593.7,2236.2 		"/>
        </g>
    </g>
    <g id="Primres_MP">
        <rect x="850.8" y="1701.3" class="st1" width="1015.2" height="319"/>
        <text id="txt_Primres_MP" transform="matrix(1 0 0 1 850.7622 1734.1377)" class="st51">
            <tspan x="0" y="0" class="st53 st3 st4">PRIMRES MIKROPLASTIK</tspan>
            <tspan x="0" y="54" class="st53 st3 st4">Es wird zwischen primrem und sekundrem
            </tspan>
            <tspan x="0" y="108" class="st53 st3 st4">Mikroplastik unterschieden. Als primrer
            </tspan>
            <tspan x="0" y="162" class="st53 st3 st4">Mikroplastik werden jene Partikel bezeichnet,
            </tspan>
            <tspan x="0" y="216" class="st53 st3 st4">die fr ihre Anwendung bereits in
            </tspan>
            <tspan x="0" y="270" class="st53 st3 st4">mikroskopischer Grsse hergestellt werden.</tspan>
        </text>
        <g id="titel_Primres_MP">
            <polygon class="st1" points="1580,1920.3 1082,1920.3 1082,1872.3 1580,1872.3 1580,1896.3 		"/>
            <text transform="matrix(1 0 0 1 1082 1905.1354)" class="st2 st3 st4">Primres Mikroplastik</text>
        </g>
    </g>
    <g id="Sekundres_MP">
        <rect x="1082" y="2043.3" class="st1" width="559" height="44"/>
        <text id="Titel_Sekundres_MP" transform="matrix(1 0 0 1 1082 2076.1885)" class="st2 st3 st4">Sekundres Mikroplastik</text>
        <rect x="850.8" y="1981" class="st1" width="1015.2" height="369.4"/>
        <text id="txt_Sekundres_MP" transform="matrix(1 0 0 1 850.7622 2013.8341)" class="st51">
            <tspan x="0" y="0" class="st53 st3 st4">SEKUNDRES MIKROPLASTIK</tspan>
            <tspan x="0" y="54" class="st53 st3 st4">Plastik, das erst durch mechanische Zer</tspan>
            <tspan x="891.3" y="54" class="st53 st3 st4">-</tspan>
            <tspan x="0" y="108" class="st53 st3 st4">setzung (Abrieb, Zersplitterung etc.) zu Par</tspan>
            <tspan x="955" y="108" class="st53 st3 st4">-</tspan>
            <tspan x="0" y="162" class="st53 st3 st4">tikeln mikroskopischer Grsse wird, nennt
            </tspan>
            <tspan x="0" y="216" class="st53 st3 st4">man sekundres Mikroplastik. Sekundres
            </tspan>
            <tspan x="0" y="270" class="st53 st3 st4">Mikroplastik ist die grssere Quelle fr
            </tspan>
            <tspan x="0" y="324" class="st53 st3 st4">Mikroplastikpartikel im Meer.</tspan>
        </text>
    </g>
    <g id="Pluszeichen">
        <line class="st54" x1="1596.7" y1="1904.6" x2="1596.7" y2="1877"/>
        <line class="st54" x1="1582.9" y1="1890.8" x2="1610.4" y2="1890.8"/>
    </g>
</svg>
